<svg version="1.2" baseProfile="tiny-ps" xmlns="http://www.w3.org/2000/svg" viewBox="0 0 458 372" width="458" height="372">
	<title>Sentado con laptop-svg</title>
	<defs>
		<clipPath clipPathUnits="userSpaceOnUse" id="cp1">
			<path d="M0 0L458 0L458 372L0 372L0 0Z" />
		</clipPath>
	</defs>
	<style>
		tspan { white-space:pre }
		.shp0 { fill: #264a60 } 
		.shp1 { fill: #264a60;stroke: #ffffff;stroke-width: 2 } 
		.shp2 { fill: #174159 } 
		.shp3 { fill: #2e546a } 
		.shp4 { fill: #e3c1a8 } 
		.shp5 { fill: #847363 } 
		.shp6 { fill: #ffffff } 
		.shp7 { fill: #83909a } 
		.shp8 { opacity: 0.529;fill: #a3a6ae } 
		.shp9 { fill: #a3a6ae } 
		.shp10 { fill: #a1a7ab } 
		.shp11 { fill: none } 
		.shp12 { fill: #dd620e } 
		.shp13 { fill: #e76c29 } 
		.shp14 { fill: #7c7b7a } 
		.shp15 { fill: #9b9b9b } 
		.shp16 { fill: none;stroke: #e76c29 } 
	</style>
	<g id="Clip-Path: Sentado_con_laptop" clip-path="url(#cp1)">
		<g id="Sentado_con_laptop">
			<g id="Grupo_2021">
				<g id="Grupo_1817" style="opacity: 0.38">
					<g id="Grupo_1726" style="opacity: 0.549">
						<path id="Trazado_95" fill-rule="evenodd" class="shp0" d="M400.56 193.07C402.33 193.1 404.06 193.65 405.52 194.66C406.98 195.67 408.11 197.09 408.76 198.74C409.41 200.39 409.56 202.2 409.18 203.93C408.8 205.67 407.91 207.25 406.63 208.48C406.21 208.89 405.74 209.25 405.25 209.56C404.75 209.88 404.23 210.14 403.68 210.36C403.13 210.57 402.57 210.73 401.99 210.83C401.41 210.94 400.82 210.98 400.24 210.98C399.65 210.98 399.07 210.92 398.5 210.8C397.92 210.68 397.36 210.51 396.83 210.28C396.29 210.05 395.78 209.76 395.3 209.43C394.82 209.1 394.37 208.71 393.97 208.29C392.73 207.02 391.89 205.41 391.56 203.66C391.24 201.91 391.44 200.1 392.15 198.47C392.85 196.83 394.03 195.45 395.53 194.49C397.03 193.53 398.78 193.03 400.56 193.07L400.56 193.07ZM403.69 205.48C404.14 205.04 404.5 204.52 404.75 203.94C405 203.36 405.13 202.74 405.15 202.11C405.16 201.49 405.05 200.86 404.82 200.28C404.59 199.69 404.25 199.15 403.82 198.7C403.6 198.48 403.37 198.28 403.11 198.1C402.86 197.93 402.58 197.78 402.3 197.66C402.01 197.54 401.72 197.45 401.41 197.38C401.11 197.32 400.8 197.29 400.49 197.29C400.18 197.28 399.87 197.3 399.56 197.35C399.25 197.4 398.95 197.49 398.66 197.6C398.37 197.72 398.09 197.86 397.83 198.04C397.57 198.21 397.32 198.41 397.1 198.63C396.22 199.51 395.72 200.7 395.7 201.95C395.69 203.2 396.17 204.4 397.03 205.3C397.9 206.19 399.08 206.72 400.32 206.75C401.57 206.78 402.78 206.33 403.69 205.48L403.69 205.48Z" />
						<path id="Trazado_96" fill-rule="evenodd" class="shp0" d="M430.22 173.85C430.4 174.14 430.55 174.45 430.67 174.77C430.79 175.08 430.88 175.41 430.94 175.75C430.99 176.08 431.01 176.43 430.99 176.76L430.93 177.79C430.63 182.34 429.84 186.85 428.58 191.23C427.32 195.61 425.58 199.85 423.41 203.86C421.24 207.87 418.64 211.63 415.66 215.09C412.68 218.54 409.33 221.66 405.68 224.4L400.76 228.11L400.57 239.68C400.54 242.04 400.28 244.39 399.79 246.69C399.3 249 398.58 251.25 397.64 253.41C396.71 255.58 395.56 257.64 394.21 259.58C392.87 261.51 391.33 263.31 389.63 264.94L377.03 277.15C376.94 277.26 376.84 277.35 376.73 277.43C376.62 277.52 376.5 277.59 376.37 277.64C376.24 277.7 376.11 277.74 375.97 277.76C375.84 277.79 375.7 277.8 375.56 277.79C375.5 277.8 375.43 277.8 375.36 277.8C375.3 277.79 375.23 277.79 375.17 277.78C375.1 277.76 375.04 277.75 374.98 277.73C374.91 277.71 374.85 277.69 374.79 277.67C374.61 277.58 374.43 277.47 374.27 277.34C374.11 277.21 373.97 277.06 373.86 276.89C373.74 276.72 373.64 276.54 373.57 276.35C373.51 276.15 373.46 275.95 373.45 275.75L372.55 249.4L371.08 250.49C370.99 250.55 370.89 250.61 370.79 250.65C370.68 250.7 370.58 250.74 370.47 250.78C370.36 250.81 370.25 250.83 370.14 250.85C370.03 250.86 369.91 250.87 369.8 250.87C369.71 250.87 369.63 250.86 369.54 250.85C369.45 250.83 369.36 250.82 369.28 250.8C369.19 250.77 369.11 250.75 369.02 250.72C368.94 250.69 368.86 250.65 368.78 250.62C368.14 250.23 367.56 249.91 366.92 249.53C365.9 250.36 364.81 251.25 363.72 252.15C362.25 253.37 360.72 254.65 359.31 255.73C359.22 255.81 359.12 255.87 359.01 255.93C358.9 255.99 358.79 256.03 358.68 256.07C358.57 256.11 358.45 256.14 358.33 256.16C358.21 256.17 358.09 256.18 357.97 256.18C357.89 256.18 357.82 256.17 357.74 256.16C357.66 256.15 357.59 256.14 357.51 256.13C357.44 256.11 357.36 256.09 357.29 256.07C357.21 256.04 357.14 256.02 357.07 255.99C356.35 255.63 355.64 255.24 354.96 254.83C354.27 254.41 353.6 253.96 352.95 253.48C352.3 253.01 351.68 252.5 351.07 251.97C350.47 251.44 349.89 250.88 349.33 250.3C348.79 249.73 348.27 249.15 347.78 248.54C347.28 247.93 346.81 247.3 346.37 246.66C345.94 246.01 345.52 245.34 345.14 244.66C344.76 243.97 344.41 243.27 344.09 242.56C344 242.38 343.95 242.19 343.92 241.99C343.89 241.79 343.88 241.59 343.91 241.39C343.94 241.2 344 241 344.08 240.82C344.17 240.64 344.28 240.47 344.41 240.32L350.74 233.03C350.62 232.85 350.51 232.67 350.4 232.48C350.29 232.3 350.18 232.12 350.07 231.93C349.96 231.74 349.86 231.55 349.76 231.37C349.66 231.18 349.56 230.99 349.46 230.79C349.36 230.61 349.29 230.41 349.25 230.2C349.21 229.99 349.2 229.78 349.23 229.57C349.25 229.36 349.3 229.16 349.39 228.96C349.47 228.77 349.58 228.59 349.72 228.43L350.8 227.15L324.59 225.36C324.38 225.34 324.18 225.29 323.99 225.21C323.8 225.14 323.62 225.04 323.46 224.91C323.3 224.79 323.15 224.65 323.03 224.48C322.91 224.32 322.81 224.14 322.73 223.95C322.65 223.76 322.6 223.56 322.59 223.36C322.57 223.16 322.58 222.95 322.63 222.75C322.68 222.55 322.75 222.36 322.86 222.18C322.96 222.01 323.09 221.85 323.24 221.71L335.84 209.5C337.53 207.86 339.38 206.4 341.36 205.12C343.34 203.85 345.44 202.77 347.63 201.91C349.82 201.04 352.09 200.4 354.4 199.98C356.72 199.55 359.07 199.36 361.42 199.4L361.61 199.4L373.7 199.98L378.37 194.35C381.18 191.01 384.33 187.97 387.76 185.27C391.19 182.58 394.9 180.24 398.81 178.31C402.72 176.37 406.82 174.84 411.05 173.74C415.27 172.65 419.6 171.99 423.96 171.78L425.88 171.65C426.22 171.63 426.56 171.64 426.9 171.69C427.24 171.74 427.57 171.83 427.89 171.95C428.2 172.07 428.51 172.22 428.8 172.41C429.08 172.6 429.35 172.81 429.59 173.06C429.82 173.3 430.04 173.57 430.22 173.85ZM354.2 223L370.18 203.94L361.36 203.56C359.29 203.53 357.22 203.71 355.18 204.09C353.14 204.46 351.14 205.04 349.22 205.8C347.29 206.57 345.45 207.52 343.7 208.65C341.96 209.77 340.34 211.07 338.85 212.51L329.64 221.4L354.2 223ZM361.04 248.83C361.81 248.19 362.57 247.62 363.22 247.04C362.72 246.64 362.22 246.24 361.73 245.83C361.25 245.42 360.77 245 360.29 244.57C359.82 244.14 359.35 243.71 358.89 243.27C358.43 242.83 357.97 242.38 357.52 241.92C357.12 241.51 356.73 241.09 356.34 240.66C355.96 240.24 355.58 239.8 355.22 239.36C354.85 238.91 354.49 238.46 354.14 238.01C353.79 237.55 353.45 237.09 353.11 236.62L348.44 241.92C348.7 242.41 348.97 242.9 349.26 243.37C349.54 243.84 349.85 244.3 350.17 244.75C350.49 245.2 350.83 245.64 351.18 246.06C351.53 246.49 351.9 246.9 352.28 247.3C352.68 247.71 353.1 248.11 353.53 248.49C353.96 248.87 354.4 249.24 354.85 249.6C355.31 249.95 355.77 250.29 356.25 250.61C356.73 250.93 357.22 251.23 357.72 251.52C358.8 250.69 359.89 249.73 361.04 248.83L361.04 248.83ZM396.4 231.44L376.58 246.27L377.48 270.83L386.69 261.94C388.19 260.5 389.54 258.92 390.72 257.21C391.91 255.51 392.92 253.69 393.75 251.78C394.58 249.88 395.21 247.9 395.65 245.86C396.08 243.83 396.32 241.76 396.34 239.69L396.4 231.44ZM426.77 176.58C426.77 176.32 426.71 176.13 426.58 176.06C426.55 176.04 426.51 176.01 426.47 175.99C426.43 175.97 426.39 175.95 426.34 175.93C426.3 175.91 426.25 175.9 426.21 175.89C426.16 175.88 426.12 175.88 426.07 175.87L424.15 176C420.09 176.2 416.05 176.82 412.11 177.84C408.16 178.87 404.34 180.3 400.69 182.11C397.04 183.92 393.59 186.1 390.39 188.62C387.19 191.14 384.25 193.98 381.63 197.1L353.95 230.03C354.33 230.69 354.72 231.35 355.14 231.99C355.55 232.64 355.98 233.27 356.42 233.9C356.86 234.52 357.32 235.14 357.79 235.74C358.27 236.34 358.75 236.93 359.25 237.51L370.57 226.51C370.97 226.12 371.5 225.91 372.06 225.91C372.62 225.92 373.15 226.15 373.53 226.56C373.92 226.96 374.13 227.5 374.11 228.05C374.09 228.61 373.86 229.14 373.45 229.52L362.13 240.52C362.71 241.06 363.3 241.59 363.91 242.1C364.51 242.61 365.13 243.11 365.76 243.59C366.39 244.07 367.03 244.53 367.68 244.98C368.34 245.43 369 245.86 369.68 246.27L403.18 221.14C406.58 218.58 409.7 215.66 412.48 212.43C415.25 209.2 417.67 205.68 419.7 201.94C421.72 198.19 423.34 194.24 424.52 190.14C425.7 186.05 426.43 181.85 426.71 177.6L426.77 176.58Z" />
					</g>
					<g id="Grupo_1727" style="opacity: 0.549">
						<path id="Trazado_97" class="shp0" d="M343.51 257.72C343.21 257.71 342.92 257.63 342.66 257.47C342.4 257.31 342.19 257.08 342.06 256.81C341.92 256.54 341.86 256.24 341.88 255.94C341.9 255.64 342 255.35 342.17 255.1C343.2 253.69 343.71 252.92 343.77 252.92C344.02 252.58 344.39 252.35 344.81 252.28C345.23 252.21 345.66 252.31 346 252.55C346.35 252.8 346.58 253.17 346.66 253.59C346.73 254 346.64 254.43 346.39 254.78C346.15 255.13 345.82 255.55 344.73 257.02C344.67 257.12 344.59 257.22 344.51 257.3C344.42 257.39 344.32 257.46 344.21 257.53C344.11 257.59 344 257.63 343.88 257.67C343.76 257.7 343.64 257.72 343.51 257.72Z" />
						<path id="Trazado_98" class="shp0" d="M173.81 354.79L172.21 354.79C171.78 354.77 171.37 354.59 171.08 354.28C170.78 353.97 170.62 353.55 170.63 353.12C170.64 352.7 170.82 352.29 171.12 351.99C171.43 351.69 171.84 351.52 172.27 351.53L172.27 351.53C174.06 351.53 175.85 351.53 177.71 351.46L177.77 351.46C177.98 351.46 178.19 351.51 178.39 351.59C178.59 351.67 178.77 351.78 178.92 351.93C179.07 352.08 179.2 352.25 179.28 352.45C179.37 352.64 179.42 352.85 179.43 353.06C179.44 353.28 179.41 353.49 179.33 353.69C179.25 353.9 179.14 354.08 178.99 354.23C178.84 354.39 178.66 354.51 178.46 354.6C178.26 354.68 178.05 354.73 177.83 354.73C176.43 354.79 175.09 354.79 173.81 354.79ZM159.23 354.09L159.1 354.09C157.25 353.96 155.39 353.7 153.66 353.45C153.24 353.38 152.86 353.15 152.6 352.8C152.34 352.46 152.23 352.02 152.29 351.6C152.34 351.17 152.57 350.78 152.91 350.52C153.25 350.25 153.68 350.13 154.11 350.19C155.84 350.44 157.69 350.63 159.48 350.83C159.7 350.85 159.9 350.92 160.09 351.02C160.27 351.13 160.44 351.26 160.58 351.43C160.71 351.59 160.81 351.78 160.88 351.99C160.94 352.19 160.97 352.4 160.95 352.62C160.92 352.82 160.85 353.01 160.75 353.19C160.65 353.37 160.51 353.53 160.36 353.66C160.2 353.8 160.02 353.9 159.83 353.97C159.64 354.04 159.43 354.08 159.23 354.08L159.23 354.09ZM190.82 353.89C190.62 353.89 190.42 353.85 190.23 353.78C190.04 353.71 189.87 353.6 189.71 353.47C189.56 353.33 189.44 353.17 189.34 352.99C189.25 352.82 189.18 352.62 189.15 352.42C189.13 352.21 189.15 352 189.21 351.8C189.27 351.6 189.37 351.41 189.5 351.24C189.63 351.08 189.79 350.94 189.97 350.83C190.15 350.73 190.35 350.66 190.56 350.63C190.66 350.61 190.76 350.6 190.86 350.58C190.96 350.57 191.06 350.56 191.17 350.55C191.27 350.53 191.37 350.53 191.47 350.52C191.57 350.51 191.67 350.51 191.78 350.5C193.18 350.38 194.53 350.18 195.93 349.99C196.36 349.94 196.79 350.06 197.13 350.33C197.48 350.59 197.7 350.98 197.76 351.4C197.82 351.83 197.71 352.26 197.45 352.61C197.19 352.96 196.81 353.19 196.38 353.25C194.97 353.45 193.57 353.64 192.16 353.77C192.05 353.78 191.95 353.8 191.84 353.82C191.74 353.83 191.63 353.84 191.52 353.85C191.42 353.86 191.31 353.87 191.2 353.88C191.1 353.89 190.99 353.89 190.88 353.89L190.82 353.89ZM140.94 351.14C140.91 351.15 140.87 351.15 140.84 351.14C140.81 351.14 140.77 351.14 140.74 351.13C140.71 351.13 140.68 351.12 140.65 351.11C140.62 351.1 140.59 351.09 140.55 351.08C138.76 350.69 136.97 350.18 135.18 349.74C134.77 349.63 134.41 349.35 134.2 348.98C133.98 348.61 133.92 348.17 134.03 347.75C134.14 347.34 134.41 346.98 134.78 346.77C135.16 346.55 135.6 346.49 136.01 346.6L141.19 347.94C141.4 347.99 141.6 348.08 141.77 348.2C141.94 348.32 142.09 348.47 142.2 348.65C142.31 348.83 142.39 349.03 142.43 349.24C142.46 349.45 142.46 349.66 142.41 349.86C142.39 350.04 142.34 350.22 142.26 350.38C142.18 350.54 142.07 350.68 141.93 350.8C141.79 350.92 141.64 351.01 141.47 351.07C141.3 351.13 141.12 351.15 140.94 351.14ZM209.1 351.01C208.92 351.02 208.73 350.98 208.56 350.92C208.39 350.86 208.22 350.77 208.08 350.66C207.93 350.54 207.81 350.4 207.71 350.25C207.61 350.09 207.54 349.92 207.5 349.74C207.46 349.53 207.45 349.32 207.49 349.11C207.53 348.9 207.61 348.71 207.72 348.53C207.83 348.35 207.98 348.2 208.15 348.07C208.32 347.95 208.51 347.87 208.72 347.82C210.44 347.43 212.23 346.99 213.96 346.6C214.37 346.5 214.81 346.57 215.17 346.78C215.54 347 215.8 347.35 215.91 347.76C216.02 348.17 215.97 348.61 215.76 348.98C215.55 349.35 215.2 349.62 214.79 349.74C213 350.18 211.21 350.64 209.42 351.01C209.3 350.95 209.17 351.01 209.1 351.01L209.1 351.01ZM226.88 345.96C226.71 345.97 226.53 345.94 226.37 345.89C226.21 345.84 226.05 345.76 225.91 345.65C225.77 345.55 225.65 345.42 225.56 345.28C225.46 345.14 225.39 344.98 225.34 344.81C225.26 344.61 225.23 344.4 225.24 344.18C225.24 343.96 225.3 343.75 225.4 343.56C225.49 343.37 225.63 343.19 225.8 343.06C225.96 342.92 226.16 342.82 226.37 342.77C228.03 342.19 229.82 341.61 231.48 340.97C231.68 340.9 231.9 340.86 232.11 340.87C232.33 340.88 232.54 340.93 232.74 341.02C232.93 341.1 233.11 341.23 233.26 341.39C233.4 341.55 233.52 341.73 233.59 341.93C233.67 342.14 233.7 342.35 233.69 342.56C233.68 342.78 233.63 342.99 233.54 343.18C233.45 343.38 233.33 343.56 233.17 343.7C233.02 343.85 232.83 343.97 232.63 344.04C230.91 344.68 229.18 345.26 227.45 345.9C227.41 345.91 227.36 345.92 227.31 345.93C227.27 345.94 227.22 345.95 227.17 345.95C227.12 345.96 227.07 345.96 227.03 345.96C226.98 345.97 226.93 345.97 226.88 345.96L226.88 345.96ZM123.29 345.77C123.24 345.77 123.19 345.76 123.14 345.76C123.09 345.75 123.04 345.74 123 345.73C122.95 345.72 122.9 345.71 122.85 345.69C122.81 345.68 122.76 345.66 122.71 345.64C120.99 345 119.26 344.3 117.6 343.6C117.19 343.43 116.87 343.1 116.7 342.69C116.53 342.29 116.53 341.83 116.7 341.42C116.87 341.02 117.2 340.69 117.6 340.52C118.01 340.36 118.47 340.36 118.88 340.53C120.54 341.23 122.2 341.93 123.86 342.51C124.07 342.58 124.25 342.7 124.41 342.85C124.56 342.99 124.69 343.17 124.77 343.37C124.85 343.57 124.9 343.78 124.9 343.99C124.9 344.21 124.85 344.42 124.76 344.62C124.72 344.78 124.65 344.94 124.56 345.08C124.47 345.22 124.36 345.34 124.22 345.45C124.09 345.55 123.94 345.63 123.78 345.69C123.63 345.74 123.46 345.77 123.29 345.77L123.29 345.77ZM244.14 339.25C243.99 339.25 243.83 339.23 243.69 339.18C243.54 339.14 243.4 339.07 243.27 338.99C243.14 338.9 243.02 338.8 242.92 338.68C242.82 338.56 242.74 338.43 242.67 338.29C242.58 338.09 242.53 337.88 242.53 337.66C242.52 337.45 242.56 337.23 242.64 337.03C242.71 336.83 242.83 336.64 242.98 336.49C243.13 336.33 243.31 336.2 243.5 336.12C245.17 335.42 246.76 334.65 248.43 333.82C248.82 333.63 249.27 333.61 249.67 333.75C250.08 333.89 250.42 334.19 250.6 334.58C250.79 334.97 250.81 335.42 250.67 335.83C250.52 336.24 250.22 336.57 249.83 336.76C248.17 337.59 246.51 338.36 244.85 339.06C244.79 339.09 244.74 339.12 244.68 339.14C244.63 339.16 244.57 339.18 244.51 339.2C244.45 339.21 244.39 339.23 244.33 339.23C244.27 339.24 244.21 339.25 244.15 339.25L244.14 339.25ZM106.41 338.03C106.34 338.03 106.27 338.03 106.21 338.02C106.14 338.01 106.08 338 106.01 337.98C105.95 337.97 105.88 337.95 105.82 337.92C105.76 337.9 105.7 337.87 105.64 337.84L100.84 335.16C100.46 334.94 100.18 334.58 100.06 334.16C99.95 333.73 100.01 333.28 100.23 332.9C100.46 332.52 100.82 332.25 101.25 332.15C101.68 332.04 102.13 332.11 102.5 332.34C104.04 333.24 105.64 334.13 107.17 335.03C107.36 335.13 107.52 335.26 107.66 335.43C107.79 335.59 107.89 335.78 107.95 335.98C108.01 336.18 108.03 336.4 108 336.61C107.98 336.81 107.91 337.02 107.81 337.2C107.75 337.33 107.67 337.45 107.57 337.56C107.47 337.66 107.36 337.76 107.23 337.83C107.11 337.9 106.98 337.96 106.84 337.99C106.7 338.03 106.55 338.04 106.41 338.03L106.41 338.03ZM260.71 330.93C260.35 330.93 260 330.82 259.72 330.6C259.44 330.38 259.24 330.07 259.15 329.73C259.07 329.38 259.09 329.02 259.24 328.69C259.38 328.37 259.63 328.1 259.94 327.93C261.54 327.03 263.14 326.14 264.61 325.24C264.98 325.02 265.43 324.96 265.85 325.07C266.27 325.17 266.63 325.44 266.85 325.82C267.07 326.19 267.13 326.64 267.02 327.06C266.91 327.48 266.64 327.84 266.27 328.06C264.67 328.96 263.07 329.91 261.54 330.81C261.22 330.81 260.96 330.94 260.71 330.94L260.71 330.93ZM90.74 328.19C90.65 328.18 90.57 328.17 90.48 328.16C90.4 328.14 90.32 328.12 90.24 328.09C90.16 328.06 90.08 328.03 90 327.99C89.92 327.96 89.85 327.91 89.78 327.87C88.31 326.78 86.84 325.69 85.37 324.54C85.03 324.27 84.81 323.87 84.76 323.44C84.71 323.01 84.84 322.58 85.11 322.24C85.38 321.9 85.78 321.68 86.21 321.63C86.64 321.59 87.07 321.71 87.41 321.98C88.82 323.13 90.29 324.16 91.7 325.18C91.87 325.31 92.01 325.46 92.12 325.64C92.23 325.82 92.31 326.02 92.34 326.22C92.38 326.43 92.38 326.64 92.33 326.85C92.29 327.05 92.2 327.25 92.08 327.42C92.01 327.54 91.93 327.64 91.83 327.74C91.74 327.83 91.63 327.91 91.51 327.98C91.39 328.05 91.27 328.1 91.14 328.13C91.01 328.17 90.87 328.19 90.74 328.19L90.74 328.19ZM276.5 321.22C276.37 321.21 276.24 321.2 276.11 321.17C275.98 321.13 275.86 321.09 275.74 321.03C275.63 320.97 275.52 320.89 275.42 320.81C275.32 320.72 275.23 320.62 275.15 320.52C275.03 320.34 274.95 320.14 274.9 319.93C274.86 319.73 274.86 319.51 274.9 319.3C274.94 319.09 275.02 318.89 275.15 318.72C275.27 318.54 275.42 318.39 275.6 318.28C277.14 317.25 278.61 316.23 280.01 315.21C280.36 314.98 280.79 314.89 281.2 314.96C281.61 315.04 281.98 315.27 282.22 315.61C282.46 315.96 282.56 316.38 282.5 316.79C282.43 317.21 282.2 317.58 281.87 317.83C280.4 318.85 278.86 319.94 277.33 320.96C277.27 321 277.2 321.04 277.14 321.07C277.07 321.1 277 321.13 276.93 321.15C276.86 321.17 276.79 321.18 276.72 321.2C276.65 321.21 276.57 321.21 276.5 321.22L276.5 321.22ZM76.41 316.42C76.31 316.42 76.2 316.41 76.1 316.39C76 316.37 75.89 316.34 75.79 316.3C75.7 316.27 75.6 316.22 75.51 316.16C75.42 316.11 75.34 316.04 75.26 315.97C73.92 314.75 72.58 313.41 71.3 312.13C70.97 311.83 70.78 311.41 70.77 310.97C70.76 310.52 70.93 310.09 71.24 309.78C71.56 309.46 71.99 309.29 72.43 309.3C72.88 309.31 73.3 309.5 73.6 309.83C74.88 311.11 76.16 312.33 77.5 313.54C77.65 313.69 77.77 313.86 77.86 314.05C77.95 314.25 78 314.45 78.02 314.66C78.03 314.88 78 315.09 77.93 315.29C77.87 315.49 77.76 315.68 77.63 315.84C77.55 315.93 77.47 316.01 77.38 316.08C77.29 316.15 77.19 316.21 77.09 316.26C76.98 316.31 76.87 316.35 76.76 316.38C76.65 316.41 76.53 316.42 76.42 316.42L76.41 316.42ZM291.52 310.34C291.4 310.34 291.28 310.33 291.16 310.3C291.04 310.27 290.92 310.23 290.81 310.17C290.7 310.12 290.59 310.05 290.5 309.97C290.4 309.89 290.32 309.8 290.24 309.7C290.11 309.53 290.02 309.33 289.97 309.12C289.91 308.92 289.9 308.7 289.93 308.48C289.96 308.27 290.03 308.07 290.14 307.88C290.25 307.69 290.39 307.53 290.56 307.4C291.97 306.25 293.44 305.16 294.78 304.01C295.12 303.75 295.55 303.63 295.98 303.68C296.41 303.73 296.8 303.95 297.07 304.28C297.34 304.62 297.46 305.05 297.42 305.48C297.37 305.9 297.16 306.3 296.83 306.57C295.42 307.72 293.95 308.87 292.55 310.02C292.47 310.07 292.39 310.11 292.31 310.15C292.23 310.18 292.14 310.21 292.06 310.24C291.97 310.27 291.88 310.29 291.8 310.31C291.71 310.32 291.62 310.34 291.53 310.34L291.52 310.34ZM63.62 302.99C63.51 302.99 63.39 302.97 63.28 302.95C63.17 302.92 63.06 302.88 62.95 302.84C62.85 302.79 62.75 302.72 62.66 302.65C62.57 302.58 62.48 302.5 62.41 302.41C61.26 301 60.04 299.6 58.89 298.19C58.61 297.85 58.48 297.42 58.53 296.98C58.57 296.54 58.79 296.14 59.13 295.87C59.47 295.59 59.91 295.47 60.35 295.52C60.78 295.57 61.18 295.8 61.45 296.14C62.6 297.55 63.75 298.96 64.9 300.3C65.04 300.46 65.14 300.65 65.21 300.85C65.28 301.05 65.3 301.26 65.29 301.48C65.28 301.69 65.23 301.9 65.14 302.09C65.05 302.28 64.93 302.45 64.77 302.6C64.7 302.67 64.61 302.73 64.52 302.78C64.43 302.83 64.34 302.87 64.24 302.9C64.14 302.94 64.04 302.96 63.94 302.98C63.84 302.99 63.73 303 63.63 302.99L63.62 302.99ZM305.72 298.45C305.39 298.44 305.07 298.33 304.8 298.14C304.53 297.95 304.32 297.68 304.21 297.37C304.09 297.06 304.07 296.73 304.14 296.41C304.22 296.09 304.39 295.79 304.63 295.57C306.04 294.35 307.32 293.14 308.66 291.92C308.98 291.64 309.41 291.49 309.84 291.51C310.27 291.54 310.67 291.73 310.96 292.05C311.25 292.37 311.4 292.8 311.37 293.23C311.35 293.66 311.16 294.07 310.83 294.35C309.49 295.57 308.15 296.78 306.81 298.06C306.73 298.12 306.64 298.17 306.56 298.21C306.47 298.26 306.38 298.3 306.29 298.33C306.2 298.36 306.11 298.39 306.01 298.41C305.92 298.43 305.82 298.44 305.72 298.45L305.72 298.45ZM52.38 288.28C52.24 288.28 52.11 288.27 51.99 288.24C51.86 288.2 51.74 288.16 51.62 288.1C51.5 288.04 51.4 287.96 51.3 287.88C51.2 287.79 51.11 287.69 51.03 287.58C50.01 286.11 48.99 284.51 48.03 282.98C47.8 282.62 47.72 282.18 47.82 281.76C47.92 281.34 48.17 280.98 48.54 280.75C48.9 280.52 49.34 280.44 49.76 280.54C50.18 280.64 50.55 280.89 50.78 281.26C51.74 282.79 52.69 284.26 53.72 285.73C53.84 285.91 53.92 286.1 53.97 286.31C54.02 286.51 54.02 286.72 53.99 286.93C53.95 287.14 53.87 287.34 53.76 287.52C53.65 287.69 53.51 287.85 53.33 287.97C53.27 288.03 53.2 288.07 53.12 288.11C53.04 288.15 52.97 288.19 52.88 288.21C52.8 288.24 52.72 288.26 52.63 288.27C52.55 288.28 52.46 288.29 52.38 288.28ZM319.15 285.66C319.05 285.66 318.94 285.66 318.84 285.64C318.73 285.62 318.63 285.59 318.53 285.55C318.44 285.51 318.34 285.47 318.25 285.41C318.16 285.35 318.08 285.29 318 285.22C317.85 285.07 317.73 284.89 317.65 284.69C317.57 284.49 317.52 284.28 317.52 284.07C317.52 283.85 317.57 283.64 317.65 283.44C317.73 283.25 317.85 283.07 318 282.92C319.34 281.57 320.56 280.29 321.77 279.02C322.07 278.7 322.48 278.52 322.91 278.51C323.34 278.5 323.76 278.66 324.08 278.95C324.39 279.25 324.57 279.66 324.59 280.09C324.6 280.52 324.44 280.94 324.14 281.25C322.93 282.53 321.65 283.88 320.3 285.22C320.23 285.29 320.14 285.35 320.05 285.41C319.96 285.46 319.87 285.51 319.77 285.55C319.67 285.59 319.57 285.62 319.47 285.63C319.36 285.65 319.26 285.66 319.15 285.66L319.15 285.66ZM42.78 272.49C42.64 272.49 42.49 272.47 42.35 272.43C42.21 272.39 42.07 272.33 41.95 272.25C41.82 272.17 41.71 272.07 41.61 271.96C41.52 271.85 41.44 271.72 41.38 271.59C40.48 269.93 39.65 268.33 38.88 266.67C38.7 266.28 38.67 265.83 38.82 265.42C38.96 265.01 39.26 264.68 39.65 264.49C40.04 264.31 40.49 264.28 40.9 264.43C41.3 264.57 41.64 264.87 41.82 265.26C42.59 266.86 43.42 268.46 44.25 270.06C44.35 270.24 44.41 270.45 44.44 270.66C44.46 270.86 44.44 271.08 44.38 271.28C44.32 271.48 44.22 271.67 44.09 271.83C43.96 271.99 43.8 272.13 43.61 272.23C43.55 272.27 43.48 272.3 43.42 272.32C43.35 272.35 43.28 272.38 43.21 272.4C43.14 272.42 43.07 272.44 43 272.45C42.93 272.47 42.86 272.48 42.78 272.49ZM331.81 272.04C331.72 272.04 331.62 272.03 331.52 272.02C331.43 272 331.33 271.98 331.24 271.94C331.15 271.91 331.06 271.87 330.97 271.82C330.88 271.78 330.8 271.72 330.73 271.66C330.57 271.52 330.44 271.34 330.34 271.15C330.25 270.96 330.2 270.75 330.19 270.54C330.17 270.32 330.2 270.11 330.28 269.91C330.35 269.7 330.46 269.52 330.6 269.36C331.88 267.95 333.03 266.54 334.12 265.2C334.39 264.86 334.8 264.65 335.23 264.61C335.67 264.57 336.1 264.7 336.44 264.99C336.77 265.27 336.98 265.68 337.01 266.11C337.04 266.55 336.9 266.98 336.61 267.31C335.46 268.65 334.31 270 333.03 271.53C332.95 271.62 332.87 271.69 332.78 271.76C332.68 271.83 332.58 271.88 332.48 271.93C332.38 271.97 332.27 272 332.15 272.02C332.04 272.04 331.93 272.05 331.81 272.04L331.81 272.04ZM34.98 255.54C34.83 255.54 34.67 255.52 34.53 255.48C34.38 255.43 34.24 255.37 34.11 255.28C33.98 255.2 33.86 255.09 33.76 254.98C33.66 254.86 33.58 254.73 33.51 254.58L33.51 254.52C32.87 252.86 32.3 251.07 31.79 249.21C31.69 248.8 31.75 248.36 31.97 248C32.18 247.64 32.54 247.37 32.95 247.26C33.36 247.15 33.79 247.21 34.16 247.42C34.53 247.63 34.8 247.97 34.92 248.38C35.03 248.8 35.15 249.21 35.27 249.63C35.39 250.04 35.52 250.45 35.65 250.86C35.79 251.27 35.93 251.68 36.07 252.09C36.21 252.5 36.36 252.9 36.52 253.3C36.59 253.51 36.62 253.72 36.62 253.94C36.61 254.15 36.57 254.37 36.49 254.56C36.4 254.76 36.29 254.95 36.14 255.1C35.99 255.26 35.81 255.39 35.62 255.48C35.57 255.49 35.51 255.5 35.46 255.51C35.41 255.52 35.36 255.53 35.3 255.53C35.25 255.54 35.2 255.54 35.14 255.54C35.09 255.55 35.04 255.55 34.98 255.54ZM31.15 237.51C30.94 237.51 30.74 237.47 30.56 237.4C30.37 237.32 30.2 237.22 30.04 237.08C29.89 236.95 29.77 236.79 29.67 236.61C29.58 236.43 29.51 236.24 29.48 236.04C29.36 234.25 29.23 232.33 29.23 230.54C29.22 230.33 29.26 230.12 29.34 229.92C29.42 229.72 29.54 229.54 29.69 229.38C29.83 229.23 30.01 229.1 30.21 229.02C30.4 228.93 30.61 228.88 30.83 228.88L30.89 228.88C31.1 228.88 31.31 228.92 31.51 229C31.71 229.08 31.89 229.2 32.04 229.35C32.19 229.5 32.32 229.67 32.41 229.86C32.49 230.06 32.54 230.27 32.55 230.48C32.62 232.27 32.68 234.12 32.81 235.85C32.82 236.06 32.8 236.27 32.73 236.47C32.66 236.67 32.56 236.85 32.42 237.01C32.29 237.17 32.12 237.3 31.94 237.4C31.75 237.5 31.55 237.56 31.34 237.58C31.33 237.56 31.31 237.55 31.3 237.55C31.28 237.54 31.27 237.53 31.25 237.52C31.23 237.52 31.22 237.51 31.2 237.51C31.18 237.51 31.16 237.51 31.15 237.51ZM31.53 219.03L31.4 219.03C31.19 219.01 30.99 218.95 30.8 218.84C30.62 218.74 30.45 218.6 30.32 218.43C30.19 218.27 30.09 218.08 30.04 217.87C29.98 217.67 29.97 217.45 29.99 217.24C30.19 215.39 30.38 213.53 30.69 211.81C30.76 211.38 30.99 211 31.34 210.74C31.68 210.48 32.12 210.37 32.55 210.42C32.97 210.48 33.36 210.71 33.63 211.05C33.89 211.39 34.01 211.83 33.96 212.25C33.7 214.05 33.44 215.84 33.26 217.56C33.22 217.77 33.15 217.96 33.05 218.14C32.95 218.32 32.82 218.48 32.66 218.61C32.5 218.74 32.32 218.85 32.13 218.92C31.94 218.99 31.74 219.03 31.53 219.03ZM34.85 200.81C34.82 200.81 34.79 200.81 34.76 200.81C34.72 200.81 34.69 200.81 34.66 200.8C34.63 200.79 34.6 200.79 34.56 200.78C34.53 200.77 34.5 200.76 34.47 200.75C34.26 200.7 34.07 200.6 33.89 200.48C33.72 200.35 33.58 200.19 33.47 200C33.36 199.82 33.29 199.61 33.27 199.4C33.24 199.18 33.26 198.97 33.32 198.76C33.77 196.97 34.28 195.18 34.79 193.45C34.92 193.05 35.21 192.71 35.59 192.51C35.97 192.31 36.42 192.27 36.83 192.4C37.24 192.52 37.58 192.8 37.79 193.18C37.99 193.56 38.04 194 37.92 194.41C37.41 196.14 36.9 197.87 36.52 199.59C36.46 199.77 36.37 199.93 36.26 200.07C36.15 200.22 36.02 200.35 35.87 200.46C35.73 200.57 35.56 200.65 35.39 200.71C35.22 200.77 35.04 200.8 34.85 200.81ZM40.61 183.16C40.56 183.16 40.5 183.15 40.45 183.14C40.39 183.13 40.34 183.13 40.29 183.11C40.23 183.1 40.18 183.09 40.13 183.08C40.07 183.06 40.02 183.05 39.97 183.03C39.77 182.95 39.6 182.83 39.45 182.68C39.3 182.53 39.18 182.35 39.09 182.16C39.01 181.96 38.97 181.75 38.96 181.54C38.96 181.33 38.99 181.12 39.07 180.92C39.71 179.26 40.48 177.53 41.24 175.87C41.34 175.68 41.47 175.5 41.62 175.36C41.78 175.21 41.97 175.1 42.17 175.02C42.37 174.95 42.58 174.91 42.79 174.91C43.01 174.91 43.22 174.96 43.42 175.04C43.61 175.13 43.79 175.26 43.94 175.41C44.08 175.57 44.2 175.76 44.27 175.96C44.35 176.16 44.39 176.37 44.38 176.59C44.38 176.8 44.33 177.02 44.25 177.21C43.55 178.88 42.84 180.54 42.14 182.14C42.09 182.29 42.01 182.44 41.91 182.57C41.81 182.7 41.68 182.82 41.55 182.91C41.41 183 41.26 183.07 41.1 183.11C40.94 183.15 40.77 183.17 40.61 183.16L40.61 183.16ZM48.47 166.41C48.41 166.41 48.34 166.4 48.28 166.39C48.21 166.38 48.14 166.37 48.08 166.36C48.02 166.34 47.95 166.32 47.89 166.3C47.83 166.27 47.77 166.25 47.71 166.21C47.52 166.12 47.36 165.98 47.22 165.82C47.09 165.65 46.99 165.47 46.93 165.26C46.87 165.06 46.85 164.85 46.88 164.64C46.9 164.43 46.96 164.23 47.07 164.04L49.75 159.24C49.97 158.87 50.33 158.6 50.75 158.49C51.17 158.38 51.62 158.44 51.99 158.67C52.37 158.89 52.64 159.25 52.74 159.66C52.85 160.08 52.79 160.53 52.57 160.9C51.67 162.44 50.78 164.04 49.88 165.57C49.83 165.71 49.75 165.83 49.65 165.94C49.56 166.05 49.44 166.15 49.32 166.22C49.19 166.3 49.05 166.35 48.91 166.38C48.77 166.41 48.62 166.42 48.47 166.41L48.47 166.41ZM58.32 150.74C58.24 150.74 58.16 150.73 58.08 150.72C58 150.7 57.92 150.68 57.85 150.65C57.77 150.63 57.7 150.59 57.63 150.55C57.55 150.52 57.49 150.47 57.42 150.42C57.25 150.3 57.11 150.14 57 149.96C56.89 149.79 56.81 149.59 56.78 149.38C56.74 149.17 56.75 148.96 56.79 148.76C56.84 148.55 56.92 148.36 57.04 148.18C58.06 146.71 59.21 145.24 60.3 143.77C60.56 143.42 60.95 143.19 61.38 143.13C61.82 143.07 62.25 143.19 62.6 143.45C62.95 143.71 63.18 144.1 63.24 144.54C63.3 144.97 63.18 145.41 62.92 145.75C61.83 147.16 60.75 148.7 59.72 150.1C59.63 150.2 59.53 150.28 59.42 150.35C59.31 150.43 59.2 150.5 59.08 150.55C58.96 150.6 58.84 150.65 58.71 150.68C58.58 150.71 58.45 150.73 58.32 150.74L58.32 150.74ZM69.83 136.23C69.74 136.23 69.64 136.22 69.54 136.2C69.44 136.18 69.35 136.16 69.26 136.13C69.16 136.09 69.07 136.05 68.99 136.01C68.9 135.96 68.82 135.9 68.75 135.84C68.59 135.7 68.47 135.52 68.38 135.33C68.29 135.14 68.24 134.93 68.23 134.72C68.22 134.51 68.25 134.29 68.31 134.09C68.38 133.89 68.48 133.71 68.62 133.54C69.83 132.14 71.05 130.86 72.33 129.51C72.62 129.2 73.03 129.02 73.46 129.01C73.9 128.99 74.32 129.15 74.63 129.45C74.94 129.75 75.13 130.16 75.14 130.59C75.15 131.02 74.99 131.44 74.69 131.75C73.48 133.1 72.26 134.44 70.98 135.72C70.91 135.8 70.83 135.87 70.74 135.93C70.65 135.99 70.56 136.05 70.46 136.09C70.36 136.13 70.26 136.17 70.15 136.19C70.05 136.21 69.94 136.22 69.83 136.22L69.83 136.23ZM82.94 123.12C82.61 123.11 82.29 123 82.02 122.81C81.75 122.62 81.54 122.35 81.43 122.04C81.31 121.73 81.29 121.4 81.36 121.08C81.44 120.75 81.61 120.46 81.85 120.24C83.19 119.02 84.6 117.81 86.01 116.59C86.34 116.31 86.77 116.18 87.2 116.21C87.63 116.25 88.03 116.45 88.31 116.79C88.59 117.12 88.73 117.54 88.69 117.98C88.65 118.41 88.45 118.81 88.12 119.09C86.71 120.24 85.37 121.45 84.03 122.6C83.96 122.68 83.88 122.75 83.8 122.82C83.72 122.88 83.63 122.94 83.54 122.98C83.44 123.02 83.35 123.06 83.25 123.08C83.14 123.1 83.04 123.12 82.94 123.12ZM97.39 111.54C97.27 111.54 97.14 111.52 97.01 111.5C96.89 111.47 96.77 111.42 96.65 111.37C96.54 111.31 96.43 111.25 96.33 111.17C96.23 111.09 96.13 111 96.05 110.9C95.92 110.73 95.83 110.54 95.79 110.33C95.74 110.13 95.73 109.91 95.76 109.7C95.8 109.49 95.88 109.29 95.99 109.12C96.11 108.94 96.26 108.78 96.43 108.66C97.9 107.58 99.44 106.55 100.97 105.53C101.33 105.28 101.77 105.19 102.2 105.27C102.63 105.35 103 105.59 103.25 105.96C103.49 106.32 103.57 106.76 103.48 107.19C103.39 107.61 103.13 107.98 102.76 108.22L98.35 111.29C98.28 111.32 98.2 111.35 98.12 111.38C98.04 111.4 97.96 111.43 97.88 111.45C97.8 111.47 97.72 111.49 97.64 111.5C97.56 111.52 97.48 111.53 97.39 111.54L97.39 111.54ZM112.93 101.57C112.58 101.57 112.23 101.45 111.95 101.23C111.67 101.01 111.47 100.71 111.38 100.36C111.29 100.02 111.32 99.65 111.46 99.33C111.6 99 111.85 98.73 112.16 98.56L116.96 95.88C117.34 95.68 117.78 95.63 118.18 95.75C118.59 95.87 118.93 96.14 119.14 96.52C119.34 96.89 119.39 97.33 119.27 97.73C119.15 98.14 118.87 98.48 118.5 98.69C116.9 99.52 115.3 100.35 113.77 101.31C113.71 101.35 113.64 101.39 113.58 101.42C113.51 101.46 113.44 101.48 113.37 101.51C113.3 101.53 113.23 101.54 113.15 101.55C113.08 101.56 113.01 101.57 112.93 101.57L112.93 101.57ZM129.49 93.32C129.34 93.32 129.18 93.3 129.04 93.25C128.89 93.21 128.75 93.14 128.62 93.06C128.49 92.97 128.37 92.87 128.27 92.75C128.17 92.63 128.09 92.5 128.02 92.36C127.93 92.16 127.88 91.95 127.88 91.73C127.87 91.52 127.91 91.3 127.99 91.1C128.06 90.9 128.18 90.71 128.33 90.56C128.48 90.4 128.66 90.27 128.85 90.19C130.52 89.49 132.24 88.78 133.91 88.01C134.3 87.85 134.75 87.85 135.15 88.02C135.54 88.19 135.86 88.51 136.02 88.91C136.18 89.31 136.17 89.75 136.01 90.15C135.84 90.54 135.52 90.86 135.12 91.02C133.46 91.66 131.73 92.42 130.2 93.13C130.14 93.16 130.09 93.19 130.03 93.21C129.97 93.23 129.92 93.25 129.86 93.27C129.8 93.28 129.74 93.3 129.68 93.3C129.62 93.31 129.55 93.32 129.49 93.32L129.49 93.32ZM146.37 85.71C146.22 85.71 146.07 85.69 145.92 85.64C145.77 85.6 145.63 85.53 145.5 85.45C145.37 85.36 145.25 85.26 145.15 85.14C145.05 85.02 144.97 84.89 144.9 84.75C144.81 84.55 144.77 84.34 144.76 84.12C144.75 83.91 144.79 83.69 144.87 83.49C144.94 83.29 145.06 83.1 145.21 82.95C145.36 82.79 145.54 82.66 145.73 82.58C147.27 81.94 148.93 81.17 150.79 80.4C151.19 80.24 151.65 80.24 152.05 80.41C152.45 80.58 152.78 80.9 152.94 81.31C153.11 81.71 153.11 82.16 152.95 82.57C152.79 82.98 152.47 83.3 152.07 83.47C150.21 84.24 148.61 84.94 147.08 85.65C146.89 85.64 146.63 85.71 146.37 85.71L146.37 85.71ZM163.64 78.8C163.25 78.8 162.88 78.66 162.59 78.42C162.29 78.17 162.09 77.82 162.02 77.44C161.96 77.06 162.02 76.67 162.21 76.34C162.4 76 162.7 75.74 163.06 75.6C164.73 74.96 166.45 74.45 168.24 73.81C168.65 73.67 169.11 73.69 169.5 73.88C169.89 74.07 170.19 74.41 170.33 74.82C170.47 75.24 170.43 75.69 170.23 76.08C170.03 76.46 169.68 76.76 169.27 76.88C167.48 77.52 165.81 78.03 164.15 78.61C164.12 78.65 164.09 78.68 164.05 78.71C164.01 78.74 163.97 78.76 163.92 78.78C163.88 78.79 163.83 78.8 163.78 78.81C163.73 78.81 163.69 78.81 163.64 78.8L163.64 78.8ZM181.35 73.24C181.18 73.24 181 73.22 180.83 73.17C180.66 73.11 180.51 73.03 180.36 72.93C180.22 72.83 180.09 72.7 179.99 72.56C179.89 72.42 179.81 72.26 179.75 72.09C179.69 71.88 179.67 71.67 179.69 71.45C179.71 71.24 179.78 71.03 179.89 70.84C180 70.66 180.15 70.5 180.32 70.37C180.49 70.24 180.69 70.15 180.9 70.11C182.63 69.6 184.36 69.15 186.21 68.7C186.42 68.65 186.63 68.65 186.84 68.68C187.05 68.71 187.25 68.78 187.43 68.89C187.61 68.99 187.77 69.13 187.9 69.3C188.03 69.46 188.13 69.65 188.19 69.85C188.25 70.06 188.26 70.27 188.23 70.48C188.2 70.69 188.13 70.9 188.03 71.08C187.92 71.27 187.78 71.43 187.61 71.56C187.44 71.69 187.25 71.78 187.04 71.83C185.25 72.28 183.53 72.73 181.86 73.24L181.35 73.24ZM199.32 68.76C199.14 68.77 198.95 68.73 198.78 68.67C198.6 68.61 198.44 68.52 198.3 68.41C198.15 68.29 198.03 68.15 197.93 68C197.83 67.84 197.76 67.67 197.72 67.49C197.68 67.28 197.67 67.07 197.71 66.86C197.75 66.65 197.82 66.46 197.94 66.28C198.05 66.1 198.19 65.95 198.37 65.82C198.54 65.7 198.73 65.62 198.94 65.57C200.73 65.18 202.52 64.8 204.31 64.48C204.73 64.4 205.17 64.49 205.53 64.73C205.89 64.96 206.14 65.34 206.23 65.76C206.31 66.19 206.22 66.63 205.98 66.99C205.74 67.35 205.37 67.59 204.95 67.68C203.16 68.06 201.37 68.38 199.64 68.77L199.32 68.76ZM217.54 65.44C217.13 65.43 216.73 65.27 216.43 64.99C216.13 64.7 215.95 64.31 215.93 63.9C215.91 63.48 216.04 63.08 216.3 62.76C216.57 62.44 216.94 62.23 217.35 62.18C219.14 61.92 220.93 61.67 222.79 61.41C223.22 61.36 223.65 61.48 223.99 61.74C224.33 62.01 224.56 62.39 224.61 62.82C224.67 63.25 224.56 63.68 224.3 64.03C224.05 64.37 223.66 64.61 223.24 64.67C221.45 64.93 219.59 65.12 217.86 65.44L217.54 65.44ZM236.02 63.33C235.82 63.33 235.62 63.29 235.44 63.21C235.25 63.14 235.07 63.03 234.92 62.9C234.77 62.77 234.65 62.61 234.55 62.43C234.45 62.25 234.39 62.06 234.36 61.86C234.35 61.65 234.38 61.44 234.44 61.24C234.51 61.04 234.61 60.86 234.75 60.7C234.88 60.54 235.05 60.41 235.24 60.31C235.42 60.21 235.62 60.15 235.83 60.13C237.62 60 239.48 59.81 241.27 59.75C241.7 59.72 242.13 59.87 242.45 60.16C242.77 60.45 242.97 60.85 242.99 61.28C243.02 61.72 242.87 62.14 242.58 62.46C242.3 62.79 241.89 62.98 241.46 63.01C239.61 63.14 237.81 63.27 236.02 63.39L236.02 63.33Z" />
						<path id="Trazado_99" class="shp0" d="M254.44 62.43C254.01 62.43 253.6 62.27 253.29 61.97C252.99 61.67 252.81 61.26 252.8 60.83C252.79 60.4 252.95 59.99 253.25 59.68C253.54 59.37 253.95 59.19 254.38 59.17C255.28 59.17 256.17 59.17 257.06 59.11L257.06 59.11C257.28 59.11 257.5 59.15 257.7 59.23C257.9 59.31 258.09 59.44 258.24 59.59C258.4 59.75 258.52 59.93 258.6 60.13C258.69 60.33 258.73 60.55 258.73 60.77C258.73 60.99 258.69 61.21 258.61 61.41C258.53 61.62 258.41 61.8 258.25 61.96C258.1 62.12 257.91 62.24 257.71 62.32C257.5 62.4 257.28 62.44 257.06 62.43L254.44 62.43Z" />
					</g>
					<g id="Grupo_1728" style="opacity: 0.549">
						<path id="Trazado_100" fill-rule="evenodd" class="shp0" d="M163.23 103.57C163.73 103.62 164.21 103.77 164.66 104.01C165.1 104.26 165.49 104.58 165.8 104.97C166.12 105.37 166.35 105.82 166.49 106.3C166.63 106.78 166.67 107.29 166.62 107.79L161.44 151.85C161.39 152.35 161.24 152.83 160.99 153.27C160.75 153.71 160.43 154.1 160.03 154.42C159.64 154.73 159.19 154.97 158.71 155.11C158.23 155.25 157.72 155.29 157.22 155.23L135.54 152.68C135.04 152.62 134.56 152.47 134.11 152.23C133.67 151.99 133.28 151.66 132.97 151.27C132.65 150.88 132.42 150.43 132.28 149.95C132.14 149.46 132.1 148.96 132.15 148.46L137.33 104.4C137.38 103.9 137.54 103.41 137.78 102.97C138.02 102.53 138.34 102.14 138.74 101.82C139.13 101.51 139.58 101.28 140.06 101.14C140.55 101 141.05 100.95 141.55 101.01L163.23 103.56L163.23 103.57ZM134.84 140.33L160.67 143.34L164.51 110.6L138.68 107.59L134.84 140.33ZM141.3 102.73C141.02 102.69 140.74 102.71 140.48 102.79C140.21 102.86 139.96 102.99 139.75 103.16C139.53 103.33 139.35 103.55 139.22 103.8C139.1 104.04 139.02 104.31 139 104.58L138.87 105.99L164.7 109L164.83 107.59C164.85 107.32 164.82 107.04 164.75 106.78C164.67 106.52 164.54 106.28 164.37 106.07C164.19 105.85 163.98 105.68 163.75 105.54C163.51 105.41 163.25 105.32 162.98 105.29L141.3 102.73L141.3 102.73ZM157.35 153.5C157.62 153.53 157.9 153.51 158.16 153.43C158.42 153.35 158.67 153.22 158.88 153.05C159.1 152.88 159.27 152.67 159.41 152.43C159.54 152.19 159.62 151.92 159.65 151.65L160.42 145.13L134.58 142.12L133.82 148.64C133.79 148.92 133.82 149.19 133.9 149.45C133.98 149.71 134.11 149.96 134.28 150.17C134.45 150.38 134.66 150.56 134.9 150.69C135.14 150.82 135.4 150.91 135.67 150.94L157.35 153.5L157.35 153.5Z" />
						<path id="Trazado_101" fill-rule="evenodd" class="shp0" d="M148.67 144.82C149.07 145.04 149.42 145.33 149.7 145.69C149.98 146.05 150.19 146.47 150.31 146.91C150.42 147.35 150.45 147.81 150.38 148.26C150.22 149.66 149.23 150.83 147.87 151.22C146.51 151.6 145.06 151.13 144.18 150.02C143.31 148.9 143.2 147.38 143.9 146.15C144.6 144.92 145.97 144.24 147.37 144.42C147.83 144.47 148.27 144.6 148.67 144.82ZM146.86 149.6C147.09 149.62 147.32 149.6 147.53 149.54C147.75 149.47 147.95 149.37 148.13 149.22C148.31 149.08 148.46 148.91 148.57 148.71C148.68 148.51 148.75 148.29 148.78 148.07C148.86 147.37 148.51 146.69 147.89 146.36C147.28 146.02 146.52 146.08 145.97 146.52C145.42 146.96 145.19 147.69 145.39 148.36C145.58 149.03 146.16 149.53 146.86 149.6Z" />
						<path id="Trazado_102" class="shp0" d="M148.4 106.12L151.85 106.5C152.08 106.53 152.31 106.46 152.49 106.32C152.67 106.18 152.78 105.97 152.81 105.74C152.83 105.51 152.77 105.28 152.62 105.1C152.48 104.92 152.27 104.8 152.04 104.78L148.59 104.39C148.47 104.39 148.36 104.4 148.25 104.43C148.15 104.47 148.05 104.52 147.96 104.59C147.87 104.66 147.8 104.75 147.74 104.84C147.68 104.94 147.65 105.05 147.63 105.16C147.62 105.27 147.64 105.39 147.67 105.49C147.7 105.6 147.76 105.7 147.83 105.79C147.9 105.88 147.98 105.95 148.08 106.01C148.18 106.06 148.28 106.1 148.4 106.12Z" />
						<g id="Grupo_47">
							<path id="Trazado_103" class="shp0" d="M154.47 106.82L155.37 106.95C155.6 106.98 155.84 106.92 156.02 106.77C156.2 106.63 156.32 106.42 156.35 106.19C156.37 105.95 156.31 105.72 156.16 105.54C156.01 105.36 155.8 105.25 155.56 105.23L154.66 105.1C154.55 105.09 154.44 105.1 154.33 105.14C154.22 105.17 154.12 105.22 154.03 105.29C153.95 105.36 153.87 105.45 153.82 105.55C153.76 105.65 153.72 105.75 153.7 105.87C153.68 105.98 153.68 106.1 153.71 106.21C153.74 106.33 153.79 106.43 153.86 106.52C153.94 106.62 154.03 106.69 154.13 106.74C154.24 106.79 154.35 106.82 154.47 106.82Z" />
						</g>
						<path id="Trazado_104" class="shp0" d="" />
					</g>
					<g id="Grupo_1729" style="opacity: 0.549">
						<g id="Grupo_49">
							<path id="Trazado_105" class="shp1" d="M276.3 52.72C276.26 52.73 276.22 52.73 276.19 52.73C276.15 52.73 276.11 52.73 276.08 52.74C276.04 52.74 276 52.75 275.97 52.75C275.93 52.76 275.89 52.77 275.86 52.77C275.59 52.83 275.34 52.94 275.12 53.1C274.89 53.25 274.7 53.45 274.56 53.68C274.41 53.91 274.31 54.17 274.26 54.43C274.21 54.7 274.22 54.98 274.27 55.24C274.33 55.51 274.44 55.76 274.6 55.98C274.75 56.21 274.95 56.4 275.18 56.54C275.41 56.69 275.67 56.79 275.93 56.84C276.2 56.89 276.48 56.88 276.74 56.82C277.01 56.76 277.26 56.65 277.48 56.5C277.71 56.34 277.9 56.14 278.04 55.92C278.19 55.69 278.29 55.43 278.34 55.16C278.39 54.9 278.38 54.62 278.32 54.36C278.27 54.13 278.18 53.91 278.06 53.71C277.94 53.51 277.78 53.33 277.6 53.19C277.41 53.04 277.21 52.92 276.99 52.85C276.77 52.77 276.53 52.73 276.3 52.72Z" />
						</g>
						<g id="Grupo_50">
							<path id="Trazado_106" class="shp1" d="M291.44 49.41C291.4 49.41 291.36 49.41 291.32 49.41C291.29 49.42 291.25 49.42 291.21 49.42C291.18 49.43 291.14 49.43 291.1 49.44C291.07 49.44 291.03 49.45 290.99 49.46C290.73 49.52 290.48 49.63 290.25 49.78C290.03 49.94 289.84 50.14 289.69 50.37C289.54 50.6 289.44 50.85 289.4 51.12C289.35 51.39 289.35 51.66 289.41 51.93C289.46 52.16 289.55 52.38 289.68 52.58C289.8 52.78 289.96 52.95 290.14 53.1C290.32 53.25 290.53 53.36 290.75 53.44C290.97 53.52 291.2 53.56 291.44 53.56L291.44 53.56C291.47 53.56 291.51 53.56 291.55 53.56C291.59 53.56 291.62 53.55 291.66 53.55C291.7 53.54 291.73 53.54 291.77 53.53C291.81 53.53 291.84 53.52 291.88 53.51C292.38 53.41 292.82 53.12 293.12 52.7C293.43 52.28 293.56 51.77 293.51 51.26C293.45 50.75 293.21 50.28 292.83 49.94C292.44 49.6 291.95 49.41 291.43 49.41L291.44 49.41Z" />
						</g>
						<g id="Grupo_51">
							<path id="Trazado_107" class="shp1" d="M306.58 46.1C306.03 46.1 305.5 46.32 305.11 46.7C304.72 47.09 304.5 47.62 304.5 48.17C304.5 48.72 304.72 49.25 305.11 49.64C305.5 50.02 306.03 50.24 306.58 50.24L306.58 50.24C307.13 50.24 307.65 50.02 308.04 49.64C308.43 49.25 308.65 48.72 308.65 48.17C308.65 47.62 308.43 47.09 308.04 46.7C307.65 46.32 307.13 46.1 306.58 46.1L306.58 46.1Z" />
						</g>
						<g id="Grupo_52">
							<path id="Trazado_108" class="shp1" d="" />
							<path id="Trazado_109" fill-rule="evenodd" class="shp1" d="M359.56 19C361.55 19.01 363.52 19.35 365.39 20.02C367.26 20.68 369.01 21.66 370.56 22.91C372.11 24.15 373.43 25.65 374.48 27.34C375.53 29.02 376.29 30.88 376.72 32.81L394.95 116.07C395.44 118.33 395.48 120.66 395.07 122.93C394.67 125.2 393.81 127.36 392.57 129.31C391.33 131.25 389.71 132.93 387.82 134.24C385.93 135.56 383.8 136.5 381.54 136.99L298.28 155.22C297.98 155.29 297.67 155.35 297.35 155.4C297.04 155.45 296.73 155.49 296.42 155.53C296.1 155.56 295.79 155.58 295.47 155.6C295.16 155.62 294.84 155.63 294.52 155.63C292.54 155.62 290.57 155.27 288.7 154.61C286.82 153.94 285.08 152.97 283.53 151.72C281.98 150.48 280.66 148.98 279.61 147.29C278.56 145.6 277.8 143.75 277.36 141.81L259.14 58.56C258.65 56.3 258.61 53.97 259.01 51.7C259.42 49.43 260.27 47.27 261.52 45.32C262.76 43.38 264.37 41.7 266.27 40.38C268.16 39.07 270.29 38.13 272.54 37.63L355.8 19.41C356.11 19.34 356.42 19.28 356.73 19.23C357.04 19.18 357.36 19.14 357.67 19.1C357.99 19.07 358.3 19.04 358.62 19.03C358.93 19.01 359.25 19 359.56 19ZM294.52 151.48C294.76 151.48 295 151.47 295.25 151.46C295.49 151.45 295.73 151.43 295.97 151.4C296.21 151.38 296.45 151.34 296.68 151.3C296.92 151.27 297.16 151.22 297.39 151.17L380.65 132.94C382.37 132.56 384 131.85 385.45 130.84C386.89 129.83 388.13 128.55 389.08 127.07C390.03 125.58 390.68 123.93 390.99 122.19C391.3 120.46 391.27 118.68 390.89 116.96L376.43 50.86L266.94 74.83L281.41 140.93C281.74 142.41 282.32 143.82 283.12 145.11C283.92 146.4 284.94 147.55 286.12 148.5C287.3 149.45 288.64 150.19 290.07 150.7C291.5 151.21 293 151.47 294.52 151.48ZM375.54 46.81L372.67 33.7C372.29 31.97 371.58 30.34 370.58 28.9C369.57 27.45 368.29 26.21 366.8 25.26C365.32 24.31 363.66 23.66 361.93 23.35C360.19 23.04 358.41 23.08 356.69 23.45L273.43 41.69C271.71 42.06 270.08 42.78 268.63 43.78C267.18 44.79 265.95 46.07 265 47.56C264.05 49.04 263.4 50.7 263.09 52.43C262.78 54.17 262.81 55.95 263.18 57.67L266.05 70.78L375.54 46.81Z" />
						</g>
						<g id="Grupo_53">
							<path id="Trazado_110" class="shp1" d="" />
							<path id="Trazado_111" class="shp1" d="M298.9 83.47C298.72 83.47 298.55 83.49 298.38 83.53C298.22 83.58 298.05 83.64 297.9 83.72C297.75 83.81 297.61 83.91 297.48 84.03C297.35 84.15 297.24 84.28 297.15 84.43L285.33 102.88C285.18 103.11 285.08 103.36 285.03 103.63C284.98 103.9 284.99 104.17 285.05 104.44C285.11 104.7 285.22 104.96 285.37 105.18C285.53 105.4 285.72 105.59 285.95 105.74L304.4 117.57C304.87 117.86 305.43 117.96 305.97 117.84C306.5 117.73 306.97 117.4 307.27 116.94C307.56 116.47 307.67 115.91 307.55 115.38C307.43 114.84 307.1 114.37 306.64 114.07L289.93 103.37L300.64 86.66C300.84 86.35 300.96 85.99 300.97 85.62C300.98 85.24 300.9 84.88 300.72 84.55C300.54 84.22 300.28 83.95 299.96 83.76C299.64 83.57 299.27 83.47 298.9 83.47L298.9 83.47Z" />
						</g>
						<g id="Grupo_54">
							<path id="Trazado_112" class="shp1" d="" />
							<path id="Trazado_113" class="shp1" d="M344.31 73.53C343.86 73.53 343.43 73.67 343.07 73.94C342.71 74.21 342.45 74.59 342.32 75.02C342.19 75.45 342.21 75.91 342.37 76.33C342.52 76.75 342.81 77.11 343.19 77.35L359.9 88.05L349.19 104.76C348.88 105.22 348.77 105.79 348.88 106.34C349 106.88 349.32 107.36 349.79 107.66C350.26 107.96 350.83 108.06 351.38 107.94C351.92 107.81 352.39 107.47 352.68 107L364.5 88.54C364.65 88.31 364.75 88.06 364.8 87.79C364.85 87.52 364.84 87.25 364.79 86.98C364.73 86.72 364.62 86.47 364.46 86.24C364.31 86.02 364.11 85.83 363.88 85.68L345.43 73.86C345.34 73.8 345.26 73.76 345.17 73.72C345.08 73.68 344.99 73.64 344.89 73.61C344.8 73.59 344.7 73.56 344.61 73.55C344.51 73.54 344.41 73.53 344.31 73.53Z" />
						</g>
						<g id="Grupo_55">
							<path id="Trazado_114" class="shp1" d="" />
							<path id="Trazado_115" class="shp1" d="M329.17 76.84C328.94 76.84 328.71 76.88 328.5 76.95C328.28 77.03 328.08 77.14 327.9 77.28C327.71 77.42 327.56 77.59 327.43 77.78C327.31 77.97 327.22 78.18 327.16 78.41L318.65 112C318.57 112.3 318.57 112.62 318.63 112.93C318.7 113.24 318.83 113.53 319.02 113.78C319.22 114.03 319.47 114.23 319.75 114.37C320.03 114.51 320.34 114.58 320.66 114.58L320.66 114.58C320.89 114.58 321.12 114.54 321.33 114.47C321.55 114.39 321.75 114.28 321.93 114.14C322.11 114 322.27 113.83 322.39 113.64C322.52 113.45 322.61 113.24 322.67 113.02L331.18 79.42C331.25 79.16 331.26 78.89 331.22 78.62C331.18 78.35 331.09 78.09 330.95 77.85C330.81 77.62 330.63 77.42 330.41 77.25C330.19 77.09 329.94 76.97 329.68 76.91C329.64 76.9 329.6 76.89 329.55 76.88C329.51 76.87 329.47 76.86 329.43 76.86C329.38 76.85 329.34 76.85 329.3 76.85C329.25 76.84 329.21 76.84 329.17 76.84Z" />
						</g>
					</g>
					<g id="Grupo_1730" style="opacity: 0.549">
						<g id="Grupo_57">
							<path id="Trazado_116" class="shp0" d="" />
							<path id="Trazado_117" class="shp0" d="M131.19 285.49C131.07 285.63 130.99 285.79 130.95 285.96C130.91 286.13 130.92 286.31 130.97 286.48C131.02 286.65 131.11 286.81 131.24 286.93C131.37 287.05 131.52 287.14 131.69 287.19C131.76 287.21 131.83 287.22 131.89 287.23C131.96 287.23 132.03 287.23 132.1 287.22C132.17 287.22 132.24 287.2 132.3 287.18C132.37 287.16 132.43 287.13 132.49 287.1C132.61 287.03 132.71 286.94 132.79 286.83C132.88 286.72 132.94 286.6 132.98 286.47C133.01 286.33 133.03 286.2 133.01 286.06C132.99 285.93 132.95 285.79 132.89 285.67C132.81 285.53 132.69 285.4 132.55 285.31C132.41 285.22 132.25 285.16 132.08 285.15C131.92 285.13 131.75 285.15 131.59 285.21C131.44 285.27 131.3 285.37 131.19 285.5L131.19 285.49Z" />
						</g>
						<g id="Grupo_58">
							<path id="Trazado_118" class="shp0" d="" />
							<path id="Trazado_119" fill-rule="evenodd" class="shp0" d="M114.78 326.89C114.99 326.64 115.22 326.4 115.45 326.18C115.69 325.95 115.93 325.74 116.18 325.53C116.44 325.33 116.7 325.13 116.97 324.95C117.24 324.77 117.51 324.59 117.8 324.44L121.4 322.41L114.06 309.33L77.47 329.87C76.16 330.6 74.72 331.07 73.24 331.24C71.75 331.42 70.24 331.3 68.8 330.9C67.36 330.49 66.01 329.81 64.83 328.88C63.65 327.96 62.67 326.81 61.93 325.5L23.12 256.37C22.39 255.06 21.92 253.63 21.74 252.14C21.56 250.65 21.68 249.14 22.09 247.7C22.49 246.26 23.18 244.91 24.1 243.73C25.03 242.55 26.18 241.57 27.49 240.84L120.57 188.59C121.87 187.85 123.31 187.39 124.8 187.21C126.29 187.03 127.79 187.15 129.24 187.56C130.68 187.96 132.03 188.65 133.2 189.57C134.38 190.5 135.37 191.64 136.1 192.95L174.91 262.08C175.64 263.39 176.11 264.82 176.29 266.31C176.47 267.8 176.35 269.31 175.95 270.75C175.54 272.19 174.86 273.54 173.93 274.72C173 275.9 171.85 276.88 170.55 277.62L133.96 298.16L141.3 311.24L144.91 309.22C146.21 308.49 147.65 308.02 149.14 307.84C150.63 307.66 152.14 307.78 153.58 308.19C155.02 308.59 156.37 309.28 157.55 310.2C158.72 311.13 159.71 312.28 160.44 313.58C160.51 313.7 160.55 313.83 160.57 313.97C160.58 314.11 160.57 314.24 160.53 314.37C160.5 314.51 160.43 314.63 160.35 314.74C160.27 314.85 160.16 314.94 160.04 315.01L114.86 340.37C114.74 340.44 114.61 340.48 114.47 340.5C114.33 340.51 114.2 340.5 114.06 340.47C113.93 340.43 113.81 340.37 113.7 340.28C113.59 340.2 113.5 340.09 113.43 339.97C112.86 338.95 112.45 337.85 112.21 336.7C111.98 335.56 111.92 334.38 112.04 333.22C112.16 332.05 112.45 330.91 112.92 329.84C113.38 328.76 114.01 327.77 114.78 326.89ZM156.63 312.16C155.91 311.53 155.1 311.01 154.22 310.63C153.34 310.25 152.41 310 151.46 309.9C150.51 309.81 149.54 309.85 148.61 310.05C147.67 310.24 146.77 310.58 145.93 311.04L118.82 326.26C117.99 326.73 117.23 327.33 116.57 328.02C115.92 328.72 115.37 329.52 114.96 330.39C114.55 331.25 114.28 332.18 114.15 333.13C114.02 334.08 114.04 335.04 114.2 335.98L114.58 338.13L158.28 313.6L156.63 312.16ZM171.98 273.8C172.61 273.07 173.12 272.26 173.5 271.38C173.88 270.51 174.12 269.57 174.22 268.62C174.32 267.67 174.27 266.71 174.08 265.77C173.88 264.84 173.55 263.93 173.08 263.1L168.52 254.98L59.19 316.35L63.75 324.48C64.35 325.54 65.16 326.48 66.12 327.23C67.08 327.99 68.18 328.55 69.36 328.88C70.54 329.21 71.77 329.31 72.98 329.16C74.2 329.02 75.37 328.64 76.44 328.04L169.52 275.79C169.75 275.66 169.98 275.52 170.19 275.37C170.41 275.22 170.63 275.06 170.83 274.9C171.04 274.73 171.24 274.56 171.43 274.37C171.62 274.19 171.8 274 171.98 273.8L171.98 273.8ZM132.13 299.18L115.88 308.3L123.23 321.39L139.48 312.27L132.13 299.18ZM134.28 193.97C133.68 192.9 132.87 191.97 131.91 191.21C130.95 190.46 129.85 189.9 128.67 189.57C127.49 189.23 126.26 189.14 125.05 189.28C123.83 189.43 122.66 189.81 121.59 190.41L28.51 242.66C27.44 243.26 26.51 244.06 25.75 245.02C24.99 245.99 24.43 247.09 24.1 248.27C23.77 249.44 23.68 250.67 23.82 251.89C23.97 253.1 24.35 254.28 24.95 255.35L58.17 314.53L71.26 307.19L51.48 271.95C51.46 271.91 51.45 271.88 51.43 271.84C51.42 271.8 51.4 271.76 51.39 271.72C51.38 271.68 51.37 271.64 51.37 271.6C51.36 271.56 51.35 271.52 51.35 271.48L50.24 248.34C50.24 248.24 50.25 248.15 50.27 248.05C50.29 247.96 50.33 247.87 50.37 247.78C50.42 247.7 50.48 247.62 50.55 247.55C50.61 247.48 50.69 247.42 50.77 247.38C50.86 247.33 50.95 247.29 51.04 247.27C51.14 247.25 51.23 247.24 51.33 247.24C51.43 247.25 51.52 247.26 51.61 247.29C51.71 247.32 51.79 247.37 51.87 247.42L71 260.38L71.07 260.43C71.1 260.46 71.13 260.48 71.16 260.51C71.19 260.53 71.22 260.56 71.24 260.59C71.27 260.62 71.3 260.65 71.32 260.68C71.34 260.71 71.36 260.74 71.38 260.78L91.16 296.01L105.15 288.16L104.41 286.82C103.16 284.53 101.93 282.2 100.77 279.88C99.96 278.31 99.18 276.73 98.42 275.13C97.67 273.53 96.94 271.92 96.24 270.3C95.53 268.68 94.86 267.05 94.21 265.41C93.56 263.77 92.93 262.11 92.34 260.45L92.05 259.61L91.17 259.44C89.87 259.19 88.62 258.72 87.48 258.04C86.34 257.36 85.33 256.48 84.49 255.46C83.66 254.43 83 253.26 82.57 252.01C82.13 250.76 81.92 249.44 81.93 248.11L82.15 230.16C82.15 230.06 82.17 229.97 82.19 229.89C82.22 229.8 82.26 229.71 82.3 229.63C82.35 229.56 82.41 229.48 82.47 229.42C82.54 229.36 82.61 229.3 82.69 229.25C82.77 229.21 82.85 229.18 82.94 229.15C83.03 229.13 83.12 229.12 83.21 229.12C83.3 229.12 83.39 229.14 83.48 229.16C83.57 229.19 83.66 229.22 83.73 229.27L99.18 238.43C100.37 239.14 101.43 240.07 102.29 241.16C103.16 242.25 103.81 243.48 104.23 244.81C104.65 246.14 104.82 247.53 104.74 248.92C104.66 250.3 104.32 251.67 103.75 252.93L103.35 253.8L103.95 254.54C105.02 255.89 106.07 257.25 107.1 258.63C108.13 260.01 109.14 261.41 110.12 262.82C111.1 264.23 112.06 265.66 113 267.1C113.94 268.54 114.86 270 115.75 271.47C117.09 273.62 118.44 275.89 119.77 278.2L120.53 279.52L134.52 271.67L104.59 218.36C104.52 218.24 104.48 218.11 104.47 217.97C104.45 217.84 104.46 217.7 104.5 217.57C104.54 217.44 104.6 217.31 104.68 217.21C104.77 217.1 104.87 217.01 104.99 216.94L123.06 206.79C123.18 206.72 123.31 206.68 123.45 206.67C123.59 206.65 123.73 206.66 123.86 206.7C123.99 206.73 124.11 206.8 124.22 206.88C124.33 206.97 124.42 207.07 124.49 207.19L154.42 260.5L167.5 253.16L134.28 193.97ZM148.54 254.31L144.94 256.33C144.82 256.4 144.69 256.44 144.55 256.46C144.41 256.48 144.27 256.47 144.14 256.43C144.01 256.39 143.89 256.33 143.78 256.24C143.67 256.16 143.58 256.05 143.51 255.93C143.45 255.81 143.41 255.68 143.39 255.55C143.38 255.41 143.39 255.27 143.42 255.14C143.46 255.01 143.52 254.89 143.61 254.78C143.69 254.67 143.79 254.58 143.91 254.51L147.52 252.49L140.93 240.76L137.32 242.78C137.21 242.85 137.07 242.89 136.94 242.91C136.8 242.92 136.66 242.91 136.53 242.88C136.4 242.84 136.27 242.78 136.17 242.69C136.06 242.61 135.97 242.5 135.9 242.38C135.83 242.26 135.79 242.13 135.78 241.99C135.76 241.86 135.77 241.72 135.81 241.59C135.85 241.46 135.91 241.33 135.99 241.22C136.08 241.12 136.18 241.02 136.3 240.96L139.91 238.93L134.59 229.46L130.98 231.49C130.86 231.55 130.73 231.6 130.6 231.61C130.46 231.63 130.32 231.62 130.19 231.58C130.06 231.54 129.93 231.48 129.83 231.4C129.72 231.31 129.63 231.21 129.56 231.09C129.49 230.97 129.45 230.83 129.44 230.7C129.42 230.56 129.43 230.42 129.47 230.29C129.51 230.16 129.57 230.04 129.65 229.93C129.74 229.82 129.84 229.73 129.96 229.66L133.57 227.64L128.25 218.17L124.64 220.19C124.52 220.26 124.39 220.3 124.25 220.32C124.12 220.33 123.98 220.32 123.85 220.28C123.72 220.25 123.59 220.18 123.48 220.1C123.38 220.01 123.29 219.91 123.22 219.79C123.15 219.67 123.11 219.54 123.1 219.4C123.08 219.27 123.09 219.13 123.13 219C123.17 218.86 123.23 218.74 123.31 218.63C123.4 218.52 123.5 218.43 123.62 218.37L127.22 216.34L123.18 209.13L106.93 218.25L136.34 270.65L152.59 261.53L148.54 254.31ZM117.93 279.2C117.08 277.73 116.19 276.22 115.28 274.7L114.5 273.42L103.08 279.84L103.77 281.16C104.56 282.7 105.39 284.25 106.22 285.77L106.97 287.14L118.7 280.55L117.93 279.2ZM112.52 270.26C108.51 263.97 105.23 259.54 103.18 256.94L102.16 255.65L100.94 256.74C100.59 257.06 100.22 257.35 99.83 257.62C99.44 257.89 99.04 258.13 98.62 258.35C98.2 258.57 97.77 258.76 97.33 258.93C96.89 259.09 96.44 259.23 95.98 259.34L94.29 259.74L94.89 261.37C96.06 264.56 98.15 269.77 101.42 276.49L102.14 277.96L113.4 271.64L112.52 270.26ZM70.06 262.72L62.85 266.76L82.12 301.09L89.34 297.04L70.06 262.72ZM61.03 267.79L53.82 271.84L73.09 306.16L80.3 302.12L61.03 267.79ZM100.38 254.37C101.28 253.34 101.94 252.12 102.31 250.81C102.68 249.5 102.77 248.12 102.55 246.77C102.33 245.42 101.82 244.14 101.06 243.01C100.29 241.88 99.29 240.94 98.11 240.24L84.23 232L84.03 248.14C84.01 249.78 84.43 251.39 85.23 252.81C86.03 254.23 87.2 255.42 88.6 256.25C90.01 257.09 91.61 257.53 93.24 257.55C94.87 257.57 96.48 257.17 97.91 256.37C98.14 256.24 98.37 256.1 98.59 255.95C98.81 255.8 99.02 255.64 99.23 255.47C99.44 255.31 99.64 255.13 99.83 254.95C100.02 254.76 100.21 254.57 100.38 254.37L100.38 254.37ZM52.43 250.34L53.36 269.7L68.48 261.21L52.43 250.34Z" />
						</g>
						<g id="Grupo_59">
							<path id="Trazado_120" class="shp0" d="" />
							<path id="Trazado_121" class="shp0" d="M108.59 298.18C108.52 298.26 108.47 298.35 108.42 298.45C108.38 298.55 108.35 298.65 108.34 298.76C108.33 298.86 108.34 298.97 108.36 299.08C108.38 299.18 108.42 299.28 108.47 299.38C108.54 299.5 108.63 299.6 108.74 299.69C108.84 299.77 108.97 299.83 109.1 299.87C109.23 299.91 109.37 299.92 109.51 299.9C109.64 299.89 109.78 299.84 109.9 299.78L123.45 292.17C123.57 292.1 123.67 292.01 123.76 291.9C123.84 291.79 123.9 291.67 123.94 291.53C123.98 291.4 123.99 291.27 123.97 291.13C123.96 290.99 123.92 290.86 123.85 290.74C123.78 290.62 123.69 290.52 123.59 290.43C123.48 290.35 123.35 290.28 123.22 290.25C123.09 290.21 122.95 290.2 122.81 290.21C122.68 290.23 122.55 290.27 122.43 290.34L108.87 297.95C108.84 297.97 108.82 297.98 108.79 298C108.77 298.01 108.75 298.03 108.72 298.05C108.7 298.07 108.68 298.09 108.66 298.11C108.63 298.13 108.61 298.15 108.59 298.18Z" />
						</g>
					</g>
				</g>
				<g id="Grupo_1818">
					<path id="Trazado_122" class="shp2" d="M272.93 301.2C272.93 301.2 283.15 292.16 284.53 288.49C285.92 284.82 292.62 281.02 291.48 288.77C290.35 296.51 286.45 311.59 286.45 311.59L272.38 311.05" />
					<path id="Trazado_123" class="shp3" d="M221.48 262.04C221.48 262.04 163.18 283.54 165.2 305.34C167.21 327.14 277.09 311.93 282 307.9L275.08 301.4C275.08 301.4 193.87 310.99 189.03 302.51C184.18 294.03 220.93 274.25 227.39 271.82C233.85 269.4 221.48 262.04 221.48 262.04Z" />
					<path id="Trazado_124" class="shp3" d="M262.92 260.93C262.92 260.93 321.87 285.96 316.62 298.88C311.36 311.81 221.86 319.04 198.26 300.9L202.8 296.46C202.8 296.46 290.37 306.96 290.77 297.27C291.18 287.58 246.36 267.75 246.36 267.75L262.92 260.93Z" />
					<path id="Trazado_125" class="shp2" d="M205.29 304.68C205.29 304.68 195.49 308.11 194.21 305.65C192.94 303.19 187.85 288.1 188.21 284.38C188.58 280.65 191.81 275.72 195.55 281.8C199.35 287.88 206.43 296.81 206.43 296.81" />
					<path id="Trazado_126" class="shp2" d="M278.56 295.8C281.09 293.23 283.62 290.39 284.26 288.7C285.64 285.03 292.34 281.23 291.21 288.97C290.76 292.02 290.29 294.43 289.39 298.38" />
					<path id="Trazado_127" class="shp2" d="" />
					<path id="Trazado_128" class="shp0" d="M199.04 257.81L195.87 263.39C195.87 263.39 167.01 247.89 158.27 238.94C149.53 230 144.98 222.21 146.35 212.08C147.73 201.96 155.93 185.84 184.37 173.52C212.82 161.19 226.31 153.13 226.31 153.13C226.31 153.13 243.33 152.23 246.42 153.47C249.59 154.71 271.49 165.66 271.49 165.66L270.11 280.68L208.75 280.68L202.07 177.99C202.07 177.99 175.97 188.87 168.46 195.07C160.95 201.27 139.95 216.7 164.88 236.05C189.81 255.4 199.04 257.81 199.04 257.81Z" />
					<path id="Trazado_129" class="shp0" d="M247.18 153.13C247.18 153.13 260.68 161.19 289.12 173.52C317.56 185.84 325.76 201.96 327.14 212.08C328.52 222.21 323.97 229.99 315.22 238.94C306.47 247.9 277.62 263.39 277.62 263.39L274.45 257.81C274.45 257.81 283.68 255.4 308.61 236.05C333.54 216.7 312.54 201.27 305.03 195.07C297.52 188.87 271.42 177.99 271.42 177.99" />
					<path id="Trazado_130" class="shp4" d="M214.26 88.94L212.74 105.68L212.74 108.43C212.74 108.43 208.54 108.3 208.75 112.15C208.89 116.01 210.19 117.18 211.5 117.59C212.74 118.08 214.4 118.69 214.26 120.97C214.12 123.24 217.36 133.99 220.53 137.02C223.69 140.12 228.24 147 241.46 144.25C254.69 141.49 258.68 130.89 259.09 128.2C259.22 127.63 259.35 127.07 259.5 126.51C259.65 125.96 259.81 125.4 259.98 124.85C260.16 124.3 260.34 123.75 260.54 123.21C260.73 122.66 260.94 122.12 261.16 121.59C261.38 121.05 265.15 119.66 265.15 117.25C265.15 114.84 263.5 111.88 262.88 112.01C262.19 112.15 263.5 103.54 263.5 103.54L261.99 88.94L228.38 82.95L214.26 88.94Z" />
					<path id="Trazado_131" class="shp5" d="M211.99 111.4L212.81 81.71C212.81 81.71 211.85 72.07 224.18 71.93C236.58 71.79 252.76 70.83 252.76 70.83C253.03 70.97 253.3 71.13 253.55 71.3C253.81 71.47 254.06 71.64 254.31 71.83C254.55 72.03 254.78 72.23 255.01 72.44C255.23 72.65 255.45 72.87 255.65 73.11C255.83 73.39 256.04 73.65 256.29 73.89C256.53 74.12 256.8 74.32 257.1 74.49C257.39 74.66 257.7 74.79 258.03 74.88C258.35 74.97 258.69 75.02 259.02 75.03C260.61 75.03 266.39 73.24 266.26 77.31C266.12 81.3 262.81 112.16 262.81 112.16L261.85 112.71L260.88 97.14C261.64 91.01 253.1 91.01 253.1 91.01C253.1 91.01 235.61 92.6 228.03 89.08C220.46 85.57 215.98 95.21 215.98 95.21L213.09 112.84L211.99 111.4Z" />
					<path id="Trazado_132" class="shp6" d="M226.45 124.69L248.28 124.69C248.28 124.69 247.73 137.57 237.19 137.57C226.59 137.57 226.45 124.69 226.45 124.69Z" />
					<path id="Trazado_133" class="shp5" d="M221.08 100.24C221.2 100.15 221.32 100.07 221.44 99.99C221.56 99.91 221.69 99.83 221.82 99.76C221.94 99.68 222.07 99.61 222.2 99.54C222.33 99.47 222.46 99.4 222.59 99.34C222.73 99.28 222.87 99.22 223.01 99.17C223.15 99.11 223.29 99.06 223.44 99.02C223.58 98.97 223.73 98.93 223.87 98.89C224.02 98.85 224.17 98.82 224.31 98.79C224.65 98.71 225 98.65 225.34 98.62C225.69 98.58 226.04 98.57 226.39 98.58C226.74 98.59 227.08 98.63 227.43 98.68C227.77 98.74 228.11 98.82 228.45 98.93C228.52 98.95 228.6 98.98 228.68 99C228.76 99.03 228.83 99.07 228.91 99.1C228.98 99.13 229.06 99.17 229.13 99.21C229.2 99.25 229.28 99.29 229.35 99.34C229.41 99.36 229.47 99.39 229.53 99.42C229.59 99.45 229.65 99.49 229.7 99.52C229.76 99.56 229.82 99.59 229.87 99.63C229.93 99.67 229.98 99.71 230.03 99.75C230.45 100.03 230.72 100.37 231 100.58L231.34 100.92L230.93 100.71C230.89 100.7 230.85 100.68 230.82 100.66C230.78 100.64 230.75 100.62 230.71 100.59C230.68 100.57 230.64 100.55 230.61 100.52C230.58 100.49 230.55 100.47 230.52 100.44C230.46 100.42 230.41 100.4 230.36 100.38C230.31 100.36 230.25 100.34 230.2 100.31C230.15 100.29 230.1 100.27 230.05 100.24C230 100.22 229.95 100.19 229.9 100.16C229.69 100.03 229.42 100.03 229.21 99.89C229.14 99.86 229.07 99.84 229.01 99.82C228.94 99.8 228.87 99.78 228.8 99.76C228.73 99.74 228.66 99.73 228.59 99.71C228.52 99.7 228.45 99.69 228.38 99.68C228.3 99.66 228.22 99.64 228.14 99.62C228.06 99.61 227.98 99.59 227.9 99.58C227.82 99.57 227.74 99.56 227.66 99.55C227.58 99.55 227.5 99.54 227.42 99.54C227.34 99.53 227.26 99.52 227.18 99.51C227.1 99.5 227.02 99.49 226.94 99.48C226.86 99.48 226.78 99.47 226.7 99.47C226.61 99.47 226.53 99.47 226.45 99.47C226.3 99.46 226.14 99.45 225.99 99.45C225.83 99.45 225.67 99.45 225.52 99.46C225.36 99.47 225.21 99.49 225.05 99.52C224.9 99.54 224.75 99.57 224.59 99.61C224.45 99.62 224.32 99.64 224.18 99.65C224.04 99.67 223.9 99.69 223.76 99.72C223.62 99.74 223.49 99.76 223.35 99.79C223.21 99.82 223.08 99.85 222.94 99.89C222.78 99.9 222.63 99.92 222.47 99.94C222.31 99.96 222.16 99.99 222 100.02C221.84 100.05 221.69 100.08 221.54 100.12C221.38 100.15 221.23 100.19 221.08 100.24Z" />
					<path id="Trazado_134" class="shp5" d="M244.97 100.93C245.02 100.78 245.07 100.64 245.13 100.49C245.19 100.35 245.26 100.22 245.33 100.08C245.41 99.95 245.49 99.82 245.58 99.7C245.67 99.57 245.77 99.46 245.87 99.34C245.98 99.22 246.09 99.1 246.21 98.98C246.33 98.87 246.45 98.76 246.58 98.66C246.7 98.55 246.84 98.45 246.97 98.36C247.11 98.27 247.25 98.18 247.39 98.1C247.67 97.97 248.08 97.83 248.35 97.69C248.44 97.66 248.53 97.64 248.62 97.62C248.71 97.59 248.81 97.57 248.9 97.56C248.99 97.54 249.08 97.52 249.17 97.51C249.27 97.5 249.36 97.49 249.45 97.48C249.79 97.47 250.13 97.48 250.47 97.51C250.81 97.54 251.15 97.59 251.48 97.67C251.81 97.74 252.13 97.84 252.45 97.96C252.77 98.08 253.08 98.22 253.38 98.38C253.51 98.46 253.64 98.53 253.77 98.61C253.9 98.69 254.02 98.76 254.15 98.84C254.28 98.92 254.4 99.01 254.53 99.09C254.65 99.17 254.77 99.26 254.89 99.35C254.86 99.33 254.82 99.32 254.78 99.3C254.74 99.29 254.7 99.28 254.66 99.26C254.62 99.25 254.58 99.24 254.54 99.23C254.49 99.22 254.45 99.22 254.41 99.21C254.14 99.07 253.72 99 253.17 98.8C252.87 98.7 252.57 98.62 252.26 98.55C251.96 98.48 251.65 98.42 251.33 98.38C251.02 98.34 250.71 98.32 250.4 98.31C250.08 98.29 249.77 98.3 249.45 98.31C249.29 98.33 249.13 98.35 248.96 98.38C248.8 98.41 248.64 98.44 248.48 98.47C248.32 98.51 248.16 98.54 248 98.59C247.84 98.63 247.68 98.68 247.52 98.73C247.39 98.77 247.25 98.82 247.12 98.88C246.99 98.94 246.86 99 246.73 99.07C246.6 99.14 246.48 99.22 246.36 99.3C246.24 99.38 246.12 99.46 246.01 99.56C245.6 99.9 245.32 100.18 245.05 100.45C245.06 100.49 245.07 100.53 245.07 100.58C245.07 100.62 245.07 100.66 245.06 100.7C245.06 100.74 245.05 100.78 245.03 100.82C245.02 100.86 245 100.89 244.97 100.93L244.97 100.93Z" />
					<g id="Grupo_62">
						<g id="Grupo_61">
							<path id="Elipse_27" class="shp7" d="M226.72 111.81C225.73 111.81 224.93 111.01 224.93 110.02C224.93 109.03 225.73 108.23 226.72 108.23C227.71 108.23 228.52 109.03 228.52 110.02C228.52 111.01 227.71 111.81 226.72 111.81Z" />
							<path id="Elipse_28" class="shp7" d="M247.25 113.6C246.26 113.6 245.46 112.8 245.46 111.81C245.46 110.82 246.26 110.02 247.25 110.02C248.24 110.02 249.04 110.82 249.04 111.81C249.04 112.8 248.24 113.6 247.25 113.6Z" />
						</g>
					</g>
					<g id="Grupo_65">
						<g id="Grupo_64">
							<g id="Grupo_63">
								<path id="Trazado_135" class="shp8" d="M212.47 106.23C212.47 106.23 211.03 112.84 212.47 115.39C213.92 118.01 217.64 122.76 222.46 120.83C227.28 118.9 233.82 111.81 233.82 111.81C233.82 111.81 237.82 106.37 232.58 103.48C227.28 100.58 220.25 100.03 217.98 100.72C215.64 101.48 212.95 103.61 212.47 106.23Z" />
								<path id="Trazado_136" class="shp8" d="M262.81 109.54C262.81 109.54 263.5 116.22 261.71 118.63C259.92 120.97 255.72 125.31 251.17 122.9C246.63 120.42 240.91 112.63 240.91 112.63C240.91 112.63 237.54 106.78 243.25 104.51C248.83 102.23 255.93 102.58 258.13 103.54C260.26 104.44 262.67 106.92 262.81 109.54Z" />
							</g>
							<path id="Trazado_137" fill-rule="evenodd" class="shp9" d="M211.99 115.73C210.47 112.98 211.85 106.43 211.92 106.16C212.33 103.34 215.29 101.06 217.77 100.31C217.99 100.25 218.21 100.2 218.43 100.17C218.66 100.13 218.88 100.1 219.1 100.07C219.33 100.05 219.55 100.04 219.78 100.03C220 100.02 220.23 100.02 220.46 100.03C221.53 100.05 222.6 100.13 223.67 100.27C224.73 100.41 225.79 100.61 226.83 100.87C227.88 101.13 228.9 101.45 229.91 101.83C230.92 102.2 231.9 102.64 232.86 103.13C233.22 103.3 233.55 103.51 233.87 103.75C234.18 104 234.46 104.28 234.71 104.59C234.96 104.9 235.18 105.23 235.35 105.59C235.53 105.95 235.66 106.32 235.75 106.71C236.37 109.53 234.37 112.29 234.3 112.36C233.96 112.7 227.55 119.59 222.66 121.52C222.47 121.58 222.27 121.63 222.07 121.68C221.87 121.73 221.67 121.77 221.47 121.8C221.27 121.84 221.07 121.87 220.86 121.89C220.66 121.91 220.45 121.92 220.25 121.93C215.84 121.93 212.81 117.18 211.99 115.73ZM219.93 101.08C219.74 101.09 219.54 101.11 219.35 101.13C219.15 101.15 218.96 101.18 218.76 101.22C218.57 101.25 218.38 101.29 218.18 101.34C215.98 102.03 213.5 104.1 213.16 106.37C212.74 108.16 211.99 113.19 213.09 115.18C213.78 116.49 216.53 120.76 220.32 120.76C220.49 120.76 220.66 120.75 220.83 120.73C221 120.72 221.17 120.69 221.34 120.65C221.51 120.62 221.67 120.58 221.84 120.53C222 120.48 222.16 120.42 222.32 120.35C226.93 118.49 233.41 111.53 233.54 111.47C233.54 111.47 235.27 109.05 234.78 106.78C234.7 106.48 234.59 106.18 234.44 105.9C234.3 105.62 234.12 105.36 233.92 105.12C233.72 104.87 233.49 104.65 233.24 104.46C232.99 104.26 232.73 104.1 232.44 103.96C231.52 103.5 230.57 103.1 229.6 102.74C228.63 102.39 227.65 102.09 226.64 101.85C225.64 101.61 224.63 101.42 223.61 101.29C222.58 101.16 221.56 101.08 220.53 101.06C220.33 101.06 220.13 101.07 219.93 101.08Z" />
							<path id="Trazado_138" fill-rule="evenodd" class="shp9" d="M253.93 124.21C253.66 124.2 253.39 124.18 253.12 124.14C252.85 124.11 252.59 124.05 252.33 123.98C252.06 123.92 251.81 123.83 251.56 123.73C251.31 123.63 251.06 123.51 250.83 123.38C246.21 120.83 240.63 113.19 240.36 112.91C240.22 112.77 238.57 109.74 239.6 107.06C239.75 106.68 239.93 106.33 240.15 106C240.38 105.67 240.64 105.36 240.93 105.09C241.22 104.81 241.54 104.57 241.88 104.37C242.23 104.17 242.6 104.01 242.98 103.89C243.75 103.6 244.54 103.35 245.33 103.13C246.13 102.91 246.94 102.73 247.75 102.59C248.57 102.44 249.39 102.33 250.21 102.26C251.03 102.19 251.86 102.16 252.69 102.17C253.16 102.15 253.63 102.15 254.1 102.17C254.57 102.19 255.04 102.24 255.51 102.3C255.98 102.36 256.44 102.45 256.9 102.55C257.36 102.66 257.82 102.78 258.27 102.92C260.61 103.96 263.29 106.64 263.37 109.54C263.37 109.81 264.06 116.49 262.13 118.97C261.3 120.21 258.06 124.21 253.93 124.21ZM252.69 103.34C251.9 103.33 251.1 103.36 250.31 103.43C249.53 103.49 248.74 103.6 247.96 103.74C247.18 103.87 246.41 104.05 245.65 104.26C244.88 104.47 244.13 104.71 243.39 104.99C243.09 105.08 242.8 105.21 242.54 105.37C242.27 105.52 242.02 105.71 241.79 105.93C241.56 106.14 241.36 106.38 241.19 106.64C241.02 106.9 240.88 107.18 240.77 107.47C240.01 109.67 241.46 112.22 241.46 112.29C241.46 112.29 247.04 120 251.45 122.35C251.64 122.45 251.84 122.55 252.05 122.63C252.25 122.71 252.46 122.78 252.68 122.84C252.89 122.9 253.11 122.94 253.33 122.98C253.55 123.01 253.77 123.03 253.99 123.03C257.51 123.03 260.39 119.38 261.23 118.28C262.53 116.49 262.4 111.39 262.19 109.6C262.05 107.26 259.85 104.92 257.78 104.02C257.37 103.89 256.96 103.77 256.54 103.68C256.12 103.58 255.69 103.5 255.27 103.45C254.84 103.39 254.41 103.35 253.98 103.33C253.55 103.31 253.12 103.32 252.69 103.34Z" />
						</g>
						<path id="Trazado_139" class="shp10" d="M242.36 104.16C241.08 104.13 239.8 104.06 238.53 103.96C237.25 103.85 235.98 103.71 234.72 103.53C233.45 103.35 232.19 103.14 230.94 102.89C229.69 102.64 228.44 102.35 227.21 102.03L227.55 100.93C227.69 101 239.67 104.24 247.87 102.58L248.07 103.75C247.6 103.82 247.13 103.88 246.65 103.93C246.18 103.99 245.7 104.03 245.22 104.06C244.75 104.1 244.27 104.12 243.79 104.14C243.31 104.16 242.83 104.16 242.36 104.16L242.36 104.16Z" />
						<path id="Trazado_140" class="shp10" d="M239.88 110.09C239.53 109.85 239.16 109.66 238.76 109.52C238.37 109.39 237.96 109.31 237.54 109.28C237.12 109.26 236.7 109.29 236.3 109.38C235.89 109.47 235.49 109.62 235.13 109.81L234.57 108.78C235.03 108.54 235.51 108.36 236.02 108.25C236.52 108.14 237.04 108.1 237.55 108.13C238.06 108.16 238.57 108.26 239.06 108.43C239.54 108.6 240 108.83 240.43 109.12L239.88 110.09Z" />
					</g>
					<g id="Grupo_66">
						<path id="Trazado_141" class="shp11" d="" />
					</g>
					<path id="Trazado_142" class="shp5" d="M237.4 121.04C237.51 121.01 237.62 120.97 237.72 120.92C237.83 120.88 237.93 120.83 238.03 120.77C238.13 120.71 238.22 120.65 238.31 120.58C238.4 120.51 238.49 120.43 238.57 120.35L238.71 120.21L238.78 120.14L238.78 120.14C238.78 120.21 238.85 120.07 238.71 120.21L238.71 120.21L238.78 120.07L238.78 119.93C238.78 119.8 238.85 119.52 238.85 119.25C238.87 119.11 238.88 118.97 238.9 118.83C238.92 118.7 238.93 118.56 238.94 118.42C238.95 118.28 238.96 118.15 238.97 118.01C238.98 117.87 238.98 117.73 238.98 117.59C239.05 115.25 239.05 112.98 239.05 112.98C239.05 112.96 239.06 112.94 239.07 112.92C239.08 112.91 239.1 112.9 239.12 112.9C239.14 112.9 239.16 112.91 239.17 112.92C239.19 112.94 239.19 112.96 239.19 112.98C239.19 113 239.6 115.32 239.74 117.59C239.76 117.74 239.78 117.89 239.8 118.04C239.81 118.19 239.82 118.34 239.83 118.49C239.83 118.64 239.83 118.79 239.83 118.93C239.83 119.08 239.82 119.23 239.81 119.38C239.81 119.42 239.81 119.45 239.81 119.49C239.81 119.52 239.81 119.56 239.8 119.59C239.79 119.63 239.79 119.66 239.78 119.7C239.77 119.73 239.75 119.76 239.74 119.8C239.74 119.83 239.73 119.87 239.72 119.9C239.72 119.94 239.71 119.98 239.69 120.01C239.68 120.04 239.67 120.08 239.65 120.11C239.64 120.15 239.62 120.18 239.6 120.21C239.59 120.24 239.57 120.28 239.56 120.31C239.55 120.34 239.54 120.38 239.52 120.41C239.51 120.45 239.5 120.48 239.49 120.52C239.48 120.55 239.47 120.59 239.46 120.62C239.33 120.83 239.26 120.83 239.05 120.97C238.96 121.02 238.87 121.06 238.78 121.1C238.68 121.13 238.58 121.16 238.49 121.19C238.39 121.21 238.29 121.23 238.18 121.24C238.08 121.24 237.98 121.25 237.88 121.24C237.84 121.24 237.81 121.24 237.77 121.24C237.74 121.24 237.7 121.24 237.67 121.23C237.64 121.22 237.6 121.22 237.57 121.21C237.53 121.2 237.5 121.19 237.47 121.17C237.33 121.17 237.33 121.17 237.4 121.04C237.33 121.11 237.33 121.04 237.4 121.04Z" />
					<path id="Trazado_143" class="shp4" d="M233.68 141.83L229.62 163.67L237.4 168.49L239.95 160.29L238.57 141.35L233.68 141.83Z" />
					<path id="Trazado_144" class="shp12" d="M226.24 153.06L235.4 164.56L232.1 170.69L223.83 154.37L226.24 153.06Z" />
					<path id="Trazado_145" class="shp12" d="M244.42 153.06L235.26 164.56L238.57 170.69L247.18 153.68L244.42 153.06Z" />
					<path id="Trazado_146" class="shp6" d="M234.85 174.62L229.62 229.16L234.85 238.94L241.05 229.03L236.3 173.93L234.85 174.62Z" />
					<path id="Trazado_147" class="shp6" d="M235.26 164.56L232.1 170.69L235.4 175.17L238.57 170.69L235.26 164.56Z" />
					<g id="Grupo_67">
						<path id="Trazado_148" class="shp13" d="M215.02 278.68L220.59 277.85L212.33 160.64L206.68 163.25L215.02 278.68Z" />
						<path id="Rectngulo_14" class="shp6" d="M214.95 277.86L220.59 277.86L220.59 280.47L214.95 280.47L214.95 277.86Z" />
					</g>
					<g id="Grupo_68">
						<path id="Trazado_149" class="shp13" d="M258.33 278.68L252.69 277.85L260.95 160.64L266.53 163.25L258.33 278.68Z" />
						<path id="Rectngulo_15" class="shp6" d="M252.69 277.86L258.34 277.86L258.34 280.47L252.69 280.47L252.69 277.86Z" />
					</g>
					<path id="Trazado_150" class="shp4" d="" />
					<path id="Trazado_151" class="shp14" d="M268.25 285.25L211.52 285.25L197.38 270.46L279.76 270.46L268.25 285.25Z" />
					<path id="Trazado_152" class="shp4" d="M195.66 262.98C195.52 263.21 195.41 263.45 195.34 263.71C195.26 263.96 195.22 264.23 195.22 264.5C195.22 264.76 195.26 265.03 195.34 265.28C195.41 265.54 195.52 265.78 195.66 266.01C196.7 267.46 202.48 272.28 205.65 272.69C208.82 273.1 213.5 273.17 216.46 272.14C219.42 271.11 220.18 270.97 220.53 271.11C220.94 271.24 222.32 270.83 222.25 270.14C222.11 269.45 222.94 267.52 217.56 263.6C212.19 259.67 206.89 256.37 205.79 256.44C204.68 256.51 201.24 256.3 199.66 257.75C199.3 258.16 198.94 258.58 198.59 259C198.25 259.43 197.91 259.86 197.57 260.3C197.24 260.73 196.92 261.18 196.6 261.62C196.28 262.07 195.97 262.52 195.66 262.98L195.66 262.98Z" />
					<path id="Trazado_153" class="shp4" d="M275.28 257.75C273.7 256.3 270.25 256.5 269.15 256.44C268.05 256.37 262.75 259.67 257.37 263.6C252 267.52 252.83 269.45 252.69 270.14C252.62 270.83 254 271.24 254.41 271.11C254.76 270.97 255.51 271.11 258.48 272.14C261.44 273.17 266.12 273.1 269.29 272.69C272.46 272.28 278.24 267.46 279.27 266.01C279.42 265.78 279.53 265.54 279.6 265.28C279.68 265.03 279.71 264.76 279.71 264.49C279.71 264.23 279.68 263.96 279.6 263.71C279.53 263.45 279.42 263.2 279.27 262.98C278.97 262.52 278.66 262.07 278.34 261.62C278.02 261.17 277.7 260.73 277.36 260.3C277.03 259.86 276.69 259.43 276.34 259C276 258.58 275.64 258.16 275.28 257.75L275.28 257.75Z" />
					<path id="Trazado_154" class="shp15" d="M268.53 285.8L210 285.8L201.91 240.98L276.61 240.98L268.53 285.8Z" />
					<path id="Trazado_155" class="shp16" d="" />
				</g>
			</g>
		</g>
	</g>
</svg>