<?xml version="1.0" encoding="utf-8"?>
<!-- Generator: Adobe Illustrator 24.1.0, SVG Export Plug-In . SVG Version: 6.00 Build 0)  -->
<svg version="1.1" id="Layer_1" xmlns="http://www.w3.org/2000/svg" xmlns:xlink="http://www.w3.org/1999/xlink" x="0px" y="0px"
	 viewBox="0 0 403.4 414.2" style="enable-background:new 0 0 403.4 414.2;" xml:space="preserve">
<style type="text/css">
	.st0{fill:none;}
	.st1{fill:#264A60;}
	.st2{fill:#E76C29;}
	.st3{fill:#174159;}
	.st4{fill:#2E546A;}
	.st5{opacity:0.54;fill:#B7B5B5;enable-background:new    ;}
	.st6{fill:#FFFFFF;}
	.st7{fill:#E3C1A8;}
	.st8{fill:#7C7B7A;}
	.st9{fill:#646060;}
	.st10{fill:none;stroke:#E76C29;stroke-miterlimit:10;}
	.st11{opacity:0.18;fill:#847363;enable-background:new    ;}
	.st12{fill:#191919;}
	.st13{fill:#83909A;}
	.st14{fill:#847363;}
	.st15{opacity:9.000000e-02;fill:#FFFFFF;enable-background:new    ;}
</style>
<g id="Group_1780" transform="translate(-1265.229 -2542)">
	<g id="Group_1491" transform="translate(943 -213.81)">
		<g id="Group_1457" transform="matrix(0.719, 0.695, -0.695, 0.719, 521.471, 2755.81)">
			<g id="Rectangle_124" transform="translate(95.607 95.607)">
				<path class="st0" d="M7,0l78.4,0c3.9,0,7,3.1,7,7l0,81.6c0,3.9-3.1,7-7,7H7c-3.9,0-7-3.1-7-7L0,7C0,3.1,3.1,0,7,0z"/>
				<path class="st1" d="M90.3,93.6c-1.3,1.3-3,2-4.9,2L7,95.6c-3.9,0-7-3.1-7-7L0,7c0-3.9,3.1-7,7-7l78.4,0c3.9,0,7,3.1,7,7l0,81.6
					C92.4,90.5,91.7,92.2,90.3,93.6C90.3,93.6,90.3,93.6,90.3,93.6z M4.9,4.8C4.4,5.4,4,6.2,4,7l0,81.6c0,1.7,1.3,3,3,3l78.4,0
					c0.8,0,1.5-0.3,2.1-0.9c0.6-0.6,0.9-1.3,0.9-2.1l0-81.6c0-1.7-1.3-3-3-3L7,4C6.2,4,5.5,4.3,4.9,4.8z"/>
			</g>
			<g id="Rectangle_125" transform="translate(216.709 216.709)">
				<path class="st0" d="M7,0l52.9,0c3.9,0,7,3.1,7,7v56.1c0,3.9-3.1,7-7,7L7,70.1c-3.9,0-7-3.1-7-7L0,7C0,3.1,3.1,0,7,0z"/>
				<path class="st1" d="M64.8,68.1c-1.3,1.2-3,2-4.9,2L7,70.1c-1.9,0-3.6-0.7-4.9-2.1C0.7,66.7,0,65,0,63.1L0,7
					c0-1.9,0.7-3.6,2.1-4.9C3.4,0.7,5.1,0,7,0l52.9,0c1.9,0,3.6,0.7,4.9,2c1.3,1.3,2.1,3.1,2.1,5l0,56.1
					C66.9,65.1,66.1,66.9,64.8,68.1z M4.9,4.8C4.4,5.4,4,6.2,4,7l0,56.1c0,0.8,0.3,1.6,0.9,2.1c0.6,0.6,1.3,0.9,2.1,0.9l52.9,0
					c1.7,0,3-1.3,3-3l0-56.1c0-0.8-0.3-1.6-0.9-2.1C61.5,4.3,60.7,4,59.9,4L7,4C6.2,4,5.5,4.3,4.9,4.8z"/>
			</g>
			<g id="Rectangle_128" transform="translate(216.709 0)">
				<path class="st0" d="M7,0l52.9,0c3.9,0,7,3.1,7,7v56.1c0,3.9-3.1,7-7,7H7c-3.9,0-7-3.1-7-7L0,7C0,3.1,3.1,0,7,0z"/>
				<path class="st1" d="M64.8,68.1c-1.3,1.3-3,2-4.9,2L7,70.1c-1.9,0-3.6-0.7-4.9-2.1C0.7,66.7,0,65,0,63.1L0,7c0-3.9,3.1-7,7-7
					l52.9,0c1.9,0,3.6,0.7,4.9,2.1c1.3,1.3,2.1,3.1,2.1,4.9l0,56.1C66.9,65,66.2,66.7,64.8,68.1C64.8,68.1,64.8,68.1,64.8,68.1z
					 M4.9,4.8C4.4,5.4,4,6.2,4,7l0,56.1c0,1.7,1.3,3,3,3l52.9,0c0.8,0,1.6-0.3,2.1-0.9c0.6-0.6,0.9-1.3,0.9-2.1l0-56.1
					c0-0.8-0.3-1.6-0.9-2.1S60.7,4,59.9,4L7,4C6.2,4,5.5,4.3,4.9,4.8z"/>
			</g>
			<g id="Path_2575" transform="translate(0 0)">
				<path class="st0" d="M22.3,0l25.5,0c12.3,0,22.3,10,22.3,22.3c0,0,0,0,0,0v25.5c0,12.3-10,22.3-22.3,22.3c0,0,0,0,0,0H22.3
					C10,70.1,0,60.1,0,47.8l0-25.5C0,10,10,0,22.3,0z"/>
				<path class="st1" d="M22.3,4c-4.9,0-9.5,1.9-12.9,5.4S4,17.4,4,22.3l0,25.5c0,4.9,1.9,9.5,5.4,12.9s8.1,5.4,12.9,5.4h25.5
					c4.9,0,9.5-1.9,12.9-5.4s5.4-8.1,5.4-12.9V22.3c0-4.9-1.9-9.5-5.4-12.9S52.7,4,47.8,4L22.3,4 M22.3,0l25.5,0
					c12.3,0,22.3,10,22.3,22.3v25.5c0,12.3-10,22.3-22.3,22.3H22.3C10,70.1,0,60.1,0,47.8l0-25.5C0,10,10,0,22.3,0z"/>
			</g>
			<g id="Rectangle_132" transform="translate(0 216.709)">
				<path class="st0" d="M7,0l56.1,0c3.9,0,7,3.1,7,7v56.1c0,3.9-3.1,7-7,7H7c-3.9,0-7-3.1-7-7L0,7C0,3.1,3.1,0,7,0z"/>
				<path class="st1" d="M68,68.1c-1.3,1.3-3,2-4.9,2L7,70.1c-1.9,0-3.6-0.7-5-2.1c-1.3-1.3-2-3.1-2-4.9L0,7c0-3.9,3.1-7,7-7l0,0
					l56.1,0c1.9,0,3.6,0.7,4.9,2.1c1.3,1.3,2.1,3.1,2.1,4.9l0,56.1C70.1,65,69.4,66.7,68,68.1C68,68.1,68,68.1,68,68.1z M4.9,4.8
					C4.4,5.4,4,6.2,4,7l0,56.1c0,0.8,0.3,1.6,0.9,2.1s1.3,0.9,2.1,0.9l56.1,0c1.7,0,3-1.3,3-3l0-56.1c0-1.7-1.3-3-3-3L7,4
					C6.2,4,5.5,4.3,4.9,4.8z"/>
			</g>
			<g id="Rectangle_126" transform="translate(229.456 232.643)">
				<path class="st0" d="M3,0l32.2,0c1.7,0,3,1.3,3,3v32.2c0,1.7-1.3,3-3,3H3c-1.7,0-3-1.3-3-3L0,3C0,1.3,1.3,0,3,0z"/>
				<path class="st1" d="M37.3,37.4c-0.5,0.5-1.3,0.8-2.1,0.8L3,38.2c-1.7,0-3-1.3-3-3L0,3c0-1.7,1.3-3,3-3l32.2,0
					c0.8,0,1.6,0.3,2.1,0.9s0.9,1.3,0.9,2.1l0,32.2C38.2,36.1,37.9,36.9,37.3,37.4z M4,34.2l30.2,0l0-30.2L4,4L4,34.2z M3,4
					C3,4,3,4,3,4L3,4z"/>
			</g>
			<g id="Rectangle_127" transform="translate(229.456 15.934)">
				<path class="st0" d="M3,0l32.2,0c1.7,0,3,1.3,3,3v32.2c0,1.7-1.3,3-3,3H3c-1.7,0-3-1.3-3-3L0,3C0,1.3,1.3,0,3,0z"/>
				<path class="st1" d="M37.3,37.4c-0.6,0.5-1.3,0.8-2.1,0.8L3,38.2c-0.8,0-1.6-0.3-2.1-0.9C0.3,36.8,0,36,0,35.2L0,3
					c0-1.7,1.3-3,3-3l0,0l32.2,0c1.7,0,3,1.3,3,3l0,32.2C38.2,36,37.9,36.8,37.3,37.4C37.4,37.4,37.3,37.4,37.3,37.4z M4,34.2
					l30.2,0l0-30.2L4,4L4,34.2z M3,4C3,4,3,4,3,4L3,4z"/>
			</g>
			<g id="Rectangle_129" transform="translate(15.934 15.934)">
				<path class="st0" d="M3,0l32.2,0c1.7,0,3,1.3,3,3v32.2c0,1.7-1.3,3-3,3H3c-1.7,0-3-1.3-3-3L0,3C0,1.3,1.3,0,3,0z"/>
				<path class="st1" d="M37.3,37.4c-0.5,0.5-1.3,0.8-2.1,0.8L3,38.2c-1.7,0-3-1.3-3-3L0,3c0-1.7,1.3-3,3-3l0,0l32.2,0
					c0.8,0,1.6,0.3,2.1,0.9c0.6,0.6,0.9,1.3,0.9,2.1l0,32.2C38.2,36.1,37.9,36.9,37.3,37.4z M4,34.2l30.2,0l0-30.2L4,4L4,34.2z M3,4
					C3,4,3,4,3,4L3,4z"/>
			</g>
			<g id="Rectangle_131" transform="translate(15.934 232.643)">
				<path class="st0" d="M3,0l32.2,0c1.7,0,3,1.3,3,3v32.2c0,1.7-1.3,3-3,3H3c-1.7,0-3-1.3-3-3L0,3C0,1.3,1.3,0,3,0z"/>
				<path class="st1" d="M37.3,37.4c-0.6,0.5-1.3,0.8-2.1,0.8L3,38.2c-0.8,0-1.6-0.3-2.1-0.9C0.3,36.8,0,36,0,35.2L0,3
					c0-1.7,1.3-3,3-3l0,0l32.2,0c1.7,0,3,1.3,3,3l0,32.2C38.2,36,37.9,36.8,37.3,37.4C37.4,37.4,37.3,37.4,37.3,37.4z M4,34.2
					l30.2,0l0-30.2L4,4L4,34.2z M3,4C3,4,3,4,3,4L3,4z"/>
			</g>
			<g id="Rectangle_133" transform="translate(111.541 114.728)">
				<path class="st0" d="M3,0l54.6,0c1.7,0,3,1.3,3,3v54.6c0,1.7-1.3,3-3,3H3c-1.7,0-3-1.3-3-3L0,3C0,1.3,1.3,0,3,0z"/>
				<path class="st2" d="M59.6,59.7c-0.5,0.5-1.3,0.8-2.1,0.8L3,60.6c-1.7,0-3-1.3-3-3L0,3c0-0.8,0.3-1.6,0.9-2.1C1.4,0.3,2.2,0,3,0
					l54.6,0c1.7,0,3,1.3,3,3l0,54.6C60.6,58.4,60.2,59.2,59.6,59.7z M4,56.6l52.6,0l0-52.6L4,4L4,56.6z"/>
			</g>
			<polygon class="st1" points="129.9,249.6 67.8,249.6 67.8,245.6 125.9,245.6 125.9,191.6 129.9,191.6 			"/>
			<polygon class="st1" points="250.9,215.3 246.9,215.3 246.9,146.1 189,146.1 189,142.1 250.9,142.1 			"/>
			<polygon class="st1" points="96.5,134.8 32.5,134.8 32.5,70.4 36.5,70.4 36.5,130.8 96.5,130.8 			"/>
			<polygon class="st1" points="162.1,97 158.1,97 158.1,33.2 215.1,33.2 215.1,37.2 162.1,37.2 			"/>
			<g id="Group_1453" transform="translate(117.915 54.177)">
				<g id="Ellipse_83" transform="translate(0 0)">
					<circle class="st0" cx="9.6" cy="9.6" r="9.6"/>
					<path class="st1" d="M16.2,16.4c-1.8,1.7-4.1,2.7-6.6,2.7c-2.6,0-5-1-6.8-2.8C1,14.5,0,12.1,0,9.6C0,4.3,4.3,0,9.6,0l0,0
						c5.3,0,9.6,4.3,9.6,9.6c0,2.6-1,5-2.8,6.8C16.3,16.4,16.2,16.4,16.2,16.4z M5.7,5.6C4.7,6.6,4,8,4,9.6c0,1.5,0.6,2.9,1.6,3.9
						c1.1,1.1,2.4,1.6,3.9,1.6c1.5,0,2.9-0.6,3.9-1.6c1.1-1.1,1.6-2.4,1.6-3.9c0-3.1-2.5-5.6-5.6-5.6l0,0C8.1,4,6.7,4.6,5.7,5.6z"/>
				</g>
				<rect x="-1" y="28.8" transform="matrix(0.6949 -0.7191 0.7191 0.6949 -18.9581 16.9551)" class="st1" width="23" height="4"/>
			</g>
			<g id="Group_1454" transform="translate(236.627 115.38) rotate(90)">
				<g id="Ellipse_83-2">
					<circle class="st0" cx="9.8" cy="9.8" r="9.8"/>
					<path class="st1" d="M16.8,3c1.7,1.8,2.8,4.2,2.8,6.8c0,5.4-4.4,9.8-9.8,9.8C4.4,19.6,0,15.2,0,9.8C0,4.4,4.4,0,9.8,0l0,0
						C12.5,0,15,1.1,16.8,3z M5.6,13.8C5.6,13.8,5.7,13.8,5.6,13.8c1.2,1.2,2.6,1.8,4.2,1.8c1.5,0,3-0.6,4.1-1.7
						c1.1-1.1,1.7-2.5,1.7-4.1C15.6,6.6,13,4,9.8,4C6.6,4,4,6.6,4,9.8C4,11.3,4.6,12.7,5.6,13.8z"/>
				</g>
				<rect x="7.8" y="18.8" transform="matrix(0.695 -0.719 0.719 0.695 -21.1431 17.2634)" class="st1" width="4" height="29.6"/>
			</g>
			<g id="Group_1455" transform="translate(168.905 232.643) rotate(180)">
				<g id="Ellipse_83-3" transform="translate(0 0)">
					<circle class="st0" cx="9.6" cy="9.6" r="9.6"/>
					<path class="st1" d="M2.9,2.7C4.7,1,7.1,0,9.6,0l0,0c5.3,0,9.6,4.3,9.6,9.6c0,5.3-4.3,9.6-9.6,9.6c-2.6,0-5-1-6.8-2.8
						C1,14.5,0,12.1,0,9.6c0-2.6,1-5,2.8-6.8C2.8,2.8,2.9,2.7,2.9,2.7z M13.4,13.6c1-1,1.7-2.4,1.7-4c0-3.1-2.5-5.6-5.6-5.6l0,0
						C8.1,4,6.6,4.6,5.6,5.6C4.6,6.7,4,8.1,4,9.6c0,1.5,0.6,2.9,1.6,3.9c1.1,1.1,2.4,1.6,3.9,1.6C11.1,15.1,12.4,14.5,13.4,13.6z"/>
				</g>
				
					<rect x="-2.3" y="27.5" transform="matrix(0.6949 -0.7191 0.7191 0.6949 -18.4185 15.6197)" class="st1" width="23" height="4"/>
			</g>
			<g id="Group_1456" transform="translate(63.231 172.744) rotate(-90)">
				<g id="Ellipse_83-4">
					<circle class="st0" cx="9.8" cy="9.8" r="9.8"/>
					<path class="st1" d="M2.7,16.6C1,14.7,0,12.3,0,9.8c0-2.6,1-5.1,2.9-6.9C4.7,1,7.2,0,9.8,0s5.1,1,6.9,2.9
						c1.8,1.8,2.9,4.3,2.9,6.9c0,5.4-4.4,9.8-9.8,9.8c-2.6,0-5.1-1-6.9-2.9C2.8,16.7,2.8,16.6,2.7,16.6z M13.9,5.8
						C13.9,5.7,13.9,5.7,13.9,5.8C12.8,4.6,11.3,4,9.8,4l0,0c-1.5,0-3,0.6-4.1,1.7C4.6,6.8,4,8.2,4,9.8c0,1.5,0.6,3,1.7,4.1
						c1.1,1.1,2.5,1.7,4.1,1.7c3.2,0,5.8-2.6,5.8-5.8C15.6,8.3,15,6.8,13.9,5.8z"/>
				</g>
				<rect x="7.8" y="18.8" transform="matrix(0.695 -0.719 0.719 0.695 -15.5216 14.8793)" class="st1" width="4" height="13.9"/>
			</g>
		</g>
	</g>
	<g id="Group_1568" transform="translate(1410.996 2610)">
		<path id="Path_2671" class="st3" d="M180.2,324c0,0,14.5-12.9,16.5-18.1s11.5-10.6,9.9,0.4s-7.2,32.4-7.2,32.4l-20-0.8"/>
		<path id="Path_2672" class="st4" d="M107.1,268.3c0,0-82.8,30.5-80,61.5s159,9.4,166,3.6l-9.8-9.2c0,0-115.4,13.6-122.3,1.6
			s45.3-40.2,54.5-43.6S107.1,268.3,107.1,268.3z"/>
		<path id="Path_2673" class="st4" d="M166,266.7c0,0,83.8,35.6,76.3,53.9s-134.6,28.6-168.2,2.9l6.4-6.3c0,0,124.4,14.9,125,1.1
			s-63.1-41.9-63.1-41.9L166,266.7z"/>
		<path id="Path_2674" class="st3" d="M84.1,328.9c0,0-13.9,4.9-15.7,1.4s-9-24.9-8.5-30.2s5.1-12.3,10.4-3.7
			c5.4,8.6,15.5,21.3,15.5,21.3"/>
		<path id="Path_2675" class="st3" d="M188.2,316.3c3.6-3.6,7.2-7.7,8.1-10.1c2-5.2,11.5-10.6,9.9,0.4c-0.6,4.3-1.3,7.8-2.6,13.4"/>
		<path id="Path_2676" class="st3" d="M179.8,324.2"/>
		<path id="Path_2677" class="st3" d="M257.2,197.3c-2-14.4-13.6-37.3-54-54.8c-12.6-5.4-23.1-10.3-31.6-14.4
			c-3.2-1.6-7.3-3.6-11.4-5.6c-11.2-5.7-16.6-8.9-16.6-8.9l1.7,1.7c-1.2-0.6-2.2-1-2.7-1.2c-4.4-1.8-28.6-0.5-28.6-0.5
			s-19.2,11.4-59.6,29s-52.1,40.4-54,54.8s4.5,25.4,16.9,38.2s53.4,34.7,53.4,34.7l4.5-7.9c0,0-13.1-3.4-48.5-30.9
			s-5.6-49.4,5.1-58.2s47.8-24.3,47.8-24.3L89,294.8h87.2l1.8-146l0.1,0.1c0,0,37.1,15.5,47.8,24.3s40.5,30.7,5.1,58.2
			s-48.5,30.9-48.5,30.9l4.5,7.9c0,0,41-22,53.4-34.7S259.2,211.7,257.2,197.3z"/>
		<path id="Path_2678" class="st5" d="M257.2,197.3c-2-14.4-13.6-37.3-54-54.8c-12.6-5.4-23.1-10.3-31.6-14.4
			c-3.2-1.6-7.3-3.6-11.4-5.6c-11.2-5.7-16.6-8.9-16.6-8.9l1.7,1.7c-1.2-0.6-2.2-1-2.7-1.2c-4.4-1.8-28.6-0.5-28.6-0.5
			s-19.2,11.4-59.6,29s-52.1,40.4-54,54.8s4.5,25.4,16.9,38.2s53.4,34.7,53.4,34.7l4.5-7.9c0,0-13.1-3.4-48.5-30.9
			s-5.6-49.4,5.1-58.2s47.8-24.3,47.8-24.3L89,294.8h87.2l1.8-146l0.1,0.1c0,0,37.1,15.5,47.8,24.3s40.5,30.7,5.1,58.2
			s-48.5,30.9-48.5,30.9l4.5,7.9c0,0,41-22,53.4-34.7S259.2,211.7,257.2,197.3z"/>
		<path id="Path_2679" class="st6" d="M126.1,144.1l-7.4,77.5l7.4,13.9l8.8-14.1l-6.8-78.3L126.1,144.1z"/>
		<g id="Group_1562">
			<path id="Path_2680" class="st3" d="M97.9,292l7.9-1.2L94.1,124.2l-8,3.7L97.9,292z"/>
			<rect id="Rectangle_171" x="97.8" y="290.8" class="st3" width="8" height="3.7"/>
		</g>
		<g id="Group_1563">
			<path id="Path_2681" class="st3" d="M159.5,292l-8-1.2l11.8-166.6l7.9,3.7L159.5,292z"/>
			<rect id="Rectangle_172" x="151.4" y="290.8" class="st3" width="8" height="3.7"/>
		</g>
		<path id="Path_2682" class="st7" d="M175.2,122.5"/>
		<path id="Path_2683" class="st8" d="M173.6,301.3H92.9l-20.1-21h117.1L173.6,301.3z"/>
		<path id="Path_2684" class="st7" d="M70.4,269.7c-0.8,1.3-0.8,3,0,4.3c1.5,2.1,9.7,8.9,14.2,9.5s11.2,0.7,15.4-0.8
			s5.3-1.7,5.8-1.5c0.6,0.2,2.5-0.4,2.4-1.4c-0.2-1,1-3.7-6.7-9.3s-15.2-10.3-16.7-10.2s-6.5-0.2-8.7,1.9
			C74,264.6,72.1,267.1,70.4,269.7z"/>
		<path id="Path_2685" class="st7" d="M183.6,262.2c-2.2-2.1-7.1-1.8-8.7-1.9s-9.1,4.6-16.7,10.2s-6.5,8.3-6.7,9.3
			c-0.1,1,1.9,1.6,2.4,1.4c0.5-0.2,1.6,0,5.8,1.5s10.9,1.4,15.4,0.8s12.7-7.4,14.2-9.5c0.8-1.3,0.8-3,0-4.3
			C187.5,267.1,185.6,264.6,183.6,262.2z"/>
		<path id="Path_2686" class="st9" d="M174,302.1H90.8l-11.5-63.7h106.2L174,302.1z"/>
		<path id="Path_2687" class="st10" d="M164.7,282.3"/>
		<path id="Path_2688" class="st7" d="M124.9,100l-5.7,30.7l10.9,6.8l3.6-11.5l-1.9-26.7L124.9,100z"/>
		<path id="Path_2689" class="st11" d="M124.8,100.6l-1.3,6.9c2,3.5,5.4,6,9.3,7l-1.1-15.2L124.8,100.6z"/>
		<path id="Path_2690" class="st7" d="M97.5,25.7l-2.1,23.5V53c0,0-5.8-0.2-5.6,5.2s2,7,3.8,7.7s4.1,1.6,3.8,4.8s4.3,18.3,8.8,22.6
			s10.8,14,29.4,10.2s24.2-18.8,24.9-22.6s2.9-12.6,2.9-12.6s5.6-2.7,5.6-6.1s-2.3-7.5-3.2-7.3s0.8-8.6,0.8-8.6l-2.1-20.6l-47.2-8.6
			L97.5,25.7z"/>
		<g id="Group_1564">
			<path id="Path_2691" class="st12" d="M107.1,43.2c0.7-0.4,1.4-0.8,2.1-1.1c0.8-0.3,1.6-0.5,2.4-0.7c0.4-0.1,0.9-0.2,1.4-0.2
				c0.5,0,1-0.1,1.5,0c0.5,0,1,0.1,1.4,0.1l0.7,0.1c0.2,0.1,0.4,0.1,0.7,0.2c0.2,0.1,0.4,0.1,0.6,0.2c0.2,0.1,0.4,0.2,0.6,0.3
				c0.4,0.2,0.7,0.3,1,0.6c0.3,0.2,0.6,0.4,0.8,0.6c0.2,0.2,0.4,0.4,0.6,0.5c0.3,0.3,0.5,0.5,0.5,0.5s-0.2-0.1-0.6-0.3
				c-0.2-0.1-0.4-0.2-0.6-0.4s-0.6-0.3-0.9-0.4c-0.3-0.2-0.7-0.3-1-0.4c-0.4-0.2-0.8-0.3-1.2-0.3c-0.2,0-0.4-0.1-0.6-0.2l-0.7-0.1
				c-0.5-0.1-0.9-0.1-1.4-0.1c-0.5,0-0.9,0-1.4,0c-0.4,0.1-0.9,0.1-1.3,0.2c-0.8,0.1-1.6,0.3-2.3,0.5c-0.7,0.2-1.2,0.3-1.6,0.5
				S107.1,43.2,107.1,43.2z"/>
		</g>
		<g id="Group_1565">
			<path id="Path_2692" class="st12" d="M140.7,44.1c0.1-0.2,0.2-0.4,0.3-0.6c0.3-0.5,0.7-1,1.1-1.5c0.6-0.7,1.3-1.2,2.1-1.6
				c0.5-0.2,0.9-0.4,1.4-0.5c0.5-0.1,1-0.2,1.5-0.3c1-0.1,2,0,3,0.2c0.8,0.2,1.7,0.5,2.4,0.9c0.5,0.3,1.1,0.6,1.6,0.9
				c0.4,0.2,0.6,0.4,0.6,0.4l-0.6-0.2c-0.4-0.2-1-0.4-1.7-0.6c-0.8-0.3-1.6-0.5-2.4-0.6c-0.5-0.1-0.9-0.1-1.4-0.2c-0.5,0-1,0-1.4,0
				c-0.9,0.1-1.9,0.3-2.7,0.6c-0.8,0.3-1.5,0.7-2.1,1.3c-0.5,0.4-0.9,0.8-1.2,1.3C140.9,43.9,140.7,44.1,140.7,44.1z"/>
		</g>
		<circle id="Ellipse_101" class="st13" cx="115.1" cy="57.8" r="2.5"/>
		<circle id="Ellipse_102" class="st13" cx="143.9" cy="57.8" r="2.5"/>
		<g id="Group_1566">
			<path id="Path_2693" class="st0" d="M132.5,60.3"/>
		</g>
		<g id="Group_1567">
			<path id="Path_2694" class="st14" d="M130.1,70.8c0,0,0.2,0,0.5-0.1c0.4-0.1,0.9-0.4,1.2-0.7l0.1-0.2l0.1-0.1l0,0l0,0v0
				c0,0,0-0.1,0,0.1l0,0l0,0l0.1-0.2c0-0.1,0-0.1,0-0.2c0-0.2,0-0.3,0.1-0.5s0-0.3,0-0.5c0.1-0.7,0.1-1.6,0.1-2.4
				c0-3.2-0.1-6.5-0.1-6.5c0,0,0,0,0,0c0,0,0,0,0,0c0,0,0.4,3.2,0.6,6.5c0.1,0.8,0.1,1.6,0.1,2.4c0,0.2,0,0.4-0.1,0.6
				c0,0.2-0.1,0.4-0.1,0.6c0,0.1-0.1,0.2-0.1,0.3l-0.1,0.2c-0.1,0.2-0.3,0.3-0.4,0.4c-0.3,0.2-0.5,0.3-0.8,0.4
				c-0.2,0.1-0.4,0.1-0.7,0.1C130.4,70.9,130.3,70.9,130.1,70.8C130,70.9,130,70.9,130.1,70.8C130,70.8,130.1,70.8,130.1,70.8z"/>
		</g>
		<path id="Path_2695" class="st2" d="M165.9,32.5l-1.6-17.6c0,0-1.1-5.3-6.2-7.2S137.8,0,130.7,0s-22.3,5.9-27.4,7.8
			S97,14.9,97,14.9l-1.6,17.6C95.5,32.5,127.4,21,165.9,32.5z"/>
		<path id="Path_2696" class="st6" d="M114.6,77.6c5.1-1.2,10.3-2,15.5-2.4c5.2-0.3,10.4-0.1,15.6,0.8c0,0-4.1,6.6-16.3,7.4
			C117.1,84.1,114.6,77.6,114.6,77.6z"/>
		<path id="Path_2697" class="st15" d="M167.3,49.9c0-0.4-0.3-0.7-0.6-0.7c-5.1-1.2-10.2-1.8-15.4-1.7c-4.6,0-9.3,0.4-13.8,1.2
			c-1.9,0.4-3.8,0.7-5.7,0.7c-0.1,0-0.1,0-0.2,0c-0.6,0-1.2,0-1.6,0c-0.1,0-0.2-0.1-0.2-0.1c-1.9-0.1-3.8-0.4-5.7-0.9
			c-5.5-1.2-11.1-1.8-16.8-1.8c-4.2,0-8.4,0.4-12.5,1.2c-0.3,0.1-0.6,0.4-0.6,0.7c-0.1,1.3-0.3,3.5,0.2,4.3c0.2,0.3,0.4,0.6,0.7,0.8
			c0.1,0.1,0.2,0.2,0.2,0.4c0,0.1,0.1,0.4,0.1,0.8c0.2,2.6,0.7,9.5,5.3,11.1c3.4,1.2,10.1,1.3,12.9,1.3l0,0c2.8,0.1,5.6-0.1,8.3-0.6
			c2.6-0.7,4.9-1.8,6.1-7.6c0.1-1.2,0.4-2.4,0.7-3.6c0-0.1,0.1-0.2,0.1-0.4c0-0.1,0.1-0.3,0.1-0.4c1.2-0.5,2.5-0.5,3.6,0.1
			c0.1,0.1,0.1,0.2,0.1,0.4c0,0.1,0.1,0.3,0.1,0.4c0.3,1.2,0.5,2.4,0.6,3.7c0.9,5.8,3.3,7,5.8,7.8c1.6,0.5,6.9,0.9,11.6,0.9
			c3,0,7.1-0.2,9.6-0.9c4.7-1.5,5.4-8.3,5.7-10.9c0-0.4,0.1-0.7,0.1-0.8c0-0.2,0.1-0.3,0.3-0.4c0.3-0.2,0.5-0.4,0.7-0.8
			C167.4,53.4,167.4,51.2,167.3,49.9z"/>
		<path id="Path_2698" class="st12" d="M167.3,49.9c0-0.4-0.3-0.7-0.6-0.7c-5.1-1.2-10.2-1.8-15.4-1.7c-4.6,0-9.3,0.4-13.8,1.2
			c-1.9,0.4-3.8,0.7-5.7,0.7c-0.1,0-0.1,0-0.2,0c-0.6,0-1.2,0-1.6,0c-0.1,0-0.2-0.1-0.2-0.1c-1.9-0.1-3.8-0.4-5.7-0.9
			c-5.5-1.2-11.1-1.8-16.8-1.8c-4.2,0-8.4,0.4-12.5,1.2c-0.3,0.1-0.6,0.4-0.6,0.7c-0.1,1.3-0.3,3.5,0.2,4.3c0.2,0.3,0.4,0.6,0.7,0.8
			c0.1,0.1,0.2,0.2,0.2,0.4c0,0.1,0.1,0.4,0.1,0.8c0.2,2.6,0.7,9.5,5.3,11.1c3.4,1.2,10.1,1.3,12.9,1.3l0,0c2.8,0.1,5.6-0.1,8.3-0.6
			c2.6-0.7,4.9-1.8,6.1-7.6c0.1-1.2,0.4-2.4,0.7-3.6c0-0.1,0.1-0.2,0.1-0.4c0-0.1,0.1-0.3,0.1-0.4c1.2-0.5,2.5-0.5,3.6,0.1
			c0.1,0.1,0.1,0.2,0.1,0.4c0,0.1,0.1,0.3,0.1,0.4c0.3,1.2,0.5,2.4,0.6,3.7c0.9,5.8,3.3,7,5.8,7.8c1.6,0.5,6.9,0.9,11.6,0.9
			c3,0,7.1-0.2,9.6-0.9c4.7-1.5,5.4-8.3,5.7-10.9c0-0.4,0.1-0.7,0.1-0.8c0-0.2,0.1-0.3,0.3-0.4c0.3-0.2,0.5-0.4,0.7-0.8
			C167.4,53.4,167.4,51.2,167.3,49.9z M121.3,65.2c-2.6,0.4-5.2,0.6-7.9,0.5c-5.5,0-10.1-0.5-12.3-1.3c-3.6-1.3-4.1-7.4-4.2-9.7
			c0-0.1,0-0.2,0-0.3l0,0c0-0.3,0-0.5-0.1-0.6c-0.1-1.4-0.1-4.5,1.6-5c2.9-0.4,5.9-0.6,8.8-0.6c5.5,0,11,0.5,16.3,1.7
			c0.7,0.2,1.3,0.3,1.9,0.4l0.1,0c2.3,1,1.3,4.8,1.3,4.8l0,0c-0.3,1.2-0.5,2.4-0.7,3.6C125.2,63.7,123.5,64.5,121.3,65.2z
			 M164.3,55.1c0,0.2-0.1,0.5-0.1,0.9c-0.2,2.3-0.9,8.4-4.6,9.5c-3,0.7-6,1-9.1,0.9c-3.7,0.1-7.4-0.2-11.1-0.8
			c-2.2-0.7-3.9-1.6-4.6-6.4c-0.1-1.3-0.3-2.6-0.6-3.9c0,0,0-0.1,0-0.1c-0.1-0.9-0.4-3.7,1.5-4.5c0,0,0,0,0,0
			c0.7-0.1,1.4-0.2,2.1-0.4c4.4-0.8,8.9-1.2,13.4-1.1c4,0,7.9,0.3,11.8,1C164.5,50.8,164.4,53.9,164.3,55.1z"/>
		<path d="M172.9,36.7c-0.1,0-0.2,0-0.4-0.1c-45.8-17.7-80.7-0.2-81,0c-0.5,0.3-1.1,0.1-1.3-0.4c-0.3-0.5-0.1-1.1,0.4-1.3
			c0.4-0.2,35.9-18.1,82.7,0c0.5,0.2,0.8,0.8,0.6,1.3C173.7,36.4,173.4,36.7,172.9,36.7z"/>
		<path id="Path_2700" class="st3" d="M113.9,113.5l13,16.3l-4.7,8.7l-11.7-23.2L113.9,113.5z"/>
		<path id="Path_2701" class="st3" d="M139.7,113.5l-13,16.3l4.7,8.7l12.2-24.2L139.7,113.5z"/>
		<path id="Path_2702" class="st6" d="M126.7,129.8l-4.5,8.7l4.7,6.4l4.5-6.4L126.7,129.8z"/>
	</g>
</g>
</svg>
