<svg id="Layer_1" data-name="Layer 1" xmlns="http://www.w3.org/2000/svg" xmlns:xlink="http://www.w3.org/1999/xlink" viewBox="0 0 473.92 449.18"><defs><style>.cls-1,.cls-15,.cls-23,.cls-25,.cls-9{fill:#fff;}.cls-1{opacity:0.57;}.cls-2{fill:#dff0ff;}.cls-3{opacity:0.3;}.cls-4{fill:#6aafe8;}.cls-5{fill:#bdccd4;}.cls-6{fill:#4a4a5b;}.cls-7{fill:#424773;}.cls-8{opacity:0.53;}.cls-10{fill:#284b60;}.cls-11{clip-path:url(#clip-path);}.cls-12{fill:#e66c29;}.cls-13{clip-path:url(#clip-path-2);}.cls-14{clip-path:url(#clip-path-3);}.cls-15{opacity:0.44;}.cls-16{fill:url(#linear-gradient);}.cls-17{fill:url(#linear-gradient-2);}.cls-18{fill:url(#linear-gradient-3);}.cls-19{fill:url(#linear-gradient-4);}.cls-20{fill:url(#linear-gradient-5);}.cls-21{opacity:0.48;}.cls-22{fill:url(#linear-gradient-6);}.cls-23{opacity:0.5;}.cls-24{fill:url(#linear-gradient-7);}.cls-25{opacity:0.91;}.cls-26{fill:url(#linear-gradient-8);}.cls-27{fill:url(#linear-gradient-9);}.cls-28{fill:url(#linear-gradient-10);}.cls-29{fill:url(#linear-gradient-11);}.cls-30{fill:url(#linear-gradient-12);}.cls-31{fill:url(#linear-gradient-13);}.cls-32{fill:url(#linear-gradient-14);}.cls-33{fill:url(#linear-gradient-15);}.cls-34{fill:url(#linear-gradient-16);}.cls-35{fill:#150e42;}.cls-36{fill:url(#linear-gradient-17);}.cls-37{fill:url(#linear-gradient-18);}.cls-38{fill:url(#linear-gradient-19);}.cls-39{fill:url(#linear-gradient-20);}</style><clipPath id="clip-path"><path class="cls-1" d="M82.71,139.74a22.59,22.59,0,1,0,22.58,22.58A22.58,22.58,0,0,0,82.71,139.74Zm0,35.45a12.87,12.87,0,1,1,12.87-12.87A12.87,12.87,0,0,1,82.71,175.19Z"/></clipPath><clipPath id="clip-path-2"><path class="cls-1" d="M137.76,139.74a22.59,22.59,0,1,0,22.58,22.58A22.58,22.58,0,0,0,137.76,139.74Zm0,35.45a12.87,12.87,0,1,1,12.87-12.87A12.87,12.87,0,0,1,137.76,175.19Z"/></clipPath><clipPath id="clip-path-3"><path class="cls-1" d="M192.81,139.74a22.59,22.59,0,1,0,22.58,22.58A22.58,22.58,0,0,0,192.81,139.74Zm0,35.45a12.87,12.87,0,1,1,12.86-12.87A12.87,12.87,0,0,1,192.81,175.19Z"/></clipPath><linearGradient id="linear-gradient" x1="95.98" y1="240.57" x2="78.81" y2="292.49" gradientTransform="translate(288.96 69.39) rotate(67.5)" gradientUnits="userSpaceOnUse"><stop offset="0" stop-color="#febbba"/><stop offset="1" stop-color="#ff928e"/></linearGradient><linearGradient id="linear-gradient-2" x1="108.08" y1="261.37" x2="96.77" y2="295.57" gradientTransform="matrix(1, 0, 0, 1, 0, 0)" xlink:href="#linear-gradient"/><linearGradient id="linear-gradient-3" x1="126.25" y1="242.71" x2="114.94" y2="276.91" gradientTransform="matrix(1, 0, 0, 1, 0, 0)" xlink:href="#linear-gradient"/><linearGradient id="linear-gradient-4" x1="144.6" y1="261.97" x2="133.29" y2="296.17" gradientTransform="matrix(1, 0, 0, 1, 0, 0)" xlink:href="#linear-gradient"/><linearGradient id="linear-gradient-5" x1="171.31" y1="233.27" x2="160" y2="267.47" gradientTransform="matrix(1, 0, 0, 1, 0, 0)" xlink:href="#linear-gradient"/><linearGradient id="linear-gradient-6" x1="362.02" y1="222.5" x2="398.77" y2="222.5" gradientTransform="translate(578.83 -170.98) rotate(86.44)" gradientUnits="userSpaceOnUse"><stop offset="0" stop-color="#dae3fe"/><stop offset="1" stop-color="#e9effd"/></linearGradient><linearGradient id="linear-gradient-7" x1="361.94" y1="163.45" x2="398.69" y2="163.45" gradientTransform="translate(452.01 -244.24) rotate(76.72)" xlink:href="#linear-gradient-6"/><linearGradient id="linear-gradient-8" x1="401.71" y1="261.92" x2="344.84" y2="315.89" gradientUnits="userSpaceOnUse"><stop offset="0" stop-color="#fdf53f"/><stop offset="1" stop-color="#d93c65"/></linearGradient><linearGradient id="linear-gradient-9" x1="-267.03" y1="408.15" x2="-343.6" y2="491.44" gradientTransform="matrix(-1, 0, 0, 1, 95.57, 0)" gradientUnits="userSpaceOnUse"><stop offset="0" stop-color="#09005d"/><stop offset="1" stop-color="#1a0f91"/></linearGradient><linearGradient id="linear-gradient-10" x1="-291.88" y1="414.34" x2="-285.08" y2="414.34" gradientTransform="matrix(-1, 0, 0, 1, 95.57, 0)" xlink:href="#linear-gradient"/><linearGradient id="linear-gradient-11" x1="-284.2" y1="392.36" x2="-360.77" y2="475.65" xlink:href="#linear-gradient-9"/><linearGradient id="linear-gradient-12" x1="-316.39" y1="413.99" x2="-310.52" y2="413.99" gradientTransform="matrix(-1, 0, 0, 1, 95.57, 0)" xlink:href="#linear-gradient"/><linearGradient id="linear-gradient-13" x1="-263.89" y1="236.9" x2="-229.14" y2="236.9" gradientTransform="matrix(-1, 0, 0, 1, 95.57, 0)" xlink:href="#linear-gradient"/><linearGradient id="linear-gradient-14" x1="7642.66" y1="231.08" x2="7665.98" y2="284.13" gradientTransform="translate(-7310.21)" xlink:href="#linear-gradient"/><linearGradient id="linear-gradient-15" x1="-229.31" y1="213.41" x2="-219.58" y2="198.45" gradientTransform="matrix(-1, 0, 0, 1, 95.57, 0)" xlink:href="#linear-gradient"/><linearGradient id="linear-gradient-16" x1="-339.92" y1="286.12" x2="-295.95" y2="286.12" gradientTransform="matrix(-1, 0, 0, 1, 95.57, 0)" xlink:href="#linear-gradient"/><linearGradient id="linear-gradient-17" x1="-299.22" y1="281.51" x2="-285.52" y2="281.51" gradientTransform="matrix(-1, 0, 0, 1, 95.57, 0)" xlink:href="#linear-gradient"/><linearGradient id="linear-gradient-18" x1="-306.16" y1="239.11" x2="-288.77" y2="239.11" gradientTransform="matrix(-1, 0, 0, 1, 95.57, 0)" xlink:href="#linear-gradient"/><linearGradient id="linear-gradient-19" x1="-1196.48" y1="-1679.16" x2="-1218.83" y2="-1649.6" gradientTransform="matrix(-0.81, -0.58, -0.58, 0.81, -1565.54, 879.03)" xlink:href="#linear-gradient"/><linearGradient id="linear-gradient-20" x1="-1229.21" y1="-1655.75" x2="-1211.29" y2="-1674.14" gradientTransform="matrix(-0.81, -0.58, -0.58, 0.81, -1565.54, 879.03)" xlink:href="#linear-gradient"/></defs><path class="cls-2" d="M382.86,355a178.44,178.44,0,0,1-96.13,52.51C196.81,425.1,75.26,398.22,47.89,299.07c-16.68-60.42-5-131.1,29.27-183.46C114.82,58.07,182.82,19.23,252.41,22c68.09,2.68,134.83,56.28,163,115.9C451,213.05,435.22,299.72,382.86,355Z"/><g class="cls-3"><path class="cls-4" d="M144.6,64a1.47,1.47,0,0,1-2-.49c-.81-1.35-1.7-2.69-2.63-4a1.47,1.47,0,0,1,.3-2l0,0a1.48,1.48,0,0,1,2.06.33c1,1.35,1.91,2.75,2.77,4.17a1.49,1.49,0,0,1-.37,1.94A.57.57,0,0,1,144.6,64ZM135,53.61c-1.1-1.14-2.26-2.25-3.44-3.29a1.47,1.47,0,1,1,1.93-2.21c1.25,1.09,2.47,2.26,3.63,3.46a1.48,1.48,0,0,1,0,2.08l-.14.11A1.46,1.46,0,0,1,135,53.61Zm-9.6-8c-1.32-.87-2.7-1.69-4.09-2.44a1.47,1.47,0,1,1,1.4-2.59c1.46.79,2.91,1.66,4.3,2.57a1.47,1.47,0,0,1,.43,2,1.38,1.38,0,0,1-.35.37A1.46,1.46,0,0,1,125.38,45.64ZM114.24,40c-1.48-.55-3-1-4.53-1.46a1.47,1.47,0,1,1,.78-2.83c1.61.44,3.21,1,4.77,1.54a1.47,1.47,0,0,1,.38,2.55A1.48,1.48,0,0,1,114.24,40Zm-12.11-3c-1.57-.21-3.17-.35-4.75-.42a1.47,1.47,0,1,1,.14-2.94c1.66.08,3.34.23,5,.45a1.47,1.47,0,0,1-.38,2.91Zm-12.48-.25c-1.58.15-3.16.36-4.72.64a1.48,1.48,0,0,1-1.71-1.19,1.47,1.47,0,0,1,1.19-1.7c1.64-.3,3.31-.52,5-.68A1.48,1.48,0,0,1,91,35.16a1.46,1.46,0,0,1-.58,1.31A1.41,1.41,0,0,1,89.65,36.76ZM43.75,66.33a1.48,1.48,0,0,1-.59-2c.79-1.46,1.66-2.91,2.57-4.3a1.47,1.47,0,0,1,2.46,1.62c-.87,1.32-1.7,2.69-2.45,4.08a1.56,1.56,0,0,1-.4.48A1.5,1.5,0,0,1,43.75,66.33Zm33.69-27c-1.51.49-3,1.05-4.46,1.67a1.47,1.47,0,1,1-1.15-2.71c1.53-.65,3.11-1.24,4.69-1.76a1.47,1.47,0,0,1,1.35,2.57A1.78,1.78,0,0,1,77.44,39.29ZM50.81,55.63a1.46,1.46,0,0,1-.13-2.07c1.1-1.25,2.26-2.47,3.47-3.62a1.47,1.47,0,1,1,2,2.12c-1.14,1.1-2.25,2.25-3.3,3.44a1.31,1.31,0,0,1-.21.2A1.48,1.48,0,0,1,50.81,55.63ZM66.09,44.47c-1.35.82-2.69,1.7-4,2.63a1.47,1.47,0,0,1-1.75-2.36l0,0c1.35-1,2.75-1.91,4.18-2.77a1.47,1.47,0,0,1,1.64,2.44A.57.57,0,0,1,66.09,44.47Z"/><path class="cls-4" d="M41.26,75.69a1.36,1.36,0,0,0,.51-.71c.24-.72.49-1.45.76-2.17a1.47,1.47,0,1,0-2.76-1c-.28.75-.54,1.52-.79,2.28a1.46,1.46,0,0,0,2.28,1.62Z"/></g><g class="cls-3"><path class="cls-4" d="M45.12,120.35a1.46,1.46,0,0,0,.41-1.86c-.35-.67-.7-1.36-1-2a1.47,1.47,0,0,0-2.65,1.28c.34.72.71,1.45,1.09,2.15a1.46,1.46,0,0,0,2,.61A1.37,1.37,0,0,0,45.12,120.35Z"/><path class="cls-4" d="M127.86,140.85a1.47,1.47,0,0,1-1.66-2.43c1.28-.87,2.54-1.81,3.76-2.8a1.47,1.47,0,1,1,1.85,2.28c-.53.43-1.06.85-1.6,1.26C129.44,139.74,128.65,140.31,127.86,140.85Zm7.74-8.34a1.48,1.48,0,0,1-.07-2.08c1.07-1.13,2.1-2.33,3.06-3.55a1.47,1.47,0,0,1,2.31,1.83c-1,1.28-2.1,2.54-3.22,3.73a1,1,0,0,1-.19.17A1.46,1.46,0,0,1,135.6,132.51ZM121,144.91c-1.46.73-3,1.4-4.5,2a1.47,1.47,0,0,1-1.09-2.74c1.45-.57,2.89-1.21,4.28-1.91a1.47,1.47,0,0,1,1.54,2.49A1.82,1.82,0,0,1,121,144.91Zm22.47-22.29a1.47,1.47,0,0,1-.52-2c.79-1.34,1.53-2.73,2.2-4.13a1.47,1.47,0,1,1,2.65,1.27c-.71,1.48-1.49,2.94-2.32,4.36a1.4,1.4,0,0,1-.38.42A1.46,1.46,0,0,1,143.42,122.62Zm-34.6,26.73c-1.59.39-3.22.71-4.84,1a1.47,1.47,0,1,1-.45-2.91c1.53-.24,3.08-.55,4.59-.92a1.47,1.47,0,0,1,1.24,2.6A1.5,1.5,0,0,1,108.82,149.35ZM96,151c-1.63,0-3.29,0-4.93-.1a1.48,1.48,0,0,1-1.37-1.57A1.47,1.47,0,0,1,91.26,148c1.55.1,3.13.13,4.69.1a1.48,1.48,0,0,1,1.5,1.44,1.5,1.5,0,0,1-.59,1.21A1.41,1.41,0,0,1,96,151Zm-12.87-1.16c-1.61-.32-3.22-.72-4.79-1.17a1.47,1.47,0,0,1,.82-2.83c1.5.44,3,.81,4.55,1.12a1.46,1.46,0,0,1,1.15,1.73,1.39,1.39,0,0,1-.55.88A1.44,1.44,0,0,1,83.13,149.86Zm-12.31-3.93c-1.5-.67-3-1.41-4.42-2.21a1.47,1.47,0,1,1,1.42-2.57c1.36.75,2.77,1.46,4.2,2.09a1.47,1.47,0,0,1,.74,1.94,1.43,1.43,0,0,1-.45.57A1.48,1.48,0,0,1,70.82,145.93Zm-11.16-6.56c-1.31-1-2.59-2-3.82-3.11a1.47,1.47,0,1,1,2-2.2c1.16,1,2.38,2,3.63,3a1.47,1.47,0,0,1,.29,2.06,1.33,1.33,0,0,1-.29.29A1.47,1.47,0,0,1,59.66,139.37Zm-9.43-8.83c-.78-.91-1.55-1.86-2.28-2.82l-.77-1a1.44,1.44,0,0,1,.33-2,1.46,1.46,0,0,1,2.05.33l.74,1c.69.91,1.42,1.82,2.16,2.69a1.46,1.46,0,0,1-.16,2.07l-.07.06A1.47,1.47,0,0,1,50.23,130.54Z"/><path class="cls-4" d="M150.21,111a1.35,1.35,0,0,0,.51-.72c.25-.76.48-1.54.69-2.31a1.47,1.47,0,1,0-2.83-.78c-.21.73-.42,1.47-.66,2.19a1.48,1.48,0,0,0,1,1.85A1.46,1.46,0,0,0,150.21,111Z"/></g><path class="cls-4" d="M138.7,88.56a.71.71,0,0,0-.44-.67l-7.8-3a36.23,36.23,0,0,0-4.12-11.06l3.94-7.38a.7.7,0,0,0-.11-.79l-6.83-7.34a.67.67,0,0,0-.78-.16l-7.64,3.38a36.58,36.58,0,0,0-10.74-4.91l-2.44-8a.67.67,0,0,0-.63-.48l-10-.37a.7.7,0,0,0-.67.44l-3,7.81a36.47,36.47,0,0,0-11.06,4.11L69,56.2a.68.68,0,0,0-.79.1l-7.35,6.83a.69.69,0,0,0-.16.78l3.39,7.65a36.4,36.4,0,0,0-4.91,10.73l-8,2.44a.69.69,0,0,0-.48.63l-.37,10a.68.68,0,0,0,.44.66l7.8,3a36.19,36.19,0,0,0,4.12,11.07l-3.93,7.37a.68.68,0,0,0,.1.79l6.83,7.35a.67.67,0,0,0,.78.16l7.64-3.38a36.55,36.55,0,0,0,10.74,4.9l2.44,8a.68.68,0,0,0,.63.49l10,.36a.68.68,0,0,0,.67-.44l3-7.8a36.53,36.53,0,0,0,11.07-4.11l7.37,3.93a.7.7,0,0,0,.79-.1l7.35-6.84a.69.69,0,0,0,.16-.78l-3.39-7.64a36.38,36.38,0,0,0,4.91-10.73l8-2.44a.7.7,0,0,0,.49-.63Z"/><path class="cls-5" d="M99.35,100.81a10.06,10.06,0,1,1,1.24-.8A9.75,9.75,0,0,1,99.35,100.81Zm-12.27-11a7.73,7.73,0,1,0,3.7-4.61,6.85,6.85,0,0,0-1,.62A7.68,7.68,0,0,0,87.08,89.81Z"/><path class="cls-5" d="M109.22,111.74a23.37,23.37,0,0,0,2-1.63h0l.59-.56a24.65,24.65,0,0,0,2.58-3l0,0,.09-.12.17-.25a.59.59,0,0,0,0-.69.86.86,0,0,0-.14-.13.59.59,0,0,0-.82.15,22.84,22.84,0,0,1-3.3,3.79A23.64,23.64,0,0,1,77,108q-.83-.9-1.56-1.86a23.62,23.62,0,0,1,36.15-30.31c.55.59,1.07,1.21,1.55,1.84A23.68,23.68,0,0,1,117.39,87a.7.7,0,0,0,.11.23.59.59,0,0,0,.59.22.59.59,0,0,0,.45-.7A24.73,24.73,0,0,0,114.07,77c-.51-.66-1-1.31-1.62-1.93a24.8,24.8,0,0,0-38,31.82c.51.67,1.06,1.32,1.64,2a24.78,24.78,0,0,0,33.09,2.91Z"/><g class="cls-3"><path class="cls-4" d="M208.12,64.51a.9.9,0,0,0,.3-1c-.27-.72-.57-1.44-.89-2.15a.91.91,0,1,0-1.65.75c.3.67.58,1.36.84,2a.91.91,0,0,0,1.17.53A.65.65,0,0,0,208.12,64.51Z"/><path class="cls-4" d="M205,58.29a.91.91,0,0,1-1.25-.3c-.66-1.08-1.38-2.14-2.14-3.15l-.5-.64a.91.91,0,0,1,.15-1.27.94.94,0,0,1,1.28.15l.51.66c.8,1.06,1.56,2.17,2.25,3.3a.92.92,0,0,1-.23,1.2Zm-7-7.52a38.51,38.51,0,0,0-3.47-3,.91.91,0,0,1-.17-1.27.92.92,0,0,1,1.28-.17,39.15,39.15,0,0,1,3.63,3.18.91.91,0,0,1,0,1.29.39.39,0,0,1-.1.08A.9.9,0,0,1,198,50.77Zm-7.29-5.62a37,37,0,0,0-4.12-2.09.91.91,0,0,1,.73-1.67,41.52,41.52,0,0,1,4.31,2.19.92.92,0,0,1,.32,1.25,1,1,0,0,1-.23.26A.93.93,0,0,1,190.73,45.15Zm-8.45-3.66a37,37,0,0,0-4.5-1,.91.91,0,0,1,.29-1.8,40.25,40.25,0,0,1,4.72,1.07.91.91,0,1,1-.51,1.74ZM173.19,40a37.35,37.35,0,0,0-4.61.11.91.91,0,1,1-.15-1.81,38.91,38.91,0,0,1,4.83-.11.91.91,0,0,1,.51,1.63A.89.89,0,0,1,173.19,40Zm-9.17.77A37.91,37.91,0,0,0,159.58,42a.91.91,0,0,1-.59-1.72A39.66,39.66,0,0,1,163.65,39a.9.9,0,0,1,1.07.7.91.91,0,0,1-.34.91A.74.74,0,0,1,164,40.78Zm-8.7,3a37.9,37.9,0,0,0-4,2.28.9.9,0,0,1-1.25-.26.92.92,0,0,1,.26-1.26,38.77,38.77,0,0,1,4.2-2.39.91.91,0,0,1,.95,1.54A.54.54,0,0,1,155.32,43.77ZM143,52a.9.9,0,0,1-.05-1.28,39.67,39.67,0,0,1,3-2.93l.49-.41a.9.9,0,0,1,1.28.11.92.92,0,0,1-.11,1.28l-.46.39A38,38,0,0,0,144.28,52l-.12.11A.91.91,0,0,1,143,52Z"/></g><g class="cls-3"><path class="cls-4" d="M195,109a38.9,38.9,0,0,1-4,2.59.9.9,0,0,1-1.23-.35.92.92,0,0,1,.34-1.24,35.81,35.81,0,0,0,3.81-2.46.91.91,0,0,1,1.27.19A.92.92,0,0,1,195,109Zm2.37-3.08a.92.92,0,0,1,0-1.29,35.91,35.91,0,0,0,3.11-3.3.91.91,0,0,1,1.28-.11.89.89,0,0,1,.12,1.27,41.15,41.15,0,0,1-3.26,3.47l-.08.06A.91.91,0,0,1,197.35,105.9Zm-10.63,7.75a40.47,40.47,0,0,1-4.5,1.54.91.91,0,0,1-1.12-.63.92.92,0,0,1,.63-1.12A38.06,38.06,0,0,0,186,112a.91.91,0,0,1,.9,1.56A.82.82,0,0,1,186.72,113.65Zm16.74-14.74a.9.9,0,0,1-.27-1.25,35.76,35.76,0,0,0,2.22-4,.91.91,0,0,1,1.64.79,40.1,40.1,0,0,1-2.33,4.15,1,1,0,0,1-.22.23A.9.9,0,0,1,203.46,98.91Zm-25.89,17.27a39.54,39.54,0,0,1-4.74.41.91.91,0,1,1-.05-1.81,37.94,37.94,0,0,0,4.52-.4.91.91,0,0,1,.27,1.8Zm-9.49.26a41.36,41.36,0,0,1-4.7-.73.9.9,0,0,1-.69-1.08.91.91,0,0,1,1.08-.7,37.59,37.59,0,0,0,4.48.7.91.91,0,0,1,.82,1,.89.89,0,0,1-.36.64A.91.91,0,0,1,168.08,116.44Zm-9.28-2a38.24,38.24,0,0,1-4.38-1.84.9.9,0,0,1-.42-1.21.92.92,0,0,1,1.22-.42,35.49,35.49,0,0,0,4.18,1.75.9.9,0,0,1,.56,1.16.88.88,0,0,1-.31.42A.91.91,0,0,1,158.8,114.42Z"/><path class="cls-4" d="M208.56,90.48a.86.86,0,0,0,.31-.43c.25-.73.48-1.48.68-2.22a.91.91,0,0,0-1.75-.48c-.19.7-.41,1.42-.65,2.12a.91.91,0,0,0,1.41,1Z"/></g><path class="cls-4" d="M201.12,74.88a.47.47,0,0,0-.3-.45l-5.22-2A24.42,24.42,0,0,0,192.85,65l2.63-4.93a.47.47,0,0,0-.07-.53l-4.57-4.92a.46.46,0,0,0-.52-.1l-5.12,2.26A24.39,24.39,0,0,0,178,53.51l-1.63-5.35a.47.47,0,0,0-.42-.33l-6.71-.24a.46.46,0,0,0-.45.29l-2,5.22a24.42,24.42,0,0,0-7.41,2.75l-4.93-2.63a.47.47,0,0,0-.53.07L149,57.86a.5.5,0,0,0-.11.53l2.27,5.11a24.39,24.39,0,0,0-3.28,7.18l-5.36,1.64a.45.45,0,0,0-.32.42L142,79.45a.48.48,0,0,0,.3.44l5.22,2a24.37,24.37,0,0,0,2.75,7.4l-2.63,4.94a.47.47,0,0,0,.07.53l4.57,4.91a.46.46,0,0,0,.53.11l5.11-2.27a24.42,24.42,0,0,0,7.18,3.29l1.63,5.35a.47.47,0,0,0,.43.33l6.71.24a.45.45,0,0,0,.44-.29l2-5.23a24.2,24.2,0,0,0,7.4-2.75l4.93,2.63a.45.45,0,0,0,.53-.07l4.92-4.57a.46.46,0,0,0,.11-.52l-2.27-5.12a24.14,24.14,0,0,0,3.28-7.18L200.55,82a.45.45,0,0,0,.32-.42Z"/><path class="cls-5" d="M174.85,83.18a6.84,6.84,0,1,1,.85-.55A6.82,6.82,0,0,1,174.85,83.18Zm-7.74-3.59a5.06,5.06,0,0,0,6.86,2h0a5.05,5.05,0,1,0-4.86-8.86,4.44,4.44,0,0,0-.62.41A5,5,0,0,0,167.11,79.59Z"/><path class="cls-5" d="M181.72,90.79c.45-.35.9-.72,1.33-1.12a17.41,17.41,0,0,0,2.3-2.62l.09-.12a.91.91,0,0,0,0-1.07,1,1,0,0,0-.21-.2.9.9,0,0,0-1.26.23,15.1,15.1,0,0,1-2.14,2.45h0l-.13.12a15.22,15.22,0,0,1-10.7,4h-.14a15.2,15.2,0,0,1-10.64-4.87,14.38,14.38,0,0,1-1-1.21A15.29,15.29,0,0,1,182.6,66.73c.35.38.68.78,1,1.19a15.39,15.39,0,0,1,2.76,6,.83.83,0,0,0,.16.36.92.92,0,0,0,.91.34.91.91,0,0,0,.7-1.08A17,17,0,0,0,185,66.83a15.64,15.64,0,0,0-1.11-1.33,17.11,17.11,0,0,0-26.19,22c.35.46.73.91,1.13,1.34A17.14,17.14,0,0,0,181.72,90.79Z"/><polygon class="cls-6" points="201.33 332.11 192.46 393.35 295.42 393.35 282.01 332.11 201.33 332.11"/><path class="cls-7" d="M28.38,136V318.3a27.65,27.65,0,0,0,26.94,27.64c66.58,1.72,299.44,5.88,362.81,4.95a20.36,20.36,0,0,0,20-19.77c1.22-42.35,3.2-144.18-4.14-191.45a21,21,0,0,0-20-17.73c-55.79-1.78-302.63-7.45-366-6A20.09,20.09,0,0,0,28.38,136Z"/><path class="cls-4" d="M39.82,135.13V308.31a16,16,0,0,0,15.78,16L409,328.69a15.58,15.58,0,0,0,15.82-15.53l.59-171.63a11.39,11.39,0,0,0-11.12-11.44L52.47,122.78A12.35,12.35,0,0,0,39.82,135.13Z"/><path class="cls-4" d="M427.5,335.79h0l-387.68-6.6a.49.49,0,0,1,0-1l387.69,6.6a.49.49,0,0,1,.48.5A.48.48,0,0,1,427.5,335.79Z"/><path class="cls-4" d="M237.48,343.86a4.53,4.53,0,1,1,4.53-4.52A4.53,4.53,0,0,1,237.48,343.86Zm0-8.07a3.55,3.55,0,1,0,3.55,3.55A3.55,3.55,0,0,0,237.48,335.79Z"/><path class="cls-7" d="M317.6,409.64H166.91c-4.1,0-7.17-2.92-6.38-6.05l1.93-7.65c.58-2.3,3.11-4,6.12-4.08l145.27-4.53c3.14-.1,5.92,1.57,6.6,4l3.49,12.18C324.84,406.63,321.75,409.64,317.6,409.64Z"/><path class="cls-4" d="M248,393.93a.5.5,0,0,1-.49-.48.51.51,0,0,1,.49-.5l6.22-.09a.5.5,0,0,1,.5.48.49.49,0,0,1-.48.5l-6.23.09Z"/><path class="cls-4" d="M166.11,405.42H166a.49.49,0,0,1-.41-.56l.89-5.56a6.2,6.2,0,0,1,6.05-5.23l66-1h0a.48.48,0,0,1,.49.48.49.49,0,0,1-.48.5l-66,1a5.21,5.21,0,0,0-5.09,4.4l-.89,5.57A.48.48,0,0,1,166.11,405.42Z"/><g class="cls-8"><rect class="cls-9" x="236.02" y="147.23" width="9.3" height="163.96"/><rect class="cls-9" x="251.55" y="147.23" width="9.3" height="163.96"/><rect class="cls-9" x="267.09" y="147.23" width="9.3" height="163.96"/><rect class="cls-9" x="282.62" y="147.23" width="9.3" height="163.96"/><rect class="cls-9" x="298.15" y="147.23" width="9.3" height="163.96"/><rect class="cls-9" x="313.68" y="147.23" width="9.3" height="163.96"/><rect class="cls-9" x="329.21" y="147.23" width="9.3" height="163.96"/></g><rect class="cls-10" x="236.02" y="225.38" width="9.3" height="85.8"/><rect class="cls-10" x="251.55" y="254.87" width="9.3" height="56.32"/><rect class="cls-10" x="267.09" y="181.99" width="9.3" height="129.2"/><rect class="cls-10" x="282.62" y="280.15" width="9.3" height="31.04"/><rect class="cls-10" x="298.15" y="199.26" width="9.3" height="111.92"/><rect class="cls-10" x="313.68" y="218.64" width="9.3" height="92.55"/><rect class="cls-10" x="329.21" y="239.71" width="9.3" height="71.48"/><path class="cls-1" d="M82.71,139.74a22.59,22.59,0,1,0,22.58,22.58A22.58,22.58,0,0,0,82.71,139.74Zm0,35.45a12.87,12.87,0,1,1,12.87-12.87A12.87,12.87,0,0,1,82.71,175.19Z"/><g class="cls-11"><rect class="cls-12" x="51.18" y="157.36" width="67.08" height="28.39"/></g><path class="cls-1" d="M137.76,139.74a22.59,22.59,0,1,0,22.58,22.58A22.58,22.58,0,0,0,137.76,139.74Zm0,35.45a12.87,12.87,0,1,1,12.87-12.87A12.87,12.87,0,0,1,137.76,175.19Z"/><g class="cls-13"><rect class="cls-12" x="106.22" y="146.38" width="67.08" height="39.36"/></g><path class="cls-1" d="M192.81,139.74a22.59,22.59,0,1,0,22.58,22.58A22.58,22.58,0,0,0,192.81,139.74Zm0,35.45a12.87,12.87,0,1,1,12.86-12.87A12.87,12.87,0,0,1,192.81,175.19Z"/><g class="cls-14"><rect class="cls-12" x="161.27" y="171.55" width="67.08" height="14.19"/></g><path class="cls-15" d="M210.15,312.1,65.29,311a5.2,5.2,0,0,1-5.16-5.2V231.38a5.2,5.2,0,0,1,5.2-5.2H210.19a5.2,5.2,0,0,1,5.2,5.2v75.51A5.21,5.21,0,0,1,210.15,312.1Z"/><path class="cls-15" d="M187.68,259.78l-18.63-19.69-26.7,29L123.5,248.8l-17.68,20L92.27,252.32,65.56,280.13v20.11a4.84,4.84,0,0,0,4.8,4.84l134.73,1a4.84,4.84,0,0,0,4.87-4.84V246.54Z"/><rect class="cls-9" x="187.8" y="259.23" width="0.49" height="46.85"/><rect class="cls-9" x="168.81" y="240.09" width="0.49" height="65.73"/><rect class="cls-9" x="142.1" y="268.78" width="0.49" height="36.83"/><rect class="cls-9" x="123.75" y="249.52" width="0.49" height="56.09"/><rect class="cls-9" x="105.58" y="268.19" width="0.49" height="37.43"/><rect class="cls-9" x="92.31" y="250.92" width="0.49" height="54.34"/><circle class="cls-16" cx="92.56" cy="250.92" r="4.09" transform="translate(-174.68 240.41) rotate(-67.5)"/><path class="cls-17" d="M108.52,268.19a2.7,2.7,0,1,1-2.7-2.7A2.69,2.69,0,0,1,108.52,268.19Z"/><path class="cls-18" d="M126.7,249.52a2.7,2.7,0,1,1-2.7-2.69A2.7,2.7,0,0,1,126.7,249.52Z"/><path class="cls-19" d="M145,268.78a2.7,2.7,0,1,1-2.69-2.69A2.7,2.7,0,0,1,145,268.78Z"/><path class="cls-20" d="M171.75,240.09a2.7,2.7,0,1,1-2.7-2.7A2.69,2.69,0,0,1,171.75,240.09Z"/><path class="cls-10" d="M190.74,259.23a2.7,2.7,0,1,1-2.7-2.69A2.7,2.7,0,0,1,190.74,259.23Z"/><g class="cls-21"><path class="cls-9" d="M102,213.79H62.28c-1.66,0-3,.94-3,2.09s1.35,2.1,3,2.1H102c1.66,0,3-.94,3-2.1S103.65,213.79,102,213.79Z"/><path class="cls-9" d="M102,204.51H62.28c-1.66,0-3,.94-3,2.1s1.35,2.09,3,2.09H102c1.66,0,3-.94,3-2.09S103.65,204.51,102,204.51Z"/><path class="cls-9" d="M102,195.24H62.28c-1.66,0-3,.94-3,2.09s1.35,2.1,3,2.1H102c1.66,0,3-.94,3-2.1S103.65,195.24,102,195.24Z"/></g><g class="cls-21"><path class="cls-9" d="M157.18,213.79h-39.7c-1.67,0-3,.94-3,2.09s1.34,2.1,3,2.1h39.7c1.67,0,3-.94,3-2.1S158.85,213.79,157.18,213.79Z"/><path class="cls-9" d="M157.18,204.51h-39.7c-1.67,0-3,.94-3,2.1s1.34,2.09,3,2.09h39.7c1.67,0,3-.94,3-2.09S158.85,204.51,157.18,204.51Z"/><path class="cls-9" d="M157.18,195.24h-39.7c-1.67,0-3,.94-3,2.09s1.34,2.1,3,2.1h39.7c1.67,0,3-.94,3-2.1S158.85,195.24,157.18,195.24Z"/></g><g class="cls-21"><path class="cls-9" d="M212.38,213.79H172.67c-1.66,0-3,.94-3,2.09s1.34,2.1,3,2.1h39.71c1.66,0,3-.94,3-2.1S214,213.79,212.38,213.79Z"/><path class="cls-9" d="M212.38,204.51H172.67c-1.66,0-3,.94-3,2.1s1.34,2.09,3,2.09h39.71c1.66,0,3-.94,3-2.09S214,204.51,212.38,204.51Z"/><path class="cls-9" d="M212.38,195.24H172.67c-1.66,0-3,.94-3,2.09s1.34,2.1,3,2.1h39.71c1.66,0,3-.94,3-2.1S214,195.24,212.38,195.24Z"/></g><circle class="cls-22" cx="380.39" cy="222.5" r="18.37" transform="translate(134.68 588.33) rotate(-86.44)"/><path class="cls-4" d="M391.31,218.62a11.8,11.8,0,1,1-10.92-7.32l.6,0v-3l-.6,0a14.79,14.79,0,1,0,13.66,9.12Z"/><path class="cls-23" d="M395.49,248.66H365.55a3.41,3.41,0,0,0,0,6.81h29.94a3.41,3.41,0,1,0,0-6.81Z"/><circle class="cls-24" cx="380.31" cy="163.45" r="18.37" transform="translate(133.86 496.03) rotate(-76.72)"/><path class="cls-4" d="M386.56,174a11.8,11.8,0,1,1-6.29-21.79h.6v-3h-.6A14.79,14.79,0,1,0,388,176.64Z"/><path class="cls-23" d="M395.57,189.61H365.63a3.4,3.4,0,1,0,0,6.8h29.94a3.4,3.4,0,1,0,0-6.8Z"/><circle class="cls-25" cx="380.46" cy="281.86" r="18.37" transform="translate(75.5 644.07) rotate(-86.44)"/><path class="cls-26" d="M390.46,288.5a11.8,11.8,0,1,1-9.76-18.44h.6v-3h-.6a14.79,14.79,0,1,0,12.19,23.18Z"/><path class="cls-23" d="M365.49,314.22h29.94a3.4,3.4,0,0,0,0-6.8H365.49a3.4,3.4,0,1,0,0,6.8Z"/><path class="cls-27" d="M386.8,414.36s.79,4.49,1.18,8.93a3.07,3.07,0,0,1-2.93,3.32c-5.92.24-18.58.72-23.12.52a1,1,0,0,1-.88-1.36,2.22,2.22,0,0,1,1.14-1.21L383.1,415Z"/><path class="cls-28" d="M387.44,411.72l-.63,5.37s-3.66,1.7-6.17-.22l1.52-6Z"/><path class="cls-10" d="M387,310.77c.27,1.4,1.47,70-5.86,100.7a1.05,1.05,0,0,0,.62,1.22,18.11,18.11,0,0,0,6,1.21,1.8,1.8,0,0,0,1.79-1.29c2.09-7.13,12.13-42.85,13.44-77,1.47-38.13,0-1.29,0-1.29l-.86-23.57Z"/><path class="cls-29" d="M410.85,416.7s1.26,2.26,2.48,8.29a1.86,1.86,0,0,1-1.64,2.23c-2,.2-5,.44-7.37.43a1.87,1.87,0,0,1-1.85-2.08,15.73,15.73,0,0,1,3.67-8.62Z"/><path class="cls-30" d="M412,409.79l-1.49,8.12s-1.47,1.1-4.39.3l.72-8.73Z"/><path class="cls-10" d="M416,312.87c6,36.18-1.3,89.42-3.76,99.84a1.64,1.64,0,0,1-1.31,1.24,10.92,10.92,0,0,1-4.69-.19,1.47,1.47,0,0,1-1.07-1.37c-.33-8.42.26-60.15-5.33-80.59a4.65,4.65,0,0,0-1.79-2.56l-10.84-7.7-.83-12.46Z"/><path class="cls-12" d="M377.78,244.32c18-.3,37.79,4.72,37.79,4.72,5.35,31.24.93,67.28.93,67.28-13.9,3.65-29.59-2.23-29.59-2.23-2.32-13.06-13.1-49.81-13.1-49.81a59.39,59.39,0,0,1-22-7c4.55-5.27,6.69-12,7.62-15.93A60.14,60.14,0,0,0,377.78,244.32Z"/><path class="cls-31" d="M324.71,217.86a3.43,3.43,0,0,1,4-1.13c2.64,11.17,16.51,20.23,30.75,24.65-.93,4-3.07,10.66-7.62,15.93C328.21,244,324.71,217.86,324.71,217.86Z"/><path class="cls-32" d="M325.14,218.4c-.19.58,1.95,1.48,3.21-.92,0-1.15.75-6.08.06-7-3.66-5-10.76-11.25-10.76-11.25a1.7,1.7,0,0,0-.22,2.35l3.45,3.58a16.7,16.7,0,0,0-2,4,4.84,4.84,0,0,0,.48,3.55,40.29,40.29,0,0,0,2.21,3.61A4.77,4.77,0,0,0,325.14,218.4Z"/><path class="cls-33" d="M322.39,207.47l3.13,2.66,1,2.65-2.8,3.11s-.94-5.26-1.64-6.4S321.73,207.8,322.39,207.47Z"/><path class="cls-12" d="M408.68,266.43,415.57,249s16.78,11.4,19.54,25.85a39.9,39.9,0,0,0-14.59,3.91C419.28,272,408.68,266.43,408.68,266.43Z"/><path class="cls-34" d="M394,282.8s18.84,10.65,25.2,1.56a7.14,7.14,0,0,0,1.31-5.56,39.9,39.9,0,0,1,14.59-3.91,20,20,0,0,1-2.17,13.68c-11.14,20.37-41.42-1.12-41.42-1.12Z"/><path class="cls-35" d="M396.28,296.27,386,260.36a1,1,0,0,0-.88-.75c-1.87-.22-7.26-.83-13.5-1.36-7.5-.63-16.22-1.15-21.43-.71a1.05,1.05,0,0,0-.86,1.51c3,6,15.15,30.38,21.25,38.37a1,1,0,0,0,.85.41l23.86-.22A1.05,1.05,0,0,0,396.28,296.27Z"/><path class="cls-10" d="M370.55,255.14l-7.46-1.24a.53.53,0,0,0-.59.69l.73,2.24a.54.54,0,0,0,.44.36l7.17,1a.54.54,0,0,0,.6-.65l-.46-1.95A.55.55,0,0,0,370.55,255.14Z"/><path class="cls-10" d="M376.13,261.45l-.62-3.2a.72.72,0,0,0-.65-.59l-15.05-1.53a.74.74,0,0,0-.8.91l1,4a.75.75,0,0,0,.68.57l14.72.74A.75.75,0,0,0,376.13,261.45Z"/><path class="cls-36" d="M393.79,287.6s1.43-5.89.86-8-1.7-4.78-5.43-4.18a53.87,53.87,0,0,0-8.14,2.17,2.14,2.14,0,0,0,3.06,1.84l-1.76,1.36s.25,2.18,2.65,1l-1.64,1.8a1.91,1.91,0,0,0,2.8.64C388,283.12,388.79,288.31,393.79,287.6Z"/><path class="cls-37" d="M396,229.73l5.71,16.53a.59.59,0,0,1-.27.72c-1.56.86-7.17,3.35-13.94-.94a2.8,2.8,0,0,1-1.29-2l-1.85-14.31Z"/><path class="cls-38" d="M383.18,212.66c-.17.24-5.55,19-5.55,19l10.76,2.84,7.73-17S386.06,208.65,383.18,212.66Z"/><path class="cls-7" d="M391.85,218.73a1.61,1.61,0,0,1,.15,1.4l-3.32,9.13a1.28,1.28,0,0,1-.21.38c-.47.66-2.17,2.63-4.13.78-1.67-1.58-3.23-3-4.69-3.44a1.59,1.59,0,0,0-2,1.11,59.9,59.9,0,0,0-1.81,8.61,1.59,1.59,0,0,0,1.28,1.74,44.11,44.11,0,0,0,9.95.92,1.58,1.58,0,0,0,1.36-.92c1.11-2.35,4.23-8.92,5.39-10.64s3.66-1.58,4.84-1.47a1.6,1.6,0,0,0,1.22-.41c1-.9,2.65-3,.29-5.51a1.6,1.6,0,0,1,.07-2.23,3.54,3.54,0,0,0,.37-5.18,5,5,0,0,0-5.8-1.57,1.65,1.65,0,0,1-1.89-.62,1.08,1.08,0,0,0-.94-.48,1.56,1.56,0,0,1-1.58-1.55,4.09,4.09,0,0,0-3.13-4.17c-4.7-1.51-7.68,3-8,6.41s4.86,4.74,7.92,4.54C389.46,215.41,391.12,217.57,391.85,218.73Z"/><path class="cls-39" d="M392.58,231.16s.82-5.89,3.27-6.16,4.83,1.77,2.36,5.06C395.14,234.15,392.58,231.16,392.58,231.16Z"/></svg>