<?xml version="1.0" encoding="utf-8"?>
<!-- Generator: Adobe Illustrator 24.0.2, SVG Export Plug-In . SVG Version: 6.00 Build 0)  -->
<svg version="1.1" xmlns="http://www.w3.org/2000/svg" xmlns:xlink="http://www.w3.org/1999/xlink" x="0px" y="0px"
	 viewBox="0 0 2475 1650" style="enable-background:new 0 0 2475 1650;" xml:space="preserve">
<style type="text/css">
	.st0{fill:#DFF0FF;}
	.st1{fill:#A1D4FF;}
	.st2{fill:#FFFFFF;}
	.st3{fill:#4AAFFF;}
	.st4{fill:#6AAFE8;}
	.st5{fill:#292C47;}
	.st6{fill:#EEA886;}
	.st7{opacity:0.42;}
	.st8{fill:#424773;}
	.st9{opacity:0.65;fill:#FFFFFF;}
	.st10{opacity:0.71;}
	.st11{opacity:0.47;fill:#FFFFFF;}
	.st12{opacity:0.36;}
	.st13{fill:#325BB3;}
	.st14{fill:url(#SVGID_1_);}
	.st15{fill:url(#SVGID_2_);}
	.st16{fill:url(#SVGID_3_);}
	.st17{fill:url(#SVGID_4_);}
	.st18{fill:url(#SVGID_5_);}
	.st19{fill:url(#SVGID_6_);}
	.st20{fill:url(#SVGID_7_);}
	.st21{fill:url(#SVGID_8_);}
	.st22{fill:url(#SVGID_9_);}
	.st23{fill:url(#SVGID_10_);}
	.st24{fill:url(#SVGID_11_);}
	.st25{opacity:0.69;}
	.st26{fill:url(#SVGID_12_);}
	.st27{fill:url(#SVGID_13_);}
	.st28{fill:url(#SVGID_14_);}
	.st29{fill:url(#SVGID_15_);}
	.st30{fill:url(#SVGID_16_);}
	.st31{fill:url(#SVGID_17_);}
	.st32{fill:url(#SVGID_18_);}
	.st33{fill:url(#SVGID_19_);}
	.st34{fill:url(#SVGID_20_);}
	.st35{fill:url(#SVGID_21_);}
	.st36{fill:url(#SVGID_22_);}
	.st37{fill:url(#SVGID_23_);}
</style>
<g id="Background">
</g>
<g id="Illustration">
	<g>
		<path class="st0" d="M589.6,151.3c-117.3,78.5-200.1,17.9-271,101.1C97.5,511.9,377.7,610.2,247.5,650
			c-141.3,43.2-53.4,234,26.1,289.1s138.7,88.3,25.7,144.6s-132.7,118.7-85.4,220.1c47.4,101.4,137.1,133.4,510.2,139.4
			c373.1,6,1095.5-6.7,1292.6-64.4c197.1-57.7,53.4-206.2,136.3-317.1c82.9-110.9,99.2-176-27.7-283.6
			c-126.9-107.6-54.6-218.9-16.5-297.4s67.4-220.9-85.5-261.5c-152.9-40.6-330.7,121.4-407.7,39.1c-76.9-82.3-43.1-191.5-211-164
			s-224.5,240.3-370.9,228.6C887.2,311.1,838.2-15.2,589.6,151.3z"/>
		<g>
			<path class="st1" d="M705.6,1393.7c0,0,132.8-401.9-287.8-833.9C417.8,559.8,264.9,1094.1,705.6,1393.7z"/>
			<path class="st2" d="M677.9,1298.1c-0.3,0-0.7-0.2-0.9-0.5c-74.8-129.9-134.7-296.2-171.8-412.8
				c-40.1-126.3-62.9-223.2-63.1-224.1c-0.1-0.5,0.2-1.1,0.7-1.2c0.5-0.1,1.1,0.2,1.2,0.7c0.2,1,22.9,97.8,63.1,224
				c37,116.5,96.8,282.6,171.6,412.4c0.3,0.5,0.1,1.1-0.4,1.4C678.2,1298,678.1,1298.1,677.9,1298.1z"/>
		</g>
		<g>
			<path class="st1" d="M240.1,778.8c0,0-79.3,561.6,417.8,600.4C657.9,1379.2,654.6,976.7,240.1,778.8z"/>
			<path class="st0" d="M558.8,1292.8c-0.3,0-0.5-0.1-0.7-0.3c-110.2-111.6-183.3-229.8-225.2-309.2c-45.4-86.1-65-146.6-65.2-147.2
				c-0.2-0.5,0.1-1.1,0.6-1.3c0.5-0.2,1.1,0.1,1.3,0.6c0.2,0.6,19.8,61,65.1,146.9c41.8,79.3,114.8,197.3,224.9,308.7
				c0.4,0.4,0.4,1,0,1.4C559.3,1292.7,559.1,1292.8,558.8,1292.8z"/>
		</g>
		<path class="st3" d="M2178.9,381.3c0,0,79.3,561.6-417.8,600.4C1761,981.7,1764.3,579.3,2178.9,381.3z"/>
		<path class="st1" d="M1713.3,996.2c0,0-132.8-401.9,287.8-833.9C2001.1,162.3,2154,696.7,1713.3,996.2z"/>
		<g>
			<g>
				<path class="st4" d="M1766.9,1278.9c-346.6-63.1-598-52.6-758.1-28.7c10.7,30.2,21.3,77.5,9.7,128.9
					c329.1,39.7,606.4-11,750.3-47.5C1797,1324.6,1795.5,1284.1,1766.9,1278.9z"/>
				<path class="st4" d="M1008.9,1250.3C866,1271.6,796,1303.7,796,1303.7l1.5,35.8c75.6,18.2,149.5,31.1,221,39.7
					C1030.2,1327.7,1019.5,1280.5,1008.9,1250.3z"/>
			</g>
			<path class="st3" d="M514.5,1313c0,0,99.5,85.4,191,80.7c91.5-4.8,100.8-47.3,98.1-85.4c-2.7-38.1-37.1-91.9-102.3-77.7
				C611.4,1250.3,574.2,1313.7,514.5,1313z"/>
			<path class="st1" d="M698.1,1375.6c-19.1,0-40.4-3.7-63.3-11c-46.4-14.8-84.3-39.7-84.7-40c-0.5-0.3-0.6-0.9-0.3-1.4
				c0.3-0.5,0.9-0.6,1.4-0.3c0.4,0.2,38,25,84.2,39.7c42.4,13.5,101,21.1,139-19.9c0.4-0.4,1-0.4,1.4-0.1c0.4,0.4,0.4,1,0.1,1.4
				c-17.1,18.4-39.6,28.8-67,31C705.4,1375.5,701.8,1375.6,698.1,1375.6z"/>
			<path class="st2" d="M821.7,1305.1c-0.4,0-0.8-0.3-0.9-0.7c-0.2-0.5,0.1-1.1,0.6-1.3c1-0.3,96.8-33.2,177.9-39.3
				c0.6,0,1,0.4,1.1,0.9c0,0.6-0.4,1-0.9,1.1c-80.9,6.1-176.5,38.8-177.4,39.2C822,1305.1,821.8,1305.1,821.7,1305.1z"/>
		</g>
		<g>
			<path class="st5" d="M1711.5,656.3c-3.2,127.6-13.4,567.6-8.5,723.5c0.5,16.5,13.8,29.8,30.3,30.3c81.7,2.7,381.2,9.4,514.8,3.8
				c27.8-1.2,50-23.7,50.5-51.6c2.8-133.9,8.9-510.5-5.7-683c-1.7-20.7-18-37.1-38.6-39.2c-89-8.9-389.8-30.7-505.2-23.2
				C1728.3,618.3,1712,635.4,1711.5,656.3z"/>
			<path class="st6" d="M1748,695.4c-4.4,103-18.3,445.5-13.9,572.1c0.6,18.5,15.2,33.5,33.7,34.6c76.1,4.5,335.9,14.3,447.6,5.3
				c20.1-1.6,35.9-17.9,37-38c5.7-105,21.9-424,17.7-549.2c-0.7-20-16.1-36.3-36.1-38.1c-82.4-7.4-358.4-25-453.3-19.8
				C1762.9,663.3,1748.7,677.6,1748,695.4z"/>
			<path class="st5" d="M1913.4,639.3L1913.4,639.3c0,3.9,3.1,7.1,7,7.3c19.3,1,73.7,3.9,97.9,5.3c4.8,0.3,8.5-4,7.6-8.7l-0.2-0.8
				c-0.6-3.2-3.3-5.6-6.5-5.9c-16.4-1.5-66-5.7-98.8-4.5C1916.5,632.1,1913.4,635.3,1913.4,639.3z"/>
			<g class="st7">
				<polygon class="st2" points="1930.7,1005.2 2080.7,1010.2 2070.2,902.6 1930.7,899.4 				"/>
				<polygon class="st2" points="2098.6,1010.8 2215.7,1014.7 2216.6,905.9 2088.1,903 				"/>
				<path class="st2" d="M2216.8,888.1l0.9-114c0.1-13.8-10.6-25.3-24.3-26.1l-357-22.3c-14.5-0.9-26.9,10.2-27.5,24.7l-5.7,128.3
					L2216.8,888.1z"/>
				<polygon class="st2" points="1912.9,899 1802.3,896.5 1797.6,1000.8 1912.9,1004.6 				"/>
				<path class="st2" d="M1796.8,1018.6l-9.6,214.9c-0.6,14.5,10.7,26.7,25.3,27.1l374.7,9.5c14.5,0.4,26.5-11.2,26.6-25.7
					l1.8-211.8L1796.8,1018.6z"/>
			</g>
		</g>
		<g>
			<polygon class="st5" points="1126,1107.6 1097.2,1365.3 1430.6,1365.3 1387.2,1107.6 			"/>
			<path class="st8" d="M565.9,472.6v590.3c0,48.6,38.7,88.3,87.2,89.5c215.6,5.6,969.6,19,1174.8,16c35.3-0.5,63.8-28.7,64.9-64
				c4-137.1,10.4-466.9-13.4-619.9c-5-32.2-32.2-56.3-64.8-57.4c-180.6-5.8-980-24.1-1185.1-19.5
				C594.2,408.3,565.9,437.2,565.9,472.6z"/>
			<path class="st6" d="M603,469.7v560.8c0,28.3,22.8,51.4,51.1,51.9l1144.4,14.1c28.1,0.4,51.1-22.2,51.2-50.3l1.9-555.8
				c0.1-20.1-15.9-36.6-36-37.1L643.9,429.7C621.5,429.2,603,447.3,603,469.7z"/>
			<path class="st9" d="M1858.3,1118.9C1858.3,1118.9,1858.3,1118.9,1858.3,1118.9l-1255.4-21.4c-0.6,0-1-0.5-1-1c0-0.6,0.5-1,1-1
				l1255.4,21.4c0.6,0,1,0.5,1,1C1859.3,1118.5,1858.9,1118.9,1858.3,1118.9z"/>
			<path class="st9" d="M1243,1145.1c-7.8,0-14.1-6.3-14.1-14.1c0-7.8,6.3-14.1,14.1-14.1s14.1,6.3,14.1,14.1
				C1257.1,1138.7,1250.8,1145.1,1243,1145.1z M1243,1118.9c-6.7,0-12.1,5.4-12.1,12.1c0,6.7,5.4,12.1,12.1,12.1
				c6.7,0,12.1-5.4,12.1-12.1C1255.1,1124.3,1249.7,1118.9,1243,1118.9z"/>
			<g class="st10">
				<path class="st11" d="M972,1035.6H710.9c-12.9,0-23.3-10.4-23.3-23.3V671.8c0-12.9,10.4-23.3,23.3-23.3h280.2
					c13.4,0,24,11.2,23.3,24.6l-19.1,340.4C994.6,1025.9,984.4,1035.6,972,1035.6z"/>
				<path class="st2" d="M972,1017.8C972,1017.8,972,1017.8,972,1017.8h-6c-1.1,0-2-0.9-2-2c0-1.1,0.9-2,2-2h6c0,0,0,0,0,0
					c0.6,0,1.1-0.3,1.4-0.9c0.5-1,1.7-1.4,2.7-0.9c1,0.5,1.4,1.7,0.9,2.7C976.1,1016.6,974.2,1017.8,972,1017.8z M956,1017.8h-10
					c-1.1,0-2-0.9-2-2c0-1.1,0.9-2,2-2h10c1.1,0,2,0.9,2,2C958,1016.9,957.1,1017.8,956,1017.8z M936,1017.8h-10c-1.1,0-2-0.9-2-2
					c0-1.1,0.9-2,2-2h10c1.1,0,2,0.9,2,2C938,1016.9,937.1,1017.8,936,1017.8z M916,1017.8h-10c-1.1,0-2-0.9-2-2c0-1.1,0.9-2,2-2h10
					c1.1,0,2,0.9,2,2C918,1016.9,917.1,1017.8,916,1017.8z M896,1017.8h-10c-1.1,0-2-0.9-2-2c0-1.1,0.9-2,2-2h10c1.1,0,2,0.9,2,2
					C898,1016.9,897.1,1017.8,896,1017.8z M876,1017.8h-10c-1.1,0-2-0.9-2-2c0-1.1,0.9-2,2-2h10c1.1,0,2,0.9,2,2
					C878,1016.9,877.1,1017.8,876,1017.8z M856,1017.8h-10c-1.1,0-2-0.9-2-2c0-1.1,0.9-2,2-2h10c1.1,0,2,0.9,2,2
					C858,1016.9,857.1,1017.8,856,1017.8z M836,1017.8h-10c-1.1,0-2-0.9-2-2c0-1.1,0.9-2,2-2h10c1.1,0,2,0.9,2,2
					C838,1016.9,837.1,1017.8,836,1017.8z M816,1017.8h-10c-1.1,0-2-0.9-2-2c0-1.1,0.9-2,2-2h10c1.1,0,2,0.9,2,2
					C818,1016.9,817.1,1017.8,816,1017.8z M796,1017.8h-10c-1.1,0-2-0.9-2-2c0-1.1,0.9-2,2-2h10c1.1,0,2,0.9,2,2
					C798,1016.9,797.1,1017.8,796,1017.8z M776,1017.8h-10c-1.1,0-2-0.9-2-2c0-1.1,0.9-2,2-2h10c1.1,0,2,0.9,2,2
					C778,1016.9,777.1,1017.8,776,1017.8z M756,1017.8h-10c-1.1,0-2-0.9-2-2c0-1.1,0.9-2,2-2h10c1.1,0,2,0.9,2,2
					C758,1016.9,757.1,1017.8,756,1017.8z M736,1017.8h-10c-1.1,0-2-0.9-2-2c0-1.1,0.9-2,2-2h10c1.1,0,2,0.9,2,2
					C738,1016.9,737.1,1017.8,736,1017.8z M716,1017.8h-5.1c-3.1,0-5.6-2.5-5.6-5.6v-4.4c0-1.1,0.9-2,2-2c1.1,0,2,0.9,2,2v4.4
					c0,0.9,0.7,1.6,1.6,1.6h5.1c1.1,0,2,0.9,2,2C718,1016.9,717.1,1017.8,716,1017.8z M976.1,1005.9c0,0-0.1,0-0.1,0
					c-1.1-0.1-1.9-1-1.9-2.1l0.6-10c0.1-1.1,1-1.9,2.1-1.9c1.1,0.1,1.9,1,1.9,2.1l-0.6,10C978,1005.1,977.1,1005.9,976.1,1005.9z
					 M707.4,999.8c-1.1,0-2-0.9-2-2v-10c0-1.1,0.9-2,2-2c1.1,0,2,0.9,2,2v10C709.4,999,708.5,999.8,707.4,999.8z M977.2,985.9
					c0,0-0.1,0-0.1,0c-1.1-0.1-1.9-1-1.9-2.1l0.6-10c0.1-1.1,1-1.9,2.1-1.9c1.1,0.1,1.9,1,1.9,2.1l-0.6,10
					C979.1,985.1,978.2,985.9,977.2,985.9z M707.4,979.8c-1.1,0-2-0.9-2-2v-10c0-1.1,0.9-2,2-2c1.1,0,2,0.9,2,2v10
					C709.4,979,708.5,979.8,707.4,979.8z M978.3,966c0,0-0.1,0-0.1,0c-1.1-0.1-1.9-1-1.9-2.1l0.6-10c0.1-1.1,1-2,2.1-1.9
					c1.1,0.1,1.9,1,1.9,2.1l-0.6,10C980.2,965.1,979.3,966,978.3,966z M707.4,959.8c-1.1,0-2-0.9-2-2v-10c0-1.1,0.9-2,2-2
					c1.1,0,2,0.9,2,2v10C709.4,959,708.5,959.8,707.4,959.8z M979.4,946c0,0-0.1,0-0.1,0c-1.1-0.1-1.9-1-1.9-2.1l0.6-10
					c0.1-1.1,1-1.9,2.1-1.9c1.1,0.1,1.9,1,1.9,2.1l-0.6,10C981.4,945.2,980.5,946,979.4,946z M707.4,939.8c-1.1,0-2-0.9-2-2v-10
					c0-1.1,0.9-2,2-2c1.1,0,2,0.9,2,2v10C709.4,939,708.5,939.8,707.4,939.8z M980.5,926c0,0-0.1,0-0.1,0c-1.1-0.1-1.9-1-1.9-2.1
					l0.6-10c0.1-1.1,1-1.9,2.1-1.9c1.1,0.1,1.9,1,1.9,2.1l-0.6,10C982.5,925.2,981.6,926,980.5,926z M707.4,919.8c-1.1,0-2-0.9-2-2
					v-10c0-1.1,0.9-2,2-2c1.1,0,2,0.9,2,2v10C709.4,919,708.5,919.8,707.4,919.8z M981.7,906.1c0,0-0.1,0-0.1,0
					c-1.1-0.1-1.9-1-1.9-2.1l0.6-10c0.1-1.1,1-1.9,2.1-1.9c1.1,0.1,1.9,1,1.9,2.1l-0.6,10C983.6,905.2,982.7,906.1,981.7,906.1z
					 M707.4,899.8c-1.1,0-2-0.9-2-2v-10c0-1.1,0.9-2,2-2c1.1,0,2,0.9,2,2v10C709.4,899,708.5,899.8,707.4,899.8z M982.8,886.1
					c0,0-0.1,0-0.1,0c-1.1-0.1-1.9-1-1.9-2.1l0.6-10c0.1-1.1,1-1.9,2.1-1.9c1.1,0.1,1.9,1,1.9,2.1l-0.6,10
					C984.7,885.3,983.8,886.1,982.8,886.1z M707.4,879.8c-1.1,0-2-0.9-2-2v-10c0-1.1,0.9-2,2-2c1.1,0,2,0.9,2,2v10
					C709.4,879,708.5,879.8,707.4,879.8z M983.9,866.1c0,0-0.1,0-0.1,0c-1.1-0.1-1.9-1-1.9-2.1l0.6-10c0.1-1.1,1-1.9,2.1-1.9
					c1.1,0.1,1.9,1,1.9,2.1l-0.6,10C985.8,865.3,985,866.1,983.9,866.1z M707.4,859.8c-1.1,0-2-0.9-2-2v-10c0-1.1,0.9-2,2-2
					c1.1,0,2,0.9,2,2v10C709.4,859,708.5,859.8,707.4,859.8z M985,846.2c0,0-0.1,0-0.1,0c-1.1-0.1-1.9-1-1.9-2.1l0.6-10
					c0.1-1.1,1-1.9,2.1-1.9c1.1,0.1,1.9,1,1.9,2.1l-0.6,10C987,845.3,986.1,846.2,985,846.2z M707.4,839.8c-1.1,0-2-0.9-2-2v-10
					c0-1.1,0.9-2,2-2c1.1,0,2,0.9,2,2v10C709.4,839,708.5,839.8,707.4,839.8z M986.2,826.2c0,0-0.1,0-0.1,0c-1.1-0.1-1.9-1-1.9-2.1
					l0.6-10c0.1-1.1,1-2,2.1-1.9c1.1,0.1,1.9,1,1.9,2.1l-0.6,10C988.1,825.4,987.2,826.2,986.2,826.2z M707.4,819.8
					c-1.1,0-2-0.9-2-2v-10c0-1.1,0.9-2,2-2c1.1,0,2,0.9,2,2v10C709.4,819,708.5,819.8,707.4,819.8z M987.3,806.2c0,0-0.1,0-0.1,0
					c-1.1-0.1-1.9-1-1.9-2.1l0.6-10c0.1-1.1,1-1.9,2.1-1.9c1.1,0.1,1.9,1,1.9,2.1l-0.6,10C989.2,805.4,988.3,806.2,987.3,806.2z
					 M707.4,799.8c-1.1,0-2-0.9-2-2v-10c0-1.1,0.9-2,2-2c1.1,0,2,0.9,2,2v10C709.4,799,708.5,799.8,707.4,799.8z M988.4,786.2
					c0,0-0.1,0-0.1,0c-1.1-0.1-1.9-1-1.9-2.1l0.6-10c0.1-1.1,1-1.9,2.1-1.9c1.1,0.1,1.9,1,1.9,2.1l-0.6,10
					C990.3,785.4,989.5,786.2,988.4,786.2z M707.4,779.8c-1.1,0-2-0.9-2-2v-10c0-1.1,0.9-2,2-2c1.1,0,2,0.9,2,2v10
					C709.4,779,708.5,779.8,707.4,779.8z M989.5,766.3c0,0-0.1,0-0.1,0c-1.1-0.1-1.9-1-1.9-2.1l0.6-10c0.1-1.1,1-1.9,2.1-1.9
					c1.1,0.1,1.9,1,1.9,2.1l-0.6,10C991.5,765.5,990.6,766.3,989.5,766.3z M707.4,759.8c-1.1,0-2-0.9-2-2v-10c0-1.1,0.9-2,2-2
					c1.1,0,2,0.9,2,2v10C709.4,759,708.5,759.8,707.4,759.8z M990.6,746.3c0,0-0.1,0-0.1,0c-1.1-0.1-1.9-1-1.9-2.1l0.6-10
					c0.1-1.1,1-1.9,2.1-1.9c1.1,0.1,1.9,1,1.9,2.1l-0.6,10C992.6,745.5,991.7,746.3,990.6,746.3z M707.4,739.8c-1.1,0-2-0.9-2-2v-10
					c0-1.1,0.9-2,2-2c1.1,0,2,0.9,2,2v10C709.4,739,708.5,739.8,707.4,739.8z M991.8,726.3c0,0-0.1,0-0.1,0c-1.1-0.1-1.9-1-1.9-2.1
					l0.6-10c0.1-1.1,1-1.9,2.1-1.9c1.1,0.1,1.9,1,1.9,2.1l-0.6,10C993.7,725.5,992.8,726.3,991.8,726.3z M707.4,719.8
					c-1.1,0-2-0.9-2-2v-10c0-1.1,0.9-2,2-2c1.1,0,2,0.9,2,2v10C709.4,719,708.5,719.8,707.4,719.8z M992.9,706.4c0,0-0.1,0-0.1,0
					c-1.1-0.1-1.9-1-1.9-2.1l0.6-10c0.1-1.1,1-1.9,2.1-1.9c1.1,0.1,1.9,1,1.9,2.1l-0.6,10C994.8,705.5,993.9,706.4,992.9,706.4z
					 M707.4,699.8c-1.1,0-2-0.9-2-2v-10c0-1.1,0.9-2,2-2c1.1,0,2,0.9,2,2v10C709.4,699,708.5,699.8,707.4,699.8z M994,686.4
					c0,0-0.1,0-0.1,0c-1.1-0.1-1.9-1-1.9-2.1l0.6-10c0.1-1.1,1-1.9,2.1-1.9c1.1,0.1,1.9,1,1.9,2.1l-0.6,10
					C995.9,685.6,995.1,686.4,994,686.4z M707.4,679.8c-1.1,0-2-0.9-2-2v-6c0-2.1,1.2-4.1,3.1-5c1-0.5,2.2-0.1,2.7,0.9
					c0.5,1,0.1,2.2-0.9,2.7c-0.5,0.3-0.9,0.8-0.9,1.4v6C709.4,679,708.5,679.8,707.4,679.8z M989.3,670.3h-10c-1.1,0-2-0.9-2-2
					s0.9-2,2-2h10c1.1,0,2,0.9,2,2S990.4,670.3,989.3,670.3z M969.3,670.3h-10c-1.1,0-2-0.9-2-2s0.9-2,2-2h10c1.1,0,2,0.9,2,2
					S970.4,670.3,969.3,670.3z M949.3,670.3h-10c-1.1,0-2-0.9-2-2s0.9-2,2-2h10c1.1,0,2,0.9,2,2S950.4,670.3,949.3,670.3z
					 M929.3,670.3h-10c-1.1,0-2-0.9-2-2s0.9-2,2-2h10c1.1,0,2,0.9,2,2S930.4,670.3,929.3,670.3z M909.3,670.3h-10c-1.1,0-2-0.9-2-2
					s0.9-2,2-2h10c1.1,0,2,0.9,2,2S910.4,670.3,909.3,670.3z M889.3,670.3h-10c-1.1,0-2-0.9-2-2s0.9-2,2-2h10c1.1,0,2,0.9,2,2
					S890.4,670.3,889.3,670.3z M869.3,670.3h-10c-1.1,0-2-0.9-2-2s0.9-2,2-2h10c1.1,0,2,0.9,2,2S870.4,670.3,869.3,670.3z
					 M849.3,670.3h-10c-1.1,0-2-0.9-2-2s0.9-2,2-2h10c1.1,0,2,0.9,2,2S850.4,670.3,849.3,670.3z M829.3,670.3h-10c-1.1,0-2-0.9-2-2
					s0.9-2,2-2h10c1.1,0,2,0.9,2,2S830.4,670.3,829.3,670.3z M809.3,670.3h-10c-1.1,0-2-0.9-2-2s0.9-2,2-2h10c1.1,0,2,0.9,2,2
					S810.4,670.3,809.3,670.3z M789.3,670.3h-10c-1.1,0-2-0.9-2-2s0.9-2,2-2h10c1.1,0,2,0.9,2,2S790.4,670.3,789.3,670.3z
					 M769.3,670.3h-10c-1.1,0-2-0.9-2-2s0.9-2,2-2h10c1.1,0,2,0.9,2,2S770.4,670.3,769.3,670.3z M749.3,670.3h-10c-1.1,0-2-0.9-2-2
					s0.9-2,2-2h10c1.1,0,2,0.9,2,2S750.4,670.3,749.3,670.3z M729.3,670.3h-10c-1.1,0-2-0.9-2-2s0.9-2,2-2h10c1.1,0,2,0.9,2,2
					S730.4,670.3,729.3,670.3z"/>
				<path class="st2" d="M1368.9,1037.6h-10c-1.1,0-2-0.9-2-2c0-1.1,0.9-2,2-2h10c3,0,5.8-0.6,8.5-1.8c1-0.4,2.2,0,2.6,1
					c0.4,1,0,2.2-1,2.6C1375.9,1036.9,1372.5,1037.6,1368.9,1037.6z M1348.9,1037.6h-10c-1.1,0-2-0.9-2-2c0-1.1,0.9-2,2-2h10
					c1.1,0,2,0.9,2,2C1350.9,1036.7,1350.1,1037.6,1348.9,1037.6z M1328.9,1037.6h-10c-1.1,0-2-0.9-2-2c0-1.1,0.9-2,2-2h10
					c1.1,0,2,0.9,2,2C1330.9,1036.7,1330.1,1037.6,1328.9,1037.6z M1308.9,1037.6h-10c-1.1,0-2-0.9-2-2c0-1.1,0.9-2,2-2h10
					c1.1,0,2,0.9,2,2C1310.9,1036.7,1310.1,1037.6,1308.9,1037.6z M1288.9,1037.6h-10c-1.1,0-2-0.9-2-2c0-1.1,0.9-2,2-2h10
					c1.1,0,2,0.9,2,2C1290.9,1036.7,1290.1,1037.6,1288.9,1037.6z M1268.9,1037.6h-10c-1.1,0-2-0.9-2-2c0-1.1,0.9-2,2-2h10
					c1.1,0,2,0.9,2,2C1270.9,1036.7,1270.1,1037.6,1268.9,1037.6z M1248.9,1037.6h-10c-1.1,0-2-0.9-2-2c0-1.1,0.9-2,2-2h10
					c1.1,0,2,0.9,2,2C1250.9,1036.7,1250.1,1037.6,1248.9,1037.6z M1228.9,1037.6h-10c-1.1,0-2-0.9-2-2c0-1.1,0.9-2,2-2h10
					c1.1,0,2,0.9,2,2C1230.9,1036.7,1230.1,1037.6,1228.9,1037.6z M1208.9,1037.6h-10c-1.1,0-2-0.9-2-2c0-1.1,0.9-2,2-2h10
					c1.1,0,2,0.9,2,2C1210.9,1036.7,1210.1,1037.6,1208.9,1037.6z M1188.9,1037.6h-10c-1.1,0-2-0.9-2-2c0-1.1,0.9-2,2-2h10
					c1.1,0,2,0.9,2,2C1190.9,1036.7,1190.1,1037.6,1188.9,1037.6z M1168.9,1037.6h-10c-1.1,0-2-0.9-2-2c0-1.1,0.9-2,2-2h10
					c1.1,0,2,0.9,2,2C1170.9,1036.7,1170.1,1037.6,1168.9,1037.6z M1148.9,1037.6h-10c-1.1,0-2-0.9-2-2c0-1.1,0.9-2,2-2h10
					c1.1,0,2,0.9,2,2C1150.9,1036.7,1150.1,1037.6,1148.9,1037.6z M1128.9,1037.6h-10c-1.1,0-2-0.9-2-2c0-1.1,0.9-2,2-2h10
					c1.1,0,2,0.9,2,2C1130.9,1036.7,1130.1,1037.6,1128.9,1037.6z M1108.9,1037.6h-10c-1.1,0-2-0.9-2-2c0-1.1,0.9-2,2-2h10
					c1.1,0,2,0.9,2,2C1110.9,1036.7,1110.1,1037.6,1108.9,1037.6z M1088.9,1037.6h-10c-1.1,0-2-0.9-2-2c0-1.1,0.9-2,2-2h10
					c1.1,0,2,0.9,2,2C1090.9,1036.7,1090.1,1037.6,1088.9,1037.6z M1068.9,1037.6h-0.5c-3.5,0-6.9-0.7-10-2.1c-1-0.4-1.5-1.6-1-2.6
					c0.4-1,1.6-1.5,2.6-1c2.7,1.1,5.5,1.7,8.4,1.7h0.5c1.1,0,2,0.9,2,2C1070.9,1036.7,1070.1,1037.6,1068.9,1037.6z M1051.1,1029.9
					c-0.5,0-1.1-0.2-1.5-0.7c-2.4-2.7-4.3-5.9-5.4-9.3c-0.3-1.1,0.3-2.2,1.3-2.5c1.1-0.3,2.2,0.3,2.5,1.3c0.9,2.9,2.5,5.6,4.5,7.9
					c0.7,0.8,0.7,2.1-0.1,2.8C1052.1,1029.7,1051.6,1029.9,1051.1,1029.9z M1386.3,1029.8c-0.5,0-1-0.2-1.3-0.5
					c-0.8-0.7-0.9-2-0.2-2.8c2-2.3,3.6-5,4.5-7.9c0.3-1.1,1.5-1.6,2.5-1.3c1.1,0.3,1.6,1.4,1.3,2.5c-1.1,3.4-2.9,6.7-5.3,9.4
					C1387.4,1029.6,1386.8,1029.8,1386.3,1029.8z M1045.3,1011.4c0,0-0.1,0-0.1,0c-1.1-0.1-1.9-1-1.9-2.1l0.6-10
					c0.1-1.1,1-1.9,2.1-1.9c1.1,0.1,1.9,1,1.9,2.1l-0.6,10C1047.2,1010.6,1046.3,1011.4,1045.3,1011.4z M1392.1,1011.3
					c-1,0-1.9-0.8-2-1.9l-0.6-10c-0.1-1.1,0.8-2.1,1.9-2.1c1.1-0.1,2.1,0.8,2.1,1.9l0.6,10c0.1,1.1-0.8,2.1-1.9,2.1
					C1392.2,1011.3,1392.1,1011.3,1392.1,1011.3z M1046.4,991.4c0,0-0.1,0-0.1,0c-1.1-0.1-1.9-1-1.9-2.1l0.6-10
					c0.1-1.1,1-1.9,2.1-1.9c1.1,0.1,1.9,1,1.9,2.1l-0.6,10C1048.3,990.6,1047.4,991.4,1046.4,991.4z M1390.9,991.3
					c-1,0-1.9-0.8-2-1.9l-0.6-10c-0.1-1.1,0.8-2.1,1.9-2.1c1.1-0.1,2.1,0.8,2.1,1.9l0.6,10c0.1,1.1-0.8,2.1-1.9,2.1
					C1391,991.3,1390.9,991.3,1390.9,991.3z M1047.5,971.5c0,0-0.1,0-0.1,0c-1.1-0.1-1.9-1-1.9-2.1l0.6-10c0.1-1.1,1-1.9,2.1-1.9
					c1.1,0.1,1.9,1,1.9,2.1l-0.6,10C1049.4,970.6,1048.6,971.5,1047.5,971.5z M1389.7,971.4c-1,0-1.9-0.8-2-1.9l-0.6-10
					c-0.1-1.1,0.8-2.1,1.9-2.1c1.1-0.1,2.1,0.8,2.1,1.9l0.6,10c0.1,1.1-0.8,2.1-1.9,2.1C1389.8,971.4,1389.7,971.4,1389.7,971.4z
					 M1048.6,951.5c0,0-0.1,0-0.1,0c-1.1-0.1-1.9-1-1.9-2.1l0.6-10c0.1-1.1,1-1.9,2.1-1.9c1.1,0.1,1.9,1,1.9,2.1l-0.6,10
					C1050.6,950.7,1049.7,951.5,1048.6,951.5z M1388.5,951.4c-1,0-1.9-0.8-2-1.9l-0.6-10c-0.1-1.1,0.8-2.1,1.9-2.1
					c1.1-0.1,2.1,0.8,2.1,1.9l0.6,10c0.1,1.1-0.8,2.1-1.9,2.1C1388.5,951.4,1388.5,951.4,1388.5,951.4z M1049.8,931.5
					c0,0-0.1,0-0.1,0c-1.1-0.1-1.9-1-1.9-2.1l0.6-10c0.1-1.1,1-1.9,2.1-1.9c1.1,0.1,1.9,1,1.9,2.1l-0.6,10
					C1051.7,930.7,1050.8,931.5,1049.8,931.5z M1387.2,931.4c-1,0-1.9-0.8-2-1.9l-0.6-10c-0.1-1.1,0.8-2.1,1.9-2.1
					c1.1-0.1,2.1,0.8,2.1,1.9l0.6,10c0.1,1.1-0.8,2.1-1.9,2.1C1387.3,931.4,1387.3,931.4,1387.2,931.4z M1050.9,911.5
					c0,0-0.1,0-0.1,0c-1.1-0.1-1.9-1-1.9-2.1l0.6-10c0.1-1.1,1-1.9,2.1-1.9c1.1,0.1,1.9,1,1.9,2.1l-0.6,10
					C1052.8,910.7,1051.9,911.5,1050.9,911.5z M1386,911.5c-1,0-1.9-0.8-2-1.9l-0.6-10c-0.1-1.1,0.8-2.1,1.9-2.1
					c1.1-0.1,2.1,0.8,2.1,1.9l0.6,10c0.1,1.1-0.8,2.1-1.9,2.1C1386.1,911.5,1386.1,911.5,1386,911.5z M1052,891.6c0,0-0.1,0-0.1,0
					c-1.1-0.1-1.9-1-1.9-2.1l0.6-10c0.1-1.1,1-1.9,2.1-1.9c1.1,0.1,1.9,1,1.9,2.1l-0.6,10C1053.9,890.8,1053.1,891.6,1052,891.6z
					 M1384.8,891.5c-1,0-1.9-0.8-2-1.9l-0.6-10c-0.1-1.1,0.8-2.1,1.9-2.1c1.1-0.1,2.1,0.8,2.1,1.9l0.6,10c0.1,1.1-0.8,2.1-1.9,2.1
					C1384.9,891.5,1384.8,891.5,1384.8,891.5z M1053.1,871.6c0,0-0.1,0-0.1,0c-1.1-0.1-1.9-1-1.9-2.1l0.6-10c0.1-1.1,1-1.9,2.1-1.9
					c1.1,0.1,1.9,1,1.9,2.1l-0.6,10C1055.1,870.8,1054.2,871.6,1053.1,871.6z M1383.6,871.6c-1,0-1.9-0.8-2-1.9l-0.6-10
					c-0.1-1.1,0.8-2.1,1.9-2.1c1.1-0.1,2.1,0.8,2.1,1.9l0.6,10c0.1,1.1-0.8,2.1-1.9,2.1C1383.7,871.6,1383.6,871.6,1383.6,871.6z
					 M1054.2,851.6c0,0-0.1,0-0.1,0c-1.1-0.1-1.9-1-1.9-2.1l0.6-10c0.1-1.1,1-1.9,2.1-1.9c1.1,0.1,1.9,1,1.9,2.1l-0.6,10
					C1056.2,850.8,1055.3,851.6,1054.2,851.6z M1382.4,851.6c-1,0-1.9-0.8-2-1.9l-0.6-10c-0.1-1.1,0.8-2.1,1.9-2.1
					c1.1-0.1,2.1,0.8,2.1,1.9l0.6,10c0.1,1.1-0.8,2.1-1.9,2.1C1382.4,851.6,1382.4,851.6,1382.4,851.6z M1055.4,831.7
					c0,0-0.1,0-0.1,0c-1.1-0.1-1.9-1-1.9-2.1l0.6-10c0.1-1.1,1-1.9,2.1-1.9c1.1,0.1,1.9,1,1.9,2.1l-0.6,10
					C1057.3,830.9,1056.4,831.7,1055.4,831.7z M1381.1,831.6c-1,0-1.9-0.8-2-1.9l-0.6-10c-0.1-1.1,0.8-2.1,1.9-2.1
					c1.1-0.1,2.1,0.8,2.1,1.9l0.6,10c0.1,1.1-0.8,2.1-1.9,2.1C1381.2,831.6,1381.2,831.6,1381.1,831.6z M1056.5,811.7
					c0,0-0.1,0-0.1,0c-1.1-0.1-1.9-1-1.9-2.1l0.6-10c0.1-1.1,1-1.9,2.1-1.9c1.1,0.1,1.9,1,1.9,2.1l-0.6,10
					C1058.4,810.9,1057.5,811.7,1056.5,811.7z M1379.9,811.7c-1,0-1.9-0.8-2-1.9l-0.6-10c-0.1-1.1,0.8-2.1,1.9-2.1
					c1.1-0.1,2.1,0.8,2.1,1.9l0.6,10c0.1,1.1-0.8,2.1-1.9,2.1C1380,811.7,1380,811.7,1379.9,811.7z M1057.6,791.7c0,0-0.1,0-0.1,0
					c-1.1-0.1-1.9-1-1.9-2.1l0.6-10c0.1-1.1,1-1.9,2.1-1.9c1.1,0.1,1.9,1,1.9,2.1l-0.6,10C1059.5,790.9,1058.7,791.7,1057.6,791.7z
					 M1378.7,791.7c-1,0-1.9-0.8-2-1.9l-0.6-10c-0.1-1.1,0.8-2.1,1.9-2.1c1.1-0.1,2.1,0.8,2.1,1.9l0.6,10c0.1,1.1-0.8,2.1-1.9,2.1
					C1378.8,791.7,1378.7,791.7,1378.7,791.7z M1058.7,771.8c0,0-0.1,0-0.1,0c-1.1-0.1-1.9-1-1.9-2.1l0.6-10c0.1-1.1,1-1.9,2.1-1.9
					c1.1,0.1,1.9,1,1.9,2.1l-0.6,10C1060.7,770.9,1059.8,771.8,1058.7,771.8z M1377.5,771.7c-1,0-1.9-0.8-2-1.9l-0.6-10
					c-0.1-1.1,0.8-2.1,1.9-2.1c1.1-0.1,2.1,0.8,2.1,1.9l0.6,10c0.1,1.1-0.8,2.1-1.9,2.1C1377.6,771.7,1377.5,771.7,1377.5,771.7z
					 M1059.9,751.8c0,0-0.1,0-0.1,0c-1.1-0.1-1.9-1-1.9-2.1l0.6-10c0.1-1.1,1-1.9,2.1-1.9c1.1,0.1,1.9,1,1.9,2.1l-0.6,10
					C1061.8,751,1060.9,751.8,1059.9,751.8z M1376.3,751.8c-1,0-1.9-0.8-2-1.9l-0.6-10c-0.1-1.1,0.8-2.1,1.9-2.1
					c1.1-0.1,2.1,0.8,2.1,1.9l0.6,10c0.1,1.1-0.8,2.1-1.9,2.1C1376.4,751.8,1376.3,751.8,1376.3,751.8z M1061,731.8c0,0-0.1,0-0.1,0
					c-1.1-0.1-1.9-1-1.9-2.1l0.6-10c0.1-1.1,1-1.9,2.1-1.9c1.1,0.1,1.9,1,1.9,2.1l-0.6,10C1062.9,731,1062,731.8,1061,731.8z
					 M1375.1,731.8c-1,0-1.9-0.8-2-1.9l-0.6-10c-0.1-1.1,0.8-2.1,1.9-2.1c1.1-0.1,2.1,0.8,2.1,1.9l0.6,10c0.1,1.1-0.8,2.1-1.9,2.1
					C1375.1,731.8,1375.1,731.8,1375.1,731.8z M1062.1,711.9c0,0-0.1,0-0.1,0c-1.1-0.1-1.9-1-1.9-2.1l0.6-10c0.1-1.1,1-1.9,2.1-1.9
					c1.1,0.1,1.9,1,1.9,2.1l-0.6,10C1064,711,1063.2,711.9,1062.1,711.9z M1373.8,711.9c-1,0-1.9-0.8-2-1.9l-0.6-10
					c-0.1-1.1,0.8-2.1,1.9-2.1c1.1-0.1,2.1,0.8,2.1,1.9l0.6,10c0.1,1.1-0.8,2.1-1.9,2.1C1373.9,711.9,1373.9,711.9,1373.8,711.9z
					 M1063.2,691.9c0,0-0.1,0-0.1,0c-1.1-0.1-1.9-1-1.9-2.1l0.6-10c0.1-1.1,1-1.9,2.1-1.9c1.1,0.1,1.9,1,1.9,2.1l-0.6,10
					C1065.2,691.1,1064.3,691.9,1063.2,691.9z M1372.6,691.9c-1,0-1.9-0.8-2-1.9l-0.6-10c-0.1-1.1,0.8-2.1,1.9-2.1
					c1.1-0.1,2.1,0.8,2.1,1.9l0.6,10c0.1,1.1-0.8,2.1-1.9,2.1C1372.7,691.9,1372.7,691.9,1372.6,691.9z M1371.4,671.9
					c-1,0-1.9-0.8-2-1.8c-0.3-3.1-1.1-6-2.6-8.7c-0.5-1-0.2-2.2,0.8-2.7c1-0.5,2.2-0.2,2.7,0.8c1.8,3.2,2.8,6.6,3.1,10.3
					c0.1,1.1-0.7,2.1-1.8,2.2C1371.5,671.9,1371.5,671.9,1371.4,671.9z M1064.4,671.9c-0.1,0-0.1,0-0.2,0c-1.1-0.1-1.9-1.1-1.8-2.2
					c0.3-3.7,1.4-7.1,3.1-10.3c0.5-1,1.8-1.3,2.7-0.8c1,0.5,1.3,1.8,0.8,2.7c-1.5,2.7-2.4,5.6-2.6,8.7
					C1066.3,671.1,1065.4,671.9,1064.4,671.9z M1361.9,655c-0.4,0-0.8-0.1-1.2-0.4c-2.5-1.8-5.3-3.1-8.3-3.7
					c-1.1-0.2-1.8-1.3-1.6-2.4c0.2-1.1,1.3-1.8,2.4-1.6c3.6,0.7,6.9,2.2,9.9,4.4c0.9,0.7,1.1,1.9,0.4,2.8
					C1363.1,654.7,1362.5,655,1361.9,655z M1073.8,655c-0.6,0-1.2-0.3-1.6-0.8c-0.7-0.9-0.5-2.1,0.4-2.8c3-2.2,6.3-3.6,9.9-4.4
					c1.1-0.2,2.1,0.5,2.4,1.6c0.2,1.1-0.5,2.1-1.6,2.4c-3,0.6-5.8,1.8-8.3,3.7C1074.7,654.9,1074.2,655,1073.8,655z M1342.9,650.5
					h-10c-1.1,0-2-0.9-2-2s0.9-2,2-2h10c1.1,0,2,0.9,2,2S1344,650.5,1342.9,650.5z M1322.9,650.5h-10c-1.1,0-2-0.9-2-2s0.9-2,2-2h10
					c1.1,0,2,0.9,2,2S1324,650.5,1322.9,650.5z M1302.9,650.5h-10c-1.1,0-2-0.9-2-2s0.9-2,2-2h10c1.1,0,2,0.9,2,2
					S1304,650.5,1302.9,650.5z M1282.9,650.5h-10c-1.1,0-2-0.9-2-2s0.9-2,2-2h10c1.1,0,2,0.9,2,2S1284,650.5,1282.9,650.5z
					 M1262.9,650.5h-10c-1.1,0-2-0.9-2-2s0.9-2,2-2h10c1.1,0,2,0.9,2,2S1264,650.5,1262.9,650.5z M1242.9,650.5h-10
					c-1.1,0-2-0.9-2-2s0.9-2,2-2h10c1.1,0,2,0.9,2,2S1244,650.5,1242.9,650.5z M1222.9,650.5h-10c-1.1,0-2-0.9-2-2s0.9-2,2-2h10
					c1.1,0,2,0.9,2,2S1224,650.5,1222.9,650.5z M1202.9,650.5h-10c-1.1,0-2-0.9-2-2s0.9-2,2-2h10c1.1,0,2,0.9,2,2
					S1204,650.5,1202.9,650.5z M1182.9,650.5h-10c-1.1,0-2-0.9-2-2s0.9-2,2-2h10c1.1,0,2,0.9,2,2S1184,650.5,1182.9,650.5z
					 M1162.9,650.5h-10c-1.1,0-2-0.9-2-2s0.9-2,2-2h10c1.1,0,2,0.9,2,2S1164,650.5,1162.9,650.5z M1142.9,650.5h-10
					c-1.1,0-2-0.9-2-2s0.9-2,2-2h10c1.1,0,2,0.9,2,2S1144,650.5,1142.9,650.5z M1122.9,650.5h-10c-1.1,0-2-0.9-2-2s0.9-2,2-2h10
					c1.1,0,2,0.9,2,2S1124,650.5,1122.9,650.5z M1102.9,650.5h-10c-1.1,0-2-0.9-2-2s0.9-2,2-2h10c1.1,0,2,0.9,2,2
					S1104,650.5,1102.9,650.5z"/>
				<path class="st2" d="M1748.3,1037.6h-10c-1.1,0-2-0.9-2-2c0-1.1,0.9-2,2-2h10c1.1,0,2,0.9,2,2
					C1750.3,1036.7,1749.4,1037.6,1748.3,1037.6z M1728.3,1037.6h-10c-1.1,0-2-0.9-2-2c0-1.1,0.9-2,2-2h10c1.1,0,2,0.9,2,2
					C1730.3,1036.7,1729.4,1037.6,1728.3,1037.6z M1708.3,1037.6h-10c-1.1,0-2-0.9-2-2c0-1.1,0.9-2,2-2h10c1.1,0,2,0.9,2,2
					C1710.3,1036.7,1709.4,1037.6,1708.3,1037.6z M1688.3,1037.6h-10c-1.1,0-2-0.9-2-2c0-1.1,0.9-2,2-2h10c1.1,0,2,0.9,2,2
					C1690.3,1036.7,1689.4,1037.6,1688.3,1037.6z M1668.3,1037.6h-10c-1.1,0-2-0.9-2-2c0-1.1,0.9-2,2-2h10c1.1,0,2,0.9,2,2
					C1670.3,1036.7,1669.4,1037.6,1668.3,1037.6z M1648.3,1037.6h-10c-1.1,0-2-0.9-2-2c0-1.1,0.9-2,2-2h10c1.1,0,2,0.9,2,2
					C1650.3,1036.7,1649.4,1037.6,1648.3,1037.6z M1628.3,1037.6h-10c-1.1,0-2-0.9-2-2c0-1.1,0.9-2,2-2h10c1.1,0,2,0.9,2,2
					C1630.3,1036.7,1629.4,1037.6,1628.3,1037.6z M1608.3,1037.6h-10c-1.1,0-2-0.9-2-2c0-1.1,0.9-2,2-2h10c1.1,0,2,0.9,2,2
					C1610.3,1036.7,1609.4,1037.6,1608.3,1037.6z M1588.3,1037.6h-10c-1.1,0-2-0.9-2-2c0-1.1,0.9-2,2-2h10c1.1,0,2,0.9,2,2
					C1590.3,1036.7,1589.4,1037.6,1588.3,1037.6z M1568.3,1037.6h-10c-1.1,0-2-0.9-2-2c0-1.1,0.9-2,2-2h10c1.1,0,2,0.9,2,2
					C1570.3,1036.7,1569.4,1037.6,1568.3,1037.6z M1548.3,1037.6h-10c-1.1,0-2-0.9-2-2c0-1.1,0.9-2,2-2h10c1.1,0,2,0.9,2,2
					C1550.3,1036.7,1549.4,1037.6,1548.3,1037.6z M1528.3,1037.6h-10c-1.1,0-2-0.9-2-2c0-1.1,0.9-2,2-2h10c1.1,0,2,0.9,2,2
					C1530.3,1036.7,1529.4,1037.6,1528.3,1037.6z M1508.3,1037.6h-10c-1.1,0-2-0.9-2-2c0-1.1,0.9-2,2-2h10c1.1,0,2,0.9,2,2
					C1510.3,1036.7,1509.4,1037.6,1508.3,1037.6z M1488.3,1037.6h-10c-1.1,0-2-0.9-2-2c0-1.1,0.9-2,2-2h10c1.1,0,2,0.9,2,2
					C1490.3,1036.7,1489.4,1037.6,1488.3,1037.6z M1468.3,1037.6h-2.9c-2.6,0-5.1-0.4-7.5-1.1c-1.1-0.3-1.6-1.5-1.3-2.5
					c0.3-1.1,1.4-1.6,2.5-1.3c2,0.6,4.2,1,6.3,1h2.9c1.1,0,2,0.9,2,2C1470.3,1036.7,1469.4,1037.6,1468.3,1037.6z M1752.9,1037.1
					c-0.9,0-1.8-0.7-2-1.6c-0.2-1.1,0.5-2.1,1.6-2.4c3-0.6,5.8-1.8,8.3-3.6c0.9-0.6,2.1-0.4,2.8,0.4c0.6,0.9,0.4,2.1-0.4,2.8
					c-3,2.1-6.3,3.6-9.9,4.3C1753.1,1037.1,1753,1037.1,1752.9,1037.1z M1449.8,1031.6c-0.5,0-1-0.2-1.3-0.5
					c-2.7-2.4-4.9-5.4-6.3-8.7c-0.4-1,0-2.2,1-2.6c1-0.4,2.2,0,2.6,1c1.2,2.8,3,5.3,5.3,7.4c0.8,0.7,0.9,2,0.2,2.8
					C1450.9,1031.4,1450.4,1031.6,1449.8,1031.6z M1768.6,1025.8c-0.3,0-0.7-0.1-1-0.3c-1-0.5-1.3-1.8-0.8-2.7
					c1.5-2.7,2.4-5.6,2.7-8.7c0.1-1.1,1.1-1.9,2.2-1.8c1.1,0.1,1.9,1.1,1.8,2.2c-0.3,3.6-1.4,7.1-3.2,10.3
					C1770,1025.4,1769.3,1025.8,1768.6,1025.8z M1442,1013.8c-1,0-1.9-0.8-2-1.9l-0.6-10c-0.1-1.1,0.8-2.1,1.9-2.1
					c1.1-0.1,2.1,0.8,2.1,1.9l0.6,10c0.1,1.1-0.8,2.1-1.9,2.1C1442.1,1013.8,1442,1013.8,1442,1013.8z M1771.6,1006.3
					c-1.1,0-2-0.9-2-2v-10c0-1.1,0.9-2,2-2s2,0.9,2,2v10C1773.6,1005.4,1772.7,1006.3,1771.6,1006.3z M1440.8,993.9
					c-1,0-1.9-0.8-2-1.9l-0.6-10c-0.1-1.1,0.8-2.1,1.9-2.1c1.1-0.1,2.1,0.8,2.1,1.9l0.6,10c0.1,1.1-0.8,2.1-1.9,2.1
					C1440.9,993.9,1440.8,993.9,1440.8,993.9z M1771.6,986.3c-1.1,0-2-0.9-2-2v-10c0-1.1,0.9-2,2-2s2,0.9,2,2v10
					C1773.6,985.4,1772.7,986.3,1771.6,986.3z M1439.6,973.9c-1,0-1.9-0.8-2-1.9l-0.6-10c-0.1-1.1,0.8-2.1,1.9-2.1
					c1.1-0.1,2.1,0.8,2.1,1.9l0.6,10c0.1,1.1-0.8,2.1-1.9,2.1C1439.7,973.9,1439.6,973.9,1439.6,973.9z M1771.6,966.3
					c-1.1,0-2-0.9-2-2v-10c0-1.1,0.9-2,2-2s2,0.9,2,2v10C1773.6,965.4,1772.7,966.3,1771.6,966.3z M1438.4,953.9c-1,0-1.9-0.8-2-1.9
					l-0.6-10c-0.1-1.1,0.8-2.1,1.9-2.1c1.1-0.1,2.1,0.8,2.1,1.9l0.6,10c0.1,1.1-0.8,2.1-1.9,2.1
					C1438.4,953.9,1438.4,953.9,1438.4,953.9z M1771.6,946.3c-1.1,0-2-0.9-2-2v-10c0-1.1,0.9-2,2-2s2,0.9,2,2v10
					C1773.6,945.4,1772.7,946.3,1771.6,946.3z M1437.1,934c-1,0-1.9-0.8-2-1.9l-0.6-10c-0.1-1.1,0.8-2.1,1.9-2.1
					c1.1-0.1,2.1,0.8,2.1,1.9l0.6,10c0.1,1.1-0.8,2.1-1.9,2.1C1437.2,934,1437.2,934,1437.1,934z M1771.6,926.3c-1.1,0-2-0.9-2-2
					v-10c0-1.1,0.9-2,2-2s2,0.9,2,2v10C1773.6,925.4,1772.7,926.3,1771.6,926.3z M1435.9,914c-1,0-1.9-0.8-2-1.9l-0.6-10
					c-0.1-1.1,0.8-2.1,1.9-2.1c1.1-0.1,2.1,0.8,2.1,1.9l0.6,10c0.1,1.1-0.8,2.1-1.9,2.1C1436,914,1436,914,1435.9,914z
					 M1771.6,906.3c-1.1,0-2-0.9-2-2v-10c0-1.1,0.9-2,2-2s2,0.9,2,2v10C1773.6,905.4,1772.7,906.3,1771.6,906.3z M1434.7,894
					c-1,0-1.9-0.8-2-1.9l-0.6-10c-0.1-1.1,0.8-2.1,1.9-2.1c1.1-0.1,2.1,0.8,2.1,1.9l0.6,10c0.1,1.1-0.8,2.1-1.9,2.1
					C1434.8,894,1434.7,894,1434.7,894z M1771.6,886.3c-1.1,0-2-0.9-2-2v-10c0-1.1,0.9-2,2-2s2,0.9,2,2v10
					C1773.6,885.4,1772.7,886.3,1771.6,886.3z M1433.5,874.1c-1,0-1.9-0.8-2-1.9l-0.6-10c-0.1-1.1,0.8-2.1,1.9-2.1
					c1.1-0.1,2.1,0.8,2.1,1.9l0.6,10c0.1,1.1-0.8,2.1-1.9,2.1C1433.6,874.1,1433.5,874.1,1433.5,874.1z M1771.6,866.3
					c-1.1,0-2-0.9-2-2v-10c0-1.1,0.9-2,2-2s2,0.9,2,2v10C1773.6,865.4,1772.7,866.3,1771.6,866.3z M1432.3,854.1c-1,0-1.9-0.8-2-1.9
					l-0.6-10c-0.1-1.1,0.8-2.1,1.9-2.1c1.1-0.1,2.1,0.8,2.1,1.9l0.6,10c0.1,1.1-0.8,2.1-1.9,2.1
					C1432.3,854.1,1432.3,854.1,1432.3,854.1z M1771.6,846.3c-1.1,0-2-0.9-2-2v-10c0-1.1,0.9-2,2-2s2,0.9,2,2v10
					C1773.6,845.4,1772.7,846.3,1771.6,846.3z M1431,834.2c-1,0-1.9-0.8-2-1.9l-0.6-10c-0.1-1.1,0.8-2.1,1.9-2.1
					c1.1-0.1,2.1,0.8,2.1,1.9l0.6,10c0.1,1.1-0.8,2.1-1.9,2.1C1431.1,834.2,1431.1,834.2,1431,834.2z M1771.6,826.3
					c-1.1,0-2-0.9-2-2v-10c0-1.1,0.9-2,2-2s2,0.9,2,2v10C1773.6,825.4,1772.7,826.3,1771.6,826.3z M1429.8,814.2c-1,0-1.9-0.8-2-1.9
					l-0.6-10c-0.1-1.1,0.8-2.1,1.9-2.1c1.1-0.1,2.1,0.8,2.1,1.9l0.6,10c0.1,1.1-0.8,2.1-1.9,2.1
					C1429.9,814.2,1429.9,814.2,1429.8,814.2z M1771.6,806.3c-1.1,0-2-0.9-2-2v-10c0-1.1,0.9-2,2-2s2,0.9,2,2v10
					C1773.6,805.4,1772.7,806.3,1771.6,806.3z M1428.6,794.2c-1,0-1.9-0.8-2-1.9l-0.6-10c-0.1-1.1,0.8-2.1,1.9-2.1
					c1.1-0.1,2.1,0.8,2.1,1.9l0.6,10c0.1,1.1-0.8,2.1-1.9,2.1C1428.7,794.2,1428.7,794.2,1428.6,794.2z M1771.6,786.3
					c-1.1,0-2-0.9-2-2v-10c0-1.1,0.9-2,2-2s2,0.9,2,2v10C1773.6,785.4,1772.7,786.3,1771.6,786.3z M1427.4,774.3c-1,0-1.9-0.8-2-1.9
					l-0.6-10c-0.1-1.1,0.8-2.1,1.9-2.1c1.1-0.1,2.1,0.8,2.1,1.9l0.6,10c0.1,1.1-0.8,2.1-1.9,2.1
					C1427.5,774.3,1427.4,774.3,1427.4,774.3z M1771.6,766.3c-1.1,0-2-0.9-2-2v-10c0-1.1,0.9-2,2-2s2,0.9,2,2v10
					C1773.6,765.4,1772.7,766.3,1771.6,766.3z M1426.2,754.3c-1,0-1.9-0.8-2-1.9l-0.6-10c-0.1-1.1,0.8-2.1,1.9-2.1
					c1.1-0.1,2.1,0.8,2.1,1.9l0.6,10c0.1,1.1-0.8,2.1-1.9,2.1C1426.3,754.3,1426.2,754.3,1426.2,754.3z M1771.6,746.3
					c-1.1,0-2-0.9-2-2v-10c0-1.1,0.9-2,2-2s2,0.9,2,2v10C1773.6,745.4,1772.7,746.3,1771.6,746.3z M1425,734.3c-1,0-1.9-0.8-2-1.9
					l-0.6-10c-0.1-1.1,0.8-2.1,1.9-2.1c1.1-0.1,2.1,0.8,2.1,1.9l0.6,10c0.1,1.1-0.8,2.1-1.9,2.1C1425,734.3,1425,734.3,1425,734.3z
					 M1771.6,726.3c-1.1,0-2-0.9-2-2v-10c0-1.1,0.9-2,2-2s2,0.9,2,2v10C1773.6,725.4,1772.7,726.3,1771.6,726.3z M1423.7,714.4
					c-1,0-1.9-0.8-2-1.9l-0.6-10c-0.1-1.1,0.8-2.1,1.9-2.1c1.1-0.1,2.1,0.8,2.1,1.9l0.6,10c0.1,1.1-0.8,2.1-1.9,2.1
					C1423.8,714.4,1423.8,714.4,1423.7,714.4z M1771.6,706.3c-1.1,0-2-0.9-2-2v-10c0-1.1,0.9-2,2-2s2,0.9,2,2v10
					C1773.6,705.4,1772.7,706.3,1771.6,706.3z M1422.5,694.4c-1,0-1.9-0.8-2-1.9l-0.6-10c-0.1-1.1,0.8-2.1,1.9-2.1
					c1.1-0.1,2.1,0.8,2.1,1.9l0.6,10c0.1,1.1-0.8,2.1-1.9,2.1C1422.6,694.4,1422.6,694.4,1422.5,694.4z M1771.6,686.3
					c-1.1,0-2-0.9-2-2v-10c0-1.1,0.9-2,2-2s2,0.9,2,2v10C1773.6,685.4,1772.7,686.3,1771.6,686.3z M1421.3,674.5c-1.1,0-2-0.9-2-1.9
					c0-0.2,0-0.5,0-0.7c0-3.4,0.7-6.8,2-9.9c0.4-1,1.6-1.5,2.6-1.1c1,0.4,1.5,1.6,1.1,2.6c-1.1,2.6-1.7,5.4-1.7,8.3
					c0,0.2,0,0.4,0,0.6C1423.3,673.5,1422.5,674.4,1421.3,674.5C1421.4,674.5,1421.3,674.5,1421.3,674.5z M1770.4,666.4
					c-0.8,0-1.6-0.5-1.9-1.4c-1-2.9-2.6-5.6-4.7-7.8c-0.8-0.8-0.7-2.1,0.1-2.8c0.8-0.8,2.1-0.7,2.8,0.1c2.5,2.6,4.4,5.8,5.5,9.2
					c0.4,1-0.2,2.2-1.3,2.5C1770.8,666.4,1770.6,666.4,1770.4,666.4z M1428.9,656.6c-0.5,0-1.1-0.2-1.5-0.7
					c-0.7-0.8-0.7-2.1,0.1-2.8c2.7-2.5,5.8-4.3,9.3-5.4c1.1-0.3,2.2,0.2,2.5,1.3c0.3,1.1-0.2,2.2-1.3,2.5c-2.9,0.9-5.6,2.5-7.8,4.5
					C1429.9,656.4,1429.4,656.6,1428.9,656.6z M1757.2,652.3c-0.3,0-0.5,0-0.8-0.1c-2.6-1.1-5.3-1.6-8.1-1.6h-0.9c-1.1,0-2-0.9-2-2
					s0.9-2,2-2h0.9c3.3,0,6.5,0.6,9.6,1.9c1,0.4,1.5,1.6,1.1,2.6C1758.7,651.8,1757.9,652.3,1757.2,652.3z M1737.4,650.5h-10
					c-1.1,0-2-0.9-2-2s0.9-2,2-2h10c1.1,0,2,0.9,2,2S1738.5,650.5,1737.4,650.5z M1717.4,650.5h-10c-1.1,0-2-0.9-2-2s0.9-2,2-2h10
					c1.1,0,2,0.9,2,2S1718.5,650.5,1717.4,650.5z M1697.4,650.5h-10c-1.1,0-2-0.9-2-2s0.9-2,2-2h10c1.1,0,2,0.9,2,2
					S1698.5,650.5,1697.4,650.5z M1677.4,650.5h-10c-1.1,0-2-0.9-2-2s0.9-2,2-2h10c1.1,0,2,0.9,2,2S1678.5,650.5,1677.4,650.5z
					 M1657.4,650.5h-10c-1.1,0-2-0.9-2-2s0.9-2,2-2h10c1.1,0,2,0.9,2,2S1658.5,650.5,1657.4,650.5z M1637.4,650.5h-10
					c-1.1,0-2-0.9-2-2s0.9-2,2-2h10c1.1,0,2,0.9,2,2S1638.5,650.5,1637.4,650.5z M1617.4,650.5h-10c-1.1,0-2-0.9-2-2s0.9-2,2-2h10
					c1.1,0,2,0.9,2,2S1618.5,650.5,1617.4,650.5z M1597.4,650.5h-10c-1.1,0-2-0.9-2-2s0.9-2,2-2h10c1.1,0,2,0.9,2,2
					S1598.5,650.5,1597.4,650.5z M1577.4,650.5h-10c-1.1,0-2-0.9-2-2s0.9-2,2-2h10c1.1,0,2,0.9,2,2S1578.5,650.5,1577.4,650.5z
					 M1557.4,650.5h-10c-1.1,0-2-0.9-2-2s0.9-2,2-2h10c1.1,0,2,0.9,2,2S1558.5,650.5,1557.4,650.5z M1537.4,650.5h-10
					c-1.1,0-2-0.9-2-2s0.9-2,2-2h10c1.1,0,2,0.9,2,2S1538.5,650.5,1537.4,650.5z M1517.4,650.5h-10c-1.1,0-2-0.9-2-2s0.9-2,2-2h10
					c1.1,0,2,0.9,2,2S1518.5,650.5,1517.4,650.5z M1497.4,650.5h-10c-1.1,0-2-0.9-2-2s0.9-2,2-2h10c1.1,0,2,0.9,2,2
					S1498.5,650.5,1497.4,650.5z M1477.4,650.5h-10c-1.1,0-2-0.9-2-2s0.9-2,2-2h10c1.1,0,2,0.9,2,2S1478.5,650.5,1477.4,650.5z
					 M1457.4,650.5h-10c-1.1,0-2-0.9-2-2s0.9-2,2-2h10c1.1,0,2,0.9,2,2S1458.5,650.5,1457.4,650.5z"/>
			</g>
			<path class="st3" d="M1065.7,1399.6c-132.5-65.8-234.8-169.3-246.2-385.9C819.5,1013.7,1164.4,1128.9,1065.7,1399.6z"/>
			<path class="st1" d="M1052.3,1394.2c-93.2,8.6-182.5-13.1-260.6-125.9C791.7,1268.3,1015.6,1215.8,1052.3,1394.2z"/>
			<path class="st3" d="M1470.8,1412.3c-62.1-134.3-77-279,49.8-455C1520.6,957.3,1717.4,1263.1,1470.8,1412.3z"/>
			<path class="st8" d="M1502.4,1418h-487.9c-13.3,0-23.2-9.4-20.6-19.6l6.3-24.8c1.9-7.4,10.1-12.9,19.8-13.2l470.4-14.7
				c10.2-0.3,19.2,5.1,21.4,12.8l11.3,39.4C1525.9,1408.3,1515.9,1418,1502.4,1418z"/>
			<path class="st3" d="M1277.2,1366.6c-0.5,0-1-0.4-1-1c0-0.6,0.4-1,1-1l20.2-0.3c0.5,0,1,0.4,1,1c0,0.6-0.4,1-1,1L1277.2,1366.6
				C1277.2,1366.6,1277.2,1366.6,1277.2,1366.6z"/>
			<path class="st3" d="M1011.9,1403.8c-0.1,0-0.1,0-0.2,0c-0.5-0.1-0.9-0.6-0.8-1.1l2.9-18c1.5-9.4,9.5-16.3,19-16.5l213.8-3.1
				c0.6,0,1,0.4,1,1c0,0.6-0.4,1-1,1l-213.8,3.1c-8.5,0.1-15.7,6.3-17.1,14.8l-2.9,18C1012.8,1403.4,1012.4,1403.8,1011.9,1403.8z"
				/>
			<path class="st1" d="M1044.2,1350.2c-0.4,0-0.8-0.3-0.9-0.7c-31.5-89.8-78.4-159.1-112.1-201.4c-36.6-45.8-66.1-70.7-66.4-71
				c-0.4-0.4-0.5-1-0.1-1.4c0.4-0.4,1-0.5,1.4-0.1c0.3,0.2,29.9,25.3,66.6,71.2c33.9,42.4,80.8,111.9,112.5,202.1
				c0.2,0.5-0.1,1.1-0.6,1.3C1044.4,1350.2,1044.3,1350.2,1044.2,1350.2z"/>
			<path class="st1" d="M1487.2,1330.2c-0.1,0-0.2,0-0.3,0c-0.5-0.2-0.8-0.7-0.6-1.3c46.6-146,33.4-316.9,33.3-318.6
				c0-0.6,0.4-1,0.9-1.1c0.5,0,1,0.4,1.1,0.9c0,0.4,3.5,43.5,1,104.1c-2.2,56-10,138.7-34.4,215.2
				C1488,1329.9,1487.6,1330.2,1487.2,1330.2z"/>
			<path class="st0" d="M999.4,1363.7c-0.3,0-0.6-0.1-0.8-0.4c-52.8-62.2-170.7-82.2-171.8-82.4c-0.5-0.1-0.9-0.6-0.8-1.1
				c0.1-0.5,0.6-0.9,1.1-0.8c0.3,0,30.2,5.1,66.3,17.7c33.3,11.7,78.9,32.6,106.8,65.4c0.4,0.4,0.3,1.1-0.1,1.4
				C999.9,1363.6,999.6,1363.7,999.4,1363.7z"/>
		</g>
		<g>
			<g>
				<g class="st12">
					
						<ellipse transform="matrix(0.7514 -0.6598 0.6598 0.7514 -169.87 1639.0272)" class="st1" cx="2090.5" cy="1045" rx="135.5" ry="138"/>
				</g>
				<path class="st8" d="M2203.8,945.5c-56-63.7-152.1-70.9-214.6-15.9c-62.6,55-68,151.2-12,214.9c56,63.7,152.1,70.9,214.6,15.9
					C2254.4,1105.4,2259.8,1009.2,2203.8,945.5z M1993.8,1129.9c-47.7-54.4-43.2-136.5,10.2-183.3c53.4-46.9,135.4-40.8,183.1,13.6
					c47.7,54.4,43.2,136.5-10.2,183.3C2123.5,1190.3,2041.6,1184.2,1993.8,1129.9z"/>
				<g>
					<path class="st3" d="M2230.2,1025c-0.2,0-0.5-0.2-0.5-0.4c-4.3-26.6-16.1-51.5-34.1-71.9c-38.5-43.9-98.5-60.2-152.9-41.6l0,0
						c-9.2,3.2-18.1,7.3-26.5,12.3c-0.2,0.1-0.5,0.1-0.7-0.2c-0.1-0.2-0.1-0.5,0.2-0.7c8.4-5.1,17.4-9.3,26.7-12.4c0,0,0,0,0,0
						c26.3-9,54.7-10,81.9-2.8c27.9,7.3,52.8,22.8,72.1,44.7c18.1,20.6,29.9,45.6,34.3,72.4C2230.7,1024.7,2230.6,1025,2230.2,1025
						C2230.3,1025,2230.2,1025,2230.2,1025z M1983.6,950.5c-0.1,0-0.2,0-0.3-0.1c-0.2-0.2-0.2-0.5,0-0.7c2.4-2.7,4.9-5.3,7.5-7.8
						c0.2-0.2,0.5-0.2,0.7,0c0.2,0.2,0.2,0.5,0,0.7c-2.6,2.5-5.1,5.1-7.4,7.8C1983.9,950.4,1983.7,950.5,1983.6,950.5z"/>
				</g>
			</g>
			<g>
				<path class="st8" d="M2088.1,1186l-14.3,297.2c-0.6,12.5,9.5,22.8,22,22.4l2-0.1c11-0.3,19.7-9.6,19.3-20.6l-10.8-298.9
					L2088.1,1186z"/>
				<path class="st2" d="M2095.4,1499.8c-1.6,0-3.2-0.3-4.8-0.9c-6.3-2.3-10.4-8.6-10.2-15.7l0.9-36c0-0.3,0.2-0.5,0.5-0.5
					c0.3,0,0.5,0.2,0.5,0.5l-0.9,36c-0.2,6.6,3.7,12.5,9.6,14.7c5.8,2.2,11.7,0,17.4-6.4c0.2-0.2,0.5-0.2,0.7,0
					c0.2,0.2,0.2,0.5,0,0.7C2104.7,1497.3,2100.1,1499.8,2095.4,1499.8z"/>
				<path class="st2" d="M2082.1,1436.6C2082.1,1436.6,2082.1,1436.6,2082.1,1436.6c-0.3,0-0.5-0.2-0.5-0.5l0.1-4.7
					c0-0.3,0.2-0.5,0.5-0.5c0.3,0,0.5,0.2,0.5,0.5l-0.1,4.7C2082.6,1436.4,2082.4,1436.6,2082.1,1436.6z"/>
			</g>
		</g>
		<g>
			<path class="st5" d="M463.9,1535.7l144.3-96.4c9.8-6.5,21.2-10.1,33-10.2c131.1-1.6,938.8-10.6,1125.6,9.2
				c9.1,1,17.6,4.7,24.5,10.6l101.2,86.8H463.9z"/>
			<path class="st8" d="M467.5,1547.9l-3.7-12.3h1428.7l-6.1,11.5c-4.2,7.9-12.4,12.9-21.4,12.9H483.8
				C476.3,1560.1,469.7,1555.2,467.5,1547.9z"/>
			<path class="st5" d="M553.5,1504.8l76.1-53.2c6.8-4.8,14.9-7.3,23.3-7.3l1076.6,4.4c14.4,0.1,28.3,5.3,39.2,14.8l39.8,34.8
				c5.6,4.9,2.2,14.1-5.3,14.1l-1245,6.9C550.3,1519.5,547,1509.3,553.5,1504.8z"/>
			<g>
				<g>
					<path class="st13" d="M1765.2,1464c2.2,0,3.8-0.1,3.7-0.2c-0.1-0.1,1.9-1,0-2.1l-35.5-12.2c-2.1-0.4-5.7-0.7-7.8-0.7l-18.2-2.1
						c-2.2,0-2.3,3.4-0.9,5.1l7.7,9.3c1.4,1.7,4.3,3,6.5,3L1765.2,1464z"/>
				</g>
				<g>
					<path class="st13" d="M1700.1,1475.1c-1.4-1.7-4.3-3-6.5-3l-66.2-1.9c-2.2,0-2.3,3.5-1.1,5.3l5.8,8.9c1.2,1.8,3.9,3.3,6.1,3.3
						l68.1-0.1c2.2,0,3-3.2,1.6-4.9L1700.1,1475.1z"/>
				</g>
				<g>
					<path class="st13" d="M1687.1,1464.1c2.2,0,3.1-3.1,1.7-4.8l-8.1-7.7c-1.4-1.7-4.3-3.1-6.5-3.1l-62.5-2.3
						c-2.2,0-2.4,3.5-1.2,5.3l6.2,9.4c1.2,1.8,3.9,3.3,6.1,3.3L1687.1,1464.1z"/>
				</g>
				<g>
					<path class="st13" d="M1516.9,1475.9c-1-1.9-3.6-3.5-5.8-3.5l-56.5-1.4c-2.2,0-2.4,3.2-1.7,5.3l2.9,8.1c0.7,2,3.1,3.7,5.3,3.7
						l57.9-0.1c2.2,0,3.3-3.2,2.3-5.2L1516.9,1475.9z"/>
				</g>
				<g>
					<path class="st13" d="M1602.7,1475.5c-1.2-1.8-3.9-3.3-6.1-3.3l-56.4-1.8c-2.2,0-2.2,3.5-1.2,5.5l4.4,8.5
						c1,1.9,3.6,3.5,5.8,3.5l57.6-0.1c2.2,0,3-3.6,1.8-5.4L1602.7,1475.5z"/>
				</g>
				<g>
					<path class="st13" d="M1340.6,1464.9c2.2,0,3.7-3.1,3.2-5.2l-2.3-8.6c-0.5-2.1-2.6-3.9-4.8-3.9l-57.4-0.2
						c-2.2,0-3.9,1.8-3.8,3.9l0.5,10.2c0.1,2.2,2,3.9,4.1,3.9L1340.6,1464.9z"/>
				</g>
				<g>
					<path class="st13" d="M1423.8,1464.7c2.2,0,3.5-3.1,2.8-5.1l-3.7-8.4c-0.7-2-3.1-3.7-5.3-3.7l-54-1.3c-2.2,0-2.3,2.8-1.8,4.9
						l2.2,9.8c0.5,2.1,2.6,3.9,4.8,3.8L1423.8,1464.7z"/>
				</g>
				<g>
					<path class="st13" d="M1507,1464.5c2.2,0,3.3-3.3,2.3-5.2l-5.2-7.9c-1-1.9-3.6-3.5-5.8-3.5l-52.7-1.6c-2.2,0-2.5,3.1-1.7,5.1
						l3.5,9.6c0.7,2,3.1,3.7,5.3,3.7L1507,1464.5z"/>
				</g>
				<g>
					<path class="st13" d="M1591.4,1464.3c2.2,0,3-3.6,1.8-5.4l-6.3-7.5c-1.2-1.8-3.9-3.3-6.1-3.3l-53.1-1.9c-2.2,0-2.3,3.3-1.3,5.2
						l4.9,9.5c1,1.9,3.6,3.5,5.8,3.5L1591.4,1464.3z"/>
				</g>
				<g>
					<path class="st13" d="M1347.2,1476.6c-0.5-2.1-2.6-3.9-4.8-3.8l-61.8,0.1c-2.2,0-3.9,1.8-3.8,4l0.4,7.6c0.1,2.2,2,3.9,4.1,3.9
						l64.5-0.1c2.2,0,3.6-2.8,3.2-4.9L1347.2,1476.6z"/>
				</g>
				<g>
					<path class="st13" d="M677,1477c1.5-1.6,1.3-4.9-0.8-4.9l-75.1,2.2c-2.2,0-5.4,1-7.2,2.3l-15.8,8.9c-1.8,1.2-1.5,4.3,0.7,4.3
						l82-0.2c2.2,0,5.2-1.3,6.7-2.9L677,1477z"/>
				</g>
				<g>
					<path class="st13" d="M771.2,1477c1.3-1.7,1-5.1-1.1-5.1l-59,2.2c-2.2,0-5.2,1.3-6.7,2.9l-9.4,7.8c-1.5,1.6-1,4.9,1.2,4.9
						l61.2-0.1c2.2,0,5.1-1.4,6.4-3.1L771.2,1477z"/>
				</g>
				<g>
					<path class="st13" d="M1252.5,1465c2.2,0,3.9-1.8,3.8-4l-0.5-10.3c-0.1-2.2-2-4-4.1-4l-53.1-0.2c-2.2,0-4.1,1.8-4.3,3.9
						l-1.1,10.7c-0.2,2.2,1.4,3.9,3.6,3.9L1252.5,1465z"/>
				</g>
				<g>
					<path class="st13" d="M1733.4,1484.4c1.4,1.7,4.3,3,6.5,3l52-0.1c2.2,0,3.2-2.7,1.5-4.1l-12.3-8.8c-1.6-1.4-4.7-2.6-6.9-2.6
						l-47.8-1.7c-2.2,0-2.1,3.2-0.7,4.8L1733.4,1484.4z"/>
				</g>
				<g>
					<path class="st13" d="M1065.4,1477.1c0.6-2.1,0.2-5.3-1.9-5.3l-72.2,1.6c-2.2,0-4.7,1.6-5.6,3.6l-4,7.2c-0.9,2,0.4,4.7,2.6,4.7
						l74-0.2c2.2,0,4.4-1.7,5-3.8L1065.4,1477.1z"/>
				</g>
				<g>
					<path class="st13" d="M1171.7,1477c0.2-2.2-1.4-3.9-3.6-3.9l-77.3,0.2c-2.2,0-4.4,1.7-5,3.8l-2.2,6.9c-0.6,2.1,0.9,4.8,3,4.8
						l79.9-0.2c2.2,0,4.1-1.8,4.3-3.9L1171.7,1477z"/>
				</g>
				<g>
					<path class="st13" d="M1257.1,1476.9c-0.1-2.2-2-3.9-4.1-3.9l-57,0.1c-2.2,0-4.1,1.8-4.3,3.9l-0.8,7.7
						c-0.2,2.2,1.4,3.9,3.6,3.9l59.3-0.1c2.2,0,3.9-1.8,3.8-4L1257.1,1476.9z"/>
				</g>
				<g>
					<path class="st13" d="M964,1477.1c0.9-2,0.7-5.3-1.5-5.2l-60.5,1.8c-2.2,0-4.9,1.5-6,3.4l-5.5,7.5c-1.1,1.9-0.1,4.6,2.1,4.6
						l62-0.1c2.2,0,4.7-1.6,5.6-3.6L964,1477.1z"/>
				</g>
				<g>
					<path class="st13" d="M1432,1476.3c-0.7-2-3.1-3.7-5.3-3.7l-57.4-1c-2.2,0-2.4,2.8-1.9,4.9l1.7,7.8c0.5,2.1,2.6,3.9,4.8,3.8
						l58.4-0.1c2.2,0,3.5-3.1,2.8-5.1L1432,1476.3z"/>
				</g>
				<g>
					<path class="st13" d="M873,1477.1c1.1-1.9,0.8-5.2-1.4-5.2l-68.8,2c-2.2,0-5.1,1.4-6.4,3.1l-7.4,7.3c-1.3,1.7-0.7,5.2,1.5,5.2
						l71.2-0.1c2.2,0,4.9-1.5,6-3.4L873,1477.1z"/>
				</g>
				<g>
					<path class="st13" d="M1281.7,1496.3c-2.2,0-3.9,1.8-3.8,4l0.5,11.3c0.1,2.2,2,3.9,4.1,3.9l69.1-0.4c2.2,0,3.7-2.9,3.2-5
						l-2.6-10.1c-0.5-2.1-2.6-3.9-4.8-3.8L1281.7,1496.3z"/>
				</g>
				<g>
					<path class="st13" d="M1193.5,1496.5c-2.2,0-4.1,1.8-4.3,3.9l-1.2,11.7c-0.2,2.2,1.4,3.9,3.6,3.9l63.4-0.4c2.2,0,3.9-1.8,3.8-4
						l-0.6-11.4c-0.1-2.2-2-3.9-4.1-3.9L1193.5,1496.5z"/>
				</g>
				<g>
					<path class="st13" d="M1374.5,1494.6c-2.2,0-2.4,3.2-2,5.3l2.5,11.1c0.5,2.1,2.6,3.8,4.8,3.8l62.1-0.3c2.2,0,3.5-3,2.8-5.1
						l-4.2-9.8c-0.7-2-3.1-3.7-5.3-3.7L1374.5,1494.6z"/>
				</g>
				<g>
					<path class="st13" d="M1168.9,1465.2c2.2,0,4.1-1.8,4.3-3.9l1.1-10.9c0.2-2.2-1.4-3.9-3.6-3.9l-72.6-0.3c-2.2,0-4.4,1.7-5,3.8
						l-3.3,10.5c-0.6,2.1,0.9,4.9,3.1,4.8L1168.9,1465.2z"/>
				</g>
				<g>
					<path class="st13" d="M1552.5,1494.2c-2.2,0-2.3,3.1-1.3,5l5.8,11.2c1,1.9,3.6,3.5,5.8,3.5l61.1-0.3c2.2,0,3.2-3.2,2-5
						l-7.7-9.6c-1.2-1.8-3.9-3.3-6.1-3.3L1552.5,1494.2z"/>
				</g>
				<g>
					<path class="st13" d="M1642.8,1493.5c-2.2,0-2.3,3.5-1.1,5.3l7.4,11.2c1.2,1.8,3.9,3.3,6.1,3.3l72.2-0.4c2.2,0,3-3.2,1.6-4.9
						l-9.7-9.7c-1.4-1.7-4.3-3-6.5-3L1642.8,1493.5z"/>
				</g>
				<g>
					<path class="st13" d="M1809.1,1500.2c-1.3,0.4-6-5-8.2-5l-55.1-1.9c-2.2,0-2.2,3.4-0.8,5.1l9.4,11.4c1.4,1.7,4.3,3,6.5,3
						l38.4-0.2c1.7,0,4-0.7,5.7-1.7c0.8-0.5,1.4-1.2,1.7-2.1l2.4-6.4C1808.7,1500.2,1809.2,1500.2,1809.1,1500.2z"/>
				</g>
				<g>
					<path class="st13" d="M1463.4,1493.9c-2.2,0-2.8,3.7-2,5.7l4,11.1c0.7,2,3.1,3.7,5.3,3.7l61.9-0.3c2.2,0,3.3-3.3,2.3-5.2
						l-6-9.6c-1-1.9-3.6-3.5-5.8-3.5L1463.4,1493.9z"/>
				</g>
				<g>
					<path class="st13" d="M965.3,1465.6c2.2,0,4.7-1.6,5.6-3.6l5.8-12.7c0.9-2,0.6-5.6-1.6-5.6l-56,1.7c-2.2,0-4.9,1.5-6,3.4
						l-8.5,12.2c-1.1,1.9,0.1,4.8,2.2,4.8L965.3,1465.6z"/>
				</g>
				<g>
					<path class="st13" d="M875.8,1465.8c2.2,0,4.9-1.5,6-3.4l8.3-13.7c1.1-1.9,1.1-5-1.1-5l-63.4,1.3c-2.2,0-5.1,1.4-6.4,3.1
						l-11.9,13.1c-1.3,1.7-0.4,4.8,1.8,4.8L875.8,1465.8z"/>
				</g>
				<g>
					<path class="st13" d="M775.9,1466c2.2,0,5.1-1.4,6.4-3.1l11.8-14.9c1.3-1.7,1.4-5-0.8-5.1l-54.1,1.7c-2.2,0-5.2,1.3-6.7,2.8
						l-15.4,14.1c-1.5,1.6-0.6,4.5,1.5,4.5L775.9,1466z"/>
				</g>
				<g>
					<path class="st13" d="M887.9,1497.1c-2.2,0-4.9,1.5-6,3.4l-8.4,13.9c-1.1,1.9-0.3,3.4,1.9,3.4l328.1-1.7c2.2,0,4.7-1.6,5.6-3.6
						l6-13.2c0.9-2-0.1-3.6-2.3-3.6L887.9,1497.1z"/>
				</g>
				<g>
					<path class="st13" d="M1064.6,1465.4c2.2,0,4.4-1.7,5-3.8l3.2-11.7c0.6-2.1,0.2-5.1-2-5.2l-66.9,1.1c-2.2,0-4.7,1.6-5.6,3.6
						l-5.9,11.2c-0.9,2,0.4,5,2.5,5L1064.6,1465.4z"/>
				</g>
				<g>
					<path class="st13" d="M683.4,1466.2c2.2,0,5.2-1.3,6.7-2.9l15.2-15.9c1.5-1.6,1.5-4.8-0.7-4.8l-47.8,1.7
						c-2.2,0-5.7,0.3-7.9,0.6l-15.8,4.9c-2,1-5,2.8-6.8,4l-15.1,8.6c-1.8,1.2-0.9,3.9,1.2,3.9L683.4,1466.2z"/>
				</g>
				<g>
					<path class="st13" d="M784.3,1497.3c-2.2,0-5.1,1.4-6.4,3.1l-11.7,14.8c-1.3,1.7-0.7,3.1,1.5,3.1l76.8-0.4c2.2,0,4.9-1.5,6-3.4
						l8.4-14c1.1-1.9,1-4.9-1.2-4.9L784.3,1497.3z"/>
				</g>
				<g>
					<path class="st13" d="M688.7,1497.5c-2.2,0-5.2,1.3-6.7,2.9l-15,15.7c-1.5,1.6-1,2.8,1.2,2.8l66.3-0.4c2.2,0,5.1-1.4,6.4-3.1
						l11.8-14.9c1.3-1.7,0.7-3.1-1.5-3.1L688.7,1497.5z"/>
				</g>
				<g>
					<path class="st13" d="M567.6,1497.7c-2.2,0-5.4,1-7.2,2.3l-6.4,4.5c-1.5,1-1.1,1.8-1.2,3.2c0,0.7,0,1.4,0.2,2.1l1.2,3.9
						c0.8,2.6,2.8,4.7,5.5,5.4c0.8,0.2,1.7,0.4,2.4,0.4l70.7-0.4c2.2,0,5.2-1.3,6.7-2.9l15.1-15.8c1.5-1.6,1.5-4.9-0.7-4.9
						L567.6,1497.7z"/>
				</g>
			</g>
			<g>
				<g>
					<path class="st13" d="M1765.2,1461.9c2.2,0,3.8-0.1,3.7-0.2s-1.7-1.1-3.6-2.2l-31.9-12.1c-2.1-0.4-5.7-0.7-7.8-0.7l-17.7-0.1
						c-2.2,0-2.8,1.4-1.4,3l7.7,9.3c1.4,1.7,4.3,3,6.5,3L1765.2,1461.9z"/>
				</g>
				<g>
					<path class="st13" d="M1700.1,1473c-1.4-1.7-4.3-3-6.5-3l-65.5,0.1c-2.2,0-3,1.5-1.8,3.3l5.8,8.9c1.2,1.8,3.9,3.3,6.1,3.3
						l68.1-0.1c2.2,0,2.8-1.4,1.4-3.1L1700.1,1473z"/>
				</g>
				<g>
					<path class="st13" d="M1687.1,1462.1c2.2,0,2.8-1.4,1.4-3.1l-7.8-9.5c-1.4-1.7-4.3-3.1-6.5-3.1l-61.9-0.3c-2.2,0-3,1.5-1.8,3.3
						l6.2,9.4c1.2,1.8,3.9,3.3,6.1,3.3L1687.1,1462.1z"/>
				</g>
				<g>
					<path class="st13" d="M1516.9,1473.8c-1-1.9-3.6-3.5-5.8-3.5l-55.5,0.1c-2.2,0-3.3,1.7-2.6,3.7l2.9,8.1c0.7,2,3.1,3.7,5.3,3.7
						l57.9-0.1c2.2,0,3.1-1.6,2.1-3.5L1516.9,1473.8z"/>
				</g>
				<g>
					<path class="st13" d="M1602.7,1473.4c-1.2-1.8-3.9-3.3-6.1-3.3l-55.4,0.1c-2.2,0-3.1,1.6-2.1,3.5l4.4,8.5
						c1,1.9,3.6,3.5,5.8,3.5l57.6-0.1c2.2,0,3-1.5,1.8-3.3L1602.7,1473.4z"/>
				</g>
				<g>
					<path class="st13" d="M1340.6,1462.8c2.2,0,3.6-1.7,3.1-3.9l-2.2-10c-0.5-2.1-2.6-3.9-4.8-3.9l-57.4-0.2
						c-2.2,0-3.9,1.8-3.8,3.9l0.5,10.2c0.1,2.2,2,3.9,4.1,3.9L1340.6,1462.8z"/>
				</g>
				<g>
					<path class="st13" d="M1423.8,1462.6c2.2,0,3.3-1.7,2.6-3.7l-3.5-9.7c-0.7-2-3.1-3.7-5.3-3.7l-52.7-0.2c-2.2,0-3.6,1.7-3.1,3.8
						l2.2,9.8c0.5,2.1,2.6,3.9,4.8,3.8L1423.8,1462.6z"/>
				</g>
				<g>
					<path class="st13" d="M1507,1462.4c2.2,0,3.1-1.6,2.1-3.5l-5-9.7c-1-1.9-3.6-3.5-5.8-3.5l-51.8-0.2c-2.2,0-3.3,1.7-2.6,3.7
						l3.5,9.6c0.7,2,3.1,3.7,5.3,3.7L1507,1462.4z"/>
				</g>
				<g>
					<path class="st13" d="M1591.4,1462.3c2.2,0,3-1.5,1.8-3.3l-6.3-9.6c-1.2-1.8-3.9-3.3-6.1-3.3l-52.3-0.2c-2.2,0-3.1,1.6-2.1,3.5
						l4.9,9.5c1,1.9,3.6,3.5,5.8,3.5L1591.4,1462.3z"/>
				</g>
				<g>
					<path class="st13" d="M1347.2,1474.5c-0.5-2.1-2.6-3.9-4.8-3.8l-61.8,0.1c-2.2,0-3.9,1.8-3.8,4l0.4,7.6c0.1,2.2,2,3.9,4.1,3.9
						l64.5-0.1c2.2,0,3.6-1.7,3.1-3.9L1347.2,1474.5z"/>
				</g>
				<g>
					<path class="st13" d="M677,1474.9c1.5-1.6,1-2.8-1.2-2.8l-74.7,0.2c-2.2,0-5.4,1-7.2,2.3l-15.8,11c-1.8,1.2-1.5,2.3,0.7,2.3
						l82-0.2c2.2,0,5.2-1.3,6.7-2.9L677,1474.9z"/>
				</g>
				<g>
					<path class="st13" d="M771.2,1474.9c1.3-1.7,0.7-3.1-1.5-3.1l-58.6,0.1c-2.2,0-5.2,1.3-6.7,2.9l-9.4,9.8
						c-1.5,1.6-1,2.8,1.2,2.8l61.2-0.1c2.2,0,5.1-1.4,6.4-3.1L771.2,1474.9z"/>
				</g>
				<g>
					<path class="st13" d="M1252.5,1463c2.2,0,3.9-1.8,3.8-4l-0.5-10.3c-0.1-2.2-2-4-4.1-4l-53.1-0.2c-2.2,0-4.1,1.8-4.3,3.9
						l-1.1,10.7c-0.2,2.2,1.4,3.9,3.6,3.9L1252.5,1463z"/>
				</g>
				<g>
					<path class="st13" d="M1733.4,1482.3c1.4,1.7,4.3,3,6.5,3l52-0.1c2.2,0,2.6-1.2,1-2.6l-11.7-10.3c-1.6-1.4-4.7-2.6-6.9-2.6
						l-47.1,0.1c-2.2,0-2.8,1.4-1.4,3.1L1733.4,1482.3z"/>
				</g>
				<g>
					<path class="st13" d="M1065.4,1475c0.6-2.1-0.7-3.8-2.9-3.8l-71.2,0.1c-2.2,0-4.7,1.6-5.6,3.6l-3.8,8.3c-0.9,2,0.1,3.6,2.3,3.6
						l74-0.2c2.2,0,4.4-1.7,5-3.8L1065.4,1475z"/>
				</g>
				<g>
					<path class="st13" d="M1171.7,1474.9c0.2-2.2-1.4-3.9-3.6-3.9l-77.3,0.2c-2.2,0-4.4,1.7-5,3.8l-2.1,7.9
						c-0.6,2.1,0.7,3.8,2.9,3.8l79.9-0.2c2.2,0,4.1-1.8,4.3-3.9L1171.7,1474.9z"/>
				</g>
				<g>
					<path class="st13" d="M1257.1,1474.8c-0.1-2.2-2-3.9-4.1-3.9l-57,0.1c-2.2,0-4.1,1.8-4.3,3.9l-0.8,7.7
						c-0.2,2.2,1.4,3.9,3.6,3.9l59.3-0.1c2.2,0,3.9-1.8,3.8-4L1257.1,1474.8z"/>
				</g>
				<g>
					<path class="st13" d="M964,1475c0.9-2-0.1-3.6-2.3-3.6l-59.7,0.1c-2.2,0-4.9,1.5-6,3.4l-5.3,8.8c-1.1,1.9-0.3,3.4,1.9,3.4
						l62-0.1c2.2,0,4.7-1.6,5.6-3.6L964,1475z"/>
				</g>
				<g>
					<path class="st13" d="M1432,1474.2c-0.7-2-3.1-3.7-5.3-3.7l-56.2,0.1c-2.2,0-3.6,1.7-3.1,3.9l1.7,7.8c0.5,2.1,2.6,3.9,4.8,3.8
						l58.4-0.1c2.2,0,3.3-1.7,2.6-3.7L1432,1474.2z"/>
				</g>
				<g>
					<path class="st13" d="M873,1475c1.1-1.9,0.3-3.4-1.9-3.4l-68.3,0.1c-2.2,0-5.1,1.4-6.4,3.1l-7.4,9.3c-1.3,1.7-0.7,3.1,1.5,3.1
						l71.2-0.1c2.2,0,4.9-1.5,6-3.4L873,1475z"/>
				</g>
				<g>
					<path class="st13" d="M1281.7,1494.2c-2.2,0-3.9,1.8-3.8,4l0.5,11.3c0.1,2.2,2,3.9,4.1,3.9l69.1-0.4c2.2,0,3.6-1.8,3.1-3.9
						l-2.5-11.2c-0.5-2.1-2.6-3.9-4.8-3.8L1281.7,1494.2z"/>
				</g>
				<g>
					<path class="st13" d="M1375.6,1494c-2.2,0-3.6,1.7-3.1,3.9l2.5,11.1c0.5,2.1,2.6,3.8,4.8,3.8l62.1-0.3c2.2,0,3.3-1.7,2.6-3.7
						l-4-11.2c-0.7-2-3.1-3.7-5.3-3.7L1375.6,1494z"/>
				</g>
				<g>
					<path class="st13" d="M1168.9,1463.1c2.2,0,4.1-1.8,4.3-3.9l1.1-10.9c0.2-2.2-1.4-3.9-3.6-3.9l-72.6-0.3c-2.2,0-4.4,1.7-5,3.8
						l-3.1,11.6c-0.6,2.1,0.7,3.8,2.9,3.8L1168.9,1463.1z"/>
				</g>
				<g>
					<path class="st13" d="M1553.3,1493.6c-2.2,0-3.1,1.6-2.1,3.5l5.8,11.2c1,1.9,3.6,3.5,5.8,3.5l61.1-0.3c2.2,0,3-1.5,1.8-3.3
						l-7.5-11.3c-1.2-1.8-3.9-3.3-6.1-3.3L1553.3,1493.6z"/>
				</g>
				<g>
					<path class="st13" d="M1643.5,1493.5c-2.2,0-3,1.5-1.8,3.3l7.4,11.2c1.2,1.8,3.9,3.3,6.1,3.3l72.2-0.4c2.2,0,2.8-1.4,1.4-3.1
						l-9.5-11.5c-1.4-1.7-4.3-3-6.5-3L1643.5,1493.5z"/>
				</g>
				<g>
					<path class="st13" d="M1806.6,1494.7c-1-0.9-3.6-1.6-5.8-1.6l-54.5,0.1c-2.2,0-2.8,1.4-1.4,3.1l9.4,11.4c1.4,1.7,4.3,3,6.5,3
						l38.4-0.2c1.5,0,3.6-0.6,5.2-1.5c1.1-0.5,1.9-1.5,2.3-2.6l2.3-6.2C1808.7,1498.1,1807.6,1495.6,1806.6,1494.7z"/>
				</g>
				<g>
					<path class="st13" d="M980.7,1494.8c-2.2,0-4.7,1.6-5.6,3.6l-5.9,13.1c-0.9,2,0.1,3.6,2.3,3.6l79.3-0.4c2.2,0,4.4-1.7,5-3.8
						l3.3-12.4c0.6-2.1-0.7-3.8-2.9-3.8L980.7,1494.8z"/>
				</g>
				<g>
					<path class="st13" d="M1464,1493.8c-2.2,0-3.3,1.7-2.6,3.7l4,11.1c0.7,2,3.1,3.7,5.3,3.7l61.9-0.3c2.2,0,3.1-1.6,2.1-3.5
						l-5.8-11.2c-1-1.9-3.6-3.5-5.8-3.5L1464,1493.8z"/>
				</g>
				<g>
					<path class="st13" d="M965.3,1463.5c2.2,0,4.7-1.6,5.6-3.6l5.8-12.7c0.9-2-0.1-3.6-2.3-3.6l-55.2-0.2c-2.2,0-4.9,1.5-6,3.4
						l-8.2,13.6c-1.1,1.9-0.3,3.4,1.9,3.4L965.3,1463.5z"/>
				</g>
				<g>
					<path class="st13" d="M875.8,1463.7c2.2,0,4.9-1.5,6-3.4l8.3-13.7c1.1-1.9,0.3-3.4-1.9-3.4l-62.6-0.3c-2.2,0-5.1,1.4-6.4,3.1
						l-11.6,14.7c-1.3,1.7-0.7,3.1,1.5,3.1L875.8,1463.7z"/>
				</g>
				<g>
					<path class="st13" d="M775.9,1463.9c2.2,0,5.1-1.4,6.4-3.1l11.8-14.9c1.3-1.7,0.7-3.1-1.5-3.1l-53.4-0.2
						c-2.2,0-5.2,1.3-6.7,2.8l-15.1,15.8c-1.5,1.6-1,2.8,1.2,2.8L775.9,1463.9z"/>
				</g>
				<path class="st13" d="M1258.7,1509.6l-0.6-11.4c-0.1-2.2-2-3.9-4.1-3.9l-60.5,0.1c-0.4,0-0.7,0.1-1,0.1l-304.6,0.5
					c-2.2,0-4.9,1.5-6,3.4l-8.4,13.9c-1.1,1.9-0.3,3.4,1.9,3.4l378.1-1.6c0.9-0.1,1.5-0.3,2-0.6
					C1257.4,1513.2,1258.8,1511.6,1258.7,1509.6z"/>
				<g>
					<path class="st13" d="M1064.6,1463.3c2.2,0,4.4-1.7,5-3.8l3.2-11.7c0.6-2.1-0.7-3.8-2.9-3.8l-66-0.3c-2.2,0-4.7,1.6-5.6,3.6
						l-5.7,12.6c-0.9,2,0.1,3.6,2.3,3.6L1064.6,1463.3z"/>
				</g>
				<g>
					<path class="st13" d="M683.4,1464.1c2.2,0,5.2-1.3,6.7-2.9l15.2-15.9c1.5-1.6,1-2.9-1.2-2.9l-47.3-0.2c-2.2,0-5.7,0.3-7.9,0.6
						l-15.8,4.9c-2,1-5,2.8-6.8,4l-14.6,10.2c-1.8,1.2-1.5,2.3,0.7,2.3L683.4,1464.1z"/>
				</g>
				<g>
					<path class="st13" d="M784.3,1495.2c-2.2,0-5.1,1.4-6.4,3.1l-11.7,14.8c-1.3,1.7-0.7,3.1,1.5,3.1l76.8-0.4c2.2,0,4.9-1.5,6-3.4
						l8.4-14c1.1-1.9,0.3-3.4-1.9-3.4L784.3,1495.2z"/>
				</g>
				<g>
					<path class="st13" d="M688.7,1495.4c-2.2,0-5.2,1.3-6.7,2.9l-15,15.7c-1.5,1.6-1,2.8,1.2,2.8l66.3-0.4c2.2,0,5.1-1.4,6.4-3.1
						l11.8-14.9c1.3-1.7,0.7-3.1-1.5-3.1L688.7,1495.4z"/>
				</g>
				<g>
					<path class="st13" d="M567.6,1495.7c-2.2,0-5.4,1-7.2,2.3l-3.6,2.5c-1.4,1-2.9,2.9-3.6,4.7c-0.3,0.8-0.3,1.7-0.1,2.6l1.1,3.5
						c0.9,3,3.4,5.3,6.4,5.9c0.5,0.1,1.1,0.2,1.6,0.2l70.7-0.4c2.2,0,5.2-1.3,6.7-2.9l15.1-15.8c1.5-1.6,1-2.8-1.2-2.8L567.6,1495.7
						z"/>
				</g>
			</g>
		</g>
		<circle class="st2" cx="1175" cy="692.9" r="23.1"/>
		
			<ellipse transform="matrix(0.9819 -0.1896 0.1896 0.9819 -31.043 229.4793)" class="st2" cx="1183.8" cy="277" rx="23.1" ry="23.1"/>
		<g>
			<g>
				<g>
					<path class="st13" d="M1643.4,1090.7c9.2,0.8,25,2.1,37.6,2.6c7.5,0.3,11.9-0.4,14.4-1.4c0,0.3,0,0.5,0,0.8
						c-0.1,1.3-1.1,2.4-2.5,2.4c-23.7,1.3-42.5,0.5-49.2,0c-1.4-0.1-2.2-1.6-1.5-2.8C1642.5,1091.8,1642.9,1091.3,1643.4,1090.7z"/>
					<path class="st5" d="M1680.9,1093.3c-12.5-0.6-28.4-1.8-37.6-2.6c9-11,37.6-18.5,37.6-18.5h8.1c5.5,8,6.4,15.6,6.3,19.7
						C1692.8,1092.9,1688.5,1093.7,1680.9,1093.3z"/>
					
						<linearGradient id="SVGID_1_" gradientUnits="userSpaceOnUse" x1="-2843.3582" y1="1068.1848" x2="-2828.3076" y2="1068.1848" gradientTransform="matrix(-1 0 0 1 -1152.9888 0)">
						<stop  offset="0" style="stop-color:#A22B25"/>
						<stop  offset="1" style="stop-color:#C0423C"/>
					</linearGradient>
					<path class="st14" d="M1690.4,1059l-0.8,14.9c-0.1,1.6-1.3,3-2.9,3.2c-1.6,0.2-3.8,0.3-6.1-0.5c-1.4-0.5-2.5-1.7-2.7-3.1
						l-2.6-14.5H1690.4z"/>
				</g>
				<g>
					<g>
						<path class="st13" d="M1795.2,1093.2c4-0.6,5.8-2.6,6.5-4.8c0,0,0,0,0,0.1c0.6,2.3-0.8,4.7-3.5,5.9c-3.3,1.4-6.8,1.6-9.6,1.5
							c-3-0.1-5.7-1.4-7.2-3.3l0,0C1784.3,1094,1788.5,1094.1,1795.2,1093.2z"/>
						<path class="st5" d="M1776.4,1058.9h6.7c10.1-0.2,16.5,21.2,18.6,29.4c-0.8,2.2-2.5,4.3-6.5,4.8c-6.6,0.9-10.8,0.7-13.8-0.7
							c-5.5-7.2-8.2-17.8-9.5-23.9C1770.4,1061.6,1776.4,1058.9,1776.4,1058.9z"/>
					</g>
					
						<linearGradient id="SVGID_2_" gradientUnits="userSpaceOnUse" x1="-2939.0408" y1="1055.6381" x2="-2921.0537" y2="1055.6381" gradientTransform="matrix(-1 0 0 1 -1152.9888 0)">
						<stop  offset="0" style="stop-color:#A22B25"/>
						<stop  offset="1" style="stop-color:#C0423C"/>
					</linearGradient>
					<path class="st15" d="M1782.2,1045.1l3.7,14.7c0.5,1.8-0.4,3.7-2.1,4.5c-2.1,1.1-5,2.2-7.7,1.9c-1.3-0.2-2.3-1-2.7-2.2
						l-5.4-15.5L1782.2,1045.1z"/>
				</g>
				<path class="st13" d="M1786.6,1049.3c-4.6,4.1-19.5,4.6-19.5,4.6c-53.9-129.3-75.9-147.6-75.9-147.6
					c7.8,48.8,1.3,156.8,1.3,156.8c-8.9,3.9-20.3,0-20.3,0c-0.7-79.9-13-149.5-27.5-204.4c36.4-0.8,55.8-13.3,62.1-18.3
					C1737,889.3,1786.6,1049.3,1786.6,1049.3z"/>
				<path class="st13" d="M1697.5,691.8c6.9,34.4,4.4,95.9,2.8,123.9c-0.5,7.9,5,18.8,9.5,26.3c0.7,1.2,0.3,2.7-0.9,3.3
					c-7.4,3.8-32.7,15.7-61.9,17.2c-2,0.1-3.7-1.2-4.2-3.1c-21.7-81-46.9-132.8-46.9-132.8C1623.6,682.1,1697.5,691.8,1697.5,691.8z
					"/>
				
					<linearGradient id="SVGID_3_" gradientUnits="userSpaceOnUse" x1="-2878.4268" y1="989.0266" x2="-2869.8079" y2="971.7889" gradientTransform="matrix(-1 0 0 1 -1152.9888 0)">
					<stop  offset="0" style="stop-color:#53D8FF"/>
					<stop  offset="1" style="stop-color:#3840F7"/>
				</linearGradient>
				<path class="st16" d="M1687.5,903.3c0.3,0,0.6-0.1,0.9-0.3c0.8-0.5,1.1-1.6,0.6-2.4c-0.3-0.5-7.3-11.7-21.4-18.5
					c-0.9-0.4-1.9-0.1-2.3,0.8c-0.4,0.9-0.1,1.9,0.8,2.3c13.1,6.3,19.8,17.1,19.9,17.2C1686.4,903,1687,903.3,1687.5,903.3z"/>
				<g>
					
						<linearGradient id="SVGID_4_" gradientUnits="userSpaceOnUse" x1="-2856.6343" y1="793.4551" x2="-2920.6648" y2="850.1556" gradientTransform="matrix(-1 0 0 1 -1152.9888 0)">
						<stop  offset="0" style="stop-color:#A22B25"/>
						<stop  offset="1" style="stop-color:#C0423C"/>
					</linearGradient>
					<path class="st17" d="M1740.7,790.4c-2.2,16-8.8,33.5-21.8,52l-5-4.1c0,0,5.7-23.3,2.5-49.7
						C1724.4,787.1,1733.9,788.7,1740.7,790.4z"/>
					<path class="st13" d="M1689.8,734.2l7.7-42.4c0,0,51.4,39.3,43.2,98.6c-6.7-1.7-16.3-3.3-24.3-1.8
						C1714,769.6,1707,748.9,1689.8,734.2z"/>
				</g>
				<g>
					<path class="st13" d="M1595.8,726.5l19.8,42.7c-3.2,25.8-17.1,37-32,41.2c-0.9-11.8-3.9-21.3-6.7-27.8
						C1596,763,1595.8,726.5,1595.8,726.5z"/>
					
						<linearGradient id="SVGID_5_" gradientUnits="userSpaceOnUse" x1="-2736.6018" y1="798.8183" x2="-2686.175" y2="798.8183" gradientTransform="matrix(-1 0 0 1 -1152.9888 0)">
						<stop  offset="0" style="stop-color:#A22B25"/>
						<stop  offset="1" style="stop-color:#C0423C"/>
					</linearGradient>
					<path class="st18" d="M1576.9,782.7c2.8,6.6,5.7,16.1,6.7,27.8c-39.9,15.5-50.4-14.5-50.4-14.5l7.4-1.3
						C1557.2,796.4,1568.8,791.1,1576.9,782.7z"/>
				</g>
				
					<linearGradient id="SVGID_6_" gradientUnits="userSpaceOnUse" x1="-2785.6177" y1="664.0602" x2="-2786.1685" y2="758.2281" gradientTransform="matrix(-1 0 0 1 -1152.9888 0)">
					<stop  offset="0" style="stop-color:#A22B25"/>
					<stop  offset="1" style="stop-color:#C0423C"/>
				</linearGradient>
				<path class="st19" d="M1614.1,673.8l9.6,35.2c1.1,4,5.4,6.1,9.2,4.6c4.1-1.6,9.3-3.9,13.8-6.3c4.8-2.6,6.3-8.7,3.3-13.3
					l-19.9-29.7L1614.1,673.8z"/>
			</g>
			<g>
				
					<linearGradient id="SVGID_7_" gradientUnits="userSpaceOnUse" x1="-3046.8535" y1="1811.9479" x2="-3093.2073" y2="1873.2701" gradientTransform="matrix(-0.9897 -0.1428 -0.1428 0.9897 -1154.6526 -1579.7996)">
					<stop  offset="0" style="stop-color:#A22B25"/>
					<stop  offset="1" style="stop-color:#C0423C"/>
				</linearGradient>
				<path class="st20" d="M1593.1,647c-0.1,0.6,8,40.2,8,40.2l22.5-5.1l-2.1-38.7C1621.5,643.5,1594.6,636.9,1593.1,647z"/>
				<path class="st5" d="M1616.5,652.1l2.7,20.3c0,0.3,0,0.5,0,0.8c-0.2,1.6-1.4,7-6.9,5.4c-5-1.4-9.5-2.6-12.6-1.7
					c-1.4,0.4-2.3,1.9-2,3.3c0.7,3.6,2.5,11.7,5.2,18.4c0.5,1.4,2,2.1,3.5,1.7c4.3-1.2,13.2-4.1,19.8-8.1c0.9-0.5,1.4-1.5,1.4-2.6
					c-0.2-5.1-0.8-20.7-0.3-25c0.5-4.1,5.5-6.5,7.7-7.4c0.7-0.3,1.3-0.9,1.6-1.6c1-2.5,2.4-8.4-5-10.8c-1.5-0.5-2.4-2.2-1.8-3.7
					c1.1-3,1.6-7.7-4.2-10.2c-5.8-2.6-10.1,0.5-12.5,3c-0.9,1-2.5,1.2-3.6,0.4c-0.7-0.4-1.5-0.6-2.6,0.1c-1.4,0.9-3.3,0.3-4-1.2
					c-1.4-2.9-4.2-5.9-9.9-4.9c-10.1,1.7-11.2,12.9-8.6,19.5c2.7,6.5,13.5,4.1,18.9,0.8c4.1-2.5,9.5,0.1,11.8,1.5
					C1615.9,650.5,1616.3,651.2,1616.5,652.1z"/>
				
					<linearGradient id="SVGID_8_" gradientUnits="userSpaceOnUse" x1="-3114.7437" y1="1860.5103" x2="-3077.5642" y2="1822.3651" gradientTransform="matrix(-0.9897 -0.1428 -0.1428 0.9897 -1154.6526 -1579.7996)">
					<stop  offset="0" style="stop-color:#A22B25"/>
					<stop  offset="1" style="stop-color:#C0423C"/>
				</linearGradient>
				<path class="st21" d="M1628.1,672c0,0-4.1-11.6,0.1-14.5c4.3-2.8,10.6-1.4,9.2,7C1635.7,675.1,1628.1,672,1628.1,672z"/>
			</g>
			
				<linearGradient id="SVGID_9_" gradientUnits="userSpaceOnUse" x1="-2691.5325" y1="792.8961" x2="-2673.4744" y2="792.8961" gradientTransform="matrix(-1 0 0 1 -1152.9888 0)">
				<stop  offset="0" style="stop-color:#FF928E"/>
				<stop  offset="1" style="stop-color:#FEB3B1"/>
			</linearGradient>
			<path class="st22" d="M1536.1,801.5c-2,1.6-8.9-1.7-13.1-4c-2.1-1.1-3-3.5-2.3-5.7c1-3.2,2.7-7.3,4.8-7.8
				C1528.9,783.1,1544.4,795,1536.1,801.5z"/>
			<g>
				<g>
					<path class="st5" d="M1874.7,898.5l-525.1-186.8l-27.8,77.2l524.9,192c11.1,4.1,23.6-0.4,29.6-10.7c6.1-10.5,12-27,12.4-51.7
						C1888.8,909.5,1883.2,901.5,1874.7,898.5z"/>
					<g>
						<path class="st5" d="M1187.2,691.8l72.5,8.9c-0.1,10-3.3,22.9-14.4,37.7l-60.6-40C1181.5,696.3,1183.3,691.3,1187.2,691.8z"/>
						<linearGradient id="SVGID_10_" gradientUnits="userSpaceOnUse" x1="1309.5356" y1="546.4951" x2="1304.2024" y2="628.4951">
							<stop  offset="0" style="stop-color:#FF928E"/>
							<stop  offset="1" style="stop-color:#FEB3B1"/>
						</linearGradient>
						<path class="st23" d="M1349.6,711.7c3.3,48.4-27.8,77.2-27.8,77.2l-76.5-50.5c11.1-14.8,14.3-27.7,14.4-37.7L1349.6,711.7z"/>
					</g>
				</g>
				<path class="st4" d="M1868.2,922.1c0.6,0,1.2-0.4,1.5-1c0.3-0.8-0.1-1.7-0.9-2l-502.4-177.5c-0.8-0.3-1.7,0.1-2,0.9
					c-0.3,0.8,0.1,1.7,0.9,2L1867.7,922C1867.9,922.1,1868,922.1,1868.2,922.1z"/>
				<path class="st4" d="M1859.6,952.4c0.6,0,1.2-0.4,1.5-1c0.3-0.8-0.1-1.7-0.9-2l-502.4-177.6c-0.8-0.3-1.7,0.1-2,0.9
					c-0.3,0.8,0.1,1.7,0.9,2L1859,952.3C1859.2,952.4,1859.4,952.4,1859.6,952.4z"/>
			</g>
			
				<linearGradient id="SVGID_11_" gradientUnits="userSpaceOnUse" x1="-2831.3484" y1="822.0097" x2="-2895.3789" y2="878.7101" gradientTransform="matrix(-1 0 0 1 -1152.9888 0)">
				<stop  offset="0" style="stop-color:#A22B25"/>
				<stop  offset="1" style="stop-color:#C0423C"/>
			</linearGradient>
			<path class="st24" d="M1715.9,837.6l-23.2-1.9l-10.1,9.3c0,0,2.4,3.3,9.8,1.4c7.4-1.9,17.6-2.4,17.6-2.4s10.3,4.6,10.4-4
				L1715.9,837.6z"/>
		</g>
		<path class="st2" d="M1168.4,698.7h-10c-1.1,0-2-0.9-2-2c0-1.1,0.9-2,2-2h10c1.1,0,2,0.9,2,2
			C1170.4,697.8,1169.6,698.7,1168.4,698.7z M1148.4,698.7h-10c-1.1,0-2-0.9-2-2c0-1.1,0.9-2,2-2h10c1.1,0,2,0.9,2,2
			C1150.4,697.8,1149.6,698.7,1148.4,698.7z M1128.4,698.7h-10c-1.1,0-2-0.9-2-2c0-1.1,0.9-2,2-2h10c1.1,0,2,0.9,2,2
			C1130.4,697.8,1129.6,698.7,1128.4,698.7z M1108.4,698.7h-10c-1.1,0-2-0.9-2-2c0-1.1,0.9-2,2-2h10c1.1,0,2,0.9,2,2
			C1110.4,697.8,1109.6,698.7,1108.4,698.7z M1088.4,698.7h-10c-1.1,0-2-0.9-2-2c0-1.1,0.9-2,2-2h10c1.1,0,2,0.9,2,2
			C1090.4,697.8,1089.6,698.7,1088.4,698.7z M1068.4,698.7h-10c-1.1,0-2-0.9-2-2c0-1.1,0.9-2,2-2h10c1.1,0,2,0.9,2,2
			C1070.4,697.8,1069.6,698.7,1068.4,698.7z M1048.4,698.7h-10c-1.1,0-2-0.9-2-2c0-1.1,0.9-2,2-2h10c1.1,0,2,0.9,2,2
			C1050.4,697.8,1049.6,698.7,1048.4,698.7z M1028.4,698.7h-10c-1.1,0-2-0.9-2-2c0-1.1,0.9-2,2-2h10c1.1,0,2,0.9,2,2
			C1030.4,697.8,1029.6,698.7,1028.4,698.7z M1008.4,698.7h-10c-1.1,0-2-0.9-2-2c0-1.1,0.9-2,2-2h10c1.1,0,2,0.9,2,2
			C1010.4,697.8,1009.6,698.7,1008.4,698.7z M988.4,698.7h-10c-1.1,0-2-0.9-2-2c0-1.1,0.9-2,2-2h10c1.1,0,2,0.9,2,2
			C990.4,697.8,989.6,698.7,988.4,698.7z M968.4,698.7h-10c-1.1,0-2-0.9-2-2c0-1.1,0.9-2,2-2h10c1.1,0,2,0.9,2,2
			C970.4,697.8,969.6,698.7,968.4,698.7z M948.4,698.7h-10c-1.1,0-2-0.9-2-2c0-1.1,0.9-2,2-2h10c1.1,0,2,0.9,2,2
			C950.4,697.8,949.6,698.7,948.4,698.7z M928.4,698.7h-10c-1.1,0-2-0.9-2-2c0-1.1,0.9-2,2-2h10c1.1,0,2,0.9,2,2
			C930.4,697.8,929.6,698.7,928.4,698.7z M908.4,698.7h-10c-1.1,0-2-0.9-2-2c0-1.1,0.9-2,2-2h10c1.1,0,2,0.9,2,2
			C910.4,697.8,909.6,698.7,908.4,698.7z M888.4,698.7h-10c-1.1,0-2-0.9-2-2c0-1.1,0.9-2,2-2h10c1.1,0,2,0.9,2,2
			C890.4,697.8,889.6,698.7,888.4,698.7z M868.4,698.7h-10c-1.1,0-2-0.9-2-2c0-1.1,0.9-2,2-2h10c1.1,0,2,0.9,2,2
			C870.4,697.8,869.6,698.7,868.4,698.7z M848.4,698.7h-10c-1.1,0-2-0.9-2-2c0-1.1,0.9-2,2-2h10c1.1,0,2,0.9,2,2
			C850.4,697.8,849.6,698.7,848.4,698.7z M828.4,698.7h-10c-1.1,0-2-0.9-2-2c0-1.1,0.9-2,2-2h10c1.1,0,2,0.9,2,2
			C830.4,697.8,829.6,698.7,828.4,698.7z M808.4,698.7h-10c-1.1,0-2-0.9-2-2c0-1.1,0.9-2,2-2h10c1.1,0,2,0.9,2,2
			C810.4,697.8,809.6,698.7,808.4,698.7z M788.4,698.7h-10c-1.1,0-2-0.9-2-2c0-1.1,0.9-2,2-2h10c1.1,0,2,0.9,2,2
			C790.4,697.8,789.6,698.7,788.4,698.7z M768.4,698.7h-10c-1.1,0-2-0.9-2-2c0-1.1,0.9-2,2-2h10c1.1,0,2,0.9,2,2
			C770.4,697.8,769.6,698.7,768.4,698.7z M1175,695.2C1175,695.2,1175,695.2,1175,695.2c-1.1,0-2-0.9-2-2l0.2-10c0-1.1,0.9-2,2-2
			c0,0,0,0,0,0c1.1,0,2,0.9,2,2l-0.2,10C1177,694.4,1176.1,695.2,1175,695.2z M1175.4,675.2C1175.4,675.2,1175.4,675.2,1175.4,675.2
			c-1.1,0-2-0.9-2-2l0.2-10c0-1.1,0.9-2,2-2c0,0,0,0,0,0c1.1,0,2,0.9,2,2l-0.2,10C1177.4,674.4,1176.5,675.2,1175.4,675.2z
			 M1175.8,655.2C1175.8,655.2,1175.8,655.2,1175.8,655.2c-1.1,0-2-0.9-2-2l0.2-10c0-1.1,0.9-2,2-2c1.1,0,2,0.9,2,2l-0.2,10
			C1177.8,654.4,1176.9,655.2,1175.8,655.2z M1176.2,635.2C1176.2,635.2,1176.2,635.2,1176.2,635.2c-1.1,0-2-0.9-2-2l0.2-10
			c0-1.1,1-2,2-2c1.1,0,2,0.9,2,2l-0.2,10C1178.2,634.4,1177.3,635.2,1176.2,635.2z M1176.6,615.2
			C1176.6,615.2,1176.5,615.2,1176.6,615.2c-1.1,0-2-0.9-2-2l0.2-10c0-1.1,0.9-2,2-2c0,0,0,0,0,0c1.1,0,2,0.9,2,2l-0.2,10
			C1178.6,614.4,1177.7,615.2,1176.6,615.2z M2026.1,608.1c-1.1,0-2-0.9-2-2l-0.1-10c0-1.1,0.9-2,2-2c0,0,0,0,0,0c1.1,0,2,0.9,2,2
			l0.1,10C2028.1,607.2,2027.2,608.1,2026.1,608.1C2026.1,608.1,2026.1,608.1,2026.1,608.1z M1177,595.2
			C1176.9,595.2,1176.9,595.2,1177,595.2c-1.1,0-2-0.9-2-2l0.2-10c0-1.1,1-2,2-2c1.1,0,2,0.9,2,2l-0.2,10
			C1178.9,594.4,1178,595.2,1177,595.2z M2025.9,588.1c-1.1,0-2-0.9-2-2l-0.1-10c0-1.1,0.9-2,2-2c1.1,0,2,0.9,2,2l0.1,10
			C2027.9,587.2,2027,588.1,2025.9,588.1C2025.9,588.1,2025.9,588.1,2025.9,588.1z M1177.3,575.2
			C1177.3,575.2,1177.3,575.2,1177.3,575.2c-1.1,0-2-0.9-2-2l0.2-10c0-1.1,0.9-2,2-2c0,0,0,0,0,0c1.1,0,2,0.9,2,2l-0.2,10
			C1179.3,574.4,1178.4,575.2,1177.3,575.2z M2025.8,568.1c-1.1,0-2-0.9-2-2l-0.1-10c0-1.1,0.9-2,2-2h0c1.1,0,2,0.9,2,2l0.1,10
			C2027.8,567.2,2026.9,568.1,2025.8,568.1L2025.8,568.1z M1177.7,555.3C1177.7,555.3,1177.7,555.3,1177.7,555.3c-1.1,0-2-0.9-2-2
			l0.2-10c0-1.1,0.9-2,2-2c0,0,0,0,0,0c1.1,0,2,0.9,2,2l-0.2,10C1179.7,554.4,1178.8,555.3,1177.7,555.3z M2025.6,548.1
			c-1.1,0-2-0.9-2-2l-0.1-10c0-1.1,0.9-2,2-2h0c1.1,0,2,0.9,2,2l0.1,10C2027.6,547.2,2026.7,548.1,2025.6,548.1L2025.6,548.1z
			 M1178.1,535.3C1178.1,535.3,1178.1,535.3,1178.1,535.3c-1.1,0-2-0.9-2-2l0.2-10c0-1.1,0.9-2,2-2c0,0,0,0,0,0c1.1,0,2,0.9,2,2
			l-0.2,10C1180.1,534.4,1179.2,535.3,1178.1,535.3z M2025.5,528.1c-1.1,0-2-0.9-2-2l-0.1-10c0-1.1,0.9-2,2-2c1.1,0,2,0.9,2,2
			l0.1,10C2027.5,527.2,2026.6,528.1,2025.5,528.1L2025.5,528.1z M1178.5,515.3C1178.5,515.3,1178.5,515.3,1178.5,515.3
			c-1.1,0-2-0.9-2-2l0.2-10c0-1.1,1-2,2-2c1.1,0,2,0.9,2,2l-0.2,10C1180.5,514.4,1179.6,515.3,1178.5,515.3z M2025.3,508.1
			c-1.1,0-2-0.9-2-2l-0.1-10c0-1.1,0.9-2,2-2h0c1.1,0,2,0.9,2,2l0.1,10C2027.3,507.2,2026.4,508.1,2025.3,508.1L2025.3,508.1z
			 M1178.9,495.3C1178.9,495.3,1178.8,495.3,1178.9,495.3c-1.1,0-2-0.9-2-2l0.2-10c0-1.1,1-2,2-2c1.1,0,2,0.9,2,2l-0.2,10
			C1180.9,494.4,1180,495.3,1178.9,495.3z M2025.2,488.1c-1.1,0-2-0.9-2-2l-0.1-10c0-1.1,0.9-2,2-2h0c1.1,0,2,0.9,2,2l0.1,10
			C2027.2,487.2,2026.3,488.1,2025.2,488.1L2025.2,488.1z M1179.3,475.3C1179.2,475.3,1179.2,475.3,1179.3,475.3c-1.1,0-2-0.9-2-2
			l0.2-10c0-1.1,0.9-2,2-2c0,0,0,0,0,0c1.1,0,2,0.9,2,2l-0.2,10C1181.2,474.4,1180.3,475.3,1179.3,475.3z M2025,468.1
			c-1.1,0-2-0.9-2-2l-0.1-10c0-1.1,0.9-2,2-2h0c1.1,0,2,0.9,2,2l0.1,10C2027,467.2,2026.1,468.1,2025,468.1L2025,468.1z
			 M1179.6,455.3C1179.6,455.3,1179.6,455.3,1179.6,455.3c-1.1,0-2-0.9-2-2l0.2-10c0-1.1,0.9-2,2-2c0,0,0,0,0,0c1.1,0,2,0.9,2,2
			l-0.2,10C1181.6,454.4,1180.7,455.3,1179.6,455.3z M2024.9,448.1c-1.1,0-2-0.9-2-2l-0.1-10c0-1.1,0.9-2,2-2c0,0,0,0,0,0
			c1.1,0,2,0.9,2,2l0.1,10C2026.9,447.2,2026,448.1,2024.9,448.1C2024.9,448.1,2024.9,448.1,2024.9,448.1z M1180,435.3
			C1180,435.3,1180,435.3,1180,435.3c-1.1,0-2-0.9-2-2l0.2-10c0-1.1,1-2,2-2c1.1,0,2,0.9,2,2l-0.2,10
			C1182,434.4,1181.1,435.3,1180,435.3z M2024.7,428.1c-1.1,0-2-0.9-2-2l-0.1-10c0-1.1,0.9-2,2-2c0,0,0,0,0,0c1.1,0,2,0.9,2,2
			l0.1,10C2026.7,427.2,2025.8,428.1,2024.7,428.1C2024.7,428.1,2024.7,428.1,2024.7,428.1z M1180.4,415.3
			C1180.4,415.3,1180.4,415.3,1180.4,415.3c-1.1,0-2-0.9-2-2l0.2-10c0-1.1,0.9-2,2-2c0,0,0,0,0,0c1.1,0,2,0.9,2,2l-0.2,10
			C1182.4,414.4,1181.5,415.3,1180.4,415.3z M2024.6,408.1c-1.1,0-2-0.9-2-2l-0.1-10c0-1.1,0.9-2,2-2c1.1,0,2,0.9,2,2l0.1,10
			C2026.6,407.2,2025.7,408.1,2024.6,408.1C2024.6,408.1,2024.6,408.1,2024.6,408.1z M1180.8,395.3
			C1180.8,395.3,1180.8,395.3,1180.8,395.3c-1.1,0-2-0.9-2-2l0.2-10c0-1.1,0.9-2,2-2c0,0,0,0,0,0c1.1,0,2,0.9,2,2l-0.2,10
			C1182.8,394.4,1181.9,395.3,1180.8,395.3z M2024.4,388.1c-1.1,0-2-0.9-2-2l-0.1-10c0-1.1,0.9-2,2-2c0,0,0,0,0,0c1.1,0,2,0.9,2,2
			l0.1,10C2026.4,387.2,2025.5,388.1,2024.4,388.1C2024.4,388.1,2024.4,388.1,2024.4,388.1z M1181.2,375.3
			C1181.2,375.3,1181.2,375.3,1181.2,375.3c-1.1,0-2-0.9-2-2l0.2-10c0-1.1,0.9-2,2-2c0,0,0,0,0,0c1.1,0,2,0.9,2,2l-0.2,10
			C1183.2,374.4,1182.3,375.3,1181.2,375.3z M2024.3,368.1c-1.1,0-2-0.9-2-2l-0.1-10c0-1.1,0.9-2,2-2c0,0,0,0,0,0c1.1,0,2,0.9,2,2
			l0.1,10C2026.3,367.2,2025.4,368.1,2024.3,368.1C2024.3,368.1,2024.3,368.1,2024.3,368.1z M1181.6,355.3
			C1181.5,355.3,1181.5,355.3,1181.6,355.3c-1.1,0-2-0.9-2-2l0.2-10c0-1.1,0.9-2,2-2c0,0,0,0,0,0c1.1,0,2,0.9,2,2l-0.2,10
			C1183.5,354.4,1182.6,355.3,1181.6,355.3z M2024.1,348.1c-1.1,0-2-0.9-2-2l-0.1-10c0-1.1,0.9-2,2-2c0,0,0,0,0,0c1.1,0,2,0.9,2,2
			l0.1,10C2026.1,347.2,2025.2,348.1,2024.1,348.1C2024.1,348.1,2024.1,348.1,2024.1,348.1z M1181.9,335.3
			C1181.9,335.3,1181.9,335.3,1181.9,335.3c-1.1,0-2-0.9-2-2l0.2-10c0-1.1,0.9-2,2-2c0,0,0,0,0,0c1.1,0,2,0.9,2,2l-0.2,10
			C1183.9,334.4,1183,335.3,1181.9,335.3z M2023.9,328.1c-1.1,0-2-0.9-2-2l-0.1-10c0-1.1,0.9-2,2-2c1.1,0,2,0.9,2,2l0.1,10
			C2026,327.2,2025.1,328.1,2023.9,328.1L2023.9,328.1z M1182.3,315.3C1182.3,315.3,1182.3,315.3,1182.3,315.3c-1.1,0-2-0.9-2-2
			l0.2-10c0-1.1,1-2,2-2c1.1,0,2,0.9,2,2l-0.2,10C1184.3,314.4,1183.4,315.3,1182.3,315.3z M2023.8,308.1c-1.1,0-2-0.9-2-2l-0.1-10
			c0-1.1,0.9-2,2-2h0c1.1,0,2,0.9,2,2l0.1,10C2025.8,307.2,2024.9,308.1,2023.8,308.1L2023.8,308.1z M1182.7,295.3
			C1182.7,295.3,1182.7,295.3,1182.7,295.3c-1.1,0-2-0.9-2-2l0.2-10c0-1.1,0.9-2,2-2c0,0,0,0,0,0c1.1,0,2,0.9,2,2l-0.2,10
			C1184.7,294.4,1183.8,295.3,1182.7,295.3z M2023.6,288.1c-1.1,0-2-0.9-2-2l-0.1-10c0-1.1,0.9-2,2-2h0c1.1,0,2,0.9,2,2l0.1,10
			C2025.7,287.2,2024.8,288.1,2023.6,288.1L2023.6,288.1z M2014.7,276.9h-10c-1.1,0-2-0.9-2-2c0-1.1,0.9-2,2-2h10c1.1,0,2,0.9,2,2
			C2016.7,276,2015.8,276.9,2014.7,276.9z M1994.7,276.9h-10c-1.1,0-2-0.9-2-2c0-1.1,0.9-2,2-2h10c1.1,0,2,0.9,2,2
			C1996.7,276,1995.8,276.9,1994.7,276.9z M1974.7,276.9h-10c-1.1,0-2-0.9-2-2c0-1.1,0.9-2,2-2h10c1.1,0,2,0.9,2,2
			C1976.7,276,1975.8,276.9,1974.7,276.9z M1954.7,276.9h-10c-1.1,0-2-0.9-2-2c0-1.1,0.9-2,2-2h10c1.1,0,2,0.9,2,2
			C1956.7,276,1955.8,276.9,1954.7,276.9z M1934.7,276.9h-10c-1.1,0-2-0.9-2-2c0-1.1,0.9-2,2-2h10c1.1,0,2,0.9,2,2
			C1936.7,276,1935.8,276.9,1934.7,276.9z M1914.7,276.9h-10c-1.1,0-2-0.9-2-2c0-1.1,0.9-2,2-2h10c1.1,0,2,0.9,2,2
			C1916.7,276,1915.8,276.9,1914.7,276.9z M1894.7,276.9h-10c-1.1,0-2-0.9-2-2c0-1.1,0.9-2,2-2h10c1.1,0,2,0.9,2,2
			C1896.7,276,1895.8,276.9,1894.7,276.9z M1874.7,276.9h-10c-1.1,0-2-0.9-2-2c0-1.1,0.9-2,2-2h10c1.1,0,2,0.9,2,2
			C1876.7,276,1875.8,276.9,1874.7,276.9z M1854.7,276.9h-10c-1.1,0-2-0.9-2-2c0-1.1,0.9-2,2-2h10c1.1,0,2,0.9,2,2
			C1856.7,276,1855.8,276.9,1854.7,276.9z M1834.7,276.9h-10c-1.1,0-2-0.9-2-2c0-1.1,0.9-2,2-2h10c1.1,0,2,0.9,2,2
			C1836.7,276,1835.8,276.9,1834.7,276.9z M1814.7,276.9h-10c-1.1,0-2-0.9-2-2c0-1.1,0.9-2,2-2h10c1.1,0,2,0.9,2,2
			C1816.7,276,1815.8,276.9,1814.7,276.9z M1794.7,276.9h-10c-1.1,0-2-0.9-2-2c0-1.1,0.9-2,2-2h10c1.1,0,2,0.9,2,2
			C1796.7,276,1795.8,276.9,1794.7,276.9z M1774.7,276.9h-10c-1.1,0-2-0.9-2-2c0-1.1,0.9-2,2-2h10c1.1,0,2,0.9,2,2
			C1776.7,276,1775.8,276.9,1774.7,276.9z M1754.7,276.9h-10c-1.1,0-2-0.9-2-2c0-1.1,0.9-2,2-2h10c1.1,0,2,0.9,2,2
			C1756.7,276,1755.8,276.9,1754.7,276.9z M1734.7,276.9h-10c-1.1,0-2-0.9-2-2c0-1.1,0.9-2,2-2h10c1.1,0,2,0.9,2,2
			C1736.7,276,1735.8,276.9,1734.7,276.9z M1714.7,276.9h-10c-1.1,0-2-0.9-2-2c0-1.1,0.9-2,2-2h10c1.1,0,2,0.9,2,2
			C1716.7,276,1715.8,276.9,1714.7,276.9z M1694.7,276.9h-10c-1.1,0-2-0.9-2-2c0-1.1,0.9-2,2-2h10c1.1,0,2,0.9,2,2
			C1696.7,276,1695.8,276.9,1694.7,276.9z M1674.7,276.9h-10c-1.1,0-2-0.9-2-2c0-1.1,0.9-2,2-2h10c1.1,0,2,0.9,2,2
			C1676.7,276,1675.8,276.9,1674.7,276.9z M1654.7,276.9h-10c-1.1,0-2-0.9-2-2c0-1.1,0.9-2,2-2h10c1.1,0,2,0.9,2,2
			C1656.7,276,1655.8,276.9,1654.7,276.9z M1634.7,276.9h-10c-1.1,0-2-0.9-2-2c0-1.1,0.9-2,2-2h10c1.1,0,2,0.9,2,2
			C1636.7,276,1635.8,276.9,1634.7,276.9z M1614.7,276.9h-10c-1.1,0-2-0.9-2-2c0-1.1,0.9-2,2-2h10c1.1,0,2,0.9,2,2
			C1616.7,276,1615.8,276.9,1614.7,276.9z M1594.7,276.9h-10c-1.1,0-2-0.9-2-2c0-1.1,0.9-2,2-2h10c1.1,0,2,0.9,2,2
			C1596.7,276,1595.8,276.9,1594.7,276.9z M1574.7,276.9h-10c-1.1,0-2-0.9-2-2c0-1.1,0.9-2,2-2h10c1.1,0,2,0.9,2,2
			C1576.7,276,1575.8,276.9,1574.7,276.9z M1554.7,276.9h-10c-1.1,0-2-0.9-2-2c0-1.1,0.9-2,2-2h10c1.1,0,2,0.9,2,2
			C1556.7,276,1555.8,276.9,1554.7,276.9z M1534.7,276.9h-10c-1.1,0-2-0.9-2-2c0-1.1,0.9-2,2-2h10c1.1,0,2,0.9,2,2
			C1536.7,276,1535.8,276.9,1534.7,276.9z M1514.7,276.9h-10c-1.1,0-2-0.9-2-2c0-1.1,0.9-2,2-2h10c1.1,0,2,0.9,2,2
			C1516.7,276,1515.8,276.9,1514.7,276.9z M1494.7,276.9h-10c-1.1,0-2-0.9-2-2c0-1.1,0.9-2,2-2h10c1.1,0,2,0.9,2,2
			C1496.7,276,1495.8,276.9,1494.7,276.9z M1474.7,276.9h-10c-1.1,0-2-0.9-2-2c0-1.1,0.9-2,2-2h10c1.1,0,2,0.9,2,2
			C1476.7,276,1475.8,276.9,1474.7,276.9z M1454.7,276.9h-10c-1.1,0-2-0.9-2-2c0-1.1,0.9-2,2-2h10c1.1,0,2,0.9,2,2
			C1456.7,276,1455.8,276.9,1454.7,276.9z M1434.7,276.9h-10c-1.1,0-2-0.9-2-2c0-1.1,0.9-2,2-2h10c1.1,0,2,0.9,2,2
			C1436.7,276,1435.8,276.9,1434.7,276.9z M1414.7,276.9h-10c-1.1,0-2-0.9-2-2c0-1.1,0.9-2,2-2h10c1.1,0,2,0.9,2,2
			C1416.7,276,1415.8,276.9,1414.7,276.9z M1394.7,276.9h-10c-1.1,0-2-0.9-2-2c0-1.1,0.9-2,2-2h10c1.1,0,2,0.9,2,2
			C1396.7,276,1395.8,276.9,1394.7,276.9z M1374.7,276.9h-10c-1.1,0-2-0.9-2-2c0-1.1,0.9-2,2-2h10c1.1,0,2,0.9,2,2
			C1376.7,276,1375.8,276.9,1374.7,276.9z M1354.7,276.9h-10c-1.1,0-2-0.9-2-2c0-1.1,0.9-2,2-2h10c1.1,0,2,0.9,2,2
			C1356.7,276,1355.8,276.9,1354.7,276.9z M1334.7,276.9h-10c-1.1,0-2-0.9-2-2c0-1.1,0.9-2,2-2h10c1.1,0,2,0.9,2,2
			C1336.7,276,1335.8,276.9,1334.7,276.9z M1314.7,276.9h-10c-1.1,0-2-0.9-2-2c0-1.1,0.9-2,2-2h10c1.1,0,2,0.9,2,2
			C1316.7,276,1315.8,276.9,1314.7,276.9z M1294.7,276.9h-10c-1.1,0-2-0.9-2-2c0-1.1,0.9-2,2-2h10c1.1,0,2,0.9,2,2
			C1296.7,276,1295.8,276.9,1294.7,276.9z M1274.7,276.9h-10c-1.1,0-2-0.9-2-2c0-1.1,0.9-2,2-2h10c1.1,0,2,0.9,2,2
			C1276.7,276,1275.8,276.9,1274.7,276.9z M1254.7,276.9h-10c-1.1,0-2-0.9-2-2c0-1.1,0.9-2,2-2h10c1.1,0,2,0.9,2,2
			C1256.7,276,1255.8,276.9,1254.7,276.9z M1234.7,276.9h-10c-1.1,0-2-0.9-2-2c0-1.1,0.9-2,2-2h10c1.1,0,2,0.9,2,2
			C1236.7,276,1235.8,276.9,1234.7,276.9z M1214.7,276.9h-10c-1.1,0-2-0.9-2-2c0-1.1,0.9-2,2-2h10c1.1,0,2,0.9,2,2
			C1216.7,276,1215.8,276.9,1214.7,276.9z M1194.7,276.9h-10c-1.1,0-2-0.9-2-2c0-1.1,0.9-2,2-2h10c1.1,0,2,0.9,2,2
			C1196.7,276,1195.8,276.9,1194.7,276.9z"/>
		<g>
			<g>
				<path class="st2" d="M745.7,663.4H634.1c-6.4,0-11.7-5.1-11.8-11.6l-10.1-490c-0.1-7,5.7-12.5,12.7-12l121.7,8.8
					c6.2,0.4,11,5.6,11,11.8v481.2C757.5,658.1,752.2,663.4,745.7,663.4z"/>
				<g>
					<path class="st1" d="M639.6,349.6l2.4,58c0.2,5.5,4.7,9.8,10.1,9.9l78,1.1c5.7,0.1,10.4-4.6,10.4-10.3v-58
						c0-5.6-4.5-10.2-10.2-10.3l-80.4-1.1C644.2,338.7,639.4,343.6,639.6,349.6z"/>
					<path class="st0" d="M730.5,427.4l-76.8-1.1c-5.9-0.1-10.7,4.8-10.4,10.7l2.4,58c0.2,5.5,4.7,9.8,10.1,9.9l74.3,1
						c5.7,0.1,10.4-4.6,10.4-10.3v-58C740.6,432.1,736.1,427.5,730.5,427.4z"/>
					<path class="st4" d="M740.6,233.4v-43.7c0-5.2-3.8-9.5-9-10.2l-87.5-11.4c-6.3-0.8-11.9,4.3-11.6,10.6l2.2,53.9
						c0.2,5.5,4.7,9.8,10.1,9.9l85.3,1.2C735.9,243.8,740.6,239.1,740.6,233.4z"/>
					<path class="st3" d="M636,262.1l2.4,58c0.2,5.5,4.7,9.8,10.1,9.9l81.6,1.1c5.7,0.1,10.4-4.6,10.4-10.3v-58
						c0-5.6-4.5-10.2-10.2-10.3l-84.1-1.2C640.5,251.3,635.7,256.2,636,262.1z"/>
					<path class="st0" d="M646.9,524.5l1.8,42.2c0.2,5.5,4.8,9.9,10.3,9.9h71.4c5.7,0,10.3-4.6,10.3-10.3v-41.2
						c0-5.6-4.5-10.2-10.2-10.3l-73.1-1C651.5,513.7,646.7,518.6,646.9,524.5z"/>
				</g>
			</g>
			<g>
				<path class="st2" d="M753.9,657l-104.2,40.2c-6,2.3-12.7-0.6-15.2-6.5l-186-453.5c-2.6-6.4,0.8-13.7,7.5-15.8l116.7-35.7
					c5.9-1.8,12.2,1.3,14.5,7l173.4,448.9C763,647.8,760,654.6,753.9,657z"/>
				<g class="st25">
					<path class="st13" d="M541.8,402.4l23.2,53.3c2.2,5,7.9,7.4,13,5.6l73.1-27.1c5.4-2,8.1-8,6-13.4l-20.9-54.1
						c-2-5.3-7.9-7.9-13.2-5.9l-75.4,27.9C542.2,390.7,539.5,397,541.8,402.4z"/>
					<path class="st13" d="M654.6,442.3l-72,26.7c-5.5,2.1-8.2,8.3-5.9,13.8l23.2,53.3c2.2,5,7.9,7.4,13,5.6l69.7-25.8
						c5.4-2,8.1-8,6-13.4l-20.9-54.1C665.8,443,659.9,440.3,654.6,442.3z"/>
					<path class="st13" d="M594.2,257.7l-15.7-40.7c-1.9-4.8-7-7.5-12.1-6.3l-85.8,20.9c-6.2,1.5-9.6,8.3-7,14.1l21.5,49.4
						c2.2,5,7.9,7.4,13,5.6l80-29.6C593.6,269,596.3,263,594.2,257.7z"/>
					<path class="st13" d="M506.9,322.1l23.2,53.3c2.2,5,7.9,7.4,13,5.6l76.6-28.4c5.4-2,8.1-8,6-13.4l-20.9-54.1
						c-2-5.3-7.9-7.9-13.2-5.9l-78.8,29.2C507.2,310.4,504.5,316.7,506.9,322.1z"/>
					<path class="st13" d="M611.7,563l16.9,38.8c2.2,5.1,8,7.5,13.2,5.5l66.6-25.7c5.3-2.1,7.9-8,5.9-13.3l-14.9-38.4
						c-2-5.3-7.9-7.9-13.2-5.9l-68.6,25.4C612,551.3,609.3,557.6,611.7,563z"/>
				</g>
			</g>
			<g>
				<path class="st2" d="M760.4,645.4l-71.4,85.9c-4.1,4.9-11.4,5.7-16.4,1.7L289.3,427.6c-5.4-4.3-6-12.4-1.2-17.4l84.5-88
					c4.3-4.5,11.3-4.9,16.1-0.9l370.2,307.5C763.9,632.9,764.6,640.4,760.4,645.4z"/>
				<g>
					<path class="st6" d="M451.2,526.4l46.2,35.2c4.3,3.3,10.5,2.7,14.1-1.5l50.7-59.3c3.7-4.4,3.2-10.9-1.2-14.6l-44.6-37.1
						c-4.3-3.6-10.8-3.1-14.4,1.2l-52.2,61.1C445.8,516.1,446.5,522.9,451.2,526.4z"/>
					<path class="st6" d="M569.1,506.3l-49.9,58.4c-3.8,4.5-3.1,11.3,1.6,14.9l46.2,35.2c4.3,3.3,10.5,2.7,14.1-1.5l48.3-56.5
						c3.7-4.4,3.2-10.9-1.2-14.6l-44.6-37.1C579.2,501.5,572.8,502,569.1,506.3z"/>
					<path class="st6" d="M426.4,374.5l-33.6-27.9c-4-3.3-9.8-3.1-13.6,0.4L314.5,407c-4.7,4.3-4.3,11.9,0.8,15.7l42.9,32.7
						c4.3,3.3,10.5,2.7,14.1-1.5l55.4-64.8C431.4,384.8,430.8,378.2,426.4,374.5z"/>
					<path class="st6" d="M381.6,473.3l46.2,35.2c4.3,3.3,10.5,2.7,14.1-1.5l53-62.1c3.7-4.4,3.2-10.9-1.2-14.6L449,393.3
						c-4.3-3.6-10.8-3.1-14.4,1.2L380,458.5C376.1,463,376.9,469.8,381.6,473.3z"/>
					<path class="st6" d="M590.5,632.6l33.6,25.6c4.4,3.3,10.6,2.6,14.2-1.6l45.6-54.9c3.6-4.4,3-10.9-1.3-14.5l-31.7-26.3
						c-4.3-3.6-10.8-3.1-14.4,1.2l-47.5,55.6C585,622.2,585.8,629,590.5,632.6z"/>
				</g>
			</g>
		</g>
		<g>
			<g>
				<path class="st4" d="M487.5,684.8l277.2-2.5c5.4,0,9.9,4.4,9.8,9.8l-1.2,212.7c0,5.5-4.6,9.8-10,9.7
					c-50.1-1.5-272.7-8.1-282.5-7.7c-9.7,0.4-4.4-170.5-3-212.6C478,689,482.3,684.9,487.5,684.8z"/>
				<path class="st0" d="M763.6,906.4L763.6,906.4c-39.9-1.2-240.6-7.1-277.3-7.7l-0.4,0l-0.1-0.4c-3.5-19.6-3.4-99.6,0.2-203.8
					c0-0.9,0.7-1.6,1.6-1.6l277.2-2.5c0.6,0,0.9,0.3,1.2,0.5c0.3,0.3,0.5,0.7,0.5,1.2l-1.2,212.7
					C765.2,905.7,764.5,906.4,763.6,906.4z M486.7,897.8c37.8,0.6,237.2,6.5,276.9,7.7l0,0c0.3,0,0.6-0.3,0.6-0.6l1.2-212.7
					c0-0.2-0.1-0.3-0.2-0.4c-0.1-0.1-0.3-0.2-0.5-0.2L487.5,694c-0.3,0-0.6,0.3-0.6,0.6C483.4,798,483.3,877.6,486.7,897.8z"/>
			</g>
			<path class="st5" d="M459.7,1432.2c14.4,0.7,28.4,0.2,37.7-0.2c-8.5-6-28-19.2-44.4-24.4l-11.2-0.7c0,0-3.8,5.8-5.2,19
				C438.5,1428.2,444,1431.4,459.7,1432.2z"/>
			<path class="st13" d="M497.5,1432c0,0-0.1-0.1-0.1-0.1c-9.3,0.5-23.3,0.9-37.7,0.2c-15.8-0.7-21.2-4-23.1-6.3
				c-0.1,0.6-0.1,1.2-0.2,1.9c-0.2,2.9,1.9,5.5,4.8,5.7c11.8,0.9,41.1,2.9,55.2,2.2C498.3,1435.5,499,1433.1,497.5,1432z"/>
			<path class="st5" d="M356.7,1428.3c-1.1-6.8-2.7-16.5-4.1-19c-2.1-3.9-9.1,0-9.1,0s-4.9,2.3-7.2,6.1c-1.4,2.4-5.4,9.4-8.2,14.1
				c-0.3,0.5-0.4,1.1-0.4,1.7l28.1,1C356.6,1431,356.9,1429.7,356.7,1428.3z"/>
			<path class="st13" d="M327.8,1431.2c0,1.6,1.3,3.1,3.1,3.1l20,0.6c2.1,0.1,3.9-1,5-2.7L327.8,1431.2z"/>
			<linearGradient id="SVGID_12_" gradientUnits="userSpaceOnUse" x1="340.0363" y1="1399.8588" x2="358.8332" y2="1399.8588">
				<stop  offset="0" style="stop-color:#FF928E"/>
				<stop  offset="1" style="stop-color:#FEB3B1"/>
			</linearGradient>
			<path class="st26" d="M358.8,1386.8c-0.2,0.8-3.9,18.4-5.5,26.1c-0.4,2.1-2.4,3.6-4.5,3.5c-1.2-0.1-2.6-0.2-4-0.4
				c-2.6-0.3-4.5-2.5-4.6-5.1c-0.3-6.8-0.4-19.8,2.1-24.8C345.7,1379.3,358.8,1386.8,358.8,1386.8z"/>
			<linearGradient id="SVGID_13_" gradientUnits="userSpaceOnUse" x1="439.6155" y1="1398.6283" x2="455.2821" y2="1398.6283">
				<stop  offset="0" style="stop-color:#FF928E"/>
				<stop  offset="1" style="stop-color:#FEB3B1"/>
			</linearGradient>
			<path class="st27" d="M439.6,1391.8c1.6,0-0.6,8,1.7,16c0.5,1.8,1.9,3.2,3.7,3.2c1.2,0,2.6,0,4.1-0.1c2.2-0.2,4-1.9,4.2-4.1
				l1.9-20.6L439.6,1391.8z"/>
			<path class="st5" d="M483.2,1172.5c-0.7,3.4-25.2,146.5-26.7,220.6c0,1.2-0.9,2.3-2.2,2.5c-3.1,0.4-9.2,1-15.1-0.1
				c-0.8-0.1-1.4-0.8-1.5-1.6c-0.9-13.8-7.8-130.5,0.7-185.5c0,0-69.8,146.9-80.4,187.4c-0.3,1-1.2,1.6-2.2,1.6
				c-3-0.2-9.2-0.7-14.1-2.5c-1.8-0.7-2.8-2.5-2.3-4.3c5.9-24.2,47.3-191.2,75.4-228L483.2,1172.5z"/>
			<linearGradient id="SVGID_14_" gradientUnits="userSpaceOnUse" x1="478.5732" y1="1157.7704" x2="414.4522" y2="1240.6696">
				<stop  offset="0" style="stop-color:#020039"/>
				<stop  offset="1" style="stop-color:#090056"/>
			</linearGradient>
			<path class="st28" d="M438.5,1209.3c-0.2,0-0.5-0.1-0.6-0.3c-0.4-0.4-0.4-0.9,0-1.3l9.3-9.6c0.4-0.4,0.9-0.4,1.3,0
				c0.4,0.4,0.4,0.9,0,1.3l-9.3,9.6C438.9,1209.2,438.7,1209.3,438.5,1209.3z"/>
			<path class="st13" d="M569.6,993.2c-15.1,4.3-31.2,4.1-46.4,0.1c-20.4-5.4-60.7-14.2-88.1-9.3l-2.3,71.7l93.7,10.7l0.8-19
				c0,0,57-8.2,87.8-45.7c-7.5-8.2-13.5-17.3-17.2-23.3C590.7,984.6,581.4,989.9,569.6,993.2z"/>
			<linearGradient id="SVGID_15_" gradientUnits="userSpaceOnUse" x1="683.0146" y1="789.8013" x2="667.0146" y2="833.1346">
				<stop  offset="0" style="stop-color:#FF928E"/>
				<stop  offset="1" style="stop-color:#FEB3B1"/>
			</linearGradient>
			<path class="st29" d="M631.7,922.5l-7.2-3.2c0,0,0.4,36.1-26.5,59.1c3.7,6.1,9.7,15.2,17.2,23.3
				C630.3,983.3,639.2,957.7,631.7,922.5z"/>
			<linearGradient id="SVGID_16_" gradientUnits="userSpaceOnUse" x1="500.2552" y1="942.4916" x2="478.9219" y2="1019.8248">
				<stop  offset="0" style="stop-color:#FF928E"/>
				<stop  offset="1" style="stop-color:#FEB3B1"/>
			</linearGradient>
			<path class="st30" d="M480,944.2c0,0-5.4,32.5-6.2,42.7c0,0,26.3,7.3,33.1,3.4l-0.9-39.3L480,944.2z"/>
			<g>
				<path class="st4" d="M343.3,1041.4l189.8-1.6c5.3,0,9.6,4.3,9.6,9.6l-1,127.9c0,5.3-4.5,9.6-9.8,9.4l-187.3-6.9
					c-5.1-0.2-9.2-4.3-9.2-9.4l-1.5-119.5C333.8,1045.8,338,1041.5,343.3,1041.4z"/>
				<path class="st0" d="M532.2,1178.7l-187.4-6.9c-0.7,0-1.3-0.6-1.3-1.4L342,1051c0-0.4,0.1-0.7,0.4-1c0.3-0.3,0.6-0.4,1-0.4
					l189.8-1.6c0.4,0,0.7,0.1,1,0.4c0.3,0.3,0.4,0.6,0.4,1l-1,127.9C533.6,1178.1,533,1178.7,532.2,1178.7z M533.2,1049l-189.8,1.6
					c-0.1,0-0.2,0-0.3,0.1c-0.1,0.1-0.1,0.2-0.1,0.3l1.5,119.5c0,0.2,0.2,0.4,0.4,0.4l0,0l187.4,6.9c0.2,0,0.4-0.2,0.4-0.4l1-127.9
					c0-0.1,0-0.2-0.1-0.3C533.4,1049,533.3,1049,533.2,1049z"/>
			</g>
			<g>
				<g>
					<path class="st0" d="M481.2,1166.8c-0.8,0-1.6-0.4-2.2-1l-5.6-6.7c-4.1,0.5-8.2,0.4-12.3-0.3l-6,6.4c-0.8,0.9-2.1,1.1-3.2,0.7
						l-10.8-4.8c-1.1-0.5-1.8-1.6-1.7-2.8l0.7-8.7c-3.2-2.6-6.1-5.6-8.5-8.9l-8.7,0.3c-1.2,0.1-2.3-0.7-2.7-1.8l-4.2-11
						c-0.4-1.1-0.1-2.4,0.8-3.2l6.7-5.6c-0.5-4.1-0.4-8.2,0.3-12.3l-6.4-6c-0.9-0.8-1.1-2.1-0.7-3.2l4.8-10.8
						c0.5-1.1,1.6-1.8,2.8-1.7l8.7,0.7c2.6-3.2,5.6-6.1,8.9-8.5l-0.3-8.7c0-1.2,0.7-2.3,1.8-2.7l11-4.2c1.1-0.4,2.4-0.1,3.2,0.8
						l5.6,6.7c4.1-0.5,8.2-0.4,12.3,0.3l6-6.4c0.8-0.9,2.1-1.1,3.2-0.7l10.8,4.8c1.1,0.5,1.8,1.6,1.7,2.8l-0.7,8.7
						c3.2,2.6,6.1,5.6,8.5,8.9l8.7-0.3c1.2,0,2.3,0.7,2.7,1.8l4.2,11c0.4,1.1,0.1,2.4-0.8,3.2l-6.7,5.6c0.5,4.1,0.4,8.2-0.3,12.3
						l6.4,6c0.9,0.8,1.1,2.1,0.7,3.2l-4.8,10.8c-0.5,1.1-1.6,1.8-2.8,1.7l-8.7-0.7c-2.6,3.2-5.6,6.1-8.9,8.5l0.3,8.7
						c0,1.2-0.7,2.3-1.8,2.7l-11,4.2C481.8,1166.7,481.5,1166.8,481.2,1166.8z M475,1154.8l6.5,7.7l9.4-3.6l-0.4-10.1l0.9-0.6
						c3.7-2.5,6.9-5.6,9.6-9.1l0.7-0.9l10.1,0.9l4.1-9.2l-7.4-6.9l0.2-1.1c0.8-4.4,0.9-8.8,0.3-13.2l-0.2-1.1l7.7-6.5l-3.6-9.4
						l-10.1,0.4l-0.6-0.9c-2.5-3.7-5.6-6.9-9.1-9.6l-0.9-0.7l0.9-10.1l-9.2-4.1l-6.9,7.4l-1.1-0.2c-4.4-0.8-8.8-0.9-13.2-0.3
						l-1.1,0.2l-6.5-7.7l-9.4,3.6l0.4,10.1l-0.9,0.6c-3.7,2.5-6.9,5.6-9.6,9.1l-0.7,0.9l-10.1-0.9l-4.1,9.2l7.4,6.9l-0.2,1.1
						c-0.8,4.4-0.9,8.8-0.3,13.2l0.2,1.1l-7.7,6.5l3.6,9.4l10.1-0.4l0.6,0.9c2.5,3.7,5.6,6.9,9.1,9.6l0.9,0.7l-0.9,10.1l9.2,4.1
						l6.9-7.4l1.1,0.2c4.4,0.8,8.8,0.9,13.2,0.3L475,1154.8z M491,1159.8C491,1159.8,491,1159.8,491,1159.8L491,1159.8z
						 M516.5,1130.4C516.5,1130.4,516.5,1130.4,516.5,1130.4L516.5,1130.4z M420.1,1098.1L420.1,1098.1
						C420.1,1098.1,420.1,1098.1,420.1,1098.1z M512.7,1090.8C512.7,1090.8,512.7,1090.8,512.7,1090.8L512.7,1090.8z M445.7,1068.7
						L445.7,1068.7C445.7,1068.7,445.7,1068.7,445.7,1068.7z M468.1,1144.6c-12.2,0-23.8-7.4-28.5-19.5c-2.9-7.6-2.7-15.9,0.6-23.3
						c3.3-7.4,9.3-13.1,16.9-16.1c7.6-2.9,15.9-2.7,23.3,0.6c7.4,3.3,13.2,9.3,16.1,16.9c0.8,2,1.3,4.1,1.7,6.3
						c0.2,1.1-0.6,2.1-1.7,2.3c-1.1,0.2-2.1-0.6-2.3-1.7c-0.3-1.8-0.8-3.7-1.5-5.4c-2.5-6.6-7.5-11.8-14-14.7
						c-6.5-2.9-13.7-3-20.3-0.5c-6.6,2.5-11.8,7.5-14.7,14c-2.9,6.5-3,13.7-0.5,20.3c5.2,13.6,20.6,20.4,34.2,15.2
						c4.5-1.7,8.4-4.6,11.3-8.4c0.7-0.9,1.9-1,2.8-0.3c0.9,0.7,1,1.9,0.3,2.8c-3.4,4.3-7.9,7.7-13.1,9.7
						C475.5,1144,471.8,1144.6,468.1,1144.6z"/>
					<path class="st0" d="M468.3,1126.7c-3.9,0-7.8-1.8-10.2-5.3c-1.9-2.7-2.7-6-2.1-9.3c0.6-3.3,2.4-6.2,5.1-8.1
						c2.7-1.9,6-2.7,9.3-2.1c3.3,0.6,6.2,2.4,8.1,5.1l0,0c1.9,2.7,2.7,6,2.1,9.3c-0.6,3.3-2.4,6.2-5.1,8.1
						C473.3,1126,470.8,1126.7,468.3,1126.7z M468.3,1105.8c-1.7,0-3.4,0.5-4.9,1.6c-3.8,2.7-4.7,8-2,11.8c2.7,3.8,8,4.7,11.8,2
						c1.9-1.3,3.1-3.3,3.5-5.5c0.4-2.2-0.1-4.5-1.4-6.3c-1.3-1.9-3.3-3.1-5.5-3.5C469.3,1105.8,468.8,1105.8,468.3,1105.8z"/>
				</g>
				<g>
					<path class="st0" d="M381.1,1113.6c-0.1,0-0.2,0-0.2,0l-5.6-0.7c-0.8-0.1-1.5-0.7-1.6-1.5l-0.8-3.8c-1.7-0.7-3.3-1.6-4.8-2.7
						l-3.7,1.3c-0.8,0.3-1.6,0-2.1-0.6l-3.5-4.5c-0.5-0.6-0.5-1.5-0.1-2.2l2.1-3.3c-0.7-1.7-1.2-3.5-1.5-5.3l-3.5-1.7
						c-0.7-0.4-1.1-1.1-1-1.9l0.7-5.6c0.1-0.8,0.7-1.4,1.5-1.6l3.8-0.8c0.7-1.7,1.6-3.3,2.7-4.8l-1.3-3.7c-0.3-0.8,0-1.6,0.6-2.1
						l4.5-3.5c0.6-0.5,1.5-0.5,2.2-0.1l3.3,2.1c1.7-0.7,3.5-1.2,5.3-1.5l1.7-3.5c0.4-0.7,1.1-1.1,1.9-1l5.6,0.7
						c0.8,0.1,1.5,0.7,1.6,1.5l0.8,3.8c1.7,0.7,3.3,1.6,4.8,2.7l3.7-1.3c0.8-0.3,1.6,0,2.1,0.6l3.5,4.5c0.5,0.6,0.5,1.5,0.1,2.2
						l-2.1,3.3c0.7,1.7,1.2,3.5,1.5,5.3l3.5,1.7c0.7,0.4,1.1,1.1,1,1.9l-0.7,5.6c-0.1,0.8-0.7,1.4-1.5,1.6l-3.8,0.8
						c-0.7,1.7-1.6,3.3-2.7,4.8l1.3,3.7c0.3,0.8,0,1.6-0.6,2.1l-4.5,3.5c-0.6,0.5-1.5,0.5-2.2,0.1l-3.3-2.1
						c-1.7,0.7-3.5,1.2-5.3,1.5l-1.7,3.5C382.5,1113.2,381.8,1113.6,381.1,1113.6z M376.6,1110.8L376.6,1110.8
						C376.6,1110.8,376.6,1110.8,376.6,1110.8z M376.4,1110l4.1,0.5l2.1-4.3l0.8-0.1c2.1-0.2,4.1-0.8,6-1.6l0.8-0.3l4,2.6l3.2-2.5
						l-1.5-4.5l0.5-0.6c1.3-1.6,2.3-3.4,3.1-5.4l0.3-0.8l4.7-1l0.5-4.1l-4.3-2.1l-0.1-0.8c-0.2-2.1-0.8-4.1-1.6-6l-0.3-0.8l2.6-4
						l-2.5-3.2l-4.5,1.5l-0.6-0.5c-1.6-1.3-3.4-2.3-5.4-3.1l-0.8-0.3l-1-4.7l-4.1-0.5l-2.1,4.3l-0.8,0.1c-2.1,0.2-4.1,0.8-6,1.6
						l-0.8,0.3l-4-2.6l-3.2,2.5l1.5,4.5l-0.5,0.6c-1.3,1.6-2.3,3.4-3.1,5.4l-0.3,0.8l-4.7,1l-0.5,4.1l4.3,2.1l0.1,0.8
						c0.2,2.1,0.8,4.1,1.6,6l0.3,0.8l-2.6,4l2.5,3.2l4.5-1.5l0.6,0.5c1.6,1.3,3.4,2.3,5.4,3.1l0.8,0.3L376.4,1110z M364.6,1103.6
						L364.6,1103.6C364.6,1103.6,364.6,1103.6,364.6,1103.6z M405.1,1091.7C405.1,1091.7,405.1,1091.7,405.1,1091.7L405.1,1091.7z
						 M358.4,1081.3L358.4,1081.3C358.4,1081.3,358.4,1081.3,358.4,1081.3z M401.5,1074.8C401.5,1074.8,401.5,1074.8,401.5,1074.8
						L401.5,1074.8z M401.5,1073.5C401.5,1073.5,401.5,1073.5,401.5,1073.5L401.5,1073.5z M364.7,1070.3L364.7,1070.3
						C364.7,1070.3,364.7,1070.3,364.7,1070.3z M386,1063.2C386,1063.2,386,1063.2,386,1063.2L386,1063.2z M381.2,1102.2
						c-0.6,0-1.3,0-1.9-0.1c-4-0.5-7.6-2.5-10.1-5.7c-2.5-3.2-3.6-7.2-3.1-11.2c0.5-4,2.5-7.6,5.7-10.1c3.2-2.5,7.2-3.6,11.2-3.1
						c4,0.5,7.6,2.5,10.1,5.7c0.7,0.9,1.2,1.8,1.7,2.7c0.4,0.7,0,1.6-0.7,2c-0.7,0.4-1.6,0-2-0.7c-0.4-0.8-0.8-1.5-1.4-2.2
						c-2-2.6-4.9-4.2-8.1-4.6c-3.2-0.4-6.4,0.5-9,2.5c-2.6,2-4.2,4.9-4.6,8.1c-0.4,3.2,0.5,6.4,2.5,9c2,2.6,4.9,4.2,8.1,4.6
						c3.2,0.4,6.4-0.5,9-2.5c1.7-1.4,3.1-3.2,3.9-5.2c0.3-0.8,1.2-1.2,1.9-0.9c0.8,0.3,1.2,1.2,0.9,1.9c-1,2.6-2.7,4.8-4.8,6.5
						C387.8,1101.1,384.6,1102.2,381.2,1102.2z"/>
				</g>
			</g>
			<path class="st13" d="M458.1,1022.7l-23-38.7c0,0-48.1,41.2-62.6,98.5l25.5,16C408.4,1079.8,426.7,1054.9,458.1,1022.7z"/>
			<linearGradient id="SVGID_17_" gradientUnits="userSpaceOnUse" x1="462.1245" y1="1070.9727" x2="422.1245" y2="1106.9727">
				<stop  offset="0" style="stop-color:#FF928E"/>
				<stop  offset="1" style="stop-color:#FEB3B1"/>
			</linearGradient>
			<path class="st31" d="M408.3,1182.2c-2.9-0.1-5.2-0.5-6.4-3.1c-2.4-5.1-6.3-13.4-9-17.7c-0.5-0.8,0-1.9,0.9-2.1
				c1.4-0.2,3.5-0.3,6.2,0.3c4.3,1,8-0.2,9.3-2.3c0.5-0.7,0.1-1.7-0.6-2l-22.7-9.7c-0.4-0.2-0.7-0.5-0.8-0.9
				c-1-3.7-3.1-17.4,12.1-45.1c0.4-0.6,0.2-1.5-0.5-1.8l-22.8-14.3c-0.8-0.5-1.9-0.1-2.1,0.8c-5,20.9-5.5,43.9,2.5,67.8
				c0,0.1,0,0.1,0,0.2c0.3,1.6,5.1,28.1,14.5,33.6c9.7,5.7,24.8-3.5,24.8-3.5L408.3,1182.2z"/>
			<g>
				<linearGradient id="SVGID_18_" gradientUnits="userSpaceOnUse" x1="469.8889" y1="880.4263" x2="507.2224" y2="955.7598">
					<stop  offset="0" style="stop-color:#FF928E"/>
					<stop  offset="1" style="stop-color:#FEB3B1"/>
				</linearGradient>
				<path class="st32" d="M509.5,914.2c0,0,8.7,20.1,9.3,30.6c0.6,10.5,2.9,17.4-9.3,19.5c-12.2,2.1-22.4-3.9-28-14.4
					c0,0-8.7-16.2-6.8-22.8C476.7,920.5,509.5,914.2,509.5,914.2z"/>
				<path class="st5" d="M485.7,942.3h1.5c0,0-6.3-13-0.8-15.3c5.6-2.3,27.6-6.8,32.4-14.6c4.6-7.6,0.5-17.3-5.6-20
					c-0.4-0.2-0.8,0-1,0.4l-0.5,1c-0.3,0.7-1.3,0.6-1.5-0.2l0,0c-0.2-0.7-1.1-0.8-1.5-0.2c-1.5,2.3-5.4,6.2-16,8.1
					c-15,2.8-25,8.9-25.2,19.2c0,0.7-0.7,1-1.3,0.7c-1.1-0.7-2.9-1-5.3,1c-4.1,3.5-2.4,12.5,6.6,19.9c0.4,0.4,0.4,1,0,1.3
					c-1.6,1.1-4.1,3.6,2.2,7c6.5,3.5,10.3,3.1,11.8,2.7c0.4-0.1,0.7-0.5,0.6-0.9l-0.6-9.2c0-0.5,0.3-0.9,0.8-0.9H485.7z"/>
				<linearGradient id="SVGID_19_" gradientUnits="userSpaceOnUse" x1="454.1023" y1="888.2495" x2="491.4358" y2="963.5831">
					<stop  offset="0" style="stop-color:#FF928E"/>
					<stop  offset="1" style="stop-color:#FEB3B1"/>
				</linearGradient>
				<path class="st33" d="M486,944.3c0,0-3.3-12.8-9.1-9.2c-5.7,3.6,3,14.4,7.6,14.8L486,944.3z"/>
			</g>
			<linearGradient id="SVGID_20_" gradientUnits="userSpaceOnUse" x1="668.4702" y1="784.4308" x2="652.4703" y2="827.7641">
				<stop  offset="0" style="stop-color:#FF928E"/>
				<stop  offset="1" style="stop-color:#FEB3B1"/>
			</linearGradient>
			<path class="st34" d="M604.5,892.4v14.5c0,0,11.8,15,27.2,15.6c0,0,13.5-0.9,13.1-10.9l-21.6-4.1c0,0-9.1-2.7-11.6-4.1
				C611.5,903.4,609.6,892.9,604.5,892.4z"/>
			<path class="st0" d="M520.9,879.2h181.7c5.7,0,9.2-6.1,6.3-11L637,745.9c-3-5.1-10.5-4.7-13,0.7l-34.7,76.1
				c-2.1,4.5-7.9,5.7-11.6,2.4l-14.1-12.9c-3.3-3-8.4-2.4-10.9,1.2l-37.8,54.4C511.5,872.5,515,879.2,520.9,879.2z"/>
			
				<ellipse transform="matrix(1.023393e-02 -0.9999 0.9999 1.023393e-02 -49.1182 1434.7086)" class="st0" cx="700.2" cy="742.2" rx="26.1" ry="26.1"/>
		</g>
		<g>
			<linearGradient id="SVGID_21_" gradientUnits="userSpaceOnUse" x1="1587.6221" y1="315.3436" x2="1559.9828" y2="406.8165">
				<stop  offset="0" style="stop-color:#E1473D"/>
				<stop  offset="1" style="stop-color:#E9605A"/>
			</linearGradient>
			<path class="st35" d="M1553,376.1c12.5,0,24.1,4.2,33.3,11.3l19.5-27.6c-14.4-10.3-32-16.4-51-16.4c-2.5,0-5,0.1-7.6,0.4l5,32.4
				C1552.6,376.1,1552.8,376.1,1553,376.1z"/>
			<linearGradient id="SVGID_22_" gradientUnits="userSpaceOnUse" x1="1585.7123" y1="369.5459" x2="1382.3665" y2="669.6292">
				<stop  offset="0" style="stop-color:#FF928E"/>
				<stop  offset="1" style="stop-color:#FEB3B1"/>
			</linearGradient>
			<path class="st36" d="M1553,485.7c-30.3,0-61-22.5-61-52.8c0-30,30.3-56.4,60.3-56.8l-5-32.4c-45.8,4.1-89.9,44.5-89.9,90.3
				c0,48.3,49.1,84.3,97.4,84.3c12.7,0,24.7-2.7,35.6-7.6l-19.7-28.1C1565.2,484.6,1559.3,485.7,1553,485.7z"/>
			<path class="st6" d="M1642.4,430.9c0-29.3-14.4-55.2-36.5-71.1l-19.5,27.6c13,10,21.4,25.8,21.4,43.5c0,24-15.5,44.4-37,51.8
				l19.7,28.1C1621.1,497.2,1642.4,466.6,1642.4,430.9z"/>
		</g>
		<g>
			<path class="st4" d="M1802.8,376.1c21.5,0,40.1,12.4,49.1,30.4l22.6-28.4c-16-21.1-41.3-34.7-69.8-34.7
				c-22.4,0-44.9,9.1-62.6,23.6l20,25.2C1773.4,382.3,1788.2,376.1,1802.8,376.1z"/>
			<path class="st3" d="M1741.8,432.9c0-15.6,8.2-30.2,20.2-40.7l-20-25.2c-20.6,16.9-34.8,41.1-34.8,67.1
				c0,47.7,47.9,83.4,95.6,84.3l-1.5-32.7C1771.5,484.9,1741.8,462.6,1741.8,432.9z"/>
			<path class="st1" d="M1802.8,485.7c-0.5,0-1,0-1.5,0l1.5,32.7c0.6,0,1.2,0,1.8,0c34,0,63.4-19.3,77.9-47.6
				c-8.4-3.8-20.8-9.2-31.6-13.8C1841.7,474.1,1823.6,485.7,1802.8,485.7z"/>
			<path class="st3" d="M1874.4,378.1l-22.6,28.4c3.7,7.3,5.7,15.6,5.7,24.4c0,9.4-2.4,18.3-6.6,26.1c10.8,4.6,23.2,10.1,31.6,13.8
				c6.2-12,9.6-25.5,9.6-39.9C1892.2,411,1885.6,392.7,1874.4,378.1z"/>
		</g>
		<g>
			<path class="st4" d="M2052.6,376.1c11.7,0,22.5,3.7,31.4,9.9l17.7-28.8c-13.6-8.7-29.8-13.8-47.2-13.8
				c-23.1,0-46.4,9.7-64.4,25.1l20.9,24.5C2022.4,382.7,2037.6,376.1,2052.6,376.1z"/>
			<linearGradient id="SVGID_23_" gradientUnits="userSpaceOnUse" x1="2216.0601" y1="68.7444" x2="2174.0601" y2="204.7446">
				<stop  offset="0" style="stop-color:#4042E2"/>
				<stop  offset="0.5767" style="stop-color:#4143E4"/>
				<stop  offset="0.7844" style="stop-color:#4447EB"/>
				<stop  offset="0.932" style="stop-color:#4B4DF6"/>
				<stop  offset="1" style="stop-color:#4F52FF"/>
			</linearGradient>
			<path class="st37" d="M2107.3,427.7l34.1-6.9c-3.1-26.7-18.1-49.8-39.7-63.6L2084,386C2097.3,395.4,2106.3,410.5,2107.3,427.7z"
				/>
			<path class="st3" d="M1991.6,432.9c0-15.2,7.8-29.5,19.4-39.9l-20.9-24.5c-19.6,16.8-33,40.4-33,65.6c0,31.3,20.6,57.4,48.3,72
				l17.1-27.8C2004.8,469.2,1991.6,452.7,1991.6,432.9z"/>
			<path class="st13" d="M2107.3,427.7c0.1,1,0.1,2.1,0.1,3.1c0,30.3-24.5,54.8-54.8,54.8c-10.4,0-20.9-2.7-30.2-7.4l-17.1,27.8
				c15,7.9,32.1,12.4,49.2,12.4c48.3,0,87.5-39.2,87.5-87.5c0-3.4-0.2-6.7-0.6-10L2107.3,427.7z"/>
		</g>
		<g>
			<path class="st1" d="M1628.1,135.7l-327-1.8c-13.4-0.1-21.7,14.5-14.8,26l1.6,2.7c3.1,5.2,8.7,8.3,14.7,8.3h325.4
				c9.5,0,17.2-7.7,17.2-17.2v-0.9C1645.2,143.4,1637.6,135.7,1628.1,135.7z"/>
			<path class="st1" d="M1673.8,153.2v0.5c0,9.5,7.7,17.2,17.2,17.2h72.6c7.8,0,14.6-5.2,16.6-12.7l0,0c2.9-10.8-5.2-21.5-16.5-21.6
				l-72.6-0.5C1681.6,136,1673.8,143.7,1673.8,153.2z"/>
		</g>
		<g>
			<path class="st1" d="M1549.5,197.3l-248.4-1.8c-13.4-0.1-21.7,14.5-14.8,26l1.6,2.7c3.1,5.2,8.7,8.3,14.7,8.3h246.7
				c9.5,0,17.2-7.7,17.2-17.2v-0.9C1566.5,205,1558.9,197.3,1549.5,197.3z"/>
			<path class="st1" d="M1595.2,214.8v0.5c0,9.5,7.7,17.2,17.2,17.2h72.6c7.8,0,14.6-5.2,16.6-12.7v0c2.9-10.8-5.2-21.5-16.5-21.6
				l-72.6-0.5C1602.9,197.6,1595.2,205.3,1595.2,214.8z"/>
		</g>
		<g>
			<path class="st3" d="M1146.5,299.9c-1.3,0-2.6,0.5-3.7,1.5l-72.2,68.4c-6.3,5.9-14.5,9.2-23.2,9.2H801.7c-2.9,0-5.3,2.4-5.3,5.3
				c0,2.9,2.4,5.3,5.3,5.3h245.8c11.4,0,22.2-4.3,30.5-12.1l72.2-68.4c2.1-2,2.2-5.4,0.2-7.5
				C1149.3,300.5,1147.9,299.9,1146.5,299.9z"/>
			<path class="st3" d="M1009.8,412H801.7c-2.9,0-5.3,2.4-5.3,5.3c0,2.9,2.4,5.3,5.3,5.3h208.1c2.9,0,5.3-2.4,5.3-5.3
				C1015.1,414.4,1012.7,412,1009.8,412z"/>
			<path class="st3" d="M975.9,445H801.7c-2.9,0-5.3,2.4-5.3,5.3c0,2.9,2.4,5.3,5.3,5.3h174.2c2.9,0,5.3-2.4,5.3-5.3
				C981.2,447.3,978.8,445,975.9,445z"/>
		</g>
	</g>
</g>
</svg>
