<?xml version="1.0" encoding="utf-8"?>
<!-- Generator: Adobe Illustrator 18.0.0, SVG Export Plug-In . SVG Version: 6.00 Build 0)  -->
<!DOCTYPE svg PUBLIC "-//W3C//DTD SVG 1.1//EN" "http://www.w3.org/Graphics/SVG/1.1/DTD/svg11.dtd">
<svg version="1.1" id="Layer_1" xmlns="http://www.w3.org/2000/svg" xmlns:xlink="http://www.w3.org/1999/xlink" x="0px" y="0px"
	 viewBox="183.3 1420.9 713.4 745.1" enable-background="new 183.3 1420.9 713.4 745.1" xml:space="preserve">
<g id="Layer_1_1_">
</g>
<g id="Layer_2">
	<g>
		<g>
			<path fill="#BEC8D2" d="M392.3,2004.4L392.3,2004.4c-15.3,0-29.9-5.9-40.8-16.6l-75.7-73.9c-14.9-14.5-20.9-36.1-15.8-56.2
				l26.2-102.5c5.1-20.1,20.8-36.2,40.8-41.8l101.8-28.6c5.1-1.4,10.5-2.2,15.8-2.2c15.3,0,29.9,5.9,40.8,16.6l75.6,73.9
				c14.9,14.5,20.9,36.1,15.8,56.3l-26.2,102.4c-5.1,20.1-20.8,36.2-40.8,41.8L408,2002.2C402.9,2003.7,397.5,2004.4,392.3,2004.4z
				 M444.6,1684.2c-5.2,0-10.3,0.7-15.3,2.1l-101.8,28.6c-19.5,5.4-34.7,21-39.6,40.6L261.6,1858c-5,19.6,0.9,40.5,15.3,54.6
				l75.6,74c10.7,10.4,24.8,16.1,39.6,16.1l0,0c5.2,0,10.3-0.7,15.3-2.1l101.8-28.6c19.5-5.4,34.7-21,39.6-40.6l26.2-102.5
				c5-19.6-0.9-40.5-15.3-54.6l-75.6-73.9C473.6,1690,459.4,1684.2,444.6,1684.2z M418.4,1899.3c-24.8,0-47-16.8-53.7-40.7
				c-4-14.4-2.2-29.4,5.1-42.4c7.3-13,19.3-22.4,33.6-26.4c5-1.4,10-2.1,15.1-2.1c24.8,0,47,16.8,53.7,40.7
				c4,14.4,2.2,29.4-5.1,42.4c-7.3,13-19.3,22.4-33.6,26.4C428.5,1898.5,423.4,1899.3,418.4,1899.3z M418.4,1789.3
				c-5,0-9.8,0.7-14.6,2c-13.9,3.9-25.5,13-32.5,25.6c-7,12.5-8.8,27.2-5,41.1c6.6,23.2,28,39.5,52.1,39.5c5,0,9.8-0.7,14.6-2
				c13.9-3.9,25.5-13,32.5-25.6c7.1-12.6,8.8-27.2,5-41.1C463.9,1805.6,442.5,1789.3,418.4,1789.3z"/>
			<path fill="#BEC8D2" d="M613.1,1778.5L613.1,1778.5c-15.3,0-29.9-5.9-40.8-16.6l-75.6-73.9c-14.9-14.5-21-36.1-15.9-56.3
				l26.2-102.5c5.1-20.1,20.8-36.2,40.8-41.8l101.8-28.6c5.1-1.4,10.5-2.2,15.8-2.2c15.3,0,29.9,5.9,40.8,16.6l75.6,73.9
				c14.9,14.5,20.9,36.1,15.8,56.3L771.5,1706c-5.1,20.1-20.8,36.2-40.8,41.8l-101.8,28.6C623.7,1777.8,618.3,1778.5,613.1,1778.5z
				 M665.4,1458.3c-5.2,0-10.3,0.7-15.3,2.1L548.2,1489c-19.5,5.4-34.7,21-39.6,40.6l-26.2,102.5c-5,19.6,0.9,40.5,15.3,54.6
				l75.6,73.9c10.7,10.4,24.8,16.1,39.6,16.1l0,0c5.2,0,10.3-0.7,15.3-2.1l101.8-28.5c19.5-5.4,34.7-21,39.6-40.6l26.2-102.5
				c5-19.6-0.9-40.5-15.3-54.6l-75.6-73.9C694.4,1464.1,680.2,1458.3,665.4,1458.3z M639.2,1673.4c-24.8,0-47-16.8-53.7-40.7
				c-4-14.4-2.2-29.4,5.1-42.4c7.3-13,19.3-22.4,33.6-26.4c5-1.4,10-2.1,15.1-2.1c24.8,0,47,16.8,53.7,40.7
				c8.3,29.6-9,60.5-38.7,68.8C649.3,1672.6,644.2,1673.4,639.2,1673.4z M639.2,1563.4c-5,0-9.8,0.7-14.6,2
				c-13.9,3.9-25.5,13-32.5,25.6c-7.1,12.6-8.8,27.2-5,41.1c6.6,23.2,28,39.5,52,39.5c5,0,9.8-0.7,14.6-2
				c28.7-8.1,45.5-37.9,37.5-66.7C684.7,1579.7,663.3,1563.4,639.2,1563.4z"/>
			<path fill="#BEC8D2" d="M698.3,2082.4L698.3,2082.4c-15.3,0-29.9-5.9-40.8-16.6l-75.6-73.9c-14.9-14.5-20.9-36.1-15.8-56.3
				l26.2-102.4c5.1-20.1,20.8-36.2,40.8-41.8l101.8-28.6c5.1-1.4,10.5-2.2,15.8-2.2c15.3,0,29.9,5.9,40.8,16.6l75.6,73.9
				c14.9,14.5,20.9,36.1,15.8,56.3L856.8,2010c-5.1,20.1-20.8,36.2-40.8,41.8l-101.8,28.6C708.9,2081.7,703.6,2082.4,698.3,2082.4z
				 M750.6,1762.3c-5.2,0-10.3,0.7-15.3,2.1L633.4,1793c-19.5,5.4-34.7,21-39.6,40.6l-26.2,102.5c-5,19.6,0.9,40.5,15.3,54.6
				l75.6,73.9c10.7,10.4,24.8,16.1,39.6,16.1c5.2,0,10.3-0.7,15.3-2.1l101.8-28.6c19.5-5.4,34.7-21,39.6-40.6l26.2-102.5
				c5-19.6-0.9-40.5-15.3-54.6l-75.6-73.9C779.6,1768,765.5,1762.3,750.6,1762.3z M724.4,1977.3c-24.8,0-47-16.8-53.7-40.7
				c-8.3-29.6,9-60.5,38.7-68.8c5-1.4,10-2.1,15.1-2.1c24.8,0,47,16.8,53.7,40.7c4,14.4,2.2,29.4-5.1,42.4
				c-7.3,13-19.3,22.4-33.6,26.4C734.6,1976.6,729.5,1977.3,724.4,1977.3z M724.5,1867.5c-5,0-9.8,0.7-14.6,2
				c-28.7,8.1-45.5,37.9-37.5,66.7c6.6,23.2,28,39.5,52.1,39.5c5,0,9.8-0.7,14.6-2c13.9-3.9,25.5-13,32.5-25.6
				c7.1-12.6,8.8-27.2,5-41.1C770,1883.7,748.6,1867.5,724.5,1867.5z"/>
		</g>
		<circle opacity="9.000000e-002" fill="#2E546A" enable-background="new    " cx="498.9" cy="1850.4" r="315.6"/>
		<circle opacity="0.1" fill="#E76C29" enable-background="new    " cx="750.4" cy="1691.5" r="111"/>
		<circle fill="#E76C29" cx="778" cy="1652" r="5"/>
		<circle fill="#FFFFFF" cx="760.1" cy="1619.6" r="9.7"/>
		<circle fill="#264A60" cx="809" cy="1628.1" r="5.6"/>
		<circle fill="#E76C29" cx="498.7" cy="2021.2" r="5"/>
		<circle fill="#FFFFFF" cx="485.1" cy="2055.6" r="9.7"/>
		<circle fill="#264A60" cx="460.6" cy="2012.5" r="5.6"/>
		<circle fill="#E76C29" cx="274" cy="1670.4" r="16.4"/>
		<circle fill="#264A60" cx="314.4" cy="1619.4" r="14.1"/>
		<circle fill="#264A60" cx="767.2" cy="2098" r="14"/>
		<circle fill="#E76C29" cx="866.4" cy="2081.6" r="30.4"/>
		<g>
			<path fill="#264A60" d="M811.2,1806.8c-3.8-0.1-7.3,1.4-10,3.9c-5.6,5.4-5.7,14.3-0.3,19.9c2.7,2.8,6.2,4.2,9.8,4.2
				c3.6,0.1,7.2-1.3,10-3.9l0,0c5.6-5.4,5.7-14.3,0.3-19.9C818.4,1808.4,814.9,1806.8,811.2,1806.8z M816.1,1826.2
				c-3,2.9-7.7,2.8-10.5-0.2c-2.9-3-2.8-7.7,0.2-10.5c1.4-1.4,3.3-2.2,5.3-2.1c2,0,3.8,0.8,5.2,2.2
				C819.1,1818.6,819.1,1823.3,816.1,1826.2z"/>
			<path fill="#264A60" d="M856.6,1775.5c-1.5-1.5-3.7-2.4-5.8-2.2l-3,0.2c-27.6,1.3-53.6,14.2-71.3,35.3l-7.3,8.8l-18.9-0.9H750
				c-15-0.2-29.2,5.4-40,15.8l-19.7,19.1c-1,0.9-1.3,2.3-0.8,3.5s1.6,2.1,2.9,2.2l41,2.8l-1.7,2c-0.9,1-1,2.5-0.4,3.7
				c0.6,1.2,1.3,2.4,2,3.5l-9.9,11.4c-0.9,1-1,2.3-0.5,3.5c2.1,4.6,4.8,8.6,8.2,12.1c3.4,3.6,7.5,6.6,12.1,8.9
				c0.5,0.2,1,0.3,1.4,0.3c0.7,0,1.5-0.2,2.1-0.7c2.2-1.7,4.6-3.7,6.9-5.6c1.7-1.4,3.4-2.8,5-4.1c1,0.6,1.9,1.1,2.9,1.7
				c0.5,0.2,1,0.4,1.6,0.4c0.7,0,1.4-0.2,2-0.6l2.3-1.7l1.4,41.2c0.1,1.3,0.9,2.5,2.1,3c0.4,0.2,0.8,0.2,1.2,0.2
				c0.9,0,1.7-0.3,2.3-1l19.7-19.1c10.8-10.5,16.9-24.4,17.1-39.5l0.3-18.1l7.7-5.8c23.2-17.4,37.6-44,39.5-72.9l0.1-1.6
				C858.9,1779.2,858.1,1777,856.6,1775.5z M700.3,1851.1l14.4-13.9c9.5-9.2,22-14.1,35.2-14l13.8,0.6l-25,29.8L700.3,1851.1z
				 M749.4,1894c-1.8,1.4-3.5,2.9-5.2,4.2c-3.1-1.8-6-4-8.5-6.6c-2.4-2.5-4.4-5.3-6-8.4l7.3-8.3c2.1,3,4.4,5.7,6.9,8.3l0,0l0,0l0,0
				c2.8,2.9,5.8,5.5,8.9,8C751.8,1892.1,750.6,1893,749.4,1894z M804.6,1879.7c-0.2,13.3-5.6,25.6-15.1,34.8l-14.4,13.9l-1.4-38.4
				l31-23.2L804.6,1879.7z M852.1,1782.6c-1.8,27-15.2,51.8-36.8,68.1l-52.4,39.3c-4.2-2.6-8.2-5.6-11.8-9l17.7-17.2
				c1.3-1.3,1.4-3.4,0.1-4.6c-1.3-1.3-3.4-1.4-4.6-0.1l-17.7,17.2c-3.1-3.6-5.9-7.5-8.3-11.7l43.3-51.5c16.5-19.7,40.8-31.8,66.5-33
				l3-0.2c0.4,0,0.6,0.2,0.8,0.3s0.3,0.4,0.3,0.8L852.1,1782.6z"/>
		</g>
		<g>
			<path fill="#264A60" d="M722,1907.9c-0.6,0-1-0.2-1.5-0.5c-1.1-0.9-1.4-2.4-0.6-3.6c1.6-2.2,2.4-3.4,2.5-3.4
				c0.8-1.1,2.4-1.4,3.5-0.6c1.1,0.8,1.4,2.4,0.6,3.5c0,0-0.9,1.2-2.6,3.5C723.5,1907.5,722.7,1907.9,722,1907.9z"/>
			<path fill="#264A60" d="M456.6,2059.7c-0.8,0-1.6,0-2.5,0c-1.4,0-2.6-1.2-2.5-2.6c0-1.4,1.1-2.5,2.6-2.5l0,0c2.8,0,5.6,0,8.5-0.1
				h0.1c1.4,0,2.5,1.1,2.6,2.5c0,1.4-1,2.6-2.5,2.6C460.7,2059.7,458.6,2059.7,456.6,2059.7z M433.8,2058.6c-0.1,0-0.2,0-0.2,0
				c-2.9-0.2-5.8-0.6-8.5-1c-1.4-0.2-2.4-1.4-2.2-2.9c0.2-1.4,1.4-2.4,2.9-2.2c2.7,0.4,5.6,0.7,8.4,1c1.4,0.2,2.4,1.4,2.3,2.8
				C436.2,2057.7,435.1,2058.6,433.8,2058.6z M483.2,2058.3c-1.3,0-2.4-1-2.6-2.3c-0.2-1.4,0.9-2.6,2.2-2.8c0.6-0.1,1.3-0.2,1.9-0.2
				c2.2-0.2,4.3-0.5,6.5-0.8c1.4-0.2,2.6,0.8,2.9,2.2c0.2,1.4-0.8,2.6-2.2,2.9c-2.2,0.3-4.4,0.6-6.6,0.8c-0.6,0.1-1.4,0.2-2,0.2
				C483.3,2058.3,483.2,2058.3,483.2,2058.3z M405.2,2054c-0.2,0-0.4,0-0.6-0.1c-2.8-0.6-5.6-1.4-8.4-2.1c-1.4-0.4-2.2-1.8-1.8-3.1
				c0.4-1.4,1.8-2.2,3.1-1.8c2.7,0.7,5.4,1.4,8.1,2.1c1.4,0.3,2.2,1.7,1.9,3C407.4,2053.2,406.4,2054,405.2,2054z M511.8,2053.8
				c-1.2,0-2.2-0.8-2.5-2c-0.3-1.4,0.6-2.7,1.9-3c2.7-0.6,5.5-1.3,8.2-1.9c1.4-0.3,2.7,0.5,3.1,1.8c0.3,1.4-0.5,2.7-1.8,3.1
				c-2.8,0.7-5.6,1.4-8.4,2C512.1,2053.7,511.9,2053.8,511.8,2053.8z M539.6,2045.9c-1,0-2.1-0.6-2.4-1.8c-0.5-1.4,0.2-2.8,1.6-3.2
				c2.6-0.9,5.4-1.8,8-2.8c1.4-0.5,2.8,0.2,3.3,1.5c0.5,1.3-0.2,2.8-1.5,3.3c-2.7,1-5.4,1.9-8.1,2.9
				C540.2,2045.9,539.9,2045.9,539.6,2045.9z M377.6,2045.6c-0.3,0-0.6-0.1-0.9-0.2c-2.7-1-5.4-2.1-8-3.2c-1.3-0.6-1.9-2.1-1.4-3.4
				c0.6-1.3,2.1-1.9,3.4-1.4c2.6,1.1,5.2,2.2,7.8,3.1c1.3,0.5,2,2,1.4,3.3C379.6,2045,378.5,2045.6,377.6,2045.6z M566.6,2035.4
				c-1,0-1.9-0.6-2.3-1.5c-0.6-1.3,0-2.8,1.3-3.4c2.6-1.1,5.1-2.3,7.7-3.6c1.3-0.6,2.8-0.1,3.4,1.2c0.6,1.3,0.1,2.8-1.2,3.4
				c-2.6,1.3-5.2,2.5-7.8,3.6C567.3,2035.3,567,2035.4,566.6,2035.4z M351.2,2033.5c-0.4,0-0.8-0.1-1.2-0.3c-2.5-1.4-5-2.8-7.5-4.2
				c-1.2-0.7-1.6-2.3-0.9-3.5s2.3-1.6,3.5-0.9c2.4,1.4,4.9,2.8,7.3,4.2c1.2,0.6,1.7,2.2,1,3.4C353,2033.1,352.1,2033.5,351.2,2033.5
				z M592.5,2022.4c-0.9,0-1.8-0.5-2.2-1.3c-0.7-1.2-0.2-2.8,1-3.4c2.5-1.4,5-2.8,7.3-4.2c1.2-0.7,2.8-0.3,3.5,0.9
				c0.7,1.2,0.3,2.8-0.9,3.5c-2.5,1.4-5,2.9-7.4,4.3C593.3,2022.2,592.9,2022.4,592.5,2022.4z M326.7,2018.1c-0.5,0-1-0.2-1.5-0.5
				c-2.3-1.7-4.6-3.4-6.9-5.2c-1.1-0.9-1.3-2.5-0.4-3.6c0.9-1.1,2.5-1.3,3.6-0.4c2.2,1.8,4.5,3.4,6.7,5c1.1,0.8,1.4,2.4,0.6,3.5
				C328.3,2017.7,327.5,2018.1,326.7,2018.1z M617.2,2007.2c-0.8,0-1.6-0.4-2.1-1.1c-0.8-1.2-0.5-2.7,0.7-3.5
				c2.4-1.6,4.7-3.2,6.9-4.8c1.1-0.8,2.7-0.6,3.5,0.6c0.8,1.1,0.6,2.7-0.6,3.5c-2.3,1.6-4.7,3.3-7.1,4.9
				C618.2,2007,617.7,2007.2,617.2,2007.2z M304.3,1999.7c-0.6,0-1.3-0.2-1.8-0.7c-2.1-1.9-4.2-4-6.2-6c-1-1-1-2.6,0-3.6
				c1-1,2.6-1,3.6,0c2,2,4,3.9,6.1,5.8c1,1,1.1,2.6,0.2,3.6C305.7,1999.4,305,1999.7,304.3,1999.7z M640.7,1990.2
				c-0.7,0-1.5-0.3-2-1c-0.9-1.1-0.6-2.7,0.5-3.6c2.2-1.8,4.5-3.5,6.6-5.3c1.1-0.9,2.7-0.7,3.6,0.4c0.9,1.1,0.7,2.7-0.4,3.6
				c-2.2,1.8-4.5,3.6-6.7,5.4C641.7,1990,641.2,1990.2,640.7,1990.2z M284.3,1978.7c-0.7,0-1.4-0.3-1.9-0.9
				c-1.8-2.2-3.7-4.4-5.5-6.6c-0.9-1.1-0.7-2.7,0.4-3.6s2.7-0.7,3.6,0.4c1.8,2.2,3.6,4.4,5.4,6.5c0.9,1,0.8,2.6-0.2,3.6
				C285.5,1978.6,284.9,1978.7,284.3,1978.7z M662.9,1971.6c-0.7,0-1.4-0.3-1.9-0.9c-1-1-0.9-2.6,0.2-3.6c2.2-1.9,4.2-3.8,6.3-5.7
				c1-1,2.6-0.9,3.6,0.2c1,1,0.9,2.6-0.2,3.6c-2.1,1.9-4.2,3.8-6.3,5.8C664.1,1971.3,663.5,1971.6,662.9,1971.6z M266.7,1955.7
				c-0.8,0-1.6-0.4-2.1-1.1c-1.6-2.3-3.2-4.8-4.7-7.2c-0.7-1.2-0.4-2.8,0.8-3.5c1.2-0.7,2.8-0.4,3.5,0.8c1.5,2.4,3,4.7,4.6,7
				c0.8,1.2,0.5,2.7-0.6,3.5C267.7,1955.6,267.2,1955.7,266.7,1955.7z M683.9,1951.6c-0.6,0-1.3-0.2-1.8-0.7c-1-1-1-2.6,0-3.6
				c2.1-2.1,4-4.1,5.9-6.1c1-1,2.6-1,3.6-0.1c1,1,1,2.6,0.1,3.6c-1.9,2-3.9,4.1-6,6.2C685.3,1951.3,684.6,1951.6,683.9,1951.6z
				 M251.7,1931c-0.9,0-1.8-0.5-2.2-1.4c-1.4-2.6-2.7-5.1-3.9-7.7c-0.6-1.3-0.1-2.8,1.2-3.4s2.8-0.1,3.4,1.2c1.2,2.5,2.5,5,3.8,7.5
				c0.6,1.3,0.2,2.8-1,3.4C252.5,1930.8,252.1,1931,251.7,1931z M703.7,1930.3c-0.6,0-1.2-0.2-1.7-0.6c-1-1-1.2-2.6-0.2-3.6
				c2-2.2,3.8-4.4,5.5-6.5c0.9-1,2.5-1.2,3.6-0.3c1,0.9,1.2,2.5,0.3,3.6c-1.8,2.1-3.6,4.2-5.6,6.6
				C705.1,1930.1,704.4,1930.3,703.7,1930.3z M239.5,1904.5c-1,0-1.9-0.6-2.3-1.5v-0.1c-1-2.6-1.9-5.4-2.7-8.3
				c-0.4-1.4,0.4-2.7,1.8-3.1c1.4-0.4,2.7,0.4,3.1,1.8c0.7,2.7,1.6,5.3,2.5,7.7c0.5,1.3-0.2,2.9-1.4,3.4
				C240.2,1904.5,239.8,1904.5,239.5,1904.5z M233.5,1876.3c-1.3,0-2.4-1-2.6-2.3c-0.2-2.8-0.4-5.8-0.4-8.6c0-1.4,1.1-2.6,2.5-2.6
				c0,0,0,0,0.1,0c1.4,0,2.5,1.1,2.6,2.5c0.1,2.8,0.2,5.7,0.4,8.4c0.1,1.4-1,2.6-2.3,2.7C233.7,1876.3,233.6,1876.3,233.5,1876.3z
				 M234.1,1847.4c-0.1,0-0.2,0-0.2,0c-1.4-0.2-2.4-1.4-2.2-2.8c0.3-2.9,0.6-5.8,1.1-8.5c0.2-1.4,1.5-2.3,2.9-2.2
				c1.4,0.2,2.3,1.5,2.2,2.9c-0.4,2.8-0.8,5.6-1.1,8.3C236.5,1846.5,235.4,1847.4,234.1,1847.4z M239.3,1818.9c-0.2,0-0.4,0-0.6-0.1
				c-1.4-0.3-2.2-1.8-1.8-3.1c0.7-2.8,1.5-5.6,2.3-8.3c0.4-1.4,1.8-2.1,3.2-1.7s2.1,1.8,1.7,3.2c-0.8,2.7-1.6,5.4-2.2,8.1
				C241.4,1818.2,240.4,1818.9,239.3,1818.9z M248.3,1791.3c-0.3,0-0.6-0.1-1-0.2c-1.3-0.6-1.9-2-1.4-3.3c1-2.6,2.2-5.3,3.4-7.9
				c0.6-1.3,2.1-1.8,3.4-1.3s1.8,2.1,1.3,3.4c-1.1,2.6-2.2,5.2-3.3,7.7C250.3,1790.8,249.4,1791.3,248.3,1791.3z M260.6,1765.1
				c-0.4,0-0.8-0.1-1.2-0.3c-1.2-0.6-1.7-2.2-1-3.4c1.4-2.5,2.8-5,4.2-7.5c0.7-1.2,2.3-1.6,3.5-0.9c1.2,0.7,1.6,2.2,0.9,3.5
				c-1.4,2.4-2.8,4.9-4.2,7.3C262.5,1764.7,261.6,1765.1,260.6,1765.1z M276,1740.6c-0.5,0-1-0.2-1.4-0.5c-1.1-0.8-1.4-2.4-0.6-3.5
				c1.6-2.3,3.4-4.6,5.1-6.9c0.9-1.1,2.5-1.4,3.6-0.5c1.1,0.9,1.4,2.5,0.5,3.6c-1.7,2.2-3.4,4.6-5,6.8
				C277.5,1740.2,276.8,1740.6,276,1740.6z M294,1717.9c-0.6,0-1.2-0.2-1.7-0.6c-1-1-1.1-2.6-0.2-3.6c1.9-2.2,3.8-4.2,5.8-6.3
				c1-1,2.6-1,3.6-0.1c1,1,1,2.6,0.1,3.6c-1.9,2.1-3.8,4.2-5.8,6.2C295.4,1717.6,294.6,1717.9,294,1717.9z M314.5,1697.4
				c-0.7,0-1.4-0.3-1.9-0.9c-1-1-0.9-2.6,0.2-3.6c2.1-1.9,4.3-3.8,6.5-5.7c1-0.9,2.7-0.8,3.6,0.3c0.9,1,0.8,2.7-0.3,3.6
				c-2.2,1.8-4.3,3.7-6.4,5.5C315.7,1697.2,315,1697.4,314.5,1697.4z M337.1,1679.3c-0.8,0-1.6-0.4-2.1-1c-0.8-1.1-0.6-2.7,0.6-3.5
				c2.3-1.7,4.7-3.3,7.1-4.9c1.2-0.8,2.7-0.5,3.5,0.7c0.8,1.2,0.5,2.7-0.7,3.5c-2.3,1.6-4.6,3.2-6.9,4.8
				C338,1679.1,337.5,1679.3,337.1,1679.3z M361.4,1663.7c-0.9,0-1.8-0.5-2.2-1.3c-0.7-1.2-0.2-2.8,1-3.4c2.5-1.4,5-2.8,7.5-4.2
				c1.3-0.6,2.8-0.2,3.4,1c0.6,1.3,0.2,2.8-1,3.4c-2.5,1.3-5,2.6-7.4,4.1C362.3,1663.6,361.8,1663.7,361.4,1663.7z M387.3,1650.8
				c-1,0-1.9-0.6-2.3-1.5c-0.6-1.3,0-2.8,1.3-3.4c2.6-1.1,5.3-2.2,7.9-3.4c1.3-0.6,2.8,0.1,3.3,1.4c0.6,1.3-0.1,2.8-1.4,3.3
				c-2.6,1-5.3,2.2-7.7,3.3C388,1650.7,387.7,1650.8,387.3,1650.8z M413.7,1638.9c-1,0-1.9-0.6-2.3-1.5c-0.6-1.3,0-2.8,1.3-3.4
				c2.4-1,5-2.2,7.9-3.4c1.3-0.6,2.8,0.1,3.4,1.4s-0.1,2.8-1.4,3.4c-2.9,1.2-5.4,2.3-7.8,3.4
				C414.5,1638.8,414.1,1638.9,413.7,1638.9z M440.7,1628.1c-1,0-2-0.6-2.4-1.7c-0.5-1.4,0.2-2.8,1.5-3.3c2.6-1,5.3-1.8,8.1-2.8
				c1.4-0.5,2.8,0.3,3.2,1.6c0.5,1.4-0.3,2.8-1.6,3.2c-2.8,1-5.4,1.8-8,2.7C441.3,1628.1,441,1628.1,440.7,1628.1z M468.4,1619.4
				c-1.1,0-2.2-0.7-2.5-1.8c-0.4-1.4,0.4-2.8,1.8-3.1c2.7-0.8,5.4-1.5,8.3-2.2c1.4-0.3,2.7,0.5,3.1,1.8c0.4,1.4-0.5,2.7-1.8,3.1
				c-2.8,0.7-5.5,1.4-8.1,2.2C468.9,1619.4,468.6,1619.4,468.4,1619.4z M496.5,1612.4c-1.2,0-2.2-0.8-2.5-2c-0.3-1.4,0.6-2.7,1.9-3
				c2.8-0.6,5.6-1.2,8.4-1.7c1.4-0.2,2.7,0.6,3,2c0.2,1.4-0.6,2.7-2,3c-2.8,0.6-5.6,1.1-8.3,1.7
				C496.9,1612.4,496.7,1612.4,496.5,1612.4z M525,1607.2c-1.3,0-2.3-0.9-2.5-2.2c-0.2-1.4,0.7-2.7,2.2-2.9c2.8-0.4,5.6-0.8,8.5-1.2
				c1.4-0.2,2.6,0.8,2.9,2.2c0.2,1.4-0.8,2.6-2.2,2.9c-2.8,0.4-5.7,0.7-8.4,1.2C525.3,1607.2,525.2,1607.2,525,1607.2z
				 M553.9,1603.9c-1.3,0-2.4-1-2.6-2.3c-0.1-1.4,1-2.6,2.3-2.7c2.8-0.2,5.7-0.5,8.5-0.6c1.4-0.1,2.6,1,2.7,2.4s-1,2.6-2.4,2.7
				c-2.9,0.2-5.7,0.4-8.5,0.6C553.9,1603.9,553.9,1603.9,553.9,1603.9z"/>
			<path fill="#264A60" d="M582.7,1602.5c-1.4,0-2.6-1.1-2.6-2.5c0-1.4,1.1-2.6,2.5-2.6c1.4,0,2.8,0,4.2-0.1l0,0
				c1.4,0,2.6,1.1,2.6,2.6s-1.1,2.6-2.6,2.6C585.6,1602.5,584.1,1602.5,582.7,1602.5C582.8,1602.5,582.8,1602.5,582.7,1602.5z"/>
		</g>
		<g>
			<path fill="#E76C29" d="M626.5,1431.7c-12.7,0-23.1,10.3-23.1,23.1c0,9.7,6,18.2,14.9,21.6v12.3c0,0.7,0.6,1.4,1.4,1.4h1.4v2.7
				c0,0.7,0.6,1.4,1.4,1.4h8.1c0.7,0,1.4-0.6,1.4-1.4v-2.7h1.4c0.7,0,1.4-0.6,1.4-1.4v-12.3c8.9-3.4,14.9-11.9,14.9-21.6
				C649.5,1442.1,639.2,1431.7,626.5,1431.7L626.5,1431.7z M630.5,1487.3c-0.7,0-1.4,0.6-1.4,1.4v2.7h-5.4v-2.7
				c0-0.7-0.6-1.4-1.4-1.4H621v-6.8h10.9v6.8H630.5z M632.8,1474.1c-0.6,0.2-1,0.7-1,1.3v2.5H621v-2.5c0-0.6-0.4-1.1-1-1.3
				c-8.4-2.7-14-10.5-14-19.3c0-11.2,9.1-20.4,20.4-20.4s20.4,9.1,20.4,20.4C646.8,1463.6,641.2,1471.3,632.8,1474.1L632.8,1474.1z"
				/>
			<g>
				<path fill="#E76C29" d="M626.5,1429c0.7,0,1.4-0.6,1.4-1.4v-5.4c0-0.7-0.6-1.4-1.4-1.4s-1.4,0.6-1.4,1.4v5.4
					C625.1,1428.4,625.7,1429,626.5,1429L626.5,1429z"/>
				<path fill="#E76C29" d="M659,1453.4h-5.4c-0.7,0-1.4,0.6-1.4,1.4c0,0.7,0.6,1.4,1.4,1.4h5.4c0.7,0,1.4-0.6,1.4-1.4
					C660.3,1454.1,659.8,1453.4,659,1453.4L659,1453.4z"/>
			</g>
			<path fill="#E76C29" d="M599.3,1453.4h-5.4c-0.7,0-1.4,0.6-1.4,1.4c0,0.7,0.6,1.4,1.4,1.4h5.4c0.7,0,1.4-0.6,1.4-1.4
				C600.7,1454.1,600.1,1453.4,599.3,1453.4L599.3,1453.4z"/>
			<path fill="#E76C29" d="M648.5,1430.8l-3.8,3.8c-0.6,0.6-0.6,1.4,0,1.9c0.2,0.2,0.6,0.4,1,0.4c0.3,0,0.7-0.2,1-0.4l3.8-3.8
				c0.6-0.6,0.6-1.4,0-1.9C649.9,1430.3,649.1,1430.3,648.5,1430.8L648.5,1430.8z"/>
			<path fill="#E76C29" d="M606.3,1473l-3.8,3.8c-0.6,0.6-0.6,1.4,0,1.9c0.2,0.2,0.6,0.4,1,0.4c0.3,0,0.7-0.2,1-0.4l3.8-3.8
				c0.6-0.6,0.6-1.4,0-1.9C607.7,1472.5,606.8,1472.5,606.3,1473L606.3,1473z"/>
			<path fill="#E76C29" d="M646.6,1473c-0.6-0.6-1.4-0.6-1.9,0c-0.6,0.6-0.6,1.4,0,1.9l3.8,3.8c0.2,0.2,0.6,0.4,1,0.4s0.7-0.2,1-0.4
				c0.6-0.6,0.6-1.4,0-1.9L646.6,1473z"/>
			<path fill="#E76C29" d="M606.3,1436.6c0.2,0.2,0.6,0.4,1,0.4c0.3,0,0.7-0.2,1-0.4c0.6-0.6,0.6-1.4,0-1.9l-3.8-3.8
				c-0.6-0.6-1.4-0.6-1.9,0c-0.6,0.6-0.6,1.4,0,1.9L606.3,1436.6z"/>
			<path fill="#E76C29" d="M626.5,1438.5c-8.9,0-16.3,7.3-16.3,16.3c0,0.7,0.6,1.4,1.4,1.4c0.7,0,1.4-0.6,1.4-1.4
				c0-7.5,6.1-13.6,13.6-13.6c0.7,0,1.4-0.6,1.4-1.4C627.8,1439.1,627.2,1438.5,626.5,1438.5L626.5,1438.5z"/>
		</g>
		<g>
			<path fill="#264A60" d="M336.1,1775.1l-33.9-4c-3.3-0.4-6.2,2-6.6,5.3l-8.1,68.9c-0.4,3.3,2,6.2,5.3,6.6l33.9,4
				c3.3,0.4,6.2-2,6.6-5.3l8.1-68.9C341.7,1778.4,339.4,1775.4,336.1,1775.1L336.1,1775.1z M297.7,1781.4l40.4,4.7l-6,51.2
				l-40.4-4.7L297.7,1781.4z M301.8,1773.8l33.9,4c1.8,0.2,3,1.8,2.9,3.6l-0.2,2.2l-40.4-4.7l0.2-2.2
				C298.4,1774.8,300.1,1773.5,301.8,1773.8L301.8,1773.8z M326.9,1853.2l-33.9-4c-1.8-0.2-3-1.8-2.9-3.6l1.2-10.2l40.4,4.7
				l-1.2,10.2C330.4,1852.1,328.7,1853.3,326.9,1853.2L326.9,1853.2z"/>
			<path fill="#264A60" d="M311.3,1839c-3-0.3-5.7,1.8-6,4.8c-0.3,3,1.8,5.7,4.7,6c3,0.3,5.7-1.8,6-4.8
				C316.5,1842.1,314.4,1839.4,311.3,1839L311.3,1839z M310.5,1847.1c-1.5-0.2-2.6-1.5-2.4-3c0.2-1.5,1.5-2.6,3-2.4
				c1.5,0.2,2.6,1.5,2.4,3C313.3,1846.2,311.9,1847.3,310.5,1847.1L310.5,1847.1z"/>
			<path fill="#264A60" d="M312.9,1779.1l5.4,0.6c0.7,0.1,1.4-0.5,1.5-1.2c0.1-0.7-0.5-1.4-1.2-1.5l-5.4-0.6
				c-0.7-0.1-1.4,0.5-1.5,1.2C311.7,1778.4,312.2,1779,312.9,1779.1L312.9,1779.1z"/>
			<g>
				<path fill="#264A60" d="M322.4,1780.2l1.4,0.2c0.7,0.1,1.4-0.5,1.5-1.2c0.1-0.7-0.5-1.4-1.2-1.5l-1.4-0.2
					c-0.7-0.1-1.4,0.5-1.5,1.2C321.1,1779.5,321.6,1780.2,322.4,1780.2L322.4,1780.2z"/>
			</g>
			<path fill="#264A60" d="M289.9,1778.6"/>
		</g>
		<g>
			<g>
				<path fill="#E76C29" d="M491.1,1902.7v-23.4h1.5c0.8,0,1.5-0.6,1.5-1.5v-4.5c0-0.8-0.6-1.5-1.5-1.5h-18c-0.8,0-1.5,0.6-1.5,1.5
					v4.5c0,0.8,0.6,1.5,1.5,1.5h1.5v23.4c-15.5,3.8-25.6,18.5-23.7,34.3c1.9,15.8,15.3,27.7,31.2,27.7c15.9,0,29.3-11.9,31.2-27.7
					C516.7,1921.2,506.6,1906.5,491.1,1902.7L491.1,1902.7z M476.1,1874.8h15v1.5h-15V1874.8z M483.6,1961.7
					c-14.6,0-26.9-11-28.4-25.6c-1.4-14.5,8.3-27.9,22.7-30.8c0.7-0.2,1.2-0.7,1.2-1.4v-24.6h9v24.6c0,0.7,0.5,1.4,1.2,1.4
					c14.3,2.9,24.1,16.2,22.7,30.8C510.5,1950.7,498.3,1961.8,483.6,1961.7L483.6,1961.7z"/>
			</g>
			<path fill="#E76C29" d="M470.1,1913.8c-5.8,0-10.5,4.7-10.5,10.5c0,5.8,4.7,10.5,10.5,10.5c5.8,0,10.5-4.7,10.5-10.5
				S475.9,1913.8,470.1,1913.8L470.1,1913.8z M470.1,1931.8c-4.2,0-7.5-3.4-7.5-7.5c0-4.2,3.4-7.5,7.5-7.5c4.2,0,7.5,3.4,7.5,7.5
				C477.6,1928.4,474.2,1931.8,470.1,1931.8L470.1,1931.8z"/>
			<path fill="#E76C29" d="M494.1,1919.8c2.5,0,4.5-2,4.5-4.5s-2-4.5-4.5-4.5c-2.5,0-4.5,2-4.5,4.5
				C489.6,1917.8,491.6,1919.8,494.1,1919.8L494.1,1919.8z M494.1,1913.8c0.8,0,1.5,0.6,1.5,1.5c0,0.9-0.6,1.5-1.5,1.5
				c-0.8,0-1.5-0.6-1.5-1.5C492.6,1914.4,493.2,1913.8,494.1,1913.8L494.1,1913.8z"/>
			<path fill="#E76C29" d="M491.1,1937.8c-4.2,0-7.5,3.4-7.5,7.5c0,4.2,3.4,7.5,7.5,7.5c4.2,0,7.5-3.4,7.5-7.5
				C498.6,1941.1,495.2,1937.8,491.1,1937.8L491.1,1937.8z M491.1,1949.8c-2.5,0-4.5-2-4.5-4.5s2-4.5,4.5-4.5c2.5,0,4.5,2,4.5,4.5
				C495.6,1947.8,493.5,1949.8,491.1,1949.8L491.1,1949.8z"/>
			<path fill="#E76C29" d="M500.1,1928.8h-15c-0.8,0-1.5,0.6-1.5,1.5c0,0.8,0.6,1.5,1.5,1.5h15c0.8,0,1.5-0.6,1.5-1.5
				C501.6,1929.5,500.9,1928.8,500.1,1928.8L500.1,1928.8z"/>
			<path fill="#E76C29" d="M506.1,1928.8h-1.5c-0.8,0-1.5,0.6-1.5,1.5c0,0.8,0.6,1.5,1.5,1.5h1.5c0.8,0,1.5-0.6,1.5-1.5
				C507.6,1929.5,506.9,1928.8,506.1,1928.8L506.1,1928.8z"/>
		</g>
		<g>
			
				<rect x="423.1" y="1568.3" transform="matrix(-0.8464 -0.5326 0.5326 -0.8464 -57.2245 3135.658)" fill="#264A60" width="1" height="15.5"/>
		</g>
		<g>
			
				<rect x="442.6" y="1543" transform="matrix(-0.6919 -0.722 0.722 -0.6919 -366.8264 2936.4805)" fill="#264A60" width="1" height="7"/>
		</g>
		<g>
			<path fill="#264A60" d="M431.2,1545.4l-1-0.5l0.3-0.7l1,0.5L431.2,1545.4z M432,1543.8l-1-0.5l0.9-1.8l1,0.5L432,1543.8z
				 M433.3,1541l-1-0.5l0.9-1.8l1,0.5L433.3,1541z M434.7,1538.2l-1-0.5l0.9-1.8l1,0.5L434.7,1538.2z M436,1535.5l-1-0.5l0.9-1.8
				l1,0.5L436,1535.5z"/>
		</g>
		<g>
			
				<rect x="405.9" y="1540.5" transform="matrix(-0.7016 -0.7125 0.7125 -0.7016 -393.693 2917.186)" fill="#264A60" width="16.1" height="1"/>
		</g>
		<g>
			<rect x="396.7" y="1561.1" fill="#264A60" width="20.8" height="1"/>
		</g>
		<g>
			
				<rect x="443.8" y="1559" transform="matrix(-0.9968 -7.963148e-002 7.963148e-002 -0.9968 777.7398 3149.9834)" fill="#264A60" width="15.8" height="1"/>
		</g>
		<g>
			<path fill="#264A60" d="M429.1,1573L429.1,1573v-4.9c-5.5,0-9.9-4.5-9.9-9.9c0-5.5,4.5-9.9,9.9-9.9v-5c7.4,0,13.6,5.4,14.7,12.6
				c-1.1-7.1-7.3-12.6-14.7-12.6c-8.2,0-14.9,6.6-14.9,14.9C414.2,1566.3,420.9,1573,429.1,1573c7.7,0,14-5.8,14.8-13.3
				C443.1,1567.1,436.8,1573,429.1,1573z"/>
			<path fill="#264A60" d="M443.7,1555.9c0.1,0.5,0.2,1,0.2,1.5C443.9,1556.9,443.8,1556.4,443.7,1555.9z"/>
			<path fill="#264A60" d="M443.7,1555.9c-1.1-7.1-7.3-12.6-14.7-12.6v5c5.5,0,9.9,4.5,9.9,9.9c0,5.5-4.5,9.9-9.9,9.9v4.9l0,0
				c7.7,0,14-5.8,14.8-13.3c0.1-0.5,0.1-1,0.1-1.5c0-0.2,0-0.5,0-0.8C443.9,1556.9,443.8,1556.4,443.7,1555.9z"/>
			<path fill="#264A60" d="M468.1,1560.6c0-2.2-1.8-4.1-4.1-4.1v-2l0,0c-3.4,0-6.1,2.7-6.1,6.1c0,3.4,2.7,6.1,6.1,6.1l0,0v-2
				C466.3,1564.6,468.1,1562.8,468.1,1560.6z M461,1560.6c0-1.7,1.4-3,3-3s3,1.4,3,3s-1.4,3-3,3C462.4,1563.6,461,1562.2,461,1560.6
				z"/>
			<path fill="#264A60" d="M464.1,1554.5L464.1,1554.5v2c2.2,0,4.1,1.8,4.1,4.1s-1.8,4.1-4.1,4.1v2l0,0c3.1,0,5.7-2.4,6-5.4
				c0-0.2,0-0.4,0-0.6s0-0.4,0-0.6C469.7,1556.9,467.2,1554.5,464.1,1554.5z"/>
			<circle fill="#264A60" cx="438.5" cy="1529.7" r="5.1"/>
			<circle fill="#264A60" cx="417.5" cy="1587.4" r="6.6"/>
			<circle fill="#264A60" cx="409.3" cy="1536.3" r="2.7"/>
			<circle fill="#264A60" cx="446.1" cy="1543.2" r="2.7"/>
			<circle fill="#264A60" cx="393.9" cy="1561.1" r="3.8"/>
		</g>
		<g opacity="0.54">
			<path fill="#E76C29" d="M376.4,1882l-4.4-1.9l3.9-8.8l4.4,1.9L376.4,1882z M382.2,1868.8l-4.4-1.9l3.9-8.8l4.4,1.9L382.2,1868.8z
				 M388.1,1855.7l-4.4-1.9l3.9-8.8l4.4,1.9L388.1,1855.7z M393.9,1842.5l-4.4-1.9l3.9-8.8l4.4,1.9L393.9,1842.5z M399.8,1829.3
				l-4.4-1.9l3.9-8.8l4.4,1.9L399.8,1829.3z M405.7,1816.1l-4.4-1.9l3.9-8.8l4.4,1.9L405.7,1816.1z M411.5,1802.8l-4.4-1.9l3.9-8.8
				l4.4,1.9L411.5,1802.8z M417.3,1789.7l-4.4-1.9l3.9-8.8l4.4,1.9L417.3,1789.7z M423.3,1776.5l-4.4-1.9l3.9-8.8l4.4,1.9
				L423.3,1776.5z M541.6,1776l-2.1-0.6l0.7-2.6l-0.2-0.1l0.6-1.4l0.2-0.6h0.1l2.2-4.9l4.4,1.9l-3,6.8L541.6,1776z M534.9,1774.1
				l-9.3-2.6l1.4-4.6l9.3,2.6L534.9,1774.1z M521,1770.2l-9.3-2.6l1.4-4.6l9.3,2.6L521,1770.2z M507.1,1766.2l-9.3-2.6l1.4-4.6
				l9.3,2.6L507.1,1766.2z M549.5,1763.5l-4.4-1.9l3.9-8.8l4.4,1.9L549.5,1763.5z M429.1,1763.3l-4.4-1.9l3.9-8.8l4.4,1.9
				L429.1,1763.3z M493.3,1762.3l-9.3-2.6l1.4-4.6l9.3,2.6L493.3,1762.3z M479.4,1758.3l-9.3-2.6l1.4-4.6l9.3,2.6L479.4,1758.3z
				 M465.5,1754.4l-9.3-2.6l1.4-4.6l9.3,2.6L465.5,1754.4z M451.6,1750.4l-9.3-2.6l1.4-4.6l9.3,2.6L451.6,1750.4z M555.3,1750.3
				l-4.4-1.9l3.9-8.8l4.4,1.9L555.3,1750.3z M435,1750.1l-4.4-1.9l2.6-5.9l2.9-1.4l3,0.9l-1.4,4.6l-1-0.3L435,1750.1z M561.2,1737.1
				l-4.4-1.9l3.9-8.8l4.4,1.9L561.2,1737.1z M567,1723.9l-4.4-1.9l3.9-8.8l4.4,1.9L567,1723.9z M572.9,1710.7l-4.4-1.9l3.9-8.8
				l4.4,1.9L572.9,1710.7z M578.8,1697.6l-4.4-1.9l3.9-8.8l4.4,1.9L578.8,1697.6z M584.6,1684.4l-4.4-1.9l3.9-8.8l4.4,1.9
				L584.6,1684.4z M695.5,1679.1l-4.1-2.6l5.2-8.1l4.1,2.6L695.5,1679.1z M688.5,1678.4l-7.7-5.7l2.9-3.9l7.7,5.7L688.5,1678.4z
				 M590.4,1671.2l-4.4-1.9l3.9-8.8l4.4,1.9L590.4,1671.2z M676.8,1669.8l-7.7-5.7l2.9-3.9l7.7,5.7L676.8,1669.8z M703.3,1667
				l-4.1-2.6l5.2-8.1l4.1,2.6L703.3,1667z M665.2,1661.4l-7.7-5.7l2.9-3.9l7.7,5.7L665.2,1661.4z M596.4,1657.9l-4.4-1.9l3.9-8.8
				l4.4,1.9L596.4,1657.9z M711.1,1654.8l-4.1-2.6l5.2-8.1l4.1,2.6L711.1,1654.8z M653.6,1652.8l-7.7-5.7l2.9-3.9l7.7,5.7
				L653.6,1652.8z M602.2,1644.8l-4.4-1.9l3.9-8.8l4.4,1.9L602.2,1644.8z M641.9,1644.3l-7.7-5.7l2.9-3.9l7.7,5.7L641.9,1644.3z
				 M719,1642.7l-4.1-2.6l5.2-8.1l4.1,2.6L719,1642.7z M630.2,1635.7l-7.7-5.7l2.9-3.9l7.7,5.7L630.2,1635.7z M608,1631.6l-4.4-1.9
				l3.9-8.8l4.4,1.9L608,1631.6z M726.8,1630.5l-4.1-2.6l5.2-8.1l4.1,2.6L726.8,1630.5z M618.6,1627.2l-7.7-5.7l2.9-3.9l7.7,5.7
				L618.6,1627.2z M734.6,1618.4l-4.1-2.6l5.2-8.1l4.1,2.6L734.6,1618.4z M742.5,1606.3l-4.1-2.6l5.2-8.1l4.1,2.6L742.5,1606.3z"/>
		</g>
		<g opacity="0.84">
			<circle fill="#E76C29" cx="374.1" cy="1881.1" r="13.3"/>
			<circle fill="#E76C29" cx="433.6" cy="1744.4" r="13.3"/>
			<circle fill="#E76C29" cx="541.6" cy="1772.7" r="13.3"/>
			<circle fill="#E76C29" cx="611.1" cy="1618.7" r="13.3"/>
			<circle fill="#E76C29" cx="692.5" cy="1677.3" r="13.3"/>
			<circle fill="#E76C29" cx="745.7" cy="1596.9" r="13.3"/>
		</g>
		<g>
			<path fill="#264A60" d="M565.5,1784.5l-4.6,8.1c0,0-41.9-22.5-54.6-35.5c-12.7-13-19.3-24.3-17.3-39c2-14.7,13.9-38.1,55.2-56
				c41.3-17.9,60.9-29.6,60.9-29.6s24.7-1.3,29.2,0.5c4.6,1.8,36.4,17.7,36.4,17.7l-2,167h-89.1l-9.7-149.1c0,0-37.9,15.8-48.8,24.8
				s-41.4,31.4-5.2,59.5S565.5,1784.5,565.5,1784.5z"/>
			<path fill="#E3C1A8" d="M587.6,1539.3l-2.2,24.3v4c0,0-6.1-0.2-5.8,5.4c0.2,5.6,2.1,7.3,4,7.9c1.8,0.7,4.2,1.6,4,4.9
				c-0.2,3.3,4.5,18.9,9.1,23.3c4.6,4.5,11.2,14.5,30.4,10.5c19.2-4,25-19.4,25.6-23.3c0.7-4,3-9.6,3-9.6s5.8-2.8,5.8-6.3
				c0-3.5-2.4-7.8-3.3-7.6c-1,0.2,0.9-12.3,0.9-12.3l-2.2-21.2l-48.8-8.7L587.6,1539.3z"/>
			<path fill="#847363" d="M584.3,1571.9l1.2-43.1c0,0-1.4-14,16.5-14.2c18-0.2,41.5-1.6,41.5-1.6s3.3,1.8,4.2,3.3
				c1,1.4,2.6,2.8,4.9,2.8s10.7-2.6,10.5,3.3c-0.2,5.8-5,50.6-5,50.6l-1.4,0.8l-1.4-22.6c1.1-8.9-11.3-8.9-11.3-8.9
				s-25.4,2.3-36.4-2.8c-11-5.1-17.5,8.9-17.5,8.9l-4.2,25.6L584.3,1571.9z"/>
			<path fill="#FFFFFF" d="M605.3,1591.2H637c0,0-0.8,18.7-16.1,18.7C605.5,1609.9,605.3,1591.2,605.3,1591.2z"/>
			<path fill="#847363" d="M597.5,1555.7c0,0,0.8-0.6,2.2-1.3c0.7-0.3,1.5-0.6,2.5-0.8c1-0.2,1.9-0.3,3-0.3c1,0.1,2.1,0.2,3,0.5
				c0.5,0.2,0.9,0.3,1.3,0.6c0.4,0.2,0.8,0.4,1,0.6c0.6,0.4,1,0.9,1.4,1.2c0.3,0.3,0.5,0.5,0.5,0.5s-0.2-0.1-0.6-0.3
				c-0.2-0.1-0.4-0.2-0.6-0.4c-0.2-0.1-0.6-0.2-0.9-0.4c-0.3-0.2-0.7-0.2-1-0.4c-0.4-0.2-0.8-0.2-1.2-0.3c-0.4-0.1-0.9-0.2-1.4-0.2
				c-0.5-0.1-1-0.1-1.4-0.1c-1-0.1-1.8,0-2.7,0.2c-0.9,0.1-1.7,0.2-2.4,0.4C598.4,1555.4,597.5,1555.7,597.5,1555.7z"/>
			<path fill="#847363" d="M632.2,1556.7c0,0,0.2-1,1.3-2.3c0.5-0.6,1.3-1.3,2.2-1.8c0.4-0.2,1-0.4,1.4-0.6c0.5-0.2,1-0.2,1.6-0.3
				c2.2-0.2,4.3,0.6,5.7,1.3c1.4,0.8,2.2,1.4,2.2,1.4s-0.2-0.1-0.7-0.2c-0.4-0.2-1-0.3-1.8-0.6c-1.4-0.4-3.4-0.9-5.4-0.7
				c-1,0.1-1.8,0.3-2.8,0.6c-0.8,0.2-1.5,0.7-2.2,1.2c-0.6,0.5-1,0.9-1.4,1.3C632.4,1556.5,632.2,1556.7,632.2,1556.7z"/>
			<g>
				<g>
					<circle fill="#83909A" cx="605.7" cy="1569.9" r="2.6"/>
					<circle fill="#83909A" cx="635.5" cy="1572.5" r="2.6"/>
				</g>
			</g>
			<g>
				<g>
					<g>
						<path opacity="0.53" fill="#A3A6AE" enable-background="new    " d="M585,1564.4c0,0-2.1,9.6,0,13.3
							c2.1,3.8,7.5,10.7,14.5,7.9c7-2.8,16.5-13.1,16.5-13.1s5.8-7.9-1.8-12.1c-7.7-4.2-17.9-5-21.2-4
							C589.6,1557.5,585.7,1560.6,585,1564.4z"/>
						<path opacity="0.53" fill="#A3A6AE" enable-background="new    " d="M658.1,1569.2c0,0,1,9.7-1.6,13.2
							c-2.6,3.4-8.7,9.7-15.3,6.2c-6.6-3.6-14.9-14.9-14.9-14.9s-4.9-8.5,3.4-11.8c8.1-3.3,18.4-2.8,21.6-1.4
							C654.4,1561.8,657.9,1565.4,658.1,1569.2z"/>
					</g>
					<path fill="#A3A6AE" d="M596.3,1587.2L596.3,1587.2c-6.4,0-10.8-6.9-12-9c-2.2-4-0.2-13.5-0.1-13.9c0.6-4.1,4.9-7.4,8.5-8.5
						c1-0.3,2.3-0.4,3.9-0.4c4.5,0,11.9,1.2,18,4.5c2.3,1.3,3.8,3,4.2,5.2c0.9,4.1-2,8.1-2.1,8.2c-0.5,0.5-9.8,10.5-16.9,13.3
						C598.7,1586.9,597.5,1587.2,596.3,1587.2z M596.7,1556.9c-1.4,0-2.7,0.2-3.4,0.4c-3.2,1-6.8,4-7.3,7.3
						c-0.6,2.6-1.7,9.9-0.1,12.8c1,1.9,5,8.1,10.5,8.1l0,0c1,0,1.9-0.2,2.9-0.6c6.7-2.7,16.1-12.8,16.3-12.9l0,0
						c0,0,2.5-3.5,1.8-6.8c-0.4-1.7-1.5-3-3.4-4.1C608,1558,601,1556.9,596.7,1556.9z"/>
					<path fill="#A3A6AE" d="M645.2,1590.5c-1.5,0-3-0.4-4.5-1.2c-6.7-3.7-14.8-14.8-15.2-15.2c-0.2-0.2-2.6-4.6-1.1-8.5
						c0.7-2.1,2.4-3.6,4.9-4.6c5.5-2.2,11.3-2.5,14.1-2.5c3.4,0,6.5,0.4,8.1,1.1c3.4,1.5,7.3,5.4,7.4,9.6c0,0.4,1,10.1-1.8,13.7
						C655.9,1584.7,651.2,1590.5,645.2,1590.5z M643.4,1560.2c-2.8,0-8.3,0.3-13.5,2.4c-2,0.8-3.3,2-3.8,3.6c-1.1,3.2,1,6.9,1,7
						c0,0,8.1,11.2,14.5,14.6c1.2,0.6,2.4,1,3.7,1c5.1,0,9.3-5.3,10.5-6.9c1.9-2.6,1.7-10,1.4-12.6c-0.2-3.4-3.4-6.8-6.4-8.1
						C649.7,1560.7,647.2,1560.2,643.4,1560.2z"/>
				</g>
				<path fill="#A1A7AB" d="M628.4,1561.4c-10.6,0-21.5-3-22-3.1l0.5-1.6c0.2,0.1,17.6,4.8,29.5,2.4l0.3,1.7
					C634,1561.2,631.2,1561.4,628.4,1561.4z"/>
				<path fill="#A1A7AB" d="M624.8,1570c-2.8-1.8-5.3-1.2-6.9-0.4l-0.8-1.5c1.6-0.8,4.9-1.9,8.5,0.5L624.8,1570z"/>
			</g>
			<g>
				<path fill="none" d="M623.8,1575.1"/>
			</g>
			<path fill="#847363" d="M621.2,1585.9c-0.1,0,1-0.2,1.7-1l0.2-0.2l0.1-0.1l0,0l0,0l0,0c0,0.1,0.1-0.1-0.1,0.1l0,0l0,0l0.1-0.2
				c0-0.1,0-0.1,0-0.2c0-0.2,0.1-0.6,0.1-1c0.1-0.7,0.2-1.6,0.2-2.4c0.1-3.4,0.1-6.7,0.1-6.7s0-0.1,0.1-0.1c0,0,0.1,0,0.1,0.1
				c0,0,0.6,3.4,0.8,6.7c0.1,0.9,0.2,1.7,0.1,2.6c0,0.2,0,0.4-0.1,0.6c0,0.2-0.1,0.4-0.2,0.6c-0.1,0.3-0.2,0.5-0.2,0.6
				c-0.2,0.3-0.3,0.3-0.6,0.5c-0.7,0.4-1.3,0.4-1.7,0.4s-0.6-0.1-0.6-0.1C621.1,1586.1,621.1,1586.1,621.2,1585.9
				C621.1,1586,621.1,1585.9,621.2,1585.9z"/>
			<polygon fill="#E3C1A8" points="615.8,1616.1 609.9,1647.8 621.2,1654.8 624.9,1642.9 622.9,1615.4 			"/>
			<polygon fill="#DD620E" points="605,1632.4 618.3,1649.1 613.5,1658 601.5,1634.3 			"/>
			<polygon fill="#DD620E" points="631.4,1632.4 618.1,1649.1 622.9,1658 635.4,1633.3 			"/>
			<polygon fill="#FFFFFF" points="617.5,1663.7 609.9,1742.9 617.5,1757.1 626.5,1742.7 619.6,1662.7 			"/>
			<polygon fill="#FFFFFF" points="618.1,1649.1 613.5,1658 618.3,1664.5 622.9,1658 			"/>
			<path fill="#2E546A" d="M579.6,1817.4h89.5v24.4c0,0,1,10.6-3.7,19.4c-3,5.6,1.3,264.2,1.3,264.2s13.7,14.3,19.1,16.1
				c5.4,1.8,11.3,11.3,0,10.1s-33.4-6-33.4-6l-15.5-273.3l-19.7,1l-7.7,256.7c0,0,4.8,14.3,1.2,16.1c-3.6,1.8-25.6,8.9-31,8.3
				c-5.4-0.6-12.5-5.4-3.6-10.7s22-15.5,22-15.5l-13-266.3c0,0-3-4.5-3.8-19.6C580.6,1830.2,579.6,1817.4,579.6,1817.4z"/>
			<g>
				<path fill="#174159" d="M609.6,2130.1c0,0,4.8,14.3,1.2,16.1c-3.6,1.8-25.6,8.9-31,8.3c-5.4-0.6-12.5-5.4-3.6-10.7
					c8.9-5.4,22-15.5,22-15.5"/>
				<path fill="#174159" d="M666.8,2125.3c0,0,13.7,14.3,19.1,16.1c5.4,1.8,11.3,11.3,0,10.1c-11.3-1.2-33.4-6-33.4-6l-1.1-20.4"/>
			</g>
			<g>
				<polygon fill="#E76C29" points="588.7,1814.8 596.8,1813.6 584.8,1643.4 576.6,1647.2 				"/>
				<rect x="588.6" y="1813.6" fill="#FFFFFF" width="8.2" height="3.8"/>
			</g>
			<g>
				<polygon fill="#E76C29" points="651.6,1814.8 643.4,1813.6 655.4,1643.4 663.5,1647.2 				"/>
				<rect x="643.4" y="1813.6" fill="#FFFFFF" width="8.2" height="3.8"/>
			</g>
			<path fill="#E3C1A8" d="M560.6,1792c0,0-1.5,2.3,0,4.4s9.9,9.1,14.5,9.7c4.6,0.6,11.4,0.7,15.7-0.8c4.3-1.5,5.4-1.7,5.9-1.5
				c0.6,0.2,2.6-0.4,2.5-1.4c-0.2-1,1-3.8-6.8-9.5s-15.5-10.5-17.1-10.4c-1.6,0.1-6.6-0.2-8.9,1.9
				C564.3,1786.5,560.6,1792,560.6,1792z"/>
			<g>
				<g>
					<path fill="#264A60" d="M618.2,1740.1l-0.6-0.4c-12.9-10.1-12-26.7-12-27.4l9.3-65.9l1.7,0.2l-9.3,65.8
						c0,0.1-0.9,15.9,10.8,25.5c18.6-16,50.2-66.7,50.5-67.3l1.4,0.9c-0.3,0.6-32.7,52.5-51.4,68.1L618.2,1740.1z"/>
				</g>
			</g>
			<g>
				<g>
					<path fill="#264A60" d="M617.5,1745.8l-0.3-0.1c-18-3.6-16.5-24.5-16.5-24.7l12-76l1.7,0.2l-12,76c-0.1,0.7-1.3,19.3,14.9,22.8
						c27.4-13.7,50.2-57,50.5-57.5l1.5,0.8c-0.2,0.5-23.5,44.5-51.4,58.4L617.5,1745.8z"/>
				</g>
			</g>
			<path fill="#E3C1A8" d="M667.7,1641.6"/>
			<g>
				<g>
					<path fill="#E3C1A8" d="M606.7,1622.4c0.2-0.4,1.8-5.1,6.1-5.4s14.3-2.1,16.3-1c2.1,1.1,3.5,3.6,4.4,3.8"/>
				</g>
			</g>
			<path fill="#264A60" d="M669.1,1649.7c0,0,11.7,5.9,13.3,10.6c1,2.9,4.3,5.5-9.8,24c-14.1,18.5-35.3,56.2-51.8,60.9
				c-16.5,4.7-22.8-22-20.4-42c2.3-20.1,11.4-59.7,11.4-59.7h7.8l-12.1,63.2c0,0-2.7,24.4,9.7,30.6c7,3.5,53.1-71.8,53.1-71.8
				L669.1,1649.7z"/>
			<path fill="#E3C1A8" d="M611.1,1646.8c0,0-2.9-6.3-3-7.7c-0.2-1.4-1-3.2-1.5-5.3c-0.5-2.1-0.1-10.9,0.2-11.3
				c0.2-0.4,1.8-5.1,6.1-5.4s14.3-2.1,16.3-1c2,1.1,3.5,3.6,4.4,3.8c0.9,0.2,3.8-1.3,5.8-1.8c2-0.6,6.6,2.6,2.4,6s-7,5-8.1,6.9
				s-7.1,10.8-8.9,12.8c-1.5,1.8-6.2,4.7-6.2,4.7L611.1,1646.8z"/>
		</g>
	</g>
</g>
</svg>
