<svg xmlns="http://www.w3.org/2000/svg" viewBox="0 0 187.7 192"><g id="e0eb4df7-feb0-4314-b2c4-7451c5ae58d1" data-name="Layer 2"><g id="a0f83670-3251-4687-879a-3e597a4f6172" data-name="Layer 1"><path d="M99.74,87,83.21,58.36a18,18,0,0,0-15.6-9H34.54a18,18,0,0,0-15.59,9L2.41,87a18,18,0,0,0,0,18L19,133.64a18,18,0,0,0,15.59,9H67.61a18,18,0,0,0,15.6-9L99.74,105A18,18,0,0,0,99.74,87ZM51.08,113.18A17.18,17.18,0,1,1,68.25,96,17.18,17.18,0,0,1,51.08,113.18Z" style="fill:#fff"/><path d="M185.29,37.64,168.75,9a18,18,0,0,0-15.59-9H120.09a18,18,0,0,0-15.6,9L88,37.64a18,18,0,0,0,0,18l16.53,28.64a18,18,0,0,0,15.6,9h33.07a18,18,0,0,0,15.59-9l16.54-28.64A18,18,0,0,0,185.29,37.64ZM136.62,63.82A17.18,17.18,0,1,1,153.8,46.65,17.17,17.17,0,0,1,136.62,63.82Z" style="fill:#fff"/><path d="M185.29,136.35l-16.54-28.64a18,18,0,0,0-15.59-9H120.09a18,18,0,0,0-15.6,9L88,136.35a18,18,0,0,0,0,18L104.49,183a18,18,0,0,0,15.6,9h33.07a18,18,0,0,0,15.59-9l16.54-28.63A18,18,0,0,0,185.29,136.35Zm-48.67,26.18a17.18,17.18,0,1,1,17.18-17.18A17.18,17.18,0,0,1,136.62,162.53Z" style="fill:#fff"/></g></g></svg>