<svg xmlns="http://www.w3.org/2000/svg" width="18.616" height="18.616" viewBox="0 0 18.616 18.616">
  <path id="Path_2474" data-name="Path 2474" d="M9.308,1.655a28.541,28.541,0,0,1,3.723.1,4.8,4.8,0,0,1,1.758.31,3.632,3.632,0,0,1,1.758,1.758,4.8,4.8,0,0,1,.31,1.758c0,.931.1,1.241.1,3.723a28.54,28.54,0,0,1-.1,3.723,4.8,4.8,0,0,1-.31,1.758,3.632,3.632,0,0,1-1.758,1.758,4.8,4.8,0,0,1-1.758.31c-.931,0-1.241.1-3.723.1a28.54,28.54,0,0,1-3.723-.1,4.8,4.8,0,0,1-1.758-.31A3.632,3.632,0,0,1,2.068,14.79a4.8,4.8,0,0,1-.31-1.758c0-.931-.1-1.241-.1-3.723a28.541,28.541,0,0,1,.1-3.723,4.8,4.8,0,0,1,.31-1.758,3.715,3.715,0,0,1,.724-1.034,1.749,1.749,0,0,1,1.034-.724,4.8,4.8,0,0,1,1.758-.31,28.541,28.541,0,0,1,3.723-.1M9.308,0A30.559,30.559,0,0,0,5.481.1,6.385,6.385,0,0,0,3.206.517,4.049,4.049,0,0,0,1.551,1.551,4.049,4.049,0,0,0,.517,3.206,4.712,4.712,0,0,0,.1,5.481,30.559,30.559,0,0,0,0,9.308a30.559,30.559,0,0,0,.1,3.827A6.385,6.385,0,0,0,.517,15.41a4.049,4.049,0,0,0,1.034,1.655A4.049,4.049,0,0,0,3.206,18.1a6.385,6.385,0,0,0,2.275.414,30.559,30.559,0,0,0,3.827.1,30.559,30.559,0,0,0,3.827-.1A6.385,6.385,0,0,0,15.41,18.1,4.339,4.339,0,0,0,18.1,15.41a6.385,6.385,0,0,0,.414-2.275c0-1.034.1-1.345.1-3.827a30.559,30.559,0,0,0-.1-3.827A6.385,6.385,0,0,0,18.1,3.206a4.049,4.049,0,0,0-1.034-1.655A4.049,4.049,0,0,0,15.41.517,6.385,6.385,0,0,0,13.135.1,30.559,30.559,0,0,0,9.308,0m0,4.551A4.681,4.681,0,0,0,4.551,9.308,4.757,4.757,0,1,0,9.308,4.551m0,7.86a3.047,3.047,0,0,1-3.1-3.1,3.047,3.047,0,0,1,3.1-3.1,3.047,3.047,0,0,1,3.1,3.1,3.047,3.047,0,0,1-3.1,3.1m4.964-9.2A1.138,1.138,0,1,0,15.41,4.344a1.148,1.148,0,0,0-1.138-1.138" fill="#294c5b" fill-rule="evenodd"/>
</svg>
