<svg id="Group_1526" data-name="Group 1526" xmlns="http://www.w3.org/2000/svg" width="70.28" height="59.505" viewBox="0 0 70.28 59.505">
  <g id="Group_1523" data-name="Group 1523">
    <path id="Path_2626" data-name="Path 2626" d="M66.526,0H3.755A3.764,3.764,0,0,0,0,3.755V42.31a3.764,3.764,0,0,0,3.755,3.755H27.308c.032,1.956-.379,7.336-5.616,8.645H14.466a2.4,2.4,0,0,0,0,4.8H55.83a2.4,2.4,0,1,0,0-4.8H48.589c-5.206-1.294-5.632-6.689-5.616-8.645H66.526A3.764,3.764,0,0,0,70.28,42.31V3.755A3.764,3.764,0,0,0,66.526,0ZM56.65,57.108a.815.815,0,0,1-.82.82H14.466a.82.82,0,1,1,0-1.641H55.83A.825.825,0,0,1,56.65,57.108Zm-11.642-2.4H25.273c3.2-2.493,3.6-6.815,3.6-8.645H41.411C41.411,47.895,41.805,52.217,45.008,54.71ZM68.7,42.31a2.181,2.181,0,0,1-2.177,2.177H3.755A2.181,2.181,0,0,1,1.578,42.31V3.755A2.181,2.181,0,0,1,3.755,1.578H66.526A2.181,2.181,0,0,1,68.7,3.755V42.31Z" fill="#264a60"/>
    <path id="Path_2627" data-name="Path 2627" d="M62.145,1.75H5.795A3.764,3.764,0,0,0,2.04,5.5V38.523a3.764,3.764,0,0,0,3.755,3.755h56.35A3.764,3.764,0,0,0,65.9,38.523V5.5A3.764,3.764,0,0,0,62.145,1.75Zm2.177,36.773A2.181,2.181,0,0,1,62.145,40.7H5.795a2.181,2.181,0,0,1-2.177-2.177V5.5A2.181,2.181,0,0,1,5.795,3.328h56.35A2.181,2.181,0,0,1,64.322,5.5Z" transform="translate(1.178 1.011)" fill="#264a60"/>
  </g>
  <g id="Group_1525" data-name="Group 1525" transform="translate(21.77 17.053)">
    <g id="Group_1524" data-name="Group 1524">
      <path id="Path_2628" data-name="Path 2628" d="M13.8,17.178l8.771-4.528v1.309l-7.4,3.707V17.7l7.4,3.707v1.309L13.8,18.187v-1.01Z" transform="translate(-13.8 -9.747)" fill="#e76c29"/>
      <path id="Path_2629" data-name="Path 2629" d="M20.15,24.535,25.4,10.81h1.309l-5.3,13.725Z" transform="translate(-10.132 -10.81)" fill="#e76c29"/>
      <path id="Path_2630" data-name="Path 2630" d="M33.841,18.219l-8.771,4.5V21.405L32.532,17.7v-.032L25.07,13.959V12.65l8.771,4.48Z" transform="translate(-7.291 -9.747)" fill="#e76c29"/>
    </g>
  </g>
</svg>
