<svg id="Layer_1" data-name="Layer 1" xmlns="http://www.w3.org/2000/svg" xmlns:xlink="http://www.w3.org/1999/xlink" viewBox="0 0 667.64 449.18"><defs><style>.cls-1{fill:#dff0ff;}.cls-2{fill:#a1d4ff;}.cls-3{fill:#dce5fe;}.cls-4{fill:#6aafe8;}.cls-5{fill:#424773;}.cls-6{fill:#3788cc;}.cls-7{fill:url(#linear-gradient);}.cls-8{fill:url(#_102);}.cls-9{fill:#2d314f;}.cls-10{fill:#1a598c;}.cls-11{fill:#e55353;}.cls-12{fill:#eea886;}.cls-13{fill:#ff8761;}.cls-14,.cls-15,.cls-17,.cls-20{fill:#fff;}.cls-14{opacity:0.67;}.cls-15{opacity:0.52;}.cls-16{fill:url(#linear-gradient-2);}.cls-18{opacity:0.14;}.cls-19{fill:url(#linear-gradient-3);}.cls-20{opacity:0.49;}</style><linearGradient id="linear-gradient" x1="331.85" y1="390.25" x2="358.12" y2="390.25" gradientUnits="userSpaceOnUse"><stop offset="0" stop-color="#2b3582"/><stop offset="1" stop-color="#150e42"/></linearGradient><linearGradient id="_102" x1="338.17" y1="384.66" x2="352.26" y2="384.66" gradientUnits="userSpaceOnUse"><stop offset="0" stop-color="#2b3582"/><stop offset="0.5" stop-color="#150e42"/></linearGradient><linearGradient id="linear-gradient-2" x1="475.51" y1="217.9" x2="481.23" y2="217.9" xlink:href="#linear-gradient"/><linearGradient id="linear-gradient-3" x1="-981.34" y1="1365.98" x2="-972.2" y2="1365.98" gradientTransform="translate(319.22 -1507.39) rotate(-41.1)" gradientUnits="userSpaceOnUse"><stop offset="0" stop-color="#fe7062"/><stop offset="1" stop-color="#ff928e"/></linearGradient></defs><title>custom-learning-management-system---Ilustration</title><path class="cls-1" d="M625.36,206.62c-18.45-17.63-49.5-19.94-45.49-51.24,1.18-9.26,5-18,7.88-26.95,3-9.31,3.78-17.67,2.68-25.14-4-27.3-32.81-42.69-64.78-49.15-25.59-5.17-51.91-6.79-78-6.26-18.34.38-36.64,1.8-54.86,3.72-23.93,2.54-45.45,6.19-69.76,5.12a462.47,462.47,0,0,1-74.14-9.33C227.3,42.88,206,36.81,184.06,34.75c-26-2.44-90,5.25-76.78,43.71,2.39,7,3.89,14.76-4.64,18.92-6.34,3.09-14.58,2-21.39,4.22C68.18,106,57.14,115.76,52.45,128c-5.41,14.12-2.79,29.67.09,44.41C56.47,192.5,72,207.8,75.68,227.76c3.79,20.46-9.89,33.07-19.35,49.7-14.61,25.66-6.8,59.63,13.59,81.27,12.76,13.54,30.1,23,48.64,28.92H460.11c24.75,0,50.85.13,74.92-7s49.68-24.39,56.41-48.34c2.88-10.25,2-21.09,4.21-31.48,2.76-13,10.37-25,19-35.39,8-9.7,18.46-14.37,21-27.79A34.47,34.47,0,0,0,625.36,206.62Z"/><path class="cls-2" d="M557.41,360.88s-8.49-69.11,3.73-100.9c10.92-28.38,29-67.28,32.71-75.32a.68.68,0,0,1,1.25.07c3.16,9.42,17.85,60.2-11.28,115.21C551.53,360.94,557.41,360.88,557.41,360.88Z"/><path class="cls-3" d="M593.25,206.38c-.84,4.87-1.82,9.7-2.86,14.53s-2.19,9.62-3.4,14.4q-3.63,14.34-8.28,28.41-2.36,7-5,13.94T568,291.34c-2,4.5-4.19,8.94-6.51,13.31s-4.86,8.61-7.56,12.76a.56.56,0,0,1-.76.16.55.55,0,0,1-.15-.76h0c2.7-4.1,5.21-8.32,7.57-12.64s4.49-8.75,6.54-13.22,3.92-9,5.71-13.61,3.46-9.21,5-13.88q4.71-14,8.39-28.32,1.85-7.14,3.46-14.36c1.06-4.81,2.07-9.64,2.92-14.48h0a.27.27,0,0,1,.33-.23A.28.28,0,0,1,593.25,206.38Z"/><path class="cls-4" d="M549.82,374s17.31-67.44,40.3-92.58c20.51-22.43,51.5-52.07,57.93-58.19a.68.68,0,0,1,1.14.52c-.5,9.93-5.35,62.56-52.54,103.15C544.33,371.93,549.82,374,549.82,374Z"/><path class="cls-3" d="M639.56,243.26c-2.55,4.23-5.22,8.37-8,12.47s-5.54,8.16-8.42,12.17q-8.61,12-18.08,23.43-4.74,5.69-9.73,11.16T585.1,313.15c-3.54,3.45-7.17,6.8-10.93,10s-7.66,6.25-11.69,9.12a.54.54,0,0,1-.76-.13.54.54,0,0,1,.13-.76h0c4-2.84,7.89-5.86,11.66-9s7.37-6.51,10.91-9.92,7-7,10.29-10.59,6.58-7.32,9.76-11.08q9.49-11.31,18.15-23.31,4.32-6,8.46-12.11c2.74-4.09,5.44-8.21,8-12.41h0a.29.29,0,0,1,.39-.09A.28.28,0,0,1,639.56,243.26Z"/><path class="cls-2" d="M54.1,123.08c5.88,9.6,41.74,64.09,83.9,40.12,0,0-17.08-41.86-83.46-41.55C54,121.66,53.72,122.45,54.1,123.08Z"/><path class="cls-3" d="M63.16,127.12c2.52,2.21,5.12,4.33,7.76,6.4s5.32,4.08,8,6,5.5,3.84,8.31,5.66,5.68,3.55,8.59,5.21,5.89,3.2,8.91,4.64a99.76,99.76,0,0,0,9.25,3.87l1.18.41c.39.14.78.28,1.18.4l2.39.74c1.61.43,3.22.87,4.86,1.18a47,47,0,0,0,9.88,1h0a.53.53,0,0,1,.55.53.54.54,0,0,1-.54.56h0a47.66,47.66,0,0,1-10.11-1.11c-1.66-.33-3.29-.79-4.92-1.24l-2.41-.76c-.41-.12-.8-.27-1.2-.42l-1.19-.43a96.57,96.57,0,0,1-9.3-4c-3-1.47-6-3-8.92-4.74s-5.78-3.45-8.59-5.3-5.58-3.76-8.3-5.74-5.39-4-8-6.11-5.21-4.24-7.73-6.49a.23.23,0,0,1,0-.33.22.22,0,0,1,.32,0Z"/><path class="cls-4" d="M70,33c0-1.19,1.11-1.14,2.15-.57,57.16,31.56,89.49,103.24,80,126.94C152.12,159.39,71.79,163,70,33Z"/><path class="cls-3" d="M76,47.89c.1.28.23.58.34.87l.38.88.77,1.74c.51,1.17,1,2.32,1.57,3.48q1.61,3.47,3.29,6.89,3.34,6.87,7,13.59c4.83,9,9.94,17.77,15.49,26.3,2.79,4.25,5.62,8.48,8.62,12.59s6.09,8.15,9.35,12.06c.39.49.8,1,1.22,1.46l1.24,1.45,1.24,1.44c.42.48.85,1,1.28,1.42.85.94,1.69,1.9,2.57,2.82l2.64,2.74a146.36,146.36,0,0,0,11.26,10.3h0a.15.15,0,0,1,0,.19.13.13,0,0,1-.19,0A134.41,134.41,0,0,1,132.55,138l-2.68-2.73c-.89-.91-1.74-1.86-2.61-2.79l-1.3-1.41-1.26-1.44-1.26-1.44c-.42-.48-.84-1-1.25-1.45a249,249,0,0,1-18.09-24.67L102,98.87l-2-3.26c-.68-1.08-1.32-2.18-2-3.27l-1-1.64-1-1.66q-3.85-6.6-7.41-13.38T81.86,62Q80.22,58.53,78.68,55c-.52-1.17-1-2.33-1.53-3.51l-.73-1.76-.36-.89c-.11-.3-.23-.58-.34-.92a.14.14,0,1,1,.26-.08Z"/><path class="cls-5" d="M346.65,75l-1.1.48L344.24,75h-236V388.72c83.92,0,148.91-2.08,224.82,0,75.12-2.91,161.74,2.24,240.15,2.24L577.12,75Z"/><path class="cls-6" d="M116.39,68.44c93.1-3.38,137.64-27,229.36,6.39,59.6-26.36,134.85-8.57,223.85-5.61V385.59c-73.24-5.73-145.37-2.8-218,0-72.85-7.95-152-6.95-235.24,0Z"/><path class="cls-2" d="M341.1,74c-86.77-30.38-130.67-7.76-220.51-4.47v315c77.79-6.56,151.87-7.78,220.51-1.14Z"/><path class="cls-4" d="M350.88,74.26V384.35l1.24.13c72.09-2.78,143.74-5.69,216.47,0V70.62C482.48,67.77,409.33,51,350.88,74.26Z"/><path class="cls-6" d="M345.35,385.72l224.25-.13v-8.5C444.69,369,350.88,361.66,345.35,385.72Z"/><path class="cls-6" d="M345.35,385.72l-229-.28v-8.5C241.23,368.8,343,365.1,345.35,385.72Z"/><path class="cls-7" d="M331.85,385.72c1,.76.73,1.77.73,2.85h0a6.24,6.24,0,0,0,6.22,6.22h13.1a6.24,6.24,0,0,0,6.22-6.22h0c0-1.08-.28-2.09-2.25-2.85Z"/><ellipse class="cls-8" cx="345.22" cy="384.66" rx="7.04" ry="3.52"/><path class="cls-1" d="M325.35,90.12a.57.57,0,0,1-.18,0C280.9,74.65,206.72,82.26,135,89.61l-4.94.51a.54.54,0,0,1-.59-.49.53.53,0,0,1,.48-.59l4.94-.51c35.91-3.68,73-7.49,106-8.37,37-1,64.69,1.93,84.67,8.9a.55.55,0,0,1,.33.7A.54.54,0,0,1,325.35,90.12Z"/><path class="cls-1" d="M322.69,104.71a.57.57,0,0,1-.18,0c-44.27-15.44-118.44-7.83-190.18-.48l-4.94.51a.55.55,0,1,1-.11-1.09l4.94-.5c35.91-3.69,73-7.49,106-8.37,37-1,64.69,1.93,84.66,8.9a.54.54,0,0,1-.18,1.06Z"/><path class="cls-1" d="M322.69,119.76a.57.57,0,0,1-.18,0c-44.27-15.45-118.44-7.84-190.18-.48l-4.94.51a.55.55,0,0,1-.11-1.09l4.94-.51c35.91-3.68,73-7.49,106-8.36,37-1,64.69,1.93,84.66,8.9a.54.54,0,0,1,.34.69A.55.55,0,0,1,322.69,119.76Z"/><path class="cls-1" d="M324.39,132.68l-.18,0c-44.27-15.45-118.45-7.84-190.19-.48l-4.94.5a.53.53,0,0,1-.6-.48.55.55,0,0,1,.49-.6l4.94-.51c35.91-3.68,73-7.49,106-8.36,37-1,64.69,1.93,84.67,8.89a.55.55,0,0,1-.18,1.07Z"/><path class="cls-1" d="M327.14,149.93l-.18,0c-44.27-15.45-118.45-7.84-190.19-.48l-4.94.51a.55.55,0,0,1-.6-.49.55.55,0,0,1,.49-.6l4.94-.51c35.91-3.68,73-7.49,106-8.36,37-1,64.69,1.93,84.67,8.9a.55.55,0,0,1-.18,1.06Z"/><path class="cls-1" d="M324.48,164.52l-.18,0C280,149,205.85,156.65,134.12,164l-4.94.51a.55.55,0,0,1-.11-1.09l4.94-.51c35.9-3.68,73-7.49,106-8.36,37-1,64.7,1.93,84.67,8.9a.54.54,0,0,1,.34.69A.55.55,0,0,1,324.48,164.52Z"/><path class="cls-1" d="M324.48,179.56a.57.57,0,0,1-.18,0c-44.27-15.44-118.45-7.83-190.19-.47l-4.93.5a.54.54,0,1,1-.11-1.08L134,178c35.91-3.68,73-7.49,106-8.37,37-1,64.7,1.93,84.67,8.9a.54.54,0,0,1-.18,1.06Z"/><path class="cls-1" d="M326.17,192.48a.57.57,0,0,1-.18,0C281.72,177,207.55,184.61,135.81,192l-4.94.51a.55.55,0,1,1-.11-1.09l4.94-.5c35.91-3.69,73-7.49,106-8.37,37-1,64.69,1.93,84.66,8.9a.54.54,0,0,1-.18,1.06Z"/><path class="cls-1" d="M555.77,99.28h0l-5-.5c-38.88-4-79.09-8.11-114.06-8.52a.53.53,0,0,1-.54-.55.55.55,0,0,1,.55-.54c35,.4,75.26,4.53,114.16,8.52l5,.51a.55.55,0,0,1-.06,1.09Z"/><path class="cls-1" d="M558.43,113.87h-.06l-4.93-.5c-39.88-4.09-81.11-8.32-116.74-8.54a.55.55,0,0,1-.54-.55.55.55,0,0,1,.55-.54h0c35.68.22,76.94,4.45,116.84,8.54l4.93.51a.55.55,0,0,1-.05,1.09Z"/><path class="cls-1" d="M558.43,128.91h-.06l-5-.51c-39.87-4.09-81.09-8.32-116.72-8.54a.55.55,0,0,1,0-1.09h0c35.68.22,76.93,4.45,116.82,8.55l5,.5a.55.55,0,0,1-.05,1.09Z"/><path class="cls-9" d="M529.68,61l-5.75,15.07a46.42,46.42,0,0,0,32.29,31.88c26.8,7.72,37.56-5.45,37.56-5.45l6.79-22.1Z"/><path class="cls-5" d="M571,37.82,517,51.84A3.59,3.59,0,0,0,515.55,58c10.46,9.29,34.24,30.94,43.16,43.42a3.59,3.59,0,0,0,4.22,1.24l54.72-21.44a3.59,3.59,0,0,0,1.11-6C608.4,65.78,582,42.12,573.39,38A3.6,3.6,0,0,0,571,37.82Z"/><path class="cls-5" d="M569.29,65.52s28.27,18.59,30.37,22.75S597,111.09,597,111.09c4.2,16,4.54,33.18-3.23,42,0,0-9-21-4.63-29.75s6-12.28,6-12.28,4-19.91,2.93-22.79C598.13,88.32,566.84,66.62,569.29,65.52Z"/><path class="cls-4" d="M524.14,57l27,27.6,6.74,6.9,1.68,1.73.84.86a4.59,4.59,0,0,0,.88.7,5.19,5.19,0,0,0,4.34.56L584,89.53a.28.28,0,0,1,.33.17.29.29,0,0,1-.17.34L565.79,96a5.87,5.87,0,0,1-4.93-.59,5.49,5.49,0,0,1-1-.8l-.85-.85L557.31,92l-6.79-6.85L523.36,57.73a.54.54,0,1,1,.78-.76Z"/><path class="cls-4" d="M594.73,120.67l-.06.06-.06.07-.14.16-.25.32c-.17.23-.31.47-.47.7l-.43.75c-.13.25-.24.51-.37.77a7.92,7.92,0,0,0-.33.8c-.1.27-.22.53-.31.81l-.25.83c-.08.28-.17.55-.23.84l-.18.85a8.17,8.17,0,0,0-.17.86c-.08.58-.17,1.15-.24,1.73l-.11,1.75c0,.15,0,.3,0,.44v1.32a34.43,34.43,0,0,0,.18,3.52,8.46,8.46,0,0,0,.09.88l.13.88c.08.58.15,1.17.25,1.75.23,1.15.45,2.32.71,3.47l.9,3.43h0a.19.19,0,0,1-.37.1l-1-3.43c-.29-1.15-.53-2.32-.8-3.48-.11-.59-.2-1.18-.3-1.77l-.14-.88c0-.29-.1-.59-.13-.89-.1-1.19-.27-2.37-.27-3.57l0-.9v-.45c0-.15,0-.3,0-.45l.07-1.8c.06-.6.14-1.2.2-1.8,0-.3.1-.59.15-.89l.17-.89a8.7,8.7,0,0,1,.22-.88l.24-.88c.09-.29.2-.57.3-.86a7.88,7.88,0,0,1,.33-.85c.13-.28.25-.57.38-.84l.44-.82c.17-.26.32-.53.5-.78l.28-.38.16-.19.08-.1.1-.1a.54.54,0,1,1,.79.75h0Z"/><path class="cls-4" d="M595.46,128.08l0,1.12V138l0,10.1a.29.29,0,0,1-.3.3.29.29,0,0,1-.29-.29l-.27-10.1-.12-5-.05-2.52,0-1.27v-1c0-.13,0-.3,0-.44a.54.54,0,0,1,.59-.47.53.53,0,0,1,.47.54Z"/><path class="cls-4" d="M228.13,409.69h227.5V364.16H228.13C233,364.16,233,409.69,228.13,409.69Z"/><path class="cls-5" d="M455.63,398.3V377.46c0-7.34-4.49-13.3-10-13.3H229.09a7.9,7.9,0,0,1-7.9-7.9h0a2.41,2.41,0,0,1,2.4-2.4H460.21c5.43,0,14,8.54,14,19.06V402c0,9.93-8.36,18-13.48,18H224.84a3.64,3.64,0,0,1-3.65-3.64,6.66,6.66,0,0,1,6.65-6.66H447C451.78,409.69,455.63,404.59,455.63,398.3Z"/><path class="cls-10" d="M449.32,373.78H236a.29.29,0,0,1-.28-.28.28.28,0,0,1,.28-.27H449.32a.27.27,0,0,1,.27.27A.28.28,0,0,1,449.32,373.78Z"/><path class="cls-10" d="M449.32,380.53H236a.27.27,0,1,1,0-.54H449.32a.27.27,0,0,1,0,.54Z"/><path class="cls-10" d="M449.32,387.29H236a.27.27,0,1,1,0-.54H449.32a.27.27,0,1,1,0,.54Z"/><path class="cls-10" d="M449.32,394.05H236a.27.27,0,1,1,0-.54H449.32a.27.27,0,1,1,0,.54Z"/><path class="cls-10" d="M449.32,400.81H236a.28.28,0,0,1-.28-.27.29.29,0,0,1,.28-.28H449.32a.28.28,0,0,1,.27.28A.27.27,0,0,1,449.32,400.81Z"/><rect class="cls-10" x="250.6" y="304.24" width="204.71" height="49.41" rx="5.48" transform="translate(705.91 657.9) rotate(180)"/><rect class="cls-6" x="408.13" y="309.92" width="24.05" height="38.06" rx="1.98"/><rect class="cls-6" x="395.57" y="309.92" width="9.02" height="38.06" rx="1"/><path class="cls-5" d="M341.49,121.65c-.16.31-10.23,7.72-10.23,7.72s2.22,15.91,11.25,22.19c9.93,6.91,24-5.69,24-5.69s11.16,2.66,17.09-20.57c1.36-5.33-6.5-5.79-16-4.8C355.35,121.76,341.49,121.65,341.49,121.65Z"/><path class="cls-11" d="M322.66,175.94a42.56,42.56,0,0,1,12.92-6c1.73-.47,11.1,2.25,16.89,2.12,7.95-.18,16-3.8,22.59-2.17s11.83,3.74,14.91,5.93c9.2,6.55,14.61,18.76,17.9,30.85a42.15,42.15,0,0,1-14.08,9.25l-1.45,58.77-34.76,17.79-39.67-19.92,1.42-57.44s-12.6-5.87-13.52-8S311.55,183.58,322.66,175.94Z"/><path class="cls-12" d="M306.39,206.85s-16.88,46.8,21.62,66c8-1.06,4.92-14.34,4.92-14.34s-16.73-3.7-11.71-42.74C316.6,212,306.39,206.85,306.39,206.85Z"/><path class="cls-12" d="M407.06,206.85s11.62,48.86-21.61,66c-8-1.06-4.92-14.34-4.92-14.34s13.48-6.64,11.7-42.74C396.85,212,407.06,206.85,407.06,206.85Z"/><rect class="cls-10" x="317.45" y="224.7" width="76.22" height="51.47" rx="2.27"/><path class="cls-5" d="M427.1,291.44c-8.72-2-28.88-.93-28.88-.93l-.82,2.22-1.36,11s19.2,3.46,28.66,3.45a8.94,8.94,0,0,0,2.66-.4,10.58,10.58,0,0,0,.83-.81C432.21,301.62,431.05,295.18,427.1,291.44Z"/><path class="cls-12" d="M392.42,289.89l3.42.14a6.6,6.6,0,0,1,4.79,2.48,8.07,8.07,0,0,1,1.76,5.54,6.38,6.38,0,0,1-1.84,4.21,5.22,5.22,0,0,1-4,1.52l-5.22-.38Z"/><path class="cls-5" d="M277.64,290.37c8.77-1.73,28.89,0,28.89,0l.77,2.24,1.08,11.08s-19.28,2.87-28.74,2.57a9.11,9.11,0,0,1-2.64-.48,11,11,0,0,1-.82-.85C272.28,300.4,273.6,294,277.64,290.37Z"/><path class="cls-12" d="M312.34,289.89l-3.42,0a6.52,6.52,0,0,0-4.85,2.33,8.06,8.06,0,0,0-1.9,5.48,6.4,6.4,0,0,0,1.74,4.27,5.19,5.19,0,0,0,4,1.64l5.23-.21Z"/><path class="cls-9" d="M429.54,256.83c-4-9.1-13.63-10.58-21.87-6.32-.14.19-52.29,26.92-98.28,38.63a49.92,49.92,0,0,1,2.14,13.13c0,1,0,2,0,2.91,35.27-1.82,73.55-13.58,106.44-23.91C428.12,278,433.92,266.93,429.54,256.83Z"/><path class="cls-5" d="M392.67,303a30.48,30.48,0,0,1,3-14.21c.06-.2.14-.4.2-.6-2.63-.81-6-1.91-10.48-3.42-32.65-11.18-57.57-22.46-81.35-35.45-9.23-5.05-19.74-1.67-22.69,9.26-2.64,9.76,3.15,18.09,11.95,21,26.32,8.75,12.62,6.32,21.22,9.09,23.08,7.14,51.81,13.64,78.24,15.41Z"/><path class="cls-13" d="M335.58,169.93s3.51,15.22,20.56,14.91c17.37-.32,18.92-15,18.92-15l-11.35-2.42-.94-12.65-17.07,1.27-.32,12Z"/><path class="cls-12" d="M348.1,119s-19.56,37.88,3.64,47.07c16.36,6.48,26.62-25.16,23.56-33.73-4.73-13.25-7.85-11.67-7.85-11.67Z"/><path class="cls-5" d="M380,115.55c9.66,2.66,1.4,23.61-13.14,18.65s-20.27-4.88-22.53-.88-2.76,18.17-7.68,11.16c-5.39-7.68-8.39-23.11-1.78-28.08,5.91-4.45,7.28-11.34,14.37-11.1,9.41.31,16.68-3.85,20.93-.85C375.05,107.91,372.9,113.6,380,115.55Z"/><path class="cls-12" d="M343.44,136.57s-4.17-4.48-4.84.92,1.48,12.38,4,8.56S343.44,136.57,343.44,136.57Z"/><path class="cls-4" d="M360.06,238.64c.4,2.73-1.06,5.21-3.79,5.62a5,5,0,0,1-5.68-4.22c-.4-2.73.85-5.44,3.58-5.84A5.38,5.38,0,0,1,360.06,238.64Z"/><path class="cls-13" d="M443.53,204.29,547.36,199c2-.1,3.75,1,3.8,2.44L553.23,258c0,1.45-1.59,2.69-3.65,2.74-18.79.44-102.24,2.4-105.92,2.67S440,218.17,440,206.94C440,205.56,441.58,204.39,443.53,204.29Z"/><path class="cls-14" d="M445.47,261.18l0-.13c-1.53-5.16-2.45-26.42-2.34-54.17,0-.26.24-.46.57-.48l103.83-5.29a.63.63,0,0,1,.41.11.42.42,0,0,1,.21.34l2.06,56.52a.53.53,0,0,1-.57.5h0c-14.93.35-90.13,2.11-104,2.59Zm102.06-59.72h0l-103.83,5.28c-.14,0-.23.08-.23.13-.11,27.49.79,48.59,2.29,53.94,14.2-.49,89-2.24,103.85-2.59h0c.14,0,.23-.08.23-.13l-2.06-56.52s0,0-.06-.07A.31.31,0,0,0,547.53,201.46Z"/><path class="cls-15" d="M511.36,210.52h0c.06,1.43.64,2.57,1.29,2.54l28.86-1.29c.66,0,1.13-1.21,1.07-2.64h0c-.06-1.43-.64-2.56-1.3-2.53l-28.86,1.28C511.77,207.91,511.29,209.09,511.36,210.52Z"/><path class="cls-15" d="M511.45,217.56h0a1.23,1.23,0,0,0,1.24,1.24l28.86-1.28a1.25,1.25,0,0,0,1.12-1.35h0a1.25,1.25,0,0,0-1.24-1.24l-28.86,1.28A1.24,1.24,0,0,0,511.45,217.56Z"/><path class="cls-15" d="M511.42,223h0a1.24,1.24,0,0,0,1.24,1.24l28.86-1.28a1.24,1.24,0,0,0,1.12-1.35h0a1.24,1.24,0,0,0-1.24-1.24l-28.86,1.28A1.25,1.25,0,0,0,511.42,223Z"/><path class="cls-13" d="M533,260.84s-16.2,20.75,2.28,41.84l7-.64s-13.38-21.48-7.42-38.61l6.86-.46a5.11,5.11,0,0,0,3.32-1.52l2-2a1,1,0,0,0-.92-1.66Z"/><path class="cls-12" d="M541.88,362.4S555,391,561.9,402.87c0,0,1.37,7.45,0,9.8l-1.17.52,5.44-.17s.49-10,.11-10.59a1.38,1.38,0,0,0-1.13-.52s-2.34-18.48-9.09-22.43l-6.55-22.55Z"/><path class="cls-10" d="M558.41,414.59c0,.13,4.25.07,6.56,0a1.85,1.85,0,0,0,1.76-1.45l1.75-9.17a1.65,1.65,0,0,0-1.25-1.92l-1-.22a5.19,5.19,0,0,0-1,3.7c.44,1.8.83,6.45-.28,7a16.31,16.31,0,0,1-4.29.64S558.48,413.41,558.41,414.59Z"/><path class="cls-10" d="M529.44,414.76a.48.48,0,0,0,.24.9c3.87,0,12.54-.17,13.31-.49,1-.41-.36-4-1.79-5.19l-7.88,2.57Z"/><path class="cls-12" d="M527,360.58s8.49,41,10.89,49l-5.68,3.57s2.84-.49,4.95-.64S541.2,410,541.2,410l-.68-1.09s-2.12-40.81-1.61-45.45Z"/><path class="cls-12" d="M505.93,264.86s-1.17,21.34,18.27,32.25l-4.68,10.68S502,297.16,502.57,268.17a3.43,3.43,0,0,0-.82-2.33L498,261.5a6.69,6.69,0,0,1-1.43-6l.49-2a1,1,0,0,1,1.51-.63l.39.22a6.93,6.93,0,0,1,2.82,3.14l1.83,4.1c.6,1.34.82,1.6,2,1.54a3.31,3.31,0,0,1,1.13.13l2,.55Z"/><path class="cls-10" d="M523.52,295.51c3.26.91,14.27,3.8,21.15,3.69L540.45,323l.33,3.89L527,326.85s-3.88-9-6.94-13.49c-.88-1.3-.22-2.84.28-4.33l-.69-.46a1.87,1.87,0,0,1-.74-2.14l3.35-10.25A1,1,0,0,1,523.52,295.51Z"/><path class="cls-10" d="M525.91,324.81l.27,2.36s-3.89,11.65,2,38.86c0,0,12.64,3.58,23-5,0,0-2.93-25.68-3.74-26.88-4-6-6.64-7.25-6.64-7.25l-.12-2.57S529.55,326.35,525.91,324.81Z"/><path class="cls-12" d="M531.3,297.43c0-.06,2.88-8.82,2.88-8.82l4.18.38,1.64,9.94S533.44,300.25,531.3,297.43Z"/><path class="cls-12" d="M537.36,274.8c-.28.17-9,3.75-7.08,12.75a1.67,1.67,0,0,0,1,1.2,14.66,14.66,0,0,0,7.28,1.21c4.54-.46,7.52-8.38,7.39-10.69S540.13,273.07,537.36,274.8Z"/><path class="cls-5" d="M534.5,293.65a13.8,13.8,0,0,1,1.15-5.54,5.48,5.48,0,0,0-.67-5.75c-2.19-2.62-3-5.94-1.78-8.85,1.88-4.55,7.93-6.35,13.5-4a11.37,11.37,0,0,1,7.13,8.29,7.63,7.63,0,0,0,2.91,4.87,13.78,13.78,0,0,1,4.78,6.76,7.77,7.77,0,0,0,3.46,4.37,21,21,0,0,1,8.84,9.76,21.33,21.33,0,1,1-38.65-.54,5.46,5.46,0,0,0,.26-4.37A13.62,13.62,0,0,1,534.5,293.65Z"/><path class="cls-2" d="M554.9,330.26a14.78,14.78,0,0,1-13.78-9.3c-1.55-3.85-1.4-8.1-1.25-12.21a35.83,35.83,0,0,0-.62-10.35c-.15-.57-.33-1.16-.51-1.72-.58-1.87-1.18-3.79-.76-5.71a11.74,11.74,0,0,1,1.29-3,7.88,7.88,0,0,0,1.34-3.93,7.49,7.49,0,0,0-1.94-4.14l-.2-.26a9.83,9.83,0,0,1-2.17-3.86c-.34-1.6.39-3.58,2-4l.07.26c-1.48.37-2.14,2.2-1.83,3.67a9.66,9.66,0,0,0,2.13,3.75l.2.26a7.76,7.76,0,0,1,2,4.3,8.11,8.11,0,0,1-1.37,4.07,11.35,11.35,0,0,0-1.26,2.94c-.41,1.85.18,3.74.76,5.57.17.57.36,1.15.51,1.73.88,3.38.75,7,.63,10.43-.15,4.09-.3,8.31,1.22,12.11a14.61,14.61,0,0,0,19,8.09l.1.25A15,15,0,0,1,554.9,330.26Z"/><path class="cls-2" d="M555.61,325.83a13.27,13.27,0,0,1-12-7.88c-1.47-3.63-1.16-7.65-.86-11.55s.58-7.66-.74-11.17l.25-.09c1.34,3.56,1,7.49.75,11.28s-.6,7.86.85,11.43a12.87,12.87,0,0,0,14,7.48l0,.26A11.09,11.09,0,0,1,555.61,325.83Z"/><path class="cls-5" d="M491.2,253.94a113.63,113.63,0,0,1-31.52-.1,2.21,2.21,0,0,1-1.83-2.78l.61-2.18a1.69,1.69,0,0,1,1.48-1.22c10.68-.81,21.12-1.18,30.84-.25a1.77,1.77,0,0,1,1.48,1.09l.87,2.08A2.45,2.45,0,0,1,491.2,253.94Z"/><path class="cls-16" d="M475.51,210.64l2.93,14.73a.5.5,0,0,0,.37.37,3,3,0,0,0,2.18-.39.48.48,0,0,0,.23-.5L478.29,210Z"/><path class="cls-10" d="M472.79,201l4.54,22.81a.74.74,0,0,0,.57.58,4.72,4.72,0,0,0,3.37-.6.73.73,0,0,0,.36-.78l-4.53-23Z"/><path class="cls-10" d="M470.82,195.58,476.21,222a1,1,0,0,0,.77.78,6.35,6.35,0,0,0,4.54-.81,1,1,0,0,0,.48-1.05l-5.38-26.62Z"/><path class="cls-5" d="M470.3,195.49l.18.31a.54.54,0,0,0,.59.27l5.55-1.13a.56.56,0,0,0,.44-.54v-.46a.56.56,0,0,0-.67-.54l-5.73,1.29A.56.56,0,0,0,470.3,195.49Z"/><path class="cls-5" d="M471.9,200.31l5.81-1.17.45,0a.6.6,0,0,1,.49.35h0a1,1,0,0,1-.29.69l-.37.35-5.81,1.18-.76-.3a.45.45,0,0,1-.25-.22h0a.49.49,0,0,1,.21-.64Z"/><path class="cls-5" d="M472.49,211.75l-.77-6.54a.9.9,0,0,1,.74-1l6.17-1.15a.83.83,0,0,1,1,.68L481.92,217a24.43,24.43,0,0,1-8.56,1.59s-.87-1.88-2.18-1.74-5.37,1.89-4.64,10,6.53,7.11,6.53,7.11l2.46,11.17A17.5,17.5,0,0,1,461.75,229a19,19,0,0,1,6.58-15.89,3.83,3.83,0,0,1,1.7-.84Z"/><path class="cls-10" d="M466.46,247.31l2.24-8.42a2.65,2.65,0,0,1,2.55-2h1.32a2.6,2.6,0,0,1,2.52,2l2.13,8.44a.86.86,0,0,1-.83,1.07h-9.1A.86.86,0,0,1,466.46,247.31Z"/><path class="cls-5" d="M474,240.41a1.89,1.89,0,1,1-1.89-1.89A1.89,1.89,0,0,1,474,240.41Z"/><path class="cls-5" d="M490.18,233c-1.7-1.39-4.95-2.32-8.7-2.32s-7,.93-8.7,2.32h-1.24v2.17c0,2.49,4.45,4.5,9.94,4.5s9.94-2,9.94-4.5V233Z"/><ellipse class="cls-5" cx="481.48" cy="233.01" rx="9.94" ry="4.5"/><ellipse class="cls-10" cx="481.48" cy="232.94" rx="8.34" ry="3.41"/><path class="cls-4" d="M481.48,230.11c4.37,0,7.95,1.37,8.31,3.12a1.5,1.5,0,0,0,0-.29c0-1.89-3.73-3.41-8.34-3.41s-8.34,1.52-8.34,3.41a1.5,1.5,0,0,0,0,.29C473.53,231.48,477.11,230.11,481.48,230.11Z"/><path class="cls-10" d="M476.26,209.72a3.56,3.56,0,1,1-3.56-3.34A3.46,3.46,0,0,1,476.26,209.72Z"/><circle class="cls-5" cx="472.7" cy="209.94" r="2.39"/><path class="cls-17" d="M485.41,250.63a.35.35,0,0,1-.06-.7c.57-.11,1.13-.22,1.68-.35a.35.35,0,0,1,.42.27.36.36,0,0,1-.27.42l-1.71.35Z"/><path class="cls-4" d="M476.11,251.41a75.27,75.27,0,0,1-16.41-1.88.35.35,0,0,1-.25-.43.34.34,0,0,1,.42-.25c.12,0,12.11,3,23.79,1.35a.35.35,0,0,1,.1.7A54.11,54.11,0,0,1,476.11,251.41Z"/><path class="cls-4" d="M480.8,216.1a.35.35,0,0,1-.34-.29l-.18-1.05a.35.35,0,0,1,.29-.41.37.37,0,0,1,.41.29l.17,1.05a.35.35,0,0,1-.29.41Z"/><path class="cls-4" d="M480.34,213.32A.35.35,0,0,1,480,213l-1.49-8.87s0-.06-.07,0l-.61.08a.35.35,0,1,1-.1-.7l.62-.08a.76.76,0,0,1,.86.63l1.48,8.87a.34.34,0,0,1-.28.4Z"/><path class="cls-13" d="M432.31,128.82l131.45-6.55c2.58-.13,4.73,1,4.78,2.54l2.09,59.67c0,1.53-2,2.85-4.64,2.92-23.79.64-129.41,3.49-134.07,3.82s-4.23-47.71-4.07-59.56C427.87,130.19,429.84,128.94,432.31,128.82Z"/><path class="cls-14" d="M434.28,188.86l0-.12c-1.89-5.42-2.86-27.87-2.46-57.18,0-.26.29-.47.67-.49l131.45-6.55a.9.9,0,0,1,.47.09.42.42,0,0,1,.25.36l2.08,59.67c0,.27-.28.49-.67.5h0c-18.92.51-114.22,3.08-131.61,3.71Zm129.67-64h0L432.46,131.4c-.23,0-.35.12-.35.16-.4,29.07.55,51.37,2.41,57,17.7-.64,112.6-3.2,131.48-3.7h0c.22,0,.35-.12.35-.17L564.29,125s0-.06-.08-.08A.65.65,0,0,0,564,124.85Z"/><path class="cls-15" d="M518.08,134.77h0c.07,1.51.8,2.7,1.62,2.66l36.54-1.62c.82,0,1.44-1.29,1.37-2.8h0c-.07-1.51-.79-2.7-1.62-2.67L519.46,132C518.63,132,518,133.26,518.08,134.77Z"/><path class="cls-15" d="M518.13,142.2h0a1.44,1.44,0,0,0,1.56,1.3l36.53-1.63a1.43,1.43,0,0,0,1.44-1.43h0a1.44,1.44,0,0,0-1.56-1.3l-36.53,1.63A1.44,1.44,0,0,0,518.13,142.2Z"/><path class="cls-15" d="M518.05,147.9h0a1.43,1.43,0,0,0,1.55,1.29l36.54-1.62a1.43,1.43,0,0,0,1.43-1.44h0a1.43,1.43,0,0,0-1.55-1.29l-36.54,1.62A1.44,1.44,0,0,0,518.05,147.9Z"/><path class="cls-5" d="M513.34,179.69a1.43,1.43,0,0,1-1.43,1.42h-77a1.43,1.43,0,0,1-1.42-1.42l-.64-44.23a2.49,2.49,0,0,1,2.61-2.2l75.22-1.94a3.6,3.6,0,0,1,2.63,1,3.55,3.55,0,0,1,1,2.63Z"/><path class="cls-10" d="M511.93,178.32a1.35,1.35,0,0,1-1.35,1.35H436.8a1.35,1.35,0,0,1-1.35-1.35l-.6-40.15a3.31,3.31,0,0,1,3.47-3.23l72.1-1.94a2.53,2.53,0,0,1,2.58,2.58Z"/><g class="cls-18"><path class="cls-4" d="M438.7,176.1c.08-3.32.05-32.71-.14-35.25s3.77-3,9.83-3.3,57.28-1.41,58.6-1.52c3-.24,3.57,4.19,3.28,13.8-.22,7.23-.59,19.13-.76,24.6a3,3,0,0,1-3,2.93c-12.32,0-59.55.17-62.69.26C440.18,177.73,438.67,177.41,438.7,176.1Z"/></g><rect class="cls-5" x="428.84" y="180.9" width="90.74" height="3.89" rx="1.94"/><path class="cls-6" d="M448.18,169.12l-1,1.06c-1.66,1.81-2,4.18-.8,5.3l1.45,1.32c1.22,1.12,3.55.56,5.21-1.24l1-1.06.18-.21,27.3-32.47-3.16-2.89-30,30Zm1.55,1.27c1.24-1.36,2.91-1.87,3.72-1.12s.45,2.44-.8,3.8-2.91,1.87-3.72,1.12S448.48,171.75,449.73,170.39Z"/><path class="cls-6" d="M486.57,126.8,481,132.91a1.89,1.89,0,0,0-.47,1.61l.52,3a1.89,1.89,0,0,0,1.71,1.57l3,.26a1.86,1.86,0,0,0,1.56-.61l5.61-6.11a1.46,1.46,0,0,1,2.53.82,10.92,10.92,0,0,1-2.86,8.54c-4,4.4-10.23,4.28-14.46.4s-4.88-10-.85-14.44a11,11,0,0,1,8.27-3.59A1.47,1.47,0,0,1,486.57,126.8Z"/><path class="cls-2" d="M487.14,127.33l-5.6,6.11a1.86,1.86,0,0,0-.47,1.61l.51,3a1.9,1.9,0,0,0,1.72,1.57l3,.26a1.9,1.9,0,0,0,1.57-.61l5.6-6.11A1.47,1.47,0,0,1,496,134a11,11,0,0,1-2.86,8.54c-4,4.4-10.24,4.28-14.46.4s-4.89-10-.85-14.44a10.93,10.93,0,0,1,8.26-3.59A1.47,1.47,0,0,1,487.14,127.33Z"/><path class="cls-2" d="M448.64,169.55l-1,1c-1.66,1.81-2,4.18-.8,5.3l1.45,1.33c1.22,1.11,3.55.55,5.21-1.25l1-1.06.18-.21L482,142.25l-3.16-2.9-30,30Zm1.55,1.26c1.24-1.36,2.91-1.86,3.72-1.12s.45,2.44-.8,3.8-2.91,1.87-3.72,1.13S448.94,172.17,450.19,170.81Z"/><polygon class="cls-5" points="476.9 156.84 474.71 158.76 454.82 135.5 456.56 133.99 476.9 156.84"/><path class="cls-19" d="M472.48,150.65l-3.31,2.88a1.52,1.52,0,0,0-.17,2.1l16.76,20.52a3.52,3.52,0,0,0,5.06.43l1.56-1.36a3.53,3.53,0,0,0,.26-5.08l-18.05-19.38A1.52,1.52,0,0,0,472.48,150.65Z"/><rect class="cls-11" x="478.98" y="151.23" width="1.11" height="27.62" transform="translate(9.69 355.92) rotate(-41.1)"/><rect class="cls-11" x="480.5" y="149.9" width="1.11" height="27.62" transform="translate(10.95 356.62) rotate(-41.11)"/><rect class="cls-11" x="482.02" y="148.58" width="1.11" height="27.62" transform="translate(12.18 357.27) rotate(-41.1)"/><path class="cls-5" d="M449.58,126.64l-1.09,1a.79.79,0,0,0-.24.92l1.93,3.83a.58.58,0,0,0,.16.19l4.36,3.34a.78.78,0,0,0,1-.1l1.15-1a.78.78,0,0,0,.22-1l-2.82-4.68a.52.52,0,0,0-.16-.17l-3.53-2.44A.8.8,0,0,0,449.58,126.64Z"/><path class="cls-2" d="M39.67,386.53H154V363.64H39.67C42.11,363.64,42.11,386.53,39.67,386.53Z"/><path class="cls-10" d="M154,380.8V370.33c0-3.7-2.26-6.69-5.05-6.69H40.15a4,4,0,0,1-4-4h0a1.21,1.21,0,0,1,1.21-1.21H156.33c2.73,0,7.06,4.29,7.06,9.58v14.63c0,5-4.2,9-6.77,9H38a1.83,1.83,0,0,1-1.83-1.83,3.35,3.35,0,0,1,3.34-3.34H149.71C152.1,386.53,154,384,154,380.8Z"/><path class="cls-6" d="M150.86,368.61H43.63a.28.28,0,1,1,0-.55H150.86a.28.28,0,0,1,0,.55Z"/><path class="cls-6" d="M150.86,372H43.63a.29.29,0,0,1-.28-.28.28.28,0,0,1,.28-.27H150.86a.27.27,0,0,1,.27.27A.28.28,0,0,1,150.86,372Z"/><path class="cls-6" d="M150.86,375.4H43.63a.27.27,0,1,1,0-.54H150.86a.27.27,0,0,1,0,.54Z"/><path class="cls-6" d="M150.86,378.8H43.63a.27.27,0,1,1,0-.54H150.86a.27.27,0,0,1,0,.54Z"/><path class="cls-6" d="M150.86,382.2H43.63a.28.28,0,1,1,0-.55H150.86a.28.28,0,0,1,0,.55Z"/><rect class="cls-6" x="50.96" y="333.52" width="102.91" height="24.84" rx="5.48"/><rect class="cls-10" x="130.15" y="336.37" width="12.09" height="19.13" rx="1.98" transform="translate(272.39 691.88) rotate(180)"/><rect class="cls-10" x="123.84" y="336.37" width="4.54" height="19.13" rx="1" transform="translate(252.21 691.88) rotate(180)"/><path class="cls-13" d="M179.39,187.06l108.86-5.54c2.14-.11,3.93,1,4,2.56l2.17,59.26c.05,1.52-1.67,2.82-3.82,2.87-19.71.46-107.2,2.52-111,2.8s-3.86-47.39-3.81-59.16C175.72,188.39,177.34,187.17,179.39,187.06Z"/><path class="cls-14" d="M181.43,246.7l0-.13c-1.61-5.4-2.57-27.69-2.46-56.79a.56.56,0,0,1,.59-.49l108.86-5.54a.72.72,0,0,1,.42.1.42.42,0,0,1,.22.36l2.16,59.26a.55.55,0,0,1-.58.51h0c-15.67.36-94.55,2.21-109,2.71Zm107-62.61h0l-108.86,5.54c-.16,0-.26.1-.26.15-.12,28.84.83,51,2.41,56.56,14.81-.5,93.26-2.34,108.88-2.71h0c.15,0,.25-.09.25-.15l-2.17-59.26s0,0-.05-.08A.41.41,0,0,0,288.42,184.09Z"/><path class="cls-10" d="M204.93,226.38H182.69l-2.44,8.26a3.07,3.07,0,0,1-2.95,2.2H164a3.07,3.07,0,0,1-2.88-4.16l21.52-57.25a3.07,3.07,0,0,1,2.88-2h17.11a3.07,3.07,0,0,1,2.88,2l21.51,57.25a3.07,3.07,0,0,1-2.88,4.16H210.39a3.08,3.08,0,0,1-2.95-2.18Zm-4.06-13.71-7-22.8L187,212.67Z"/><path class="cls-10" d="M256.66,203.16h24a2.71,2.71,0,0,1,2.71,2.71v2.94a2.72,2.72,0,0,1-.75,1.87l-18.16,18.93h16.89a2.7,2.7,0,0,1,2.71,2.7v1.82a2.71,2.71,0,0,1-2.71,2.71H254.84a2.71,2.71,0,0,1-2.71-2.71V231a2.71,2.71,0,0,1,.76-1.88l17.95-18.72H256.66a2.7,2.7,0,0,1-2.71-2.7v-1.78A2.71,2.71,0,0,1,256.66,203.16Z"/><circle class="cls-10" cx="233.49" cy="234.65" r="2.19" transform="matrix(0.16, -0.99, 0.99, 0.16, -35.53, 427.54)"/><path class="cls-10" d="M242.25,234.65a2.19,2.19,0,1,1-2.19-2.19A2.19,2.19,0,0,1,242.25,234.65Z"/><path class="cls-10" d="M248.82,234.65a2.19,2.19,0,1,1-2.19-2.19A2.19,2.19,0,0,1,248.82,234.65Z"/><path class="cls-5" d="M118.83,397.87a32,32,0,0,0-1.18-5.54c-.59-1.14-2.63,0-2.63,0a5.41,5.41,0,0,0-2.1,1.79c-.42.7-1.58,2.72-2.37,4.09a1,1,0,0,0-.12.49l8.17.29A1.65,1.65,0,0,0,118.83,397.87Z"/><path class="cls-12" d="M119.45,385.8c-.07.24-1.12,5.35-1.58,7.6a1.28,1.28,0,0,1-1.32,1,10.47,10.47,0,0,1-1.17-.1,1.54,1.54,0,0,1-1.35-1.47c-.08-2-.11-5.75.61-7.21C115.64,383.62,119.45,385.8,119.45,385.8Z"/><path class="cls-5" d="M148.78,399c4.18.19,8.23.07,10.94-.07-2.46-1.75-8.14-5.57-12.89-7.09l-3.26-.19a13.37,13.37,0,0,0-1.5,5.52C142.61,397.84,144.19,398.78,148.78,399Z"/><path class="cls-12" d="M142.93,387.27c.45,0-.18,2.33.5,4.65a1.19,1.19,0,0,0,1.09.93c.36,0,.77,0,1.2,0a1.32,1.32,0,0,0,1.21-1.19l.55-6Z"/><path class="cls-9" d="M155.59,323.53c-.2,1-7.33,42.58-7.76,64.11a.75.75,0,0,1-.63.72,14.86,14.86,0,0,1-4.38,0,.53.53,0,0,1-.43-.48c-.25-4-2.25-37.93.2-53.89,0,0-20.28,42.68-23.35,54.45a.62.62,0,0,1-.63.46,15.37,15.37,0,0,1-4.11-.73,1.07,1.07,0,0,1-.68-1.26c1.72-7,13.75-55.57,21.93-66.26Z"/><path class="cls-5" d="M142.59,334.22a.26.26,0,0,1-.18-.07.27.27,0,0,1,0-.38l2.72-2.78a.27.27,0,0,1,.37,0,.27.27,0,0,1,0,.38l-2.72,2.77A.24.24,0,0,1,142.59,334.22Z"/><path class="cls-5" d="M180.7,271.42a25.69,25.69,0,0,1-13.48,0c-5.94-1.55-17.64-4.13-25.6-2.69L141,289.6l27.24,3.11.24-5.53s16.56-2.39,25.51-13.28a43.68,43.68,0,0,1-5-6.78A21.42,21.42,0,0,1,180.7,271.42Z"/><path class="cls-12" d="M199.09,250.69l-3-1.18s.64,10.94-7.18,17.61a43.68,43.68,0,0,0,5,6.78C198.36,268.54,201.26,260.92,199.09,250.69Z"/><path class="cls-13" d="M154.66,257.17s-1.58,9.44-1.8,12.4c0,0,7.64,2.11,9.63,1l-.25-11.41Z"/><path class="cls-12" d="M163.24,248.48s2.53,5.83,2.7,8.89.83,5-2.7,5.66a7.53,7.53,0,0,1-8.14-4.19s-2.53-4.7-2-6.62S163.24,248.48,163.24,248.48Z"/><path class="cls-5" d="M156.31,256.64h.45s-1.84-3.78-.23-4.44,8-2,9.42-4.25a4.22,4.22,0,0,0-1.63-5.82.24.24,0,0,0-.31.11l-.14.28a.25.25,0,0,1-.45,0h0a.24.24,0,0,0-.43-.07c-.42.68-1.57,1.79-4.65,2.35-4.36.81-7.25,2.58-7.32,5.59a.24.24,0,0,1-.37.2c-.32-.2-.84-.29-1.53.29-1.2,1-.71,3.63,1.92,5.78a.23.23,0,0,1,0,.38c-.48.31-1.19,1.05.65,2s3,.9,3.42.79a.24.24,0,0,0,.18-.25l-.16-2.67a.24.24,0,0,1,.24-.26Z"/><path class="cls-12" d="M156.42,257.2s-1-3.72-2.64-2.68.87,4.18,2.21,4.32Z"/><path class="cls-12" d="M191.85,242.83v3.87s2.87,4,6.6,4.16a3.47,3.47,0,0,0,2.73-2.36l-5-.4a29.77,29.77,0,0,0-2.63-2.34S193.09,243,191.85,242.83Z"/><path class="cls-10" d="M177,288.72a1.13,1.13,0,0,1,1.19,1.31l-5,31.53a1.12,1.12,0,0,1-1.07,1l-50.23,2.1a1.13,1.13,0,0,1-1.18-1.09l-1.25-29.95a1.13,1.13,0,0,1,1.06-1.18Z"/><path class="cls-4" d="M173,286.55a1.19,1.19,0,0,1,1.29,1.22l-1,34.2a1.2,1.2,0,0,1-1.14,1.15L122,325.21a1.18,1.18,0,0,1-1.23-1l-3.47-31.43a1.18,1.18,0,0,1,1.07-1.31Z"/><path class="cls-10" d="M168,284.81a1.46,1.46,0,0,1,1.71,1.3l3.39,35.42a1.47,1.47,0,0,1-1.4,1.61l-49.32,2.06a1.48,1.48,0,0,1-1.53-1.36l-2.06-29.15a1.47,1.47,0,0,1,1.22-1.55Z"/><path class="cls-5" d="M148.3,280l-6.68-11.24s-14,12-18.21,28.62l7.42,4.65C133.87,296.6,139.17,289.37,148.3,280Z"/><path class="cls-12" d="M133.68,326.74a1.82,1.82,0,0,1-1.61-1.06,45.82,45.82,0,0,0-3-5.79,3.74,3.74,0,0,1,2.38-.07c1.52.35,2.81-.27,2.85-1.11l-7.1-3c-.26-.73-1.29-4.8,3.66-13.64l-7.42-4.65a35.42,35.42,0,0,0,.6,20.28s1.4,8.14,4.23,9.78,7.13-.67,7.13-.67Z"/><path class="cls-1" d="M403.51,139.51h-.09l-3.65-.44a.8.8,0,0,1-.69-.62l-.58-2.71a13.59,13.59,0,0,1-3.4-1.92l-2.62.91a.79.79,0,0,1-.88-.27l-2.27-2.89a.8.8,0,0,1,0-.93l1.5-2.32a13.67,13.67,0,0,1-1.05-3.76l-2.49-1.21a.79.79,0,0,1-.44-.81l.44-3.66a.8.8,0,0,1,.62-.68l2.71-.58a13.91,13.91,0,0,1,1.92-3.4l-.91-2.62a.8.8,0,0,1,.27-.89l2.89-2.26a.81.81,0,0,1,.93,0L398,109.9a13.76,13.76,0,0,1,3.76-1.05l1.21-2.49a.81.81,0,0,1,.82-.45l3.65.45a.79.79,0,0,1,.68.62l.58,2.71a13.59,13.59,0,0,1,3.4,1.92l2.62-.91a.81.81,0,0,1,.89.26l2.27,2.9a.8.8,0,0,1,0,.92l-1.51,2.33a13.67,13.67,0,0,1,1,3.76l2.49,1.21a.8.8,0,0,1,.45.81l-.45,3.65a.8.8,0,0,1-.62.69l-2.71.58a13.59,13.59,0,0,1-1.92,3.4l.91,2.62a.78.78,0,0,1-.26.88l-2.9,2.27a.8.8,0,0,1-.92.05l-2.33-1.51a13.67,13.67,0,0,1-3.76,1l-1.21,2.49A.78.78,0,0,1,403.51,139.51Zm-3.4-1.51,3.23.39,1.38-2.83.3,0a12.68,12.68,0,0,0,4-1.11l.27-.13,2.65,1.72,2.57-2-1-3,.19-.23a13.08,13.08,0,0,0,2-3.62l.1-.28,3.09-.67.39-3.23-2.84-1.38,0-.3a13,13,0,0,0-1.12-4l-.13-.27,1.72-2.65-2-2.57-3,1-.23-.19a12.66,12.66,0,0,0-3.62-2l-.28-.11-.66-3.08-3.24-.4-1.38,2.84-.3,0a13,13,0,0,0-4,1.12l-.27.13-2.65-1.72-2.57,2,1,3-.19.23a12.69,12.69,0,0,0-2,3.62l-.11.28-3.08.66-.39,3.24,2.83,1.38,0,.3a12.75,12.75,0,0,0,1.11,4l.13.27-1.71,2.65,2,2.57,3-1,.24.18a12.64,12.64,0,0,0,3.61,2l.28.11Zm-.21,0Zm19.2-11.82Zm-31.31-7.22Zm15.88,13.15a11.24,11.24,0,0,1-1.14-.07,9.49,9.49,0,0,1-4.64-1.91.55.55,0,0,1,.67-.86,8.33,8.33,0,1,0-3.16-7.59,8.83,8.83,0,0,0,0,1.78.54.54,0,0,1-.49.59.53.53,0,0,1-.59-.49,8.45,8.45,0,0,1,0-2,9.42,9.42,0,1,1,9.35,10.56Z"/><path class="cls-1" d="M403.6,126.52a3.86,3.86,0,0,1-1.37-.25,3.77,3.77,0,0,1-2.11-2,3.81,3.81,0,0,1,1.94-5,3.77,3.77,0,0,1,2.91-.08,3.8,3.8,0,0,1,2.19,4.93,3.82,3.82,0,0,1-3.56,2.44Zm0-6.53a2.82,2.82,0,0,0-1.1.23,2.73,2.73,0,0,0-1.44,1.51h0a2.75,2.75,0,0,0,1.56,3.52,2.72,2.72,0,0,0,2-5.08A2.78,2.78,0,0,0,403.6,120Zm-3.05,1.54h0Z"/><path class="cls-1" d="M426.76,109.13a.56.56,0,0,1-.41-.19l-.81-1a6.93,6.93,0,0,1-1.76,0l-.85.92a.5.5,0,0,1-.6.12l-1.62-.71a.52.52,0,0,1-.31-.53l.1-1.25a6.68,6.68,0,0,1-1.22-1.27l-1.25,0a.53.53,0,0,1-.51-.34l-.64-1.65a.53.53,0,0,1,.15-.6l1-.81a6.91,6.91,0,0,1,0-1.76l-.91-.85a.52.52,0,0,1-.13-.6L417.7,97a.53.53,0,0,1,.53-.32l1.24.11a6.73,6.73,0,0,1,1.28-1.22l-.05-1.25a.53.53,0,0,1,.34-.52l1.65-.64a.51.51,0,0,1,.59.16l.81,1a6.91,6.91,0,0,1,1.76,0l.86-.92a.53.53,0,0,1,.6-.12l1.62.71a.53.53,0,0,1,.31.53l-.1,1.25a7,7,0,0,1,1.22,1.27l1.25,0a.52.52,0,0,1,.51.33l.64,1.65a.54.54,0,0,1-.15.6l-1,.81a6.48,6.48,0,0,1,0,1.76l.92.85a.54.54,0,0,1,.13.61l-.72,1.62a.53.53,0,0,1-.53.31l-1.24-.1a7,7,0,0,1-1.28,1.21l.05,1.25a.53.53,0,0,1-.34.52l-1.65.64A.65.65,0,0,1,426.76,109.13Zm-.1-.8h0Zm-4.33,0Zm3.55-1.19,1,1.14,1.26-.49-.05-1.49.18-.13a5.83,5.83,0,0,0,1.41-1.35l.14-.18,1.49.13.55-1.25-1.1-1,0-.22a5.81,5.81,0,0,0,0-2l0-.23,1.14-1-.49-1.27-1.49.06-.13-.19a6.19,6.19,0,0,0-1.34-1.41l-.18-.13.12-1.49-1.24-.55-1,1.1-.22,0a6.07,6.07,0,0,0-1.95,0l-.22,0-1-1.14-1.26.49.05,1.5-.18.12A6,6,0,0,0,420,97.5l-.14.18-1.49-.12-.55,1.24,1.1,1,0,.23a6,6,0,0,0-.05,1.94l0,.23-1.15,1,.49,1.27,1.5-.06.13.19a6,6,0,0,0,1.34,1.41l.18.14-.12,1.48,1.24.55,1-1.09.22,0a6.07,6.07,0,0,0,2,0Zm-3.22,1.12h0Zm-1.62-.71Zm10.44-2.77ZM417.64,103ZM432,99.31Zm-14.34-.65Zm.5-1.12Zm10.44-2.77Zm-.17-.29ZM427,94.06Zm.33-.07Zm-2.46,11.83a4.74,4.74,0,0,1-1.88-.4,4.66,4.66,0,0,1-1.93-1.58.41.41,0,0,1,.67-.47,3.88,3.88,0,0,0,1.59,1.3,3.86,3.86,0,0,0,3.11-7.07,3.88,3.88,0,0,0-5.09,2,4.17,4.17,0,0,0-.25.78.4.4,0,0,1-.48.32.42.42,0,0,1-.32-.48,4.4,4.4,0,0,1,.31-1,4.68,4.68,0,0,1,2.58-2.48,4.68,4.68,0,0,1,3.39,8.73A4.75,4.75,0,0,1,424.85,105.82Z"/><path class="cls-6" d="M370.73,98.2a.27.27,0,0,1-.17-.06l-.54-.43a.28.28,0,0,1,0-.39.27.27,0,0,1,.38,0l.53.42a.29.29,0,0,1,0,.39A.28.28,0,0,1,370.73,98.2Z"/><path class="cls-6" d="M369.16,96.87a.24.24,0,0,1-.18-.07c-.34-.31-.68-.63-1-1a.27.27,0,0,1,0-.38.26.26,0,0,1,.38,0c.32.32.65.63,1,.94a.26.26,0,0,1,0,.38A.27.27,0,0,1,369.16,96.87Zm-1.94-1.94a.27.27,0,0,1-.2-.09c-.31-.34-.61-.7-.91-1a.28.28,0,0,1,0-.39.29.29,0,0,1,.39,0c.28.35.58.7.88,1a.27.27,0,0,1,0,.39A.34.34,0,0,1,367.22,94.93Zm-1.74-2.12a.27.27,0,0,1-.22-.11c-.28-.37-.55-.75-.8-1.13a.26.26,0,0,1,.07-.38.28.28,0,0,1,.38.07c.25.38.52.75.79,1.11a.27.27,0,0,1-.06.38A.27.27,0,0,1,365.48,92.81Zm-1.54-2.28a.26.26,0,0,1-.23-.13c-.24-.39-.48-.79-.7-1.2a.27.27,0,1,1,.48-.26c.22.4.45.79.68,1.18a.26.26,0,0,1-.09.37A.23.23,0,0,1,363.94,90.53Zm-1.32-2.4a.28.28,0,0,1-.25-.16c-.2-.41-.39-.84-.58-1.26a.28.28,0,0,1,.15-.36.28.28,0,0,1,.36.15c.17.41.37.83.56,1.23a.28.28,0,0,1-.12.37A.27.27,0,0,1,362.62,88.13Zm-1.09-2.53a.26.26,0,0,1-.25-.17c-.17-.43-.32-.87-.46-1.31a.28.28,0,0,1,.17-.35.29.29,0,0,1,.35.18c.14.43.29.86.45,1.28a.29.29,0,0,1-.16.36ZM360.69,83a.27.27,0,0,1-.26-.2q-.19-.67-.33-1.35a.26.26,0,0,1,.2-.32.27.27,0,0,1,.33.2c.09.44.2.89.32,1.33a.27.27,0,0,1-.19.33Zm-.59-2.68a.28.28,0,0,1-.27-.23c-.08-.45-.14-.92-.2-1.37a.27.27,0,1,1,.54-.07c.06.45.12.9.2,1.35a.27.27,0,0,1-.23.31Zm-.33-2.73a.27.27,0,0,1-.27-.25c0-.46-.06-.92-.07-1.39a.27.27,0,0,1,.26-.28.27.27,0,0,1,.28.27c0,.45,0,.91.07,1.36a.27.27,0,0,1-.25.29Zm-.07-2.74h0a.28.28,0,0,1-.27-.28c0-.46,0-.93.07-1.39a.27.27,0,1,1,.54,0c0,.45,0,.91-.06,1.36A.28.28,0,0,1,359.7,74.84Zm.19-2.74h0a.29.29,0,0,1-.24-.31c.06-.45.12-.92.2-1.37a.26.26,0,0,1,.31-.22.27.27,0,0,1,.23.31c-.08.44-.14.9-.19,1.35A.29.29,0,0,1,359.89,72.1Zm.44-2.71h-.06a.27.27,0,0,1-.21-.32c.1-.45.21-.9.32-1.35a.27.27,0,0,1,.34-.19.26.26,0,0,1,.19.33c-.11.44-.22.88-.31,1.32A.28.28,0,0,1,360.33,69.39Zm.7-2.66H361a.27.27,0,0,1-.18-.34c.14-.44.29-.88.44-1.31a.29.29,0,0,1,.36-.17.28.28,0,0,1,.16.35c-.16.43-.31.86-.44,1.29A.27.27,0,0,1,361,66.73Zm.94-2.57a.19.19,0,0,1-.1,0,.26.26,0,0,1-.15-.35c.18-.43.37-.85.57-1.27a.28.28,0,0,1,.36-.13.27.27,0,0,1,.13.37c-.19.41-.38.82-.55,1.24A.3.3,0,0,1,362,64.16Zm1.19-2.48a.27.27,0,0,1-.24-.4c.21-.41.45-.81.68-1.21A.28.28,0,0,1,364,60a.27.27,0,0,1,.09.37c-.23.39-.46.79-.67,1.19A.28.28,0,0,1,363.16,61.68Zm1.41-2.35a.3.3,0,0,1-.15,0,.27.27,0,0,1-.08-.38c.26-.38.53-.76.8-1.13a.27.27,0,0,1,.44.32c-.27.37-.53.74-.78,1.12A.28.28,0,0,1,364.57,59.33Zm1.63-2.21a.27.27,0,0,1-.17-.06.26.26,0,0,1,0-.38c.29-.36.59-.71.9-1.06a.27.27,0,0,1,.38,0,.28.28,0,0,1,0,.39c-.3.33-.6.68-.88,1A.25.25,0,0,1,366.2,57.12Zm1.83-2a.28.28,0,0,1-.19-.47l1-1a.28.28,0,0,1,.39,0,.27.27,0,0,1,0,.38l-1,1A.27.27,0,0,1,368,55.08Zm2-1.86a.25.25,0,0,1-.21-.1.27.27,0,0,1,0-.38c.35-.3.72-.59,1.09-.87a.28.28,0,0,1,.33.44c-.36.27-.72.56-1.07.85A.27.27,0,0,1,370.05,53.22Zm2.18-1.66a.26.26,0,0,1-.22-.12.27.27,0,0,1,.07-.38c.38-.26.77-.51,1.16-.76a.27.27,0,0,1,.37.09.28.28,0,0,1-.08.38c-.39.24-.77.49-1.14.74A.24.24,0,0,1,372.23,51.56Zm2.34-1.45a.27.27,0,0,1-.24-.14.27.27,0,0,1,.1-.37l1.23-.65a.28.28,0,0,1,.37.13.27.27,0,0,1-.13.36c-.4.2-.81.42-1.2.64A.31.31,0,0,1,374.57,50.11ZM377,48.89a.28.28,0,0,1-.25-.17.28.28,0,0,1,.14-.36c.42-.18.86-.36,1.29-.52a.26.26,0,0,1,.35.15.27.27,0,0,1-.16.35l-1.26.52A.2.2,0,0,1,377,48.89Zm2.57-1a.27.27,0,0,1-.09-.53c.44-.15.89-.28,1.33-.41a.27.27,0,0,1,.14.53c-.43.12-.87.25-1.3.4Zm2.64-.74a.27.27,0,0,1-.06-.54c.45-.1.91-.19,1.36-.27a.27.27,0,1,1,.1.53c-.45.08-.9.17-1.34.27Zm2.71-.48a.26.26,0,0,1-.27-.24.26.26,0,0,1,.23-.3l1.38-.15a.27.27,0,0,1,.29.25.26.26,0,0,1-.25.29q-.68.06-1.35.15Z"/><path class="cls-6" d="M387.68,46.45a.27.27,0,0,1-.27-.26.28.28,0,0,1,.27-.28l.68,0h0a.28.28,0,0,1,.27.27.27.27,0,0,1-.27.28h-.69Z"/><path class="cls-6" d="M409,54.73a.26.26,0,0,1-.19-.07l-.49-.47a.27.27,0,0,1,0-.39.27.27,0,0,1,.38,0l.5.48a.26.26,0,0,1,0,.38A.24.24,0,0,1,409,54.73Z"/><path class="cls-6" d="M389.7,104.41a.28.28,0,0,1,0-.55c.45,0,.9,0,1.34-.08a.27.27,0,0,1,.29.25.28.28,0,0,1-.25.3l-1.36.08Zm2.69-.22a.28.28,0,0,1,0-.55c.44,0,.88-.12,1.32-.2a.29.29,0,0,1,.32.22.27.27,0,0,1-.22.32q-.67.12-1.35.21Zm2.67-.47a.27.27,0,0,1-.06-.54c.43-.1.87-.21,1.29-.33a.28.28,0,0,1,.15.53c-.43.12-.88.23-1.32.33Zm2.6-.72a.27.27,0,0,1-.08-.53q.63-.21,1.26-.45a.27.27,0,0,1,.35.16.27.27,0,0,1-.16.35c-.42.17-.86.32-1.28.46Zm2.53-1a.26.26,0,0,1-.25-.16.27.27,0,0,1,.14-.36l1.22-.56a.27.27,0,0,1,.36.12.28.28,0,0,1-.12.37c-.41.2-.83.39-1.24.57Zm2.43-1.19a.27.27,0,0,1-.24-.14.27.27,0,0,1,.1-.37c.39-.21.78-.44,1.16-.67a.28.28,0,0,1,.38.09.26.26,0,0,1-.09.37c-.39.24-.79.47-1.18.69A.31.31,0,0,1,402.62,100.85Zm2.3-1.41a.26.26,0,0,1-.22-.12.27.27,0,0,1,.07-.38c.37-.24.74-.51,1.09-.77a.28.28,0,0,1,.33.44c-.36.27-.74.53-1.11.79A.29.29,0,0,1,404.92,99.44Zm2.17-1.61a.25.25,0,0,1-.21-.1.26.26,0,0,1,0-.38c.34-.29.68-.58,1-.88a.28.28,0,0,1,.37.41l-1,.89A.27.27,0,0,1,407.09,97.83Zm2-1.81a.24.24,0,0,1-.2-.08.28.28,0,0,1,0-.38c.32-.32.63-.64.93-1a.28.28,0,0,1,.39,0,.27.27,0,0,1,0,.38c-.3.34-.62.67-.94,1A.26.26,0,0,1,409.1,96Zm1.82-2a.23.23,0,0,1-.17-.07.27.27,0,0,1,0-.38q.44-.51.84-1a.27.27,0,1,1,.43.33c-.27.37-.56.72-.85,1.07A.28.28,0,0,1,410.92,94Zm1.63-2.15a.3.3,0,0,1-.15,0,.27.27,0,0,1-.07-.38c.25-.36.5-.74.73-1.12a.28.28,0,1,1,.47.29c-.24.38-.49.77-.75,1.14A.27.27,0,0,1,412.55,91.89Zm1.43-2.3a.31.31,0,0,1-.13,0,.28.28,0,0,1-.11-.37c.22-.39.43-.79.63-1.18a.27.27,0,0,1,.36-.13.28.28,0,0,1,.13.37c-.21.4-.42.81-.64,1.2A.27.27,0,0,1,414,89.59Zm1.21-2.41a.2.2,0,0,1-.11,0,.27.27,0,0,1-.14-.36c.18-.4.35-.82.51-1.23a.27.27,0,0,1,.35-.16.29.29,0,0,1,.16.36c-.17.42-.34.84-.52,1.26A.28.28,0,0,1,415.19,87.18Zm1-2.52h-.08a.29.29,0,0,1-.18-.35c.15-.42.28-.85.4-1.28a.28.28,0,0,1,.34-.19.27.27,0,0,1,.18.34c-.12.44-.25.87-.4,1.3A.27.27,0,0,1,416.16,84.66Zm.74-2.6h-.06a.26.26,0,0,1-.2-.32c.1-.44.19-.88.27-1.31a.27.27,0,1,1,.54.1c-.08.44-.18.89-.28,1.33A.27.27,0,0,1,416.9,82.06Zm.5-2.66h0a.27.27,0,0,1-.23-.31c.06-.44.11-.88.15-1.33a.26.26,0,0,1,.3-.24.26.26,0,0,1,.24.29c0,.45-.09.91-.15,1.36A.27.27,0,0,1,417.4,79.4Zm.25-2.69h0a.27.27,0,0,1-.26-.28c0-.43,0-.87,0-1.3v0a.28.28,0,0,1,.55,0v0c0,.44,0,.89,0,1.32A.27.27,0,0,1,417.65,76.71Zm0-2.7a.27.27,0,0,1-.27-.26c0-.44-.06-.89-.1-1.33a.28.28,0,0,1,.25-.3.27.27,0,0,1,.3.24c0,.45.07.91.09,1.37a.27.27,0,0,1-.26.28Zm-.26-2.69a.26.26,0,0,1-.26-.23c-.07-.44-.14-.89-.23-1.32a.28.28,0,0,1,.22-.32.27.27,0,0,1,.32.21c.09.45.16.9.23,1.35a.28.28,0,0,1-.24.31Zm-.5-2.65a.28.28,0,0,1-.27-.21c-.1-.43-.22-.87-.34-1.3a.27.27,0,0,1,.19-.33.26.26,0,0,1,.33.18c.13.44.25.88.35,1.32a.27.27,0,0,1-.2.33Zm-.76-2.6a.26.26,0,0,1-.25-.18c-.15-.42-.3-.85-.47-1.26a.27.27,0,0,1,.16-.35.26.26,0,0,1,.35.15c.17.42.33.85.47,1.28a.27.27,0,0,1-.17.35Zm-1-2.51a.28.28,0,0,1-.25-.16c-.18-.41-.38-.82-.58-1.21a.29.29,0,0,1,.12-.37.28.28,0,0,1,.37.12c.2.4.4.82.59,1.23a.27.27,0,0,1-.14.36A.2.2,0,0,1,415.13,63.56Zm-1.22-2.41a.27.27,0,0,1-.24-.14l-.49-.83c-.06-.11-.13-.21-.2-.32a.28.28,0,0,1,.09-.38.26.26,0,0,1,.37.09l.21.33c.17.28.33.56.49.84a.27.27,0,0,1-.1.37A.22.22,0,0,1,413.91,61.15Zm-1.44-2.29a.28.28,0,0,1-.23-.12c-.25-.36-.51-.72-.79-1.08a.28.28,0,0,1,.44-.33c.27.36.54.73.8,1.1a.26.26,0,0,1-.07.38A.27.27,0,0,1,412.47,58.86Zm-1.65-2.14a.28.28,0,0,1-.2-.1c-.29-.34-.59-.68-.89-1a.28.28,0,0,1,.4-.38c.31.34.61.68.9,1a.26.26,0,0,1,0,.38A.29.29,0,0,1,410.82,56.72Z"/><path class="cls-6" d="M388.34,104.42h0l-.69,0a.27.27,0,0,1,0-.54l.68,0a.27.27,0,0,1,.27.27A.28.28,0,0,1,388.34,104.42Z"/><path class="cls-6" d="M384.52,100.64a.4.4,0,0,0,.44-.17l2.78-4a21.5,21.5,0,0,0,6.87-.86l3.68,3.24a.39.39,0,0,0,.47,0L403.88,96a.4.4,0,0,0,.2-.42l-.91-4.82a21.48,21.48,0,0,0,4.26-5.47l4.9-.31a.4.4,0,0,0,.36-.3L414.25,79a.4.4,0,0,0-.16-.44l-4-2.77a21.22,21.22,0,0,0-.85-6.87l3.24-3.69a.41.41,0,0,0,.05-.46l-2.91-5.12a.4.4,0,0,0-.42-.2l-4.83.9a21.1,21.1,0,0,0-5.47-4.25l-.31-4.9a.4.4,0,0,0-.29-.36l-5.68-1.57a.42.42,0,0,0-.44.16l-2.77,4a21.32,21.32,0,0,0-6.88.86l-3.68-3.24a.38.38,0,0,0-.46,0l-5.12,2.91a.4.4,0,0,0-.2.42l.9,4.82a21.44,21.44,0,0,0-4.25,5.47l-4.9.31a.42.42,0,0,0-.37.3l-1.56,5.67a.41.41,0,0,0,.16.44l4.05,2.78a21.23,21.23,0,0,0,.86,6.87l-3.25,3.69a.41.41,0,0,0-.05.46l2.91,5.12a.42.42,0,0,0,.43.2l4.82-.9a21.49,21.49,0,0,0,5.47,4.25l.31,4.9a.39.39,0,0,0,.3.36Z"/><path class="cls-4" d="M388.55,80.43h-.12a5.63,5.63,0,1,1,.12,0Zm0-10.46A5,5,0,1,0,392,78.51h0A5,5,0,0,0,388.65,70Z"/><path class="cls-4" d="M392.82,88.64a.26.26,0,0,1-.26-.19.31.31,0,0,1,0-.08.27.27,0,0,1,.19-.26,14.29,14.29,0,0,0,2.72-1.19h0a12.39,12.39,0,0,0,1.47-1h0a13.8,13.8,0,0,0,4.87-6.8c.07-.22.14-.43.19-.64a13.93,13.93,0,1,0-20.29,8.43.28.28,0,0,1,.13.23.35.35,0,0,1,0,.14.27.27,0,0,1-.37.1,14.48,14.48,0,1,1,21.62-12.63,14.67,14.67,0,0,1-.53,3.87,14.38,14.38,0,0,1-6.81,8.75,14.83,14.83,0,0,1-2.61,1.16l-.21.07Z"/><path class="cls-1" d="M463.7,173.65l-.39.71h0a.29.29,0,0,1-.38.11.27.27,0,0,1-.11-.38h0l.41-.72a.27.27,0,0,1,.37-.1.26.26,0,0,1,.1.36Z"/><path class="cls-1" d="M462.48,176.06l-.32.74h0a.3.3,0,1,1-.54-.24h0l.34-.75a.29.29,0,1,1,.53.23Z"/><path class="cls-1" d="M461.48,178.57l-.26.77h0a.32.32,0,1,1-.6-.21h0l.27-.78a.32.32,0,0,1,.4-.19.3.3,0,0,1,.19.39Z"/><path class="cls-1" d="M460.7,181.15l-.19.79h0a.34.34,0,0,1-.41.25.33.33,0,0,1-.24-.41h0l.2-.8a.33.33,0,0,1,.4-.24.33.33,0,0,1,.25.4Z"/><path class="cls-1" d="M460.14,183.8l-.12.8h0a.35.35,0,1,1-.7-.11h0l.14-.81a.35.35,0,1,1,.69.11Z"/><path class="cls-1" d="M459.8,186.47l-.06.81h0a.37.37,0,0,1-.39.34.38.38,0,0,1-.34-.4h0l.08-.83a.35.35,0,0,1,.39-.32.35.35,0,0,1,.33.39Z"/><path class="cls-1" d="M459.66,189.17V190h0a.38.38,0,0,1-.39.38.37.37,0,0,1-.37-.39h0v-.83a.38.38,0,0,1,.38-.37.39.39,0,0,1,.38.38Z"/><path class="cls-1" d="M459.7,191.87l.05.81h0a.4.4,0,0,1-.37.42.42.42,0,0,1-.43-.37h0l0-.82a.38.38,0,0,1,.37-.41.39.39,0,0,1,.41.36Z"/><path class="cls-1" d="M459.92,194.57l.09.8h0a.41.41,0,1,1-.81.1h0l-.09-.82a.4.4,0,0,1,.36-.45.42.42,0,0,1,.45.36Z"/><path class="cls-1" d="M460.29,197.24l.14.8h0a.43.43,0,0,1-.84.15h0l-.13-.81a.42.42,0,0,1,.35-.49.43.43,0,0,1,.48.35Z"/><path class="cls-1" d="M460.81,199.9l.18.79h0a.45.45,0,0,1-.33.53.45.45,0,0,1-.53-.34h0l-.18-.81a.44.44,0,0,1,.34-.52.45.45,0,0,1,.52.33Z"/><path class="cls-1" d="M461.45,202.53l.22.78h0a.46.46,0,0,1-.32.56.45.45,0,0,1-.56-.32h0l-.21-.8a.45.45,0,0,1,.87-.24Z"/><path class="cls-1" d="M462.21,205.13l.25.77h0a.47.47,0,1,1-.89.28h0l-.25-.79a.47.47,0,0,1,.89-.28Z"/><path class="cls-1" d="M463.07,207.7l.28.76h0a.48.48,0,1,1-.9.32h0l-.27-.78a.47.47,0,0,1,.28-.6.48.48,0,0,1,.61.28Z"/><path class="cls-1" d="M464,210.24l.3.75h0a.48.48,0,0,1-.9.36h0l-.3-.77a.48.48,0,1,1,.9-.36Z"/><path class="cls-1" d="M465.07,212.74l.33.74h0a.49.49,0,0,1-.25.65.5.5,0,0,1-.66-.25h0l-.33-.76a.5.5,0,0,1,.26-.65.5.5,0,0,1,.65.26Z"/><path class="cls-1" d="M466.19,215.21l.35.73h0a.51.51,0,0,1-.92.43h0l-.35-.74a.5.5,0,0,1,.91-.43Z"/><path class="cls-1" d="M467.39,217.65l.37.72h0a.52.52,0,0,1-.22.7.51.51,0,0,1-.69-.23h0l-.38-.73a.52.52,0,0,1,.23-.69.51.51,0,0,1,.69.22Z"/><path class="cls-1" d="M468.65,220.05l.39.71h0a.52.52,0,1,1-.91.5h0l-.39-.73a.52.52,0,0,1,.22-.7.51.51,0,0,1,.7.21Z"/><path class="cls-1" d="M470,222.42l.41.7h0a.53.53,0,0,1-.92.53h0l-.41-.72a.53.53,0,0,1,.19-.72.54.54,0,0,1,.73.19Z"/><path class="cls-1" d="M471.36,224.76l.43.69h0a.54.54,0,0,1-.18.75.55.55,0,0,1-.74-.18h0l-.43-.71a.54.54,0,0,1,.92-.56Z"/><path class="cls-1" d="M472.8,227.07l.43.69h0a.55.55,0,0,1-.93.59h0l-.44-.7a.55.55,0,1,1,.94-.58Z"/><path class="cls-1" d="M474.25,229.37l.44.69a.56.56,0,0,1-.94.61h0l-.44-.69a.56.56,0,0,1,.94-.6Z"/><path class="cls-1" d="M475.72,231.67l.45.68a.58.58,0,0,1-.17.79.57.57,0,0,1-.79-.17h0l-.44-.69a.56.56,0,0,1,1-.61Z"/><path class="cls-1" d="M477.2,234l.45.69a.58.58,0,0,1-.18.8.59.59,0,0,1-.8-.17h0l-.44-.69a.58.58,0,0,1,1-.62Z"/><path class="cls-1" d="M478.68,236.26l.44.69a.58.58,0,0,1-.18.81.6.6,0,0,1-.81-.18h0l-.44-.7a.58.58,0,0,1,1-.62Z"/><path class="cls-1" d="M480.15,238.56l.43.69a.59.59,0,0,1-.19.82.58.58,0,0,1-.81-.18h0l-.43-.69h0a.6.6,0,0,1,1-.63Z"/><path class="cls-1" d="M481.59,240.88l.43.7a.6.6,0,0,1-.19.82.61.61,0,0,1-.83-.19h0l-.42-.69h0a.6.6,0,1,1,1-.62Z"/><path class="cls-1" d="M483,243.22l.42.7a.6.6,0,1,1-1,.62h0l-.42-.71h0a.6.6,0,0,1,.21-.82A.59.59,0,0,1,483,243.22Z"/><path class="cls-1" d="M484.4,245.58l.41.71a.6.6,0,1,1-1.05.6h0l-.4-.71h0a.6.6,0,0,1,.23-.82A.59.59,0,0,1,484.4,245.58Z"/><path class="cls-1" d="M485.75,248l.39.72a.61.61,0,0,1-1.07.58h0l-.39-.72h0a.61.61,0,0,1,1.07-.58Z"/><path class="cls-1" d="M487,250.39l.37.73a.61.61,0,1,1-1.08.56h0L486,251h0a.61.61,0,0,1,1.09-.55Z"/><path class="cls-1" d="M488.27,252.84l.35.75a.61.61,0,0,1-1.1.53h0l-.35-.74h0a.62.62,0,0,1,1.11-.53Z"/><path class="cls-1" d="M489.42,255.34l.33.75a.6.6,0,0,1-.32.81.61.61,0,0,1-.81-.31h0l-.32-.75h0a.62.62,0,0,1,.32-.81A.61.61,0,0,1,489.42,255.34Z"/><path class="cls-1" d="M490.49,257.87l.3.77a.62.62,0,0,1-1.15.45h0l-.3-.76h0a.62.62,0,0,1,.35-.8A.62.62,0,0,1,490.49,257.87Z"/><path class="cls-1" d="M491.46,260.45l.27.78a.62.62,0,0,1-.38.79.63.63,0,0,1-.8-.38h0l-.26-.77h0a.62.62,0,0,1,1.17-.4Z"/><path class="cls-1" d="M492.32,263.07l.23.79a.63.63,0,1,1-1.2.36h0l-.23-.78h0a.61.61,0,0,1,.42-.77A.62.62,0,0,1,492.32,263.07Z"/><path class="cls-1" d="M493.05,265.73l.19.81a.63.63,0,0,1-1.22.29h0l-.19-.79h0a.63.63,0,0,1,.47-.75A.62.62,0,0,1,493.05,265.73Z"/><path class="cls-1" d="M493.64,268.43l.15.81a.62.62,0,0,1-.5.74.64.64,0,0,1-.74-.51h0l-.14-.8h0a.63.63,0,0,1,1.24-.22Z"/><path class="cls-1" d="M494.09,271.16l.1.82a.64.64,0,0,1-1.26.16h0v0l-.1-.8h0a.63.63,0,0,1,1.26-.15Z"/><path class="cls-1" d="M494.37,273.91l.05.83a.62.62,0,0,1-.59.67.63.63,0,0,1-.68-.59h0l0-.81h0a.65.65,0,0,1,.6-.68A.64.64,0,0,1,494.37,273.91Z"/><path class="cls-1" d="M494.49,276.68v.83a.65.65,0,0,1-.65.64.64.64,0,0,1-.64-.64h0v-.82a.64.64,0,0,1,1.28,0Z"/><path class="cls-1" d="M494.42,279.44l-.05.83a.64.64,0,1,1-1.28-.08h0l.05-.81h0a.65.65,0,0,1,.68-.6A.64.64,0,0,1,494.42,279.44Z"/><path class="cls-1" d="M494.19,282.2l-.1.82a.65.65,0,1,1-1.29-.16h0l.11-.8h0a.64.64,0,1,1,1.28.16Z"/><path class="cls-1" d="M493.79,284.94l-.15.81a.65.65,0,0,1-.76.52.64.64,0,0,1-.52-.75h0v0l.15-.79h0a.65.65,0,0,1,1.28.24Z"/><path class="cls-1" d="M493.23,287.65l-.2.8a.65.65,0,0,1-.79.48.66.66,0,0,1-.48-.79h0l.2-.79h0a.65.65,0,0,1,.79-.47A.66.66,0,0,1,493.23,287.65Z"/><path class="cls-1" d="M492.51,290.32l-.24.79a.66.66,0,0,1-.82.43.65.65,0,0,1-.43-.81h0l.24-.78h0a.66.66,0,0,1,.82-.43.66.66,0,0,1,.43.82Z"/><path class="cls-1" d="M491.64,292.94l-.28.78a.65.65,0,0,1-.84.38.64.64,0,0,1-.38-.83h0l.28-.76h0a.65.65,0,0,1,.84-.38.63.63,0,0,1,.38.83Z"/><path class="cls-1" d="M490.64,295.52l-.33.76a.65.65,0,0,1-.85.34.66.66,0,0,1-.34-.86h0l.32-.74h0a.65.65,0,0,1,1.19.51Z"/><path class="cls-1" d="M489.5,298l-.37.74a.65.65,0,1,1-1.16-.57h0l.35-.72h0a.65.65,0,1,1,1.16.57Z"/><path class="cls-1" d="M488.23,300.48l-.4.73a.65.65,0,0,1-1.13-.63h0l.39-.71h0a.64.64,0,1,1,1.12.63Z"/><path class="cls-1" d="M486.84,302.87l-.44.7a.64.64,0,1,1-1.09-.68h0l.43-.68h0a.64.64,0,1,1,1.09.68Z"/><path class="cls-1" d="M485.33,305.18l-.47.68a.64.64,0,0,1-1.05-.73h0l.47-.66h0a.65.65,0,0,1,.9-.16.64.64,0,0,1,.16.89Z"/><path class="cls-1" d="M483.72,307.42l-.51.66a.65.65,0,0,1-.9.11.64.64,0,0,1-.11-.9h0l.5-.65h0a.64.64,0,0,1,.9-.12.65.65,0,0,1,.12.9Z"/><path class="cls-1" d="M482,309.57l-.54.63a.64.64,0,1,1-1-.83h0l.52-.62h0a.64.64,0,0,1,.9-.07.64.64,0,0,1,.07.9Z"/><path class="cls-1" d="M480.16,311.64l-.57.6a.64.64,0,1,1-.93-.87h0l.55-.59h0a.64.64,0,0,1,.93.87Z"/><path class="cls-1" d="M478.23,313.61l-.6.57a.63.63,0,0,1-.9,0,.64.64,0,0,1,0-.9h0l.58-.56h0a.62.62,0,0,1,.89,0,.63.63,0,0,1,0,.9Z"/><path class="cls-1" d="M476.21,315.49l-.62.55a.63.63,0,0,1-.84-1h0l.61-.53h0a.63.63,0,1,1,.84.95Z"/><path class="cls-1" d="M474.11,317.28l-.64.52a.64.64,0,0,1-.89-.1.64.64,0,0,1,.1-.89h0l.63-.51h0a.64.64,0,0,1,.89.1.64.64,0,0,1-.1.89Z"/><path class="cls-1" d="M471.94,319l-.67.49a.63.63,0,0,1-.88-.13.64.64,0,0,1,.14-.88h0l.66-.48h0a.63.63,0,1,1,.75,1Z"/><path class="cls-1" d="M469.7,320.57,469,321a.62.62,0,0,1-.87-.17.63.63,0,0,1,.17-.87h0l.67-.45h0a.63.63,0,1,1,.7,1Z"/><path class="cls-1" d="M467.39,322.08l-.7.43a.62.62,0,0,1-.66-1.06h0l.69-.42h0a.63.63,0,0,1,.87.21.62.62,0,0,1-.21.86Z"/><path class="cls-1" d="M465,323.49l-.72.41a.62.62,0,0,1-.61-1.09h0l.71-.4h0a.62.62,0,1,1,.61,1.08Z"/><path class="cls-1" d="M462.62,324.82l-.73.37a.62.62,0,1,1-.58-1.1h0l.72-.38h0a.62.62,0,0,1,.84.27.64.64,0,0,1-.27.84Z"/><path class="cls-1" d="M460.16,326.05l-.75.35a.62.62,0,0,1-.53-1.12h0l.73-.34h0a.62.62,0,1,1,.53,1.13Z"/><path class="cls-1" d="M457.66,327.19l-.76.33a.62.62,0,0,1-.49-1.14h0l.74-.33h0a.62.62,0,0,1,.49,1.14Z"/><path class="cls-1" d="M455.12,328.24l-.77.3a.61.61,0,0,1-.8-.35.62.62,0,0,1,.35-.8h0l.75-.29h0a.62.62,0,0,1,.8.35.62.62,0,0,1-.35.8Z"/><path class="cls-1" d="M452.55,329.21l-.78.28a.63.63,0,0,1-.79-.38.61.61,0,0,1,.38-.78h0l.77-.27h0a.61.61,0,0,1,.78.38.6.6,0,0,1-.37.78Z"/><path class="cls-1" d="M449.94,330.1l-.78.25a.61.61,0,0,1-.77-.41.59.59,0,0,1,.4-.76h0l.78-.24h0a.6.6,0,0,1,.77.4.61.61,0,0,1-.4.77Z"/><path class="cls-1" d="M447.31,330.9l-.79.22a.62.62,0,0,1-.76-.42.62.62,0,0,1,.43-.76h0l.78-.22h0a.61.61,0,0,1,.76.42.63.63,0,0,1-.43.76Z"/><path class="cls-1" d="M444.66,331.61l-.8.2a.61.61,0,1,1-.3-1.18h0l.79-.2h0a.6.6,0,0,1,.74.44.6.6,0,0,1-.44.74Z"/><path class="cls-1" d="M442,332.25l-.8.17a.61.61,0,0,1-.72-.47.6.6,0,0,1,.46-.72h0l.79-.17h0a.6.6,0,0,1,.72.46.62.62,0,0,1-.46.73Z"/><path class="cls-1" d="M439.29,332.8l-.81.15a.6.6,0,0,1-.7-.49.59.59,0,0,1,.48-.7h0l.8-.14h0a.61.61,0,0,1,.22,1.2Z"/><path class="cls-1" d="M436.59,333.27l-.82.12a.6.6,0,1,1-.18-1.19h0l.81-.13h0a.61.61,0,0,1,.69.51.6.6,0,0,1-.5.69Z"/><path class="cls-1" d="M433.87,333.65l-.82.1a.6.6,0,0,1-.15-1.2h0l.8-.1h0a.61.61,0,0,1,.67.53.6.6,0,0,1-.52.67Z"/><path class="cls-1" d="M431.13,334l-.82.07a.6.6,0,0,1-.65-.54.6.6,0,0,1,.55-.65h0l.81-.08h0a.6.6,0,0,1,.65.55.6.6,0,0,1-.54.65Z"/><path class="cls-1" d="M428.39,334.16l-.82,0a.6.6,0,0,1-.63-.57.59.59,0,0,1,.56-.63h0l.81-.05h0a.61.61,0,0,1,.63.57.59.59,0,0,1-.56.63Z"/><path class="cls-1" d="M425.65,334.29l-.82,0a.62.62,0,0,1-.62-.59.61.61,0,0,1,.59-.61h0l.81,0h0a.59.59,0,0,1,.61.58.6.6,0,0,1-.58.62Z"/><path class="cls-1" d="M422.9,334.32h-.82a.6.6,0,0,1,0-1.19h.82a.6.6,0,0,1,.59.61.59.59,0,0,1-.6.59Z"/><path class="cls-1" d="M420.15,334.26l-.82,0a.59.59,0,0,1-.57-.62.6.6,0,0,1,.62-.57h0l.81,0h0a.59.59,0,0,1,.56.62.59.59,0,0,1-.62.57Z"/><path class="cls-1" d="M417.41,334.1l-.82-.06a.59.59,0,1,1,.09-1.18h0l.81.06h0a.6.6,0,0,1,.55.64.59.59,0,0,1-.64.54Z"/><path class="cls-1" d="M414.67,333.85l-.82-.1a.58.58,0,0,1,.14-1.16h0l.81.09h0a.59.59,0,1,1-.13,1.17Z"/><path class="cls-1" d="M411.94,333.5l-.81-.13a.58.58,0,1,1,.17-1.15h0l.8.12h0a.59.59,0,0,1-.17,1.16Z"/><path class="cls-1" d="M409.23,333l-.81-.15a.58.58,0,0,1-.46-.68.58.58,0,0,1,.68-.45h0l.8.15h0a.58.58,0,1,1-.22,1.13Z"/><path class="cls-1" d="M406.54,332.49l-.81-.19a.57.57,0,0,1-.42-.68.56.56,0,0,1,.68-.43h0l.79.18h0a.57.57,0,0,1,.43.69.56.56,0,0,1-.68.43Z"/><path class="cls-1" d="M403.87,331.83l-.8-.22a.55.55,0,0,1-.39-.69.57.57,0,0,1,.69-.4h0l.79.21h0a.56.56,0,0,1,.4.69.57.57,0,0,1-.69.4Z"/><path class="cls-1" d="M401.22,331.06l-.78-.25a.54.54,0,0,1-.36-.7.55.55,0,0,1,.7-.36h0l.78.24h0a.56.56,0,0,1-.33,1.08Z"/><path class="cls-1" d="M398.62,330.19l-.78-.28a.54.54,0,0,1-.33-.71.55.55,0,0,1,.71-.33h0l.77.28h0a.56.56,0,0,1,.34.71.55.55,0,0,1-.71.33Z"/><path class="cls-1" d="M396,329.22l-.76-.32a.56.56,0,0,1-.3-.72.55.55,0,0,1,.72-.29h0l.76.3h0a.55.55,0,0,1-.41,1Z"/><path class="cls-1" d="M393.52,328.13l-.75-.35a.54.54,0,0,1-.27-.72.55.55,0,0,1,.72-.27h0l.74.34h0a.54.54,0,1,1-.45,1Z"/><path class="cls-1" d="M391,326.93l-.74-.38a.54.54,0,0,1,.5-1h0l.72.37h0a.54.54,0,1,1-.49,1Z"/><path class="cls-1" d="M388.62,325.62l-.72-.41a.54.54,0,0,1,.54-.93h0l.7.4h0a.54.54,0,1,1-.53.93Z"/><path class="cls-1" d="M386.26,324.2l-.7-.44a.53.53,0,0,1-.16-.73.52.52,0,0,1,.73-.16h0l.68.44h0a.53.53,0,0,1,.16.73.52.52,0,0,1-.73.16Z"/><path class="cls-1" d="M384,322.68l-.67-.48a.52.52,0,1,1,.6-.85h0l.66.47h0a.54.54,0,0,1,.13.73.52.52,0,0,1-.73.13Z"/><path class="cls-1" d="M381.74,321.06l-.65-.51a.51.51,0,0,1-.09-.73.52.52,0,0,1,.72-.09h0l.64.49h0a.51.51,0,0,1,.09.72.52.52,0,0,1-.73.1Z"/><path class="cls-1" d="M379.6,319.34l-.63-.54a.51.51,0,0,1,.66-.78h0l.62.53h0a.51.51,0,0,1-.66.79Z"/><path class="cls-1" d="M377.53,317.52l-.6-.57a.5.5,0,0,1,0-.71.51.51,0,0,1,.72,0h0l.6.55h0a.51.51,0,1,1-.69.75Z"/><path class="cls-1" d="M375.55,315.61,375,315a.5.5,0,0,1,0-.71.5.5,0,0,1,.71,0h0l.57.58h0a.5.5,0,0,1,0,.71.5.5,0,0,1-.71,0Z"/><path class="cls-1" d="M373.66,313.61l-.55-.62a.5.5,0,0,1,0-.7.49.49,0,0,1,.7,0h0l.54.61h0a.5.5,0,0,1,0,.71.5.5,0,0,1-.7,0Z"/><path class="cls-1" d="M371.87,311.52l-.52-.64a.5.5,0,0,1,.07-.7.49.49,0,0,1,.69.08h0l.51.63h0a.48.48,0,0,1-.07.69.49.49,0,0,1-.69-.07Z"/><path class="cls-1" d="M370.18,309.35l-.49-.67a.49.49,0,1,1,.79-.57h0l.48.65h0a.49.49,0,0,1-.79.58Z"/><path class="cls-1" d="M368.6,307.09l-.46-.69a.48.48,0,0,1,.81-.53h0l.45.68h0a.48.48,0,0,1-.13.67.47.47,0,0,1-.67-.14Z"/><path class="cls-1" d="M367.13,304.76l-.41-.71a.46.46,0,0,1,.17-.65.48.48,0,0,1,.65.17h0l.41.7h0a.47.47,0,0,1-.16.65.48.48,0,0,1-.66-.17Z"/><path class="cls-1" d="M365.79,302.36l-.38-.73a.47.47,0,0,1,.84-.44h0l.37.72h0a.47.47,0,0,1-.2.63.47.47,0,0,1-.64-.2Z"/><path class="cls-1" d="M364.57,299.89l-.33-.75a.47.47,0,0,1,.23-.62.48.48,0,0,1,.62.23h0l.33.74h0a.46.46,0,0,1-.24.61.45.45,0,0,1-.61-.23Z"/><path class="cls-1" d="M363.5,297.35l-.3-.77a.46.46,0,0,1,.27-.59.47.47,0,0,1,.59.26h0l.29.76h0a.46.46,0,0,1-.86.34Z"/><path class="cls-1" d="M362.56,294.76l-.25-.78a.45.45,0,0,1,.86-.28h0l.25.77h0a.45.45,0,0,1-.29.57.47.47,0,0,1-.57-.29Z"/><path class="cls-1" d="M361.78,292.12l-.21-.8a.44.44,0,0,1,.32-.53.44.44,0,0,1,.53.31h0l.2.78h0a.43.43,0,0,1-.31.54.44.44,0,0,1-.54-.31Z"/><path class="cls-1" d="M361.15,289.44l-.15-.81a.42.42,0,0,1,.34-.5.42.42,0,0,1,.5.34h0l.16.8h0a.42.42,0,0,1-.34.5.43.43,0,0,1-.51-.34Z"/><path class="cls-1" d="M360.69,286.73l-.1-.82a.42.42,0,0,1,.83-.11h0l.11.81h0a.42.42,0,0,1-.36.48.43.43,0,0,1-.48-.36Z"/><path class="cls-1" d="M360.4,284l-.06-.82a.4.4,0,0,1,.38-.44.41.41,0,0,1,.44.38h0l.06.81h0a.41.41,0,1,1-.82.06Z"/><path class="cls-1" d="M360.26,281.24v-.83a.4.4,0,0,1,.4-.4.39.39,0,0,1,.4.39h0l0,.81h0a.41.41,0,1,1-.81,0Z"/><path class="cls-1" d="M360.29,278.49l0-.83a.4.4,0,0,1,.41-.37.39.39,0,0,1,.38.41h0l0,.81h0a.39.39,0,0,1-.41.38.39.39,0,0,1-.37-.41Z"/><path class="cls-1" d="M360.47,275.74l.08-.82a.4.4,0,0,1,.43-.34.38.38,0,0,1,.34.42h0l-.08.81h0a.39.39,0,0,1-.42.35.38.38,0,0,1-.35-.42Z"/><path class="cls-1" d="M360.81,273l.13-.82a.39.39,0,0,1,.43-.31.38.38,0,0,1,.31.43h0l-.12.8h0a.38.38,0,0,1-.43.32.38.38,0,0,1-.31-.43Z"/><path class="cls-1" d="M361.31,270.31l.18-.8a.36.36,0,0,1,.71.15h0l-.17.79h0a.37.37,0,0,1-.44.28.37.37,0,0,1-.28-.44Z"/><path class="cls-1" d="M362,267.64l.23-.79a.36.36,0,0,1,.44-.25.35.35,0,0,1,.24.44h0l-.22.78h0a.35.35,0,0,1-.44.24.36.36,0,0,1-.25-.44Z"/><path class="cls-1" d="M362.77,265l.28-.77a.34.34,0,1,1,.65.22h0l-.26.77h0a.34.34,0,0,1-.44.22.35.35,0,0,1-.22-.44Z"/><path class="cls-1" d="M363.74,262.44l.32-.76a.34.34,0,1,1,.62.26h0l-.31.75h0a.34.34,0,1,1-.63-.26Z"/><path class="cls-1" d="M364.86,259.93l.37-.74a.33.33,0,1,1,.59.29h0l-.36.73h0a.33.33,0,0,1-.6-.29Z"/><path class="cls-1" d="M366.14,257.5l.41-.72a.32.32,0,0,1,.56.32h0l-.4.7h0a.34.34,0,0,1-.44.12.33.33,0,0,1-.12-.44Z"/><path class="cls-1" d="M367.57,255.15l.46-.68a.31.31,0,0,1,.43-.09.32.32,0,0,1,.09.43h0l-.45.68h0a.31.31,0,0,1-.43.08.32.32,0,0,1-.09-.43Z"/><path class="cls-1" d="M369.16,252.9l.5-.65a.3.3,0,0,1,.48.37h0l-.49.65h0a.31.31,0,0,1-.43.06.29.29,0,0,1,0-.42Z"/><path class="cls-1" d="M370.89,250.77l.55-.62a.3.3,0,0,1,.41,0,.29.29,0,0,1,0,.41h0l-.54.61h0a.3.3,0,0,1-.41,0,.29.29,0,0,1,0-.42Z"/><path class="cls-1" d="M372.77,248.76l.59-.57a.28.28,0,0,1,.4,0,.29.29,0,0,1,0,.4h0l-.58.57h0a.3.3,0,0,1-.41,0,.28.28,0,0,1,0-.4Z"/><path class="cls-1" d="M374.79,246.9l.29-.25a.27.27,0,0,1,.35.41h0l-.29.25h0a.27.27,0,0,1-.38,0,.28.28,0,0,1,0-.39Z"/><path class="cls-5" d="M96,224.24S94.82,226,94.53,231a.83.83,0,0,0,.81.87h8.88a.52.52,0,0,0,.5-.69,14.18,14.18,0,0,0-5.6-7.44Z"/><path class="cls-12" d="M95.57,220.85l.5,4.21a.79.79,0,0,0,.69.69,7,7,0,0,0,1.88,0,1.31,1.31,0,0,0,1.07-1.29v-4.07Z"/><path class="cls-5" d="M117.93,223.78a12.43,12.43,0,0,0-1.67,6.27,1.57,1.57,0,0,0,1.58,1.53h13.8a.66.66,0,0,0,.38-1.2c-2.61-1.83-7.74-5.26-11.45-6.6Z"/><path class="cls-12" d="M116.51,219.23l1.07,5.2a1.07,1.07,0,0,0,1.27.84,3.79,3.79,0,0,0,1.21-.5,1.24,1.24,0,0,0,.55-1.26l-1.11-6.3Z"/><path class="cls-10" d="M97.54,146.9s-3.73,3.28-4.43,7.23,2,68.19,2,68.19,3.72.62,5.64-.55c0,0,2.28-41.68,4-51.32,0,0,9.08,43.19,11.6,51,0,0,3.59.43,4.74-.25,0,0-2.38-56-5.36-65.92Z"/><path class="cls-10" d="M104.64,168.94a.23.23,0,0,1-.23-.18l-1.56-6-3.34-2.14a.25.25,0,0,1-.07-.34.24.24,0,0,1,.33-.07l3.42,2.19a.21.21,0,0,1,.1.14l1.59,6.07a.25.25,0,0,1-.18.3Z"/><path class="cls-5" d="M134.3,109.78c-15.68-1.3-19.78,2-19.78,2l7.54,11.9s15.41-.31,26.45-8.82a26.82,26.82,0,0,1-4.42-6.6A20.75,20.75,0,0,1,134.3,109.78Z"/><path class="cls-12" d="M158.86,86.76a.48.48,0,0,0-.91-.18l-2,4.27a4.39,4.39,0,0,0-.36,2.65l.7,2.48a4.3,4.3,0,0,1-.87,3.42,30,30,0,0,1-11.33,8.81,26.82,26.82,0,0,0,4.42,6.6,27,27,0,0,0,9.41-13.07,2.1,2.1,0,0,0,1.48-2.09Z"/><path class="cls-5" d="M139.46,116.68c-5.52-6-16-8.64-22.12-9.74a5.6,5.6,0,0,0-6.25,3.54c-2.74,7.37-10.19,26.53-11.63,29.83-1.19,2.7-2.42,5.34-3.21,7a2,2,0,0,0,.92,2.64c5.13,2.46,14.34,5.26,18.08,6.35a1.28,1.28,0,0,0,1.64-1.24,4.07,4.07,0,0,1,.57-2.06l14.16-23.58c8.82,9.78,16.54,10.67,22.48,8.53a44.85,44.85,0,0,1-2-9.27C143.37,127.17,139.46,116.68,139.46,116.68Z"/><path class="cls-12" d="M166.63,127,165,124.92c-5.12,3.52-9.4,4.35-12.91,3.75a44.85,44.85,0,0,0,2,9.27C161.92,135.12,166.63,127,166.63,127Z"/><path class="cls-12" d="M165.51,127.07l8.91.35,8.21-4.59c-1.18-.74-7.84.77-7.84.77s-7-1-8.85-1c-1.56,0-1.34,2.25-1.22,3,0,.16.05.25.05.25Z"/><path class="cls-13" d="M125.71,96,121,107.49s5.4,3.74,9.75,3.39l2.35-10.32Z"/><path class="cls-12" d="M133.66,88.19c.1.15,3.4,12.06,3.4,12.06L130.22,102l-4.8-10.82S131.85,85.63,133.66,88.19Z"/><path class="cls-5" d="M128,92.81l2.08,5.89a.7.7,0,0,0,.11.21c.28.4,1.35,1.71,2.62.53s2.23-2,3.22-2.2a.87.87,0,0,1,1,.63,37.34,37.34,0,0,1,1.15,5.74.88.88,0,0,1-.71.94,28.21,28.21,0,0,1-6.53.54.87.87,0,0,1-.74-.51c-.65-1.42-2.64-5.74-3.38-6.86s-2.41-1-3.13-1a.89.89,0,0,1-.64-.21,2.26,2.26,0,0,1-.14-3.63.88.88,0,0,0,0-1.26,2.27,2.27,0,0,1-.29-3.37,3.21,3.21,0,0,1,3.82-.91.87.87,0,0,0,1-.39.67.67,0,0,1,.71-.33.87.87,0,0,0,.92-.88,2.6,2.6,0,0,1,2-2.72c3-.93,4.85,2,5,4.1s-3.11,3-5,2.84c-1.47-.11-2.56,1.35-3,2A.86.86,0,0,0,128,92.81Z"/><path class="cls-12" d="M127.58,99.86s-.48-3.73-2-3.92S122.48,97,124,99.13C126,101.74,127.58,99.86,127.58,99.86Z"/><path class="cls-13" d="M158.73,82.24l135.8-.45a2.65,2.65,0,0,1,2.5,2.79l-.26,37.34a2.62,2.62,0,0,1-2.55,2.75l-135.15-2a2.65,2.65,0,0,1-2.41-2.74l-.4-34.87A2.65,2.65,0,0,1,158.73,82.24Z"/><path class="cls-17" d="M294.29,122.32l-135.16-2a.41.41,0,0,1-.38-.42L158.35,85a.44.44,0,0,1,.11-.29.34.34,0,0,1,.28-.13l135.81-.46a.37.37,0,0,1,.28.13.46.46,0,0,1,.11.3l-.26,37.33A.4.4,0,0,1,294.29,122.32ZM159.14,120l135.16,2s.06,0,.06-.09l.26-37.34a.09.09,0,0,0,0-.07l0,0-135.81.45s0,0,0,0a.11.11,0,0,0,0,.08l.4,34.87a.08.08,0,0,0,.07.09Z"/><path class="cls-15" d="M167.72,89.69h0c0,1.2.58,2.18,1.3,2.18H286.19c.72,0,1.3-1,1.3-2.18h0c0-1.21-.58-2.18-1.3-2.18H169C168.3,87.51,167.72,88.48,167.72,89.69Z"/><path class="cls-15" d="M168.17,97.15H227c.31,0,.56.59.56,1.31h0c0,.72-.25,1.31-.56,1.31H168.17c-.31,0-.56-.59-.56-1.31h0C167.61,97.74,167.86,97.15,168.17,97.15Z"/><path class="cls-15" d="M167.61,104.06h0c0,.72.25,1.3.56,1.3H227c.31,0,.56-.58.56-1.3v-.81c0-.73-.26-1.32-.58-1.31l-58.8.81C167.85,102.77,167.61,103.35,167.61,104.06Z"/><path class="cls-15" d="M168.17,107.52H227c.31,0,.56.59.56,1.31h0c0,.72-.25,1.31-.56,1.31H168.17c-.31,0-.56-.59-.56-1.31h0C167.61,108.11,167.86,107.52,168.17,107.52Z"/><path class="cls-15" d="M167.61,114.43h0c0,.72.25,1.3.56,1.3H227c.31,0,.56-.58.56-1.3v-.81c0-.73-.26-1.32-.58-1.31l-58.8.81C167.85,113.14,167.61,113.72,167.61,114.43Z"/><path class="cls-1" d="M263.48,80.54l0-9.81h-8.93V80A23.09,23.09,0,0,1,250,93.68l-11.77,15.86a4.83,4.83,0,0,0-.94,2.86h0a4.81,4.81,0,0,0,4.81,4.81H276a4.81,4.81,0,0,0,4.81-4.81h0a4.8,4.8,0,0,0-.95-2.87L267.68,93.19A21.12,21.12,0,0,1,263.48,80.54Z"/><path class="cls-20" d="M242.11,116a3.61,3.61,0,0,1-2.9-5.76L251,94.39A24.44,24.44,0,0,0,255.75,80l0-8h6.53l0,8.61a22.51,22.51,0,0,0,4.43,13.37l12.19,16.35a3.54,3.54,0,0,1,.72,2.15A3.61,3.61,0,0,1,276,116Z"/><path class="cls-6" d="M263.73,72.49h-9.45a1.38,1.38,0,0,1-1.39-1.38h0a1.39,1.39,0,0,1,1.31-1.38l9.45-.51a1.38,1.38,0,0,1,1.46,1.38v.51A1.38,1.38,0,0,1,263.73,72.49Z"/><path class="cls-6" d="M239.21,110.26a3.61,3.61,0,0,0,2.9,5.76H276a3.61,3.61,0,0,0,3.61-3.61,3.54,3.54,0,0,0-.72-2.15l-5.44-7.3H244.62Z"/><path class="cls-1" d="M284.93,117.22h0a3.41,3.41,0,0,1-3.4-3.41V89.44h7.55l-.74,24.37A3.41,3.41,0,0,1,284.93,117.22Z"/><path class="cls-20" d="M284.93,116.42a2.61,2.61,0,0,1-2.6-2.61V89.44h5.93l-.72,24.36h0A2.61,2.61,0,0,1,284.93,116.42Z"/><path class="cls-6" d="M289.08,90h-7.66a1.12,1.12,0,0,1-1.12-1.12h0a1.12,1.12,0,0,1,1.06-1.12l7.66-.41a1.11,1.11,0,0,1,1.18,1.12v.41A1.12,1.12,0,0,1,289.08,90Z"/><path class="cls-6" d="M282.33,100.56v13.25a2.61,2.61,0,1,0,5.21,0h0l.39-13.24Z"/><path class="cls-1" d="M274.55,117.46h0a3.41,3.41,0,0,1-3.41-3.4V89.69h7.56L278,114.06A3.41,3.41,0,0,1,274.55,117.46Z"/><path class="cls-20" d="M274.55,116.66a2.61,2.61,0,0,1-2.61-2.6V89.69h5.94L277.16,114v0A2.61,2.61,0,0,1,274.55,116.66Z"/><path class="cls-6" d="M278.7,90.27H271a1.12,1.12,0,0,1-1.12-1.12h0A1.13,1.13,0,0,1,271,88l7.66-.41a1.13,1.13,0,0,1,1.18,1.12v.41A1.12,1.12,0,0,1,278.7,90.27Z"/><path class="cls-6" d="M271.94,100.81v13.25a2.61,2.61,0,0,0,5.22,0v0l.39-13.23Z"/><path class="cls-5" d="M132.06,333.61a.85.85,0,0,1-.85-.85V231.49a.85.85,0,0,1,1.7,0V332.76A.85.85,0,0,1,132.06,333.61Z"/><path class="cls-5" d="M109.1,333.61a.85.85,0,0,1-.85-.85V231.49a.85.85,0,1,1,1.7,0V332.76A.85.85,0,0,1,109.1,333.61Z"/><path class="cls-5" d="M52.69,334.25a1,1,0,0,1-.33-.06.86.86,0,0,1-.45-1.12L95.24,231.16a.85.85,0,1,1,1.56.66L53.47,333.74A.85.85,0,0,1,52.69,334.25Z"/><path class="cls-5" d="M79.45,334.25a1,1,0,0,1-.33-.06.86.86,0,0,1-.45-1.12L122,231.16a.85.85,0,1,1,1.56.66L80.23,333.74A.84.84,0,0,1,79.45,334.25Z"/><rect class="cls-5" x="92.49" y="230.03" width="42.08" height="2.39" rx="0.91"/><path class="cls-5" d="M116.23,247.92H89.39a.85.85,0,1,1,0-1.69h26.84a.85.85,0,1,1,0,1.69Z"/><rect class="cls-5" x="81.16" y="265.5" width="26.84" height="1.69"/><rect class="cls-5" x="73.18" y="284.78" width="26.84" height="1.69"/><path class="cls-5" d="M91.66,305.75H64.82a.85.85,0,0,1,0-1.7H91.66a.85.85,0,1,1,0,1.7Z"/><path class="cls-5" d="M83.58,325H56.74a.85.85,0,1,1,0-1.69H83.58a.85.85,0,1,1,0,1.69Z"/></svg>