<?xml version="1.0" encoding="utf-8"?>
<!-- Generator: Adobe Illustrator 24.0.2, SVG Export Plug-In . SVG Version: 6.00 Build 0)  -->
<svg version="1.1" id="Layer_1" xmlns="http://www.w3.org/2000/svg" xmlns:xlink="http://www.w3.org/1999/xlink" x="0px" y="0px"
	 viewBox="0 0 366.1 350.2" style="enable-background:new 0 0 366.1 350.2;" xml:space="preserve">
<style type="text/css">
	.st0{fill:#284B60;}
	.st1{opacity:0.57;}
	.st2{fill:#BEC8D2;}
	.st3{fill:#D2DFE6;}
	.st4{fill:#E8976B;}
	.st5{fill:#E66C29;}
	.st6{fill:#020202;}
	.st7{opacity:0.57;fill:#FFFFFF;enable-background:new    ;}
	.st8{fill:#FFFFFF;}
	.st9{clip-path:url(#SVGID_2_);}
	.st10{opacity:0.36;}
	.st11{clip-path:url(#SVGID_4_);}
	.st12{fill:#EEE296;}
	.st13{fill:#C8C7C6;}
	.st14{fill:none;stroke:#284B60;stroke-width:4;stroke-linecap:round;}
	.st15{fill:none;stroke:#284B60;stroke-width:2;stroke-linecap:round;stroke-linejoin:round;}
	.st16{fill:#294E60;}
	.st17{fill:#717171;}
	.st18{fill:#90A2AD;}
	.st19{fill:#E79A71;}
	.st20{fill:#E7D5CB;}
</style>
<g>
	<g>
		<g id="SoftDev_5_" transform="translate(-0.001)">
			<g id="Grupo_1609-2_5_" transform="translate(0.001 78.797)">
				<g id="Trazado_2708-2_5_" transform="translate(273.629 169)">
					<path id="Trazado_6327_5_" class="st0" d="M1.4,4.7c-0.3,0-0.6-0.1-0.8-0.3C0,3.9-0.2,3,0.3,2.4c0.9-1.2,1.3-1.9,1.4-1.9
						c0.4-0.6,1.3-0.8,2-0.3s0.8,1.3,0.3,2l0,0c0,0-0.5,0.7-1.4,2C2.3,4.4,1.9,4.7,1.4,4.7z"/>
				</g>
				<g id="Trazado_2709-2_5_" transform="translate(0 52.613)">
					<path id="Trazado_6328_5_" class="st0" d="M126.8,206.7l-1.4,0c-0.8,0-1.4-0.5-1.4-1.1c0-0.6,0.6-1.1,1.4-1.1l0,0
						c1.6,0,3.1,0,4.7-0.1l0.1,0c0.7-0.1,1.3,0.4,1.4,1.1c-0.1,0.7-0.7,1.2-1.3,1.2c0,0,0,0,0,0l0,0
						C129.1,206.7,127.9,206.7,126.8,206.7z M114,206.2l-0.1,0c-1.6-0.1-3.2-0.3-4.8-0.4c-0.8-0.1-1.3-0.6-1.2-1.3
						c0.2-0.7,0.9-1.1,1.6-1c1.5,0.2,3.1,0.3,4.7,0.4c0.8,0.1,1.3,0.6,1.3,1.2C115.3,205.8,114.7,206.2,114,206.2L114,206.2z
						 M141.9,205.8c-0.7,0-1.3-0.4-1.5-1c-0.1-0.6,0.5-1.2,1.2-1.3c0.4-0.1,0.7-0.1,1.1-0.1c1.2-0.1,2.4-0.2,3.6-0.4
						c0.7-0.1,1.4,0.3,1.6,1c0.1,0.6-0.4,1.2-1.2,1.3c-1.2,0.1-2.5,0.3-3.7,0.4C142.7,205.8,142.3,205.8,141.9,205.8
						C141.9,205.8,141.9,205.8,141.9,205.8L141.9,205.8z M98,204c-0.1,0-0.2,0-0.3,0c-1.6-0.3-3.1-0.6-4.7-0.9
						c-0.8-0.2-1.2-0.8-1-1.4c0.3-0.7,1-1,1.7-0.8c1.5,0.3,3,0.6,4.5,0.9c0.6,0,1.1,0.6,1.1,1.2c0,0.1,0,0.1,0,0.2
						C99.3,203.7,98.7,204,98,204L98,204z M157.7,203.7c-0.6,0-1.2-0.3-1.4-0.9c-0.1-0.6,0.3-1.2,1-1.3c0,0,0,0,0,0c0,0,0.1,0,0.1,0
						c1.5-0.3,3.1-0.6,4.6-0.9c0.7-0.2,1.4,0.2,1.7,0.8c0.1,0.6-0.3,1.3-0.9,1.4l-0.1,0c-1.6,0.3-3.1,0.6-4.7,0.9
						C157.9,203.7,157.8,203.7,157.7,203.7L157.7,203.7z M173.2,200.2c-0.6,0-1.1-0.3-1.3-0.8c-0.3-0.6,0.1-1.2,0.9-1.4
						c1.4-0.4,3-0.8,4.5-1.3c0.7-0.2,1.5,0,1.8,0.7c0.2,0.6-0.1,1.2-0.6,1.4c0,0,0,0,0,0c-0.1,0-0.1,0-0.2,0.1
						c-1.5,0.4-3,0.9-4.5,1.3C173.6,200.2,173.4,200.2,173.2,200.2L173.2,200.2z M82.6,200.5c-0.2,0-0.3,0-0.5-0.1
						c-1.5-0.4-3-0.9-4.5-1.4c-0.6-0.1-1-0.8-0.8-1.4c0-0.1,0-0.1,0-0.2l0,0c0.4-0.6,1.2-0.9,1.9-0.6c1.5,0.5,2.9,1,4.4,1.4
						c0.7,0.2,1.1,0.9,0.8,1.5C83.6,200.2,83.1,200.5,82.6,200.5L82.6,200.5z M188.3,195.4c-0.5,0-1-0.2-1.3-0.7
						c-0.3-0.6,0-1.2,0.7-1.5c1.4-0.5,2.8-1,4.3-1.6c0.7-0.3,1.5-0.1,1.9,0.5c0.3,0.5,0.1,1.1-0.4,1.4c-0.1,0-0.2,0.1-0.3,0.1
						c-1.4,0.6-2.9,1.1-4.4,1.6C188.8,195.4,188.6,195.4,188.3,195.4L188.3,195.4z M67.8,195c-0.2,0-0.5,0-0.7-0.1l-4.2-1.9
						c-0.5-0.2-0.8-0.8-0.6-1.3c0-0.1,0.1-0.2,0.1-0.2c0.5-0.6,1.3-0.7,2-0.4c1.3,0.6,2.7,1.2,4.1,1.9c0.5,0.2,0.8,0.7,0.7,1.2
						c0,0,0,0,0,0c0,0.1-0.1,0.2-0.1,0.3C68.7,194.8,68.3,195,67.8,195L67.8,195z M202.8,189.6c-0.5,0-0.9-0.2-1.2-0.6
						c-0.3-0.5-0.2-1.1,0.3-1.4c0.1-0.1,0.2-0.1,0.3-0.1c1.4-0.6,2.8-1.3,4.1-1.9c0.7-0.3,1.5-0.2,2,0.4c0.3,0.5,0.2,1.1-0.3,1.4
						c-0.1,0.1-0.2,0.1-0.2,0.1c-1.4,0.6-2.8,1.3-4.1,1.9C203.3,189.5,203,189.6,202.8,189.6L202.8,189.6z M54.1,188.1
						c-0.3,0-0.6-0.1-0.8-0.2c-1.3-0.8-2.6-1.5-3.9-2.3c-0.5-0.3-0.7-0.8-0.4-1.3c0.1-0.1,0.1-0.2,0.2-0.3c0.6-0.5,1.4-0.6,2-0.2
						c1.2,0.8,2.5,1.5,3.8,2.2c0.5,0.2,0.7,0.8,0.5,1.3c0,0.1-0.1,0.2-0.1,0.2C54.9,187.9,54.5,188.1,54.1,188.1L54.1,188.1z
						 M216.6,182.7c-0.4,0-0.9-0.2-1.2-0.5c-0.4-0.4-0.3-1,0.1-1.4c0.1-0.1,0.2-0.1,0.3-0.2c1.3-0.7,2.6-1.4,3.9-2.2
						c0.6-0.4,1.4-0.3,2,0.3c0.4,0.4,0.4,1,0,1.4c-0.1,0.1-0.2,0.2-0.3,0.2c-1.3,0.7-2.6,1.5-4,2.2
						C217.1,182.7,216.9,182.7,216.6,182.7L216.6,182.7z M41.5,179.9c-0.4,0-0.7-0.1-1-0.3c-1.2-0.8-2.4-1.8-3.5-2.7
						c-0.4-0.3-0.6-0.9-0.2-1.4c0.1-0.1,0.1-0.2,0.2-0.2c0.6-0.4,1.4-0.4,2,0c1.1,0.9,2.2,1.7,3.4,2.6c0.5,0.3,0.6,0.9,0.3,1.4
						c0,0,0,0,0,0c0,0.1-0.1,0.1-0.2,0.2C42.2,179.8,41.9,179.9,41.5,179.9L41.5,179.9z M230,175.1c-0.4,0-0.8-0.1-1.1-0.4
						c-0.4-0.4-0.4-1,0-1.4c0,0,0,0,0,0c0.1-0.1,0.2-0.1,0.3-0.2c1.2-0.8,2.5-1.6,3.7-2.4c0.6-0.4,1.5-0.3,2,0.2
						c0.4,0.4,0.4,1,0.1,1.4c0,0,0,0,0,0c-0.1,0.1-0.2,0.1-0.3,0.2c-1.2,0.8-2.5,1.6-3.7,2.4C230.6,175,230.3,175.1,230,175.1
						L230,175.1z M30.5,170.6c-0.4,0-0.8-0.1-1.1-0.4c-1-1-2.1-2-3.1-2.9c-0.4-0.4-0.4-1-0.1-1.4c0.1-0.1,0.2-0.2,0.3-0.2
						c0.6-0.4,1.5-0.3,2,0.2c1,1,2,2,3,2.9c0.4,0.4,0.5,1,0.1,1.4c-0.1,0.1-0.1,0.1-0.2,0.2C31.2,170.5,30.8,170.6,30.5,170.6
						L30.5,170.6z M242.1,166.8c-0.4,0-0.8-0.1-1.1-0.4c-0.4-0.3-0.5-0.9-0.2-1.3c0.1-0.1,0.2-0.2,0.3-0.3c1.2-0.9,2.3-1.7,3.5-2.6
						c0.6-0.4,1.4-0.4,2,0.1c0.4,0.3,0.5,0.9,0.2,1.3c-0.1,0.1-0.2,0.2-0.3,0.3c-1.2,0.8-2.3,1.7-3.5,2.6
						C242.8,166.7,242.5,166.7,242.1,166.8L242.1,166.8z M20.6,160.4c-0.4,0-0.9-0.2-1.2-0.5c-0.9-1-1.8-2.1-2.6-3.2
						c-0.3-0.4-0.3-1.1,0.2-1.4c0.1-0.1,0.2-0.1,0.2-0.1c0.7-0.3,1.5-0.2,2,0.3c0.8,1.1,1.7,2.1,2.6,3.1c0.4,0.4,0.3,1-0.1,1.4
						c-0.1,0.1-0.2,0.1-0.2,0.2C21.2,160.3,20.9,160.4,20.6,160.4L20.6,160.4z M253.6,157.8c-0.4,0-0.7-0.1-1-0.3
						c-0.4-0.3-0.6-0.9-0.2-1.4c0.1-0.1,0.1-0.2,0.2-0.2c1.2-0.9,2.2-1.8,3.3-2.7c0.6-0.4,1.4-0.5,2,0c0.5,0.3,0.6,1,0.2,1.4
						c-0.1,0.1-0.1,0.1-0.2,0.2c-1.1,0.9-2.2,1.8-3.3,2.8C254.3,157.7,254,157.8,253.6,157.8L253.6,157.8z M12,149.3
						c-0.5,0-1-0.2-1.2-0.6c-0.8-1.2-1.5-2.3-2.2-3.4c-0.3-0.5-0.1-1.1,0.4-1.4c0.1,0,0.2-0.1,0.3-0.1c0.7-0.3,1.5-0.1,1.9,0.5
						c0.7,1.1,1.4,2.2,2.1,3.3c0.3,0.5,0.2,1.1-0.3,1.4c-0.1,0-0.1,0.1-0.2,0.1C12.5,149.3,12.2,149.3,12,149.3z M264.9,148.2
						c-0.3,0-0.7-0.1-0.9-0.3c-0.5-0.3-0.6-0.9-0.3-1.4c0.1-0.1,0.1-0.2,0.2-0.3c1.1-1,2.1-2,3.1-2.9c0.6-0.5,1.4-0.5,2-0.1
						c0.5,0.3,0.6,0.9,0.3,1.4c0,0.1-0.1,0.1-0.2,0.2c-1,0.9-2,1.9-3.1,3C265.7,148.1,265.3,148.3,264.9,148.2L264.9,148.2z
						 M5.1,137.3c-0.5,0-1-0.2-1.3-0.7l0,0c-0.6-1.2-1.1-2.4-1.5-3.7c-0.2-0.6,0.2-1.2,1-1.4c0.7-0.2,1.4,0.1,1.7,0.8
						c0.4,1.2,0.9,2.3,1.4,3.4c0.2,0.6-0.1,1.3-0.7,1.5c0,0,0,0,0,0c0,0-0.1,0-0.1,0C5.5,137.3,5.3,137.3,5.1,137.3L5.1,137.3z
						 M1.7,124.9c-0.7,0-1.3-0.4-1.5-1C0.1,122.6,0,121.3,0,120c0.1-0.7,0.7-1.2,1.4-1.2l0.1,0c0.7-0.1,1.3,0.4,1.5,1.1
						c0.1,1.2,0.1,2.5,0.2,3.8c0,0.7-0.6,1.2-1.3,1.2C1.8,124.9,1.8,124.9,1.7,124.9L1.7,124.9z M2,111.9l-0.1,0
						c-0.8-0.1-1.3-0.6-1.2-1.2c0.2-1.3,0.3-2.6,0.6-3.8c0.2-0.7,0.9-1.1,1.6-1c0.7,0,1.2,0.6,1.2,1.3c-0.2,1.2-0.4,2.5-0.6,3.7
						C3.3,111.5,2.7,112,2,111.9L2,111.9z M4.9,99.2c-0.1,0-0.2,0-0.3,0c-0.6,0-1.1-0.5-1.1-1.1c0,0,0,0,0,0c0-0.1,0-0.2,0-0.2
						c0.4-1.3,0.8-2.5,1.3-3.7c0.3-0.7,1.1-1,1.8-0.8c0.6,0.1,1.1,0.6,1,1.2c0,0,0,0,0,0c0,0.1,0,0.2,0,0.2
						c-0.4,1.2-0.9,2.4-1.2,3.6C6,98.9,5.5,99.2,4.9,99.2L4.9,99.2z M9.9,87c-0.2,0-0.4,0-0.6-0.1c-0.7-0.3-1.1-0.9-0.8-1.5
						c0.6-1.2,1.2-2.4,1.9-3.5c0.4-0.6,1.2-0.8,1.9-0.6c0.6,0.1,0.9,0.7,0.8,1.3c0,0.1,0,0.1-0.1,0.2c-0.6,1.2-1.2,2.3-1.8,3.4
						C10.9,86.7,10.4,87,9.9,87L9.9,87z M16.7,75.2c-0.2,0-0.5,0-0.7-0.1c-0.5-0.1-0.8-0.7-0.7-1.2c0-0.1,0.1-0.2,0.1-0.3l2.3-3.4
						c0.5-0.6,1.3-0.7,2-0.4c0.5,0.2,0.8,0.8,0.6,1.3c0,0.1-0.1,0.2-0.1,0.2c-0.8,1.1-1.6,2.2-2.3,3.3
						C17.7,75.1,17.2,75.3,16.7,75.2L16.7,75.2z M25.3,64c-0.3,0-0.5-0.1-0.8-0.2C24,63.5,23.8,63,24,62.5c0-0.1,0.1-0.2,0.2-0.2
						c0.9-1,1.9-2.1,2.8-3.1c0.5-0.5,1.4-0.6,2-0.2c0.5,0.2,0.7,0.8,0.5,1.3c0,0.1-0.1,0.2-0.2,0.3c-0.9,1-1.9,2.1-2.8,3
						C26.2,63.8,25.7,64,25.3,64L25.3,64z M35.3,54.2c-0.3,0-0.7-0.1-0.9-0.3c-0.2-0.1-0.3-0.3-0.4-0.5c-0.1-0.4,0-0.8,0.3-1.1
						c1.1-1,2.1-1.9,3.2-2.8c0.6-0.4,1.4-0.5,2,0c0.5,0.3,0.6,1,0.2,1.4c-0.1,0.1-0.1,0.1-0.2,0.2c-1.1,0.9-2.1,1.9-3.2,2.8
						C36.1,54,35.7,54.2,35.3,54.2L35.3,54.2z M46.8,44.9c-0.4,0-0.8-0.1-1.1-0.4c-0.4-0.3-0.5-0.9-0.2-1.3c0.1-0.1,0.2-0.2,0.3-0.3
						c1.2-0.8,2.4-1.7,3.6-2.6c0.6-0.4,1.4-0.4,2,0.1c0.4,0.4,0.5,1,0.1,1.4c-0.1,0.1-0.2,0.2-0.3,0.2c-1.2,0.8-2.4,1.7-3.6,2.5
						C47.5,44.8,47.1,44.9,46.8,44.9L46.8,44.9z M59.4,36.8c-0.4,0-0.8-0.2-1.2-0.4c-0.4-0.4-0.4-1,0-1.4c0.1-0.1,0.2-0.2,0.3-0.2
						c1.3-0.8,2.6-1.5,4-2.2c0.6-0.4,1.5-0.2,2,0.3c0.4,0.4,0.3,1-0.1,1.4c-0.1,0.1-0.2,0.1-0.3,0.2l-3.9,2.2
						C60,36.7,59.7,36.8,59.4,36.8L59.4,36.8z M73,29.8c-0.5,0-0.9-0.2-1.2-0.6c-0.3-0.5-0.2-1.1,0.3-1.4c0,0,0,0,0,0
						c0.1-0.1,0.2-0.1,0.3-0.1l4.2-1.9c0.7-0.3,1.4-0.1,1.9,0.4c0.3,0.5,0.2,1.1-0.3,1.4c0,0,0,0,0,0c-0.1,0-0.1,0.1-0.2,0.1
						c-1.4,0.6-2.8,1.2-4.1,1.8C73.5,29.8,73.2,29.8,73,29.8L73,29.8z M87.4,24c-0.5,0-1-0.2-1.3-0.7c-0.3-0.6,0-1.2,0.7-1.5
						c1.4-0.5,3-1,4.4-1.5c0.7-0.3,1.5,0,1.8,0.6c0.3,0.6,0,1.2-0.8,1.5c-1.4,0.4-3,1-4.3,1.5C87.9,24,87.7,24,87.4,24L87.4,24z
						 M102.2,18.8c-0.5,0-1-0.2-1.3-0.7c-0.3-0.6,0-1.2,0.7-1.5c1.3-0.4,2.8-1,4.4-1.5c0.7-0.3,1.5,0,1.9,0.6c0.3,0.6,0,1.2-0.8,1.5
						c-1.6,0.5-3,1-4.4,1.5C102.7,18.7,102.4,18.8,102.2,18.8L102.2,18.8z M117.3,13.5c-0.6,0-1.1-0.3-1.3-0.8
						c-0.2-0.6,0.1-1.2,0.6-1.4c0.1,0,0.1,0,0.2-0.1c1.4-0.4,3-0.8,4.5-1.3c0.7-0.2,1.5,0.1,1.8,0.7c0.3,0.6-0.2,1.2-0.9,1.4
						c-1.6,0.4-3,0.8-4.5,1.2C117.6,13.5,117.5,13.6,117.3,13.5L117.3,13.5z M132.8,10c-0.6,0-1.1-0.3-1.4-0.8
						c-0.2-0.6,0.2-1.2,1-1.4c1.5-0.4,3-0.7,4.6-1c0.7-0.2,1.4,0.2,1.7,0.8c0.2,0.6-0.3,1.2-1,1.4c-1.6,0.3-3.1,0.6-4.5,1L132.8,10z
						 M148.5,6.5c-0.6,0-1.2-0.3-1.4-0.9c-0.1-0.6,0.3-1.2,1-1.3c0,0,0,0,0,0c0,0,0.1,0,0.1,0c1.6-0.3,3.1-0.5,4.7-0.8
						c0.7-0.2,1.4,0.2,1.7,0.9c0.1,0.7-0.4,1.3-1,1.3c0,0-0.1,0-0.1,0c-1.6,0.3-3.1,0.5-4.6,0.8L148.5,6.5z M164.4,4.2
						c-0.6,0.1-1.2-0.4-1.4-1c-0.1-0.6,0.4-1.2,1.2-1.3c1.6-0.2,3.1-0.4,4.8-0.5c0.7-0.1,1.4,0.3,1.6,1c0.1,0.6-0.4,1.2-1.2,1.3
						c-1.6,0.2-3.2,0.3-4.7,0.5L164.4,4.2z M180.6,2.7c-0.7,0-1.3-0.4-1.5-1c0-0.7,0.6-1.2,1.3-1.2c1.6-0.1,3.2-0.2,4.8-0.3
						c0.7-0.1,1.4,0.4,1.5,1.1c0.1,0.6-0.6,1.2-1.3,1.2C183.8,2.6,182.2,2.7,180.6,2.7L180.6,2.7z"/>
				</g>
			</g>
			<g id="Elipse_104-2_5_" transform="translate(285.137 85.645)" class="st1">
				<ellipse id="Elipse_127_5_" class="st8" cx="4.9" cy="5.3" rx="5.4" ry="5.4"/>
			</g>
			<g id="Grupo_1623-2_5_" transform="translate(73.375 77.644)">
				<g id="Trazado_2737-2_5_">
					<path id="Trazado_6330_5_" class="st5" d="M2.4,160.8L0,159.7l2.2-4.9l2.5,1.1L2.4,160.8z M5.6,153.4l-2.5-1.1l2.2-4.9l2.5,1.1
						L5.6,153.4z M8.9,146.1L6.5,145l2.2-4.9l2.5,1.1L8.9,146.1z M12.1,138.7l-2.5-1.1l2.2-4.9l2.5,1.1L12.1,138.7z M15.4,131.3
						l-2.5-1.1l2.2-4.9l2.5,1.1L15.4,131.3z M18.7,123.9l-2.5-1.1l2.2-4.9l2.5,1.1L18.7,123.9z M21.9,116.4l-2.5-1.1l2.2-4.9
						l2.5,1.1L21.9,116.4z M25.1,109.1l-2.5-1.1l2.2-4.9l2.5,1.1L25.1,109.1z M28.5,101.7l-2.5-1.1l2.2-4.9l2.5,1.1L28.5,101.7z
						 M94.7,101.3l-1.2-0.3l0.4-1.5l-0.1-0.1l0.3-0.8l0.1-0.3l0.1,0l1.2-2.7l2.5,1.1l-1.7,3.8L94.7,101.3z M90.9,100.1l-5.2-1.4
						l0.8-2.6l5.2,1.4L90.9,100.1z M83.1,98l-5.2-1.4l0.8-2.6l5.2,1.4L83.1,98z M75.3,95.8l-5.2-1.4l0.8-2.6l5.2,1.4L75.3,95.8z
						 M99.1,94.2l-2.5-1.1l2.2-4.9l2.5,1.1L99.1,94.2z M31.7,94.3l-2.5-1.1l2.2-4.9l2.5,1.1L31.7,94.3z M67.6,93.6l-5.2-1.4l0.8-2.6
						l5.2,1.4L67.6,93.6z M59.8,91.4L54.6,90l0.8-2.6l5.2,1.4L59.8,91.4z M52,89.2l-5.2-1.4l0.8-2.6l5.2,1.4L52,89.2z M44.3,87
						L39,85.6l0.8-2.6l5.2,1.4L44.3,87z M102.3,86.8l-2.5-1.1l2.2-4.9l2.5,1.1L102.3,86.8z M35,86.9l-2.5-1.1l1.4-3.3l1.6-0.8
						l1.7,0.5l-0.8,2.6l-0.6-0.2L35,86.9z M105.6,79.4l-2.5-1.1l2.2-4.9l2.5,1.1L105.6,79.4z M108.8,72l-2.5-1.1l2.2-4.9l2.5,1.1
						L108.8,72z M112.1,64.6l-2.5-1.1l2.2-4.9l2.5,1.1L112.1,64.6z M115.3,57.2l-2.5-1.1l2.2-4.9l2.5,1.1L115.3,57.2z M118.6,49.8
						l-2.5-1.1l2.2-4.9l2.5,1.1L118.6,49.8z M180.6,46.7l-2.3-1.4l2.9-4.5l2.3,1.4L180.6,46.7z M176.7,46.3l-4.3-3.2l1.6-2.2
						l4.3,3.2L176.7,46.3z M121.8,42.4l-2.5-1.1l2.2-4.9l2.5,1.1L121.8,42.4z M170.1,41.5l-4.3-3.2l1.6-2.2l4.3,3.2L170.1,41.5z
						 M185,39.9l-2.3-1.4l2.9-4.5l2.3,1.4L185,39.9z M163.6,36.8l-4.3-3.2l1.6-2.2l4.3,3.2L163.6,36.8z M125.1,35l-2.5-1.1l2.2-4.9
						l2.5,1.1L125.1,35z M189.3,33.1l-2.3-1.4l2.9-4.5l2.3,1.4L189.3,33.1z M157.1,32l-4.3-3.2l1.6-2.2l4.3,3.2L157.1,32z
						 M128.4,27.7l-2.5-1.1l2.2-4.9l2.5,1.1L128.4,27.7z M150.6,27.3l-4.3-3.2l1.6-2.2l4.3,3.2L150.6,27.3z M193.7,26.3l-2.3-1.4
						l2.9-4.5l2.3,1.4L193.7,26.3z M144,22.5l-4.3-3.2l1.6-2.2l4.3,3.2L144,22.5z M131.6,20.2l-2.5-1.1l2.2-4.9l2.5,1.1L131.6,20.2z
						 M198.1,19.4l-2.3-1.4l2.9-4.5l2.3,1.4L198.1,19.4z M137.5,17.8l-4.3-3.2l1.6-2.2l4.3,3.2L137.5,17.8z M202.4,12.6l-2.3-1.4
						l2.9-4.5l2.3,1.4L202.4,12.6z M206.8,5.9l-2.3-1.4l2.9-4.5l2.3,1.4L206.8,5.9z"/>
				</g>
			</g>
			<g id="Elipse_118-2_5_" transform="translate(67.106 229.971)">
				<ellipse id="Elipse_128_5_" class="st5" cx="7.4" cy="8" rx="7.4" ry="7.4"/>
			</g>
			<g id="Elipse_119-2_5_" transform="translate(100.397 153.464)">
				<ellipse id="Elipse_129_5_" class="st5" cx="7.2" cy="7.9" rx="7.4" ry="7.4"/>
			</g>
			<g id="Elipse_120-2_5_" transform="translate(160.844 169.306)">
				<ellipse id="Elipse_130_5_" class="st5" cx="7.2" cy="7.7" rx="7.4" ry="7.4"/>
			</g>
			<g id="Elipse_121-2_5_" transform="translate(199.736 83.124)">
				<ellipse id="Elipse_131_5_" class="st5" cx="6.9" cy="7.6" rx="7.4" ry="7.4"/>
			</g>
			<g id="Elipse_122-2_5_" transform="translate(245.288 115.921)">
				<ellipse id="Elipse_132_5_" class="st5" cx="7.1" cy="7.4" rx="7.4" ry="7.4"/>
			</g>
			<g id="Elipse_123-2_5_" transform="translate(275.069 70.925)">
				<ellipse id="Elipse_133_5_" class="st5" cx="6.9" cy="7.3" rx="7.4" ry="7.4"/>
			</g>
			<g id="Grupo_1607-2_5_" transform="translate(15.513 0)" class="st1">
				<g id="Trazado_2703-2_5_" transform="translate(0 126.486)">
					<path id="Trazado_6331_5_" class="st2" d="M75.2,180.6L75.2,180.6c-8.5,0-16.7-3.3-22.9-9.2L9.9,130.1
						C1.5,122-1.9,110,0.9,98.7l14.5-57.4C18.3,30,26.9,21,38.2,17.8L95.1,1.6c2.9-0.8,5.8-1.2,8.8-1.3c8.5,0,16.7,3.3,22.9,9.2
						l42.4,41.2c8.4,8.2,11.8,20.1,8.9,31.5l-14.5,57.4c-2.9,11.3-11.5,20.2-22.8,23.5L84,179.3C81.1,180.1,78.2,180.6,75.2,180.6z
						 M103.9,1.3c-2.9,0-5.8,0.4-8.6,1.2L38.4,18.7c-10.9,3.1-19.4,11.8-22.1,22.8L1.8,98.9c-2.8,11,0.5,22.6,8.7,30.5l42.4,41.3
						c5.9,5.8,13.9,9,22.2,8.9l0,0c2.9,0,5.8-0.4,8.6-1.2l56.9-16.2c10.9-3.1,19.3-11.8,22.1-22.8L177.2,82
						c2.7-11-0.5-22.6-8.7-30.5l-42.4-41.2C120.2,4.5,112.2,1.2,103.9,1.3L103.9,1.3z M89.6,121.7c-17.3,0.1-31.4-13.9-31.5-31.2
						C58.1,73.2,72,59.1,89.3,59c17.3-0.1,31.4,13.9,31.5,31.2c0.1,14.1-9.2,26.4-22.8,30.3C95.3,121.3,92.5,121.7,89.6,121.7
						L89.6,121.7z M89.4,60c-2.8,0-5.5,0.4-8.2,1.1c-16.1,4.5-25.5,21.3-20.9,37.4c3.7,13.1,15.7,22.1,29.3,22
						c2.8,0,5.5-0.4,8.2-1.1c16.1-4.5,25.5-21.3,20.9-37.4C115,69,103,60,89.4,60L89.4,60z"/>
				</g>
				<g id="Trazado_2704-2_5_" transform="translate(123.579)">
					<path id="Trazado_6332_5_" class="st2" d="M74.8,180.2L74.8,180.2c-8.5,0-16.7-3.3-22.9-9.2L9.5,129.8
						c-8.4-8.1-11.8-20.1-9-31.5L15,40.9c2.9-11.3,11.5-20.3,22.8-23.5L94.7,1.3c2.9-0.8,5.8-1.2,8.8-1.3c8.5,0,16.7,3.3,22.9,9.2
						l42.4,41.2c8.4,8.2,11.8,20.1,8.9,31.5l-14.4,57.5c-2.9,11.3-11.5,20.2-22.8,23.5L83.7,179C80.8,179.8,77.8,180.2,74.8,180.2z
						 M103.5,1c-2.9,0-5.8,0.4-8.6,1.2L38,18.3c-10.9,3.1-19.3,11.8-22.1,22.8L1.4,98.5c-2.8,11,0.5,22.6,8.7,30.5l42.4,41.2
						c5.9,5.8,13.9,9,22.2,8.9l0,0c2.9,0,5.8-0.4,8.6-1.2l56.9-16.1c10.9-3.1,19.3-11.8,22.1-22.8l14.5-57.4
						c2.7-11-0.5-22.6-8.7-30.5L125.6,10C119.8,4.2,111.8,0.9,103.5,1L103.5,1z M89.2,121.4c-17.3,0.1-31.4-13.9-31.5-31.2
						c-0.1-17.3,13.9-31.4,31.2-31.5c17.3-0.1,31.4,13.9,31.5,31.2c0.1,14-9.2,26.4-22.7,30.3C94.9,120.9,92.1,121.3,89.2,121.4z
						 M89,59.8c-2.8,0-5.5,0.4-8.2,1.1C64.8,65.5,55.4,82.2,60,98.3c3.7,13.1,15.6,22.1,29.2,22c2.8,0,5.5-0.4,8.2-1.1
						c16.1-4.6,25.4-21.3,20.9-37.4C114.5,68.8,102.6,59.8,89,59.8L89,59.8z"/>
				</g>
				<g id="Trazado_2705-2_5_" transform="translate(171.303 170.135)">
					<path id="Trazado_6333_5_" class="st2" d="M75.3,180L75.3,180c-8.5,0-16.7-3.3-22.9-9.2L10,129.6c-8.4-8.2-11.8-20.1-8.9-31.5
						l14.5-57.4c2.9-11.3,11.5-20.3,22.8-23.5L95.2,1.1c2.9-0.8,5.8-1.2,8.8-1.3c8.5,0,16.7,3.3,22.9,9.2l42.4,41.2
						c8.4,8.2,11.8,20.1,8.9,31.5l-14.4,57.5c-2.9,11.3-11.5,20.2-22.8,23.5l-56.9,16.2C81.3,179.6,78.3,180,75.3,180z M104,0.8
						c-2.9,0-5.8,0.4-8.6,1.2l-57,16.2C27.5,21.3,19.1,30,16.4,41L1.9,98.4c-2.8,11,0.5,22.6,8.7,30.5L53,170.1
						c8.1,7.9,19.9,10.8,30.8,7.7l56.9-16.2c10.9-3.1,19.3-11.8,22.1-22.8l14.5-57.4c2.7-11-0.5-22.6-8.7-30.5L126.1,9.7
						C120.2,3.9,112.3,0.7,104,0.8z M89.7,121.2c-17.3,0-31.3-13.9-31.3-31.2s13.9-31.3,31.2-31.3c17.3,0,31.3,13.9,31.3,31.2
						c0,5.4-1.3,10.6-4,15.3C111.4,115,101,121.1,89.7,121.2L89.7,121.2z M89.6,59.7c-2.8,0-5.5,0.4-8.2,1.1
						C65.3,65.4,56,82.1,60.5,98.2c3.7,13.1,15.6,22.1,29.2,22c2.8,0,5.5-0.4,8.2-1.1c16.1-4.5,25.5-21.3,20.9-37.4
						C115.1,68.6,103.2,59.6,89.6,59.7L89.6,59.7z"/>
				</g>
			</g>
			<g id="Línea_60_5_" transform="translate(214.849 182.616)">
				
					<rect id="Rectángulo_273_5_" x="-0.2" y="0.1" transform="matrix(1 -3.117288e-03 3.117288e-03 1 -1.005960e-02 2.097541e-02)" class="st5" width="13.8" height="6.3"/>
			</g>
			<g id="Grupo_1622-2_5_" transform="translate(9.077 86.311)">
				<g id="Trazado_2732-2_5_" transform="translate(15.836 12.045)">
					<path id="Trazado_6341_5_" class="st18" d="M9,19.8L9,19.8l0-3.1c-3.5,0-6.4-2.8-6.4-6.4c0-3.5,2.8-6.4,6.4-6.4l0,0l0-3.2
						c4.7,0,8.8,3.4,9.5,8.1C17.6,3.6,12.7,0,7.6,0.9C2.4,1.7-1.2,6.6-0.3,11.8c0.8,5.2,5.7,8.7,10.9,7.9c4.3-0.7,7.5-4.2,7.9-8.5
						C18,16,13.9,19.7,9,19.8z"/>
				</g>
				<g id="Trazado_2733-2_5_" transform="translate(34.524 20.158)">
					<path id="Trazado_6342_5_" class="st18" d="M-0.4,0.6c0.1,0.3,0.1,0.6,0.1,1C-0.3,1.3-0.4,0.9-0.4,0.6z"/>
				</g>
				<g id="Trazado_2734-2_5_" transform="translate(24.699 11.834)">
					<path id="Trazado_6343_5_" class="st18" d="M9.2,8.9C8.5,4.2,4.4,0.7-0.5,0.7l0,3.3c3.6,0,6.5,2.9,6.5,6.5
						C6.1,14,3.2,17-0.4,17l0,3.2l0,0c5,0,9.2-3.8,9.7-8.8c0-0.3,0.1-0.7,0.1-1l0-0.5C9.3,9.6,9.3,9.2,9.2,8.9z"/>
				</g>
				<g id="Trazado_2735-2_5_" transform="translate(43.786 19.241)">
					<path id="Trazado_6344_5_" class="st18" d="M6.2,4.5c0-1.5-1.2-2.6-2.6-2.6l0-1.3l0,0c-2.2,0-3.9,1.7-4,3.9
						c0,2.2,1.7,3.9,3.9,4l0,0l0.1,0l0-1.3C5,7.1,6.2,6,6.2,4.5z M1.4,4.5c0-1.1,0.9-1.9,1.9-1.9c1.1,0,1.9,0.9,1.9,1.9
						c0,1.1-0.9,1.9-1.9,1.9C2.3,6.4,1.4,5.6,1.4,4.5z"/>
				</g>
				<g id="Trazado_2736-2_5_" transform="translate(47.766 19.378)">
					<path id="Trazado_6345_5_" class="st18" d="M-0.4,0.6L-0.4,0.6l0,1.3C1,1.8,2.3,3,2.3,4.5c0,1.5-1.2,2.7-2.7,2.6l-0.1,0l0,1.3
						l0,0c2,0,3.8-1.5,4-3.5l0-0.8C3.4,2.1,1.6,0.6-0.4,0.6z"/>
				</g>
				<g id="Elipse_113-2_5_" transform="translate(27.891)">
					<ellipse id="Elipse_134_5_" class="st18" cx="2.8" cy="3.9" rx="3.3" ry="3.3"/>
				</g>
				<g id="Elipse_114-2_5_" transform="translate(13.395 36.182)">
					<ellipse id="Elipse_135_5_" class="st18" cx="3.9" cy="4.9" rx="4.3" ry="4.3"/>
				</g>
				<g id="Elipse_115-2_5_" transform="translate(10.624 5.791)">
					<ellipse id="Elipse_136_5_" class="st18" cx="1.3" cy="2.4" rx="1.7" ry="1.7"/>
				</g>
				<g id="Elipse_116-2_5_" transform="translate(34.322 10.233)">
					<ellipse id="Elipse_137_5_" class="st18" cx="1.3" cy="2.4" rx="1.7" ry="1.7"/>
				</g>
				<g id="Elipse_117-2_5_" transform="translate(0 21.046)">
					<ellipse id="Elipse_138_5_" class="st18" cx="2" cy="3.2" rx="2.5" ry="2.5"/>
				</g>
			</g>
			<g id="Grupo_1608-2_5_" transform="translate(256.726 177.351)">
				<g id="Trazado_2706-2_5_" transform="translate(60.243 18.526)">
					<path id="Trazado_6346_5_" class="st5" d="M7.8-0.3c-4.3-0.1-7.9,3.4-8,7.7c0,2.1,0.8,4.2,2.3,5.7c1.4,1.5,3.4,2.3,5.5,2.3
						c2.1,0,4.1-0.8,5.6-2.2l0,0c3.1-3,3.2-8,0.2-11.1C11.9,0.6,9.9-0.2,7.8-0.3z M10.6,10.7c-1.6,1.6-4.3,1.6-5.9,0
						C3.1,9,3.2,6.4,4.8,4.8c0,0,0,0,0.1,0c0.8-0.8,1.9-1.2,3-1.2c1.1,0,2.2,0.4,2.9,1.2C12.3,6.4,12.3,9.1,10.6,10.7L10.6,10.7z"/>
				</g>
				<g id="Trazado_2707-2_5_">
					<path id="Trazado_6347_5_" class="st0" d="M93.4,0.9c-0.9-0.9-2-1.3-3.2-1.2l-1.7,0.1C73,0.6,58.6,7.8,48.7,19.7l-4.1,4.9
						L34,24.1l-0.2,0c-8.3-0.1-16.4,3.1-22.4,8.9l-11,10.7c-0.6,0.5-0.7,1.3-0.4,2C0.3,46.4,1,46.9,1.7,47l23,1.5l-0.9,1.1
						c-0.5,0.6-0.6,1.4-0.2,2.1c0.3,0.7,0.7,1.3,1.1,2L19.1,60c-0.5,0.5-0.6,1.3-0.3,2c1.1,2.5,2.7,4.8,4.6,6.8c2,2,4.3,3.7,6.8,5
						c0.2,0.1,0.5,0.2,0.8,0.2c0.4,0,0.8-0.1,1.2-0.4c1.2-1,2.6-2.1,3.9-3.1c0.9-0.8,1.9-1.6,2.8-2.3c0.6,0.3,1.1,0.6,1.6,0.9
						c0.3,0.1,0.6,0.2,0.9,0.2c0.4,0,0.8-0.1,1.1-0.3l1.3-1l0.9,23.1c0,0.7,0.5,1.4,1.2,1.7c0.2,0.1,0.4,0.1,0.7,0.1
						c0.5,0,1-0.2,1.3-0.6l11-10.7c6-5.8,9.4-13.8,9.5-22.1l0.1-10.1l4.3-3.3c12.9-9.8,21-24.7,22-40.9l0-0.9
						C94.7,2.9,94.3,1.8,93.4,0.9z M6.1,43.4l8-7.8c5.3-5.1,12.3-8,19.7-7.9l7.7,0.3L27.6,44.7L6.1,43.4z M33.7,67.4
						c-1,0.8-2,1.6-2.9,2.4c-1.8-1-3.4-2.2-4.8-3.7c-1.3-1.4-2.5-3-3.4-4.7l4.1-4.7c1.2,1.6,2.5,3.2,3.9,4.6l0,0
						c1.6,1.6,3.2,3.1,5,4.5C35,66.3,34.3,66.8,33.7,67.4L33.7,67.4z M64.7,59.2c-0.1,7.4-3.1,14.4-8.4,19.5l-8,7.8L47.4,65l17.3-13
						L64.7,59.2z M90.9,4.8c-0.9,15.1-8.4,29-20.5,38.2L41.2,65c-2.4-1.4-4.6-3.1-6.6-5l9.9-9.7c0.7-0.7,0.7-1.9,0-2.6
						c-0.7-0.7-1.9-0.7-2.6,0l0,0L32,57.4c-1.8-2-3.3-4.2-4.7-6.5L51.5,22C60.8,10.9,74.2,4.1,88.7,3.4l1.7-0.1
						c0.2,0,0.3,0.1,0.4,0.2C90.9,3.5,91,3.7,91,3.9L90.9,4.8z"/>
				</g>
			</g>
		</g>
	</g>
	<g>
		<path class="st8" d="M263.4,263.2c1.6-4.9,1.2-9.8,1.1-14.7c-0.1-7.6-3.5-11.1-11.1-11.3c-7.4-0.2-14.7-0.3-22.1,0.1
			c-4.4,0.2-5.9-1.2-5.4-5.5c0.3-3,0.1-6.2-4.2-6.2c-5,0-9.9,0-14.9,0c-2.4,0-3.5,1.3-3.9,3.7c-1.3,7.9-1.4,7.9-9.5,7.9
			c-5.7,0-11.4-0.3-17.1,0.1c-5.8,0.4-11.2-1.2-16.7-2.6c-1-0.2-2.2-0.1-2.8-1.4c-1.4-2.7,0.4-12.7,2.7-14.8
			c8.3-7.3,15.1-15.7,18.1-26.5c1.2-4.3,2.9-5.3,7-5.2c9,0.2,14.3-5.4,14.4-14.4c0.1-5,0-9.9,0-14.9c0-11.9-4.2-16.5-15.9-16.8
			c-3.2-0.1-3.5-1.4-3.5-3.9c0-4.2,0.1-8.5-0.4-12.6c-2.5-22.8-14.7-38.7-36.2-46.1c-21.5-7.3-40.9-2.3-56.9,14.2
			c-11.4,11.8-15.4,26.4-14.5,42.5c0.2,4.1-0.2,6.2-5.3,6c-8.6-0.3-13.9,5.5-14,14.2c-0.1,6.1,0,12.1,0,18.2c0,3.6,0.7,7.4,3.7,9.4
			c4,2.5,4.2,5.9,4,9.8c-0.1,2.4,0.2,4.8-0.1,7.2c-0.6,5.1,1.6,7.4,6.5,6.7c9.1-1.2,16.1,1,22.3,8.8c3.8,4.7,6.5,8.5,6.1,14.7
			c-0.2,3.7-1.4,4.9-4.8,5.8c-12.2,3.4-24.4,6.8-36.3,10.8c-14.3,4.8-23.2,14.9-27,29.4c-2.6,9.9-1.3,20.1-1.5,30.2
			c-0.2,8.3,0,8.4,8.1,8.4c36.2,0,72.4,0,108.6,0c36.4,0,72.8,0,109.2,0c10.4,0,13.7-3.1,13.3-13.5c-0.3-9.2-0.7-18.4,0.1-27.6
			C265,269.8,262.4,266.4,263.4,263.2z"/>
		<g>
			<path class="st2" d="M263.4,263.2c1.6-4.9,1.2-9.8,1.1-14.7c-0.1-7.6-3.5-11.1-11.1-11.3c-7.4-0.2-14.7-0.3-22.1,0.1
				c-4.4,0.2-5.9-1.2-5.4-5.5c0.3-3,0.1-6.2-4.2-6.2c-5,0-9.9,0-14.9,0c-2.4,0-3.5,1.3-3.9,3.7c-1.3,7.9-1.4,7.9-9.5,7.9
				c-5.7,0-11.4-0.3-17.1,0.1c-5.8,0.4-11.2-1.2-16.7-2.6c-1-0.2-2.2-0.1-2.8-1.4c-1.4-2.7,0.4-12.7,2.7-14.8
				c8.3-7.3,15.1-15.7,18.1-26.5c1.2-4.3,2.9-5.3,7-5.2c9,0.2,14.3-5.4,14.4-14.4c0.1-5,0-9.9,0-14.9c0-11.9-4.2-16.5-15.9-16.8
				c-3.2-0.1-3.5-1.4-3.5-3.9c0-4.2,0.1-8.5-0.4-12.6c-2.5-22.8-14.7-38.7-36.2-46.1c-21.5-7.3-40.9-2.3-56.9,14.2
				c-11.4,11.8-15.4,26.4-14.5,42.5c0.2,4.1-0.2,6.2-5.3,6c-8.6-0.3-13.9,5.5-14,14.2c-0.1,6.1,0,12.1,0,18.2c0,3.6,0.7,7.4,3.7,9.4
				c4,2.5,4.2,5.9,4,9.8c-0.1,2.4,0.2,4.8-0.1,7.2c-0.6,5.1,1.6,7.4,6.5,6.7c9.1-1.2,16.1,1,22.3,8.8c3.8,4.7,6.5,8.5,6.1,14.7
				c-0.2,3.7-1.4,4.9-4.8,5.8c-12.2,3.4-24.4,6.8-36.3,10.8c-14.3,4.8-23.2,14.9-27,29.4c-2.6,9.9-1.3,20.1-1.5,30.2
				c-0.2,8.3,0,8.4,8.1,8.4c36.2,0,72.4,0,108.6,0c36.4,0,72.8,0,109.2,0c10.4,0,13.7-3.1,13.3-13.5c-0.3-9.2-0.7-18.4,0.1-27.6
				C265,269.8,262.4,266.4,263.4,263.2z M182.6,148.4c4.2,0,8,0.5,8.6,5.4c0.4,3.4,0.1,6.9,0.1,10.4h0.1c0,2.9,0,5.8,0,8.8
				c0,2.2-0.8,3.9-2.6,5.1c-2.5,1.8-5.4,1.6-7.9,0.9c-2.3-0.7-1-3.5-1.1-5.4c-0.2-6.6-0.2-13.2,0-19.8
				C179.9,151.9,177.8,148.4,182.6,148.4z M214.5,233.2c1.4,0.5,4.1-1.1,3.9,2.2c-0.1,2.5-2.2,2-3.7,1.9c-1.6-0.1-4,0.9-4.1-2
				C210.5,232.1,213.1,233.8,214.5,233.2z M171.9,254.1c0.5-10.3-0.9-9.2,9.2-9.2c11.2,0,22.4,0,33.6,0c12.5,0,25,0.1,37.5-0.1
				c3.6,0,4.9,1.1,4.8,4.7c-0.2,13.2,1,10.7-10.2,10.8c-22.8,0.1-45.6-0.1-68.3,0.1C173.6,260.6,171.6,259.4,171.9,254.1z
				 M60.3,174.3c-0.6-6.9-0.6-13.9,0-20.8c0.4-5,4.8-5.2,8.9-5c4.3,0.2,2.2,3.4,2.4,5.3c0.3,3.5,0.1,7,0.1,10.4
				c0,3.3,0.2,6.6-0.1,9.9c-0.2,1.9,1.9,5.1-2.4,5.3C65.1,179.5,60.8,179.2,60.3,174.3z M75.2,198.1c-1.4,1.5-4.4,1.1-6.3,0.4
				c-2.4-0.9-0.5-3.6-1-5c0-2.1-0.1-3.7,0-5.4c0.1-1.2,1.3-1,2.2-1c1.1,0,2.3,0,2.7,1.3c0.4,1.4,0.8,2.8,1.1,4.2
				C74.2,194.5,76.7,196.5,75.2,198.1z M125.7,82.9c26.7,0,47.7,22.8,46.4,50.1c-0.2,3.9-1.8,3.3-3.9,2.1
				c-8.2-4.2-13.3-11.3-17.7-19.1c-4.5-8-4.8-8-10.5-1.3c-3,3.6-7.3,5.5-11.5,7.3c-14.5,6.3-29.9,9.9-45.2,13.3
				c-2.7,0.6-3.8,0.4-4-2.9C78.1,105.5,99.2,82.9,125.7,82.9z M94.9,211c-1.2-1.1-2.5-2.1-3.8-3.1c0.2-0.5,0.4-1,0.5-1.5
				c5.3,0,10.5,0.1,15.8,0c2.2,0,2.9,1,2.8,3c-0.2,3.7,2,4.7,5.2,4.7c7,0,14,0,20.9,0c3.2,0,4.7-1.5,4.7-4.7c0-4.6,0-9.2,0-13.8
				c0-3.2-1.5-4.7-4.7-4.7c-7,0-14,0-20.9,0c-3.2,0-5.4,1-5.2,4.7c0.2,2.5-1.1,3.1-3.3,3.1c-6.4-0.1-12.9-0.2-19.3,0
				c-2.6,0.1-3.5-1.3-4.4-3.2c-2.5-5.2-3.8-10.7-3.9-16.5c0-10.3,0.2-20.6-0.1-30.9c-0.1-3.8,1.6-4.6,4.7-5.2
				c16.5-3.4,32.9-7.3,48.4-14.2c2-0.9,4.2-1.6,5.8-3c4.7-4.2,7.4-3.4,10.8,2c4.7,7.6,11.4,13.4,20.4,15.9c2.4,0.6,2.7,1.9,2.7,4
				c-0.1,10.8,0.3,21.7-0.1,32.5c-0.8,21.3-23.3,44.4-44.7,45.4C114.3,226.1,104.3,219.1,94.9,211z M120.5,198.6c2.5,0,5.1,0,7.6,0
				c2.9-0.1,5.7-0.6,5.6,4.1c-0.1,4.6-2.8,3.7-5.4,3.7c-1.1,0-2.2,0-3.3,0c-1.5,0-2.9-0.1-4.4,0c-2.8,0.2-2.8-1.7-2.7-3.6
				C118,201,117.1,198.5,120.5,198.6z M143.7,239.1c-5.2,3-10,6.8-14.7,10.5c-2.5,1.9-4.2,1.7-6.6-0.1c-4.6-3.6-9.2-7.3-14.3-10.2
				c-5.1-2.9-6.6-6.7-4.9-13c15.2,9.1,30.1,9,45.1,0.1C149.9,232.2,148.8,236.1,143.7,239.1z M164.4,277.8c1.3,8-0.6,15.8,0,23.7
				c0.3,4.7-1.5,5.4-5.6,5.3c-15.6-0.2-31.2-0.1-46.9-0.1c-15.6,0-31.3-0.2-46.9,0.1c-4.2,0.1-5.5-1.2-5-5.2
				c0.4-3.3,0.1-6.6,0.1-9.9c0-2.6-1.2-4.3-3.9-4.2c-2.7,0.1-3.8,1.8-3.8,4.4c0,3.7-0.1,7.4,0,11c0.1,2.7-0.4,4.1-3.5,3.9
				c-4-0.3-8.1-0.2-12.1,0c-3,0.2-3.8-1-3.7-3.8c0.3-6.6-0.1-13.2,0.5-19.8c1.3-14.6,9.2-24.7,22.9-29.4
				c12.6-4.4,25.6-7.6,38.5-11.4c2.3-0.7,4.1-0.2,6.1,1.2c6.7,4.9,13.5,9.5,20.1,14.5c3.3,2.5,5.9,2.7,9.3,0.1
				c6.2-4.8,13.1-8.8,19.1-13.9c4.9-4.2,9.3-1.1,13.9-0.5c1.4,0.2,1,1.6,1,2.7c0.3,5.8,0.2,11.6,1.1,17.4
				C166.1,268,163.7,273.1,164.4,277.8z M247,306.7c-22.8,0.1-45.6-0.1-68.3,0.1c-5.3,0.1-7.5-1.4-6.7-6.7c0.2-1.3,0.2-2.6,0-3.9
				c-0.4-3.8,1.2-5.2,5-5.1c12.5,0.2,25,0.1,37.5,0.1s25,0.1,37.5-0.1c3.9-0.1,5.1,1.2,5,5.1C256.7,308.9,258,306.6,247,306.7z
				 M257.1,274.2c-0.4,11.1,0.8,9.3-9.5,9.4c-11,0.1-22.1,0-33.1,0c-12.3,0-24.6-0.1-36.9,0.1c-4.2,0.1-5.8-1.1-5.7-5.6
				c0.4-11.5-1.1-9.9,10-10c23-0.1,45.9,0.1,68.9-0.1C255.7,267.9,257.2,269.3,257.1,274.2z"/>
			<path class="st2" d="M102.6,152.4c-4.4,0.2-7.2,2.6-7.6,7.1c-0.4,4.2,2.9,7.9,7.2,8.1c4.2,0.2,7.9-3.2,8-7.4
				C110.3,156.1,106.8,152.2,102.6,152.4z"/>
			<path class="st2" d="M148.8,167.7c4.1,0,7.8-3.6,7.7-7.7c0-4.1-3.7-7.7-7.8-7.6c-3.9,0.1-7.3,3.5-7.4,7.4
				C141.1,163.9,144.7,167.6,148.8,167.7z"/>
			<path class="st2" d="M226.5,256.5c7.5,0,15,0,22.5,0c2.4,0,3.9-1.2,4-3.6c0.1-2.6-1.3-4.1-4-4.1c-3.7,0-7.3,0-11,0
				c-3.8,0-7.7,0-11.5,0c-2.6,0-4.3,1.1-4.3,3.8S224,256.5,226.5,256.5z"/>
			<path class="st2" d="M179.7,256.5c2.4,0.1,3.7-1.3,3.9-3.7c-0.1-2.3-1.1-3.9-3.6-4c-2.6-0.1-4.2,1.2-4.2,3.9
				C175.9,255.2,177.3,256.4,179.7,256.5z"/>
			<path class="st2" d="M202.5,256.5c2.4,0.3,3.8-0.9,4.3-3.3c0.1-2.3-0.7-4-3.2-4.3c-2.3-0.3-4.1,0.6-4.5,3
				C198.7,254.4,199.7,256.2,202.5,256.5z"/>
			<path class="st2" d="M191.4,256.5c2.5-0.1,3.6-1.6,3.6-3.8s-1.1-3.8-3.6-3.8c-2.7,0-4,1.5-3.9,4.1
				C187.7,255.3,189,256.5,191.4,256.5z"/>
			<path class="st2" d="M248.3,272c-7.1,0-14.2,0-21.4,0c-2.7,0-4.8,0.9-4.7,4c0.1,3.2,2.3,3.8,4.9,3.7c3.5,0,6.9,0,10.4,0
				c3.5,0,6.9,0,10.4,0c2.7,0.1,4.9-0.6,5-3.7C253.1,273,251.1,271.9,248.3,272z"/>
			<path class="st2" d="M179.8,272c-2.3,0-3.8,1.1-3.9,3.6c-0.1,2.7,1.4,4.1,4,4.1c2.5,0,3.5-1.6,3.7-3.9
				C183.4,273.5,182.3,272,179.8,272z"/>
			<path class="st2" d="M203,271.9c-2.1,0.1-3.8,1-3.9,3.5c-0.2,2.7,1.2,4.2,3.8,4.2c2.4,0.1,3.8-1.3,3.8-3.7
				C206.8,273.6,205.6,272.2,203,271.9z"/>
			<path class="st2" d="M191.7,272c-2.7-0.2-4.2,1.3-4.2,3.8c0,2.3,1.2,3.8,3.7,3.8c2.4,0.1,3.7-1.2,3.9-3.8
				C195,273.8,194.2,272.2,191.7,272z"/>
			<path class="st2" d="M248.8,295.1c-3.7,0-7.3,0-11,0s-7.3,0-11,0c-2.8,0-4.7,1-4.6,4.1c0.1,2.8,2,3.6,4.5,3.6
				c7.3,0,14.6,0,21.9,0c2.6,0,4.3-1.1,4.3-3.8C253,296.4,251.4,295.1,248.8,295.1z"/>
			<path class="st2" d="M179.7,295.1c-2.1,0.2-3.7,1.2-3.8,3.7c-0.1,2.7,1.4,4.1,4,4.1c2.4,0,3.7-1.5,3.7-3.9
				C183.6,296.6,182.2,295.3,179.7,295.1z"/>
			<path class="st2" d="M203.2,295.2c-2.6-0.1-4.2,1.2-4.1,3.9c0,2.4,1.5,3.7,3.8,3.7c2.4,0.1,3.7-1.3,3.9-3.7
				C206.7,296.9,205.7,295.3,203.2,295.2z"/>
			<path class="st2" d="M192.6,295.1c-3.9,0.1-5,1.6-5,3.9c0,2.6,1.5,4,4.2,3.8c2.5-0.2,3.4-1.8,3.3-4.1
				C194.9,296.4,193.6,295.1,192.6,295.1z"/>
		</g>
		<g>
			<path class="st0" d="M258,267c1.6-4.9,1.2-9.8,1.1-14.7c-0.1-7.6-3.5-11.1-11.1-11.3c-7.4-0.2-14.7-0.3-22.1,0.1
				c-4.4,0.2-5.9-1.2-5.4-5.5c0.3-3,0.1-6.2-4.2-6.2c-5,0-9.9,0-14.9,0c-2.4,0-3.5,1.3-3.9,3.7c-1.3,7.9-1.4,7.9-9.5,7.9
				c-5.7,0-11.4-0.3-17.1,0.1c-5.8,0.4-11.2-1.2-16.7-2.6c-1-0.2-2.2-0.1-2.8-1.4c-1.4-2.7,0.4-12.7,2.7-14.8
				c8.3-7.3,15.1-15.7,18.1-26.5c1.2-4.3,2.9-5.3,7-5.2c9,0.2,14.3-5.4,14.4-14.4c0.1-5,0-9.9,0-14.9c0-11.9-4.2-16.5-15.9-16.8
				c-3.2-0.1-3.5-1.4-3.5-3.9c0-4.2,0.1-8.5-0.4-12.6c-2.5-22.8-14.7-38.7-36.2-46.1c-21.5-7.3-40.9-2.3-56.9,14.2
				c-11.4,11.8-15.4,26.4-14.5,42.5c0.2,4.1-0.2,6.2-5.3,6c-8.6-0.3-13.9,5.5-14,14.2c-0.1,6.1,0,12.1,0,18.2c0,3.6,0.7,7.4,3.7,9.4
				c4,2.5,4.2,5.9,4,9.8c-0.1,2.4,0.2,4.8-0.1,7.2c-0.6,5.1,1.6,7.4,6.5,6.7c9.1-1.2,16.1,1,22.3,8.8c3.8,4.7,6.5,8.5,6.1,14.7
				c-0.2,3.7-1.4,4.9-4.8,5.8c-12.2,3.4-24.4,6.8-36.3,10.8c-14.3,4.8-23.2,14.9-27,29.4c-2.6,9.9-1.3,20.1-1.5,30.2
				c-0.2,8.3,0,8.4,8.1,8.4c36.2,0,72.4,0,108.6,0c36.4,0,72.8,0,109.2,0c10.4,0,13.7-3.1,13.3-13.5c-0.3-9.2-0.7-18.4,0.1-27.6
				C259.6,273.6,257,270.2,258,267z M177.2,152.2c4.2,0,8,0.5,8.6,5.4c0.4,3.4,0.1,6.9,0.1,10.4h0.1c0,2.9,0,5.8,0,8.8
				c0,2.2-0.8,3.9-2.6,5.1c-2.5,1.8-5.4,1.6-7.9,0.9c-2.3-0.7-1-3.5-1.1-5.4c-0.2-6.6-0.2-13.2,0-19.8
				C174.5,155.7,172.4,152.2,177.2,152.2z M209.1,237c1.4,0.5,4.1-1.1,3.9,2.2c-0.1,2.5-2.2,2-3.7,1.9c-1.6-0.1-4,0.9-4.1-2
				C205,235.9,207.7,237.6,209.1,237z M166.5,257.9c0.5-10.3-0.9-9.2,9.2-9.2c11.2,0,22.4,0,33.6,0c12.5,0,25,0.1,37.5-0.1
				c3.6,0,4.9,1.1,4.8,4.7c-0.2,13.2,1,10.7-10.2,10.8c-22.8,0.1-45.6-0.1-68.3,0.1C168.1,264.4,166.2,263.2,166.5,257.9z
				 M54.9,178.1c-0.6-6.9-0.6-13.9,0-20.8c0.4-5,4.8-5.2,8.9-5c4.3,0.2,2.2,3.4,2.4,5.3c0.3,3.5,0.1,7,0.1,10.4
				c0,3.3,0.2,6.6-0.1,9.9c-0.2,1.9,1.9,5.1-2.4,5.3C59.7,183.3,55.3,183,54.9,178.1z M69.7,201.9c-1.4,1.5-4.4,1.1-6.3,0.4
				c-2.4-0.9-0.5-3.6-1-5c0-2.1-0.1-3.7,0-5.4c0.1-1.2,1.3-1,2.2-1c1.1,0,2.3,0,2.7,1.3c0.4,1.4,0.8,2.8,1.1,4.2
				C68.8,198.3,71.3,200.3,69.7,201.9z M120.3,86.7c26.7,0,47.7,22.8,46.4,50.1c-0.2,3.9-1.8,3.3-3.9,2.1
				c-8.2-4.2-13.3-11.3-17.7-19.1c-4.5-8-4.8-8-10.5-1.3c-3,3.6-7.3,5.5-11.5,7.3c-14.5,6.3-29.9,9.9-45.2,13.3
				c-2.7,0.6-3.8,0.4-4-2.9C72.7,109.3,93.7,86.7,120.3,86.7z M89.5,214.8c-1.2-1.1-2.5-2.1-3.8-3.1c0.2-0.5,0.4-1,0.5-1.5
				c5.3,0,10.5,0.1,15.8,0c2.2,0,2.9,1,2.8,3c-0.2,3.7,2,4.7,5.2,4.7c7,0,14,0,20.9,0c3.2,0,4.7-1.5,4.7-4.7c0-4.6,0-9.2,0-13.8
				c0-3.2-1.5-4.7-4.7-4.7c-7,0-14,0-20.9,0c-3.2,0-5.4,1-5.2,4.7c0.2,2.5-1.1,3.1-3.3,3.1c-6.4-0.1-12.9-0.2-19.3,0
				c-2.6,0.1-3.5-1.3-4.4-3.2c-2.5-5.2-3.8-10.7-3.9-16.5c0-10.3,0.2-20.6-0.1-30.9c-0.1-3.8,1.6-4.6,4.7-5.2
				c16.5-3.4,32.9-7.3,48.4-14.2c2-0.9,4.2-1.6,5.8-3c4.7-4.2,7.4-3.4,10.8,2c4.7,7.6,11.4,13.4,20.4,15.9c2.4,0.6,2.7,1.9,2.7,4
				c-0.1,10.8,0.3,21.7-0.1,32.5c-0.8,21.3-23.3,44.4-44.7,45.4C108.9,229.9,98.9,222.9,89.5,214.8z M115,202.4c2.5,0,5.1,0,7.6,0
				c2.9-0.1,5.7-0.6,5.6,4.1c-0.1,4.6-2.8,3.7-5.4,3.7c-1.1,0-2.2,0-3.3,0c-1.5,0-2.9-0.1-4.4,0c-2.8,0.2-2.8-1.7-2.7-3.6
				C112.6,204.8,111.7,202.3,115,202.4z M138.2,242.9c-5.2,3-10,6.8-14.7,10.5c-2.5,1.9-4.2,1.7-6.6-0.1c-4.6-3.6-9.2-7.3-14.3-10.2
				c-5.1-2.9-6.6-6.7-4.9-13c15.2,9.1,30.1,9,45.1,0.1C144.5,236,143.4,239.9,138.2,242.9z M159,281.6c1.3,8-0.6,15.8,0,23.7
				c0.3,4.7-1.5,5.4-5.6,5.3c-15.6-0.2-31.2-0.1-46.9-0.1c-15.6,0-31.3-0.2-46.9,0.1c-4.2,0.1-5.5-1.2-5-5.2
				c0.4-3.3,0.1-6.6,0.1-9.9c0-2.6-1.2-4.3-3.9-4.2c-2.7,0.1-3.8,1.8-3.8,4.4c0,3.7-0.1,7.4,0,11c0.1,2.7-0.4,4.1-3.5,3.9
				c-4-0.3-8.1-0.2-12.1,0c-3,0.2-3.8-1-3.7-3.8c0.3-6.6-0.1-13.2,0.5-19.8c1.3-14.6,9.2-24.7,22.9-29.4
				c12.6-4.4,25.6-7.6,38.5-11.4c2.3-0.7,4.1-0.2,6.1,1.2c6.7,4.9,13.5,9.5,20.1,14.5c3.3,2.5,5.9,2.7,9.3,0.1
				c6.2-4.8,13.1-8.8,19.1-13.9c4.9-4.2,9.3-1.1,13.9-0.5c1.4,0.2,1,1.6,1,2.7c0.3,5.8,0.2,11.6,1.1,17.4
				C160.7,271.8,158.3,276.9,159,281.6z M241.6,310.5c-22.8,0.1-45.6-0.1-68.3,0.1c-5.3,0.1-7.5-1.4-6.7-6.7c0.2-1.3,0.2-2.6,0-3.9
				c-0.4-3.8,1.2-5.2,5-5.1c12.5,0.2,25,0.1,37.5,0.1s25,0.1,37.5-0.1c3.9-0.1,5.1,1.2,5,5.1C251.3,312.7,252.6,310.5,241.6,310.5z
				 M251.6,278c-0.4,11.1,0.8,9.3-9.5,9.4c-11,0.1-22.1,0-33.1,0c-12.3,0-24.6-0.1-36.9,0.1c-4.2,0.1-5.8-1.1-5.7-5.6
				c0.4-11.5-1.1-9.9,10-10c23-0.1,45.9,0.1,68.9-0.1C250.3,271.7,251.8,273.1,251.6,278z"/>
			<path class="st0" d="M97.2,156.2c-4.4,0.2-7.2,2.6-7.6,7.1c-0.4,4.2,2.9,7.9,7.2,8.1c4.2,0.2,7.9-3.2,8-7.4
				C104.9,159.9,101.3,156,97.2,156.2z"/>
			<path class="st0" d="M143.4,171.5c4.1,0,7.8-3.6,7.7-7.7c0-4.1-3.7-7.7-7.8-7.6c-3.9,0.1-7.3,3.5-7.4,7.4
				C135.7,167.7,139.2,171.4,143.4,171.5z"/>
			<path class="st0" d="M221.1,260.3c7.5,0,15,0,22.5,0c2.4,0,3.9-1.2,4-3.6c0.1-2.6-1.3-4.1-4-4.1c-3.7,0-7.3,0-11,0
				c-3.8,0-7.7,0-11.5,0c-2.6,0-4.3,1.1-4.3,3.8S218.6,260.3,221.1,260.3z"/>
			<path class="st0" d="M174.3,260.3c2.4,0.1,3.7-1.3,3.9-3.7c-0.1-2.3-1.1-3.9-3.6-4c-2.6-0.1-4.2,1.2-4.2,3.9
				C170.5,259,171.9,260.2,174.3,260.3z"/>
			<path class="st0" d="M197.1,260.3c2.4,0.3,3.8-0.9,4.3-3.3c0.1-2.3-0.7-4-3.2-4.3c-2.3-0.3-4.1,0.6-4.5,3
				C193.3,258.2,194.3,260,197.1,260.3z"/>
			<path class="st0" d="M186,260.3c2.5-0.1,3.6-1.6,3.6-3.8s-1.1-3.8-3.6-3.8c-2.7,0-4,1.5-3.9,4.1
				C182.2,259.1,183.6,260.3,186,260.3z"/>
			<path class="st0" d="M242.9,275.8c-7.1,0-14.2,0-21.4,0c-2.7,0-4.8,0.9-4.7,4c0.1,3.2,2.3,3.8,4.9,3.7c3.5,0,6.9,0,10.4,0
				c3.5,0,6.9,0,10.4,0c2.7,0.1,4.9-0.6,5-3.7C247.7,276.8,245.7,275.7,242.9,275.8z"/>
			<path class="st0" d="M174.4,275.8c-2.3,0-3.8,1.1-3.9,3.6c-0.1,2.7,1.4,4.1,4,4.1c2.5,0,3.5-1.6,3.7-3.9
				C178,277.3,176.9,275.8,174.4,275.8z"/>
			<path class="st0" d="M197.6,275.7c-2.1,0.1-3.8,1-3.9,3.5c-0.2,2.7,1.2,4.2,3.8,4.2c2.4,0.1,3.8-1.3,3.8-3.7
				C201.4,277.4,200.1,276,197.6,275.7z"/>
			<path class="st0" d="M186.3,275.8c-2.7-0.2-4.2,1.3-4.2,3.8c0,2.3,1.2,3.8,3.7,3.8c2.4,0.1,3.7-1.2,3.9-3.8
				C189.6,277.6,188.7,276,186.3,275.8z"/>
			<path class="st0" d="M243.4,298.9c-3.7,0-7.3,0-11,0s-7.3,0-11,0c-2.8,0-4.7,1-4.6,4.1c0.1,2.8,2,3.6,4.5,3.6
				c7.3,0,14.6,0,21.9,0c2.6,0,4.3-1.1,4.3-3.8C247.6,300.2,246,298.9,243.4,298.9z"/>
			<path class="st0" d="M174.3,298.9c-2.1,0.2-3.7,1.2-3.8,3.7c-0.1,2.7,1.4,4.1,4,4.1c2.4,0,3.7-1.5,3.7-3.9
				C178.1,300.4,176.8,299.1,174.3,298.9z"/>
			<path class="st0" d="M197.8,299c-2.6-0.1-4.2,1.2-4.1,3.9c0,2.4,1.5,3.7,3.8,3.7c2.4,0.1,3.7-1.3,3.9-3.7
				C201.2,300.7,200.2,299.1,197.8,299z"/>
			<path class="st0" d="M187.2,298.9c-3.9,0.1-5,1.6-5,3.9c0,2.6,1.5,4,4.2,3.8c2.5-0.2,3.4-1.8,3.3-4.1
				C189.5,300.2,188.2,298.9,187.2,298.9z"/>
		</g>
	</g>
</g>
</svg>
