<svg id="Layer_1" data-name="Layer 1" xmlns="http://www.w3.org/2000/svg" viewBox="0 0 366.09 350.17"><defs><style>.cls-1{fill:#284b60;}.cls-2{opacity:0.57;}.cls-3{fill:#fff;}.cls-4{fill:#e66c29;}.cls-5{fill:#bec8d2;}.cls-6{fill:#90a2ad;}.cls-7{fill:#d2dfe6;}</style></defs><title>iconos</title><g id="SoftDev"><g id="Grupo_1609-2" data-name="Grupo 1609-2"><g id="Trazado_2708-2" data-name="Trazado 2708-2"><path id="Trazado_6327" data-name="Trazado 6327" class="cls-1" d="M275.07,252.46a1.46,1.46,0,0,1-1.19-2.29c.9-1.24,1.34-1.9,1.4-1.9a1.4,1.4,0,1,1,2.3,1.61h0s-.5.67-1.44,2A1.24,1.24,0,0,1,275.07,252.46Z"/></g><g id="Trazado_2709-2" data-name="Trazado 2709-2"><path id="Trazado_6328" data-name="Trazado 6328" class="cls-1" d="M126.82,338.1h-1.4c-.78,0-1.44-.52-1.39-1.14s.61-1.12,1.44-1.12h0c1.56,0,3.11,0,4.73-.06h.05a1.35,1.35,0,0,1,1.45,1.11,1.25,1.25,0,0,1-1.34,1.16h-.05C129.1,338.09,127.94,338.1,126.82,338.1Zm-12.77-.54h-.12c-1.63-.08-3.24-.26-4.76-.42-.78-.09-1.34-.63-1.23-1.3a1.39,1.39,0,0,1,1.62-1c1.51.17,3.13.3,4.7.43a1.28,1.28,0,0,1,1.29,1.24,1.48,1.48,0,0,1-1.51,1Zm27.84-.35a1.43,1.43,0,0,1-1.46-1c-.12-.63.5-1.16,1.23-1.26a9.47,9.47,0,0,1,1.06-.09c1.24-.1,2.41-.23,3.63-.37a1.46,1.46,0,0,1,1.63,1c.12.63-.43,1.16-1.23,1.31-1.23.13-2.46.28-3.7.36a8.32,8.32,0,0,1-1.12.1s-.05,0-.05,0ZM98,335.43a1,1,0,0,1-.34,0c-1.56-.27-3.13-.62-4.7-.92-.78-.18-1.24-.8-1-1.39a1.47,1.47,0,0,1,1.73-.81l4.54.92a1.14,1.14,0,0,1,1.08,1.18.88.88,0,0,1,0,.16c0,.54-.6.9-1.27.9Zm59.67-.28a1.39,1.39,0,0,1-1.41-.89,1.16,1.16,0,0,1,1-1.33h.1c1.51-.28,3.07-.6,4.58-.87a1.57,1.57,0,0,1,1.75.81,1.19,1.19,0,0,1-.93,1.38h-.08c-1.56.31-3.12.63-4.69.91a.53.53,0,0,0-.28,0Zm15.54-3.58a1.35,1.35,0,0,1-1.34-.8c-.28-.62.11-1.25.89-1.43,1.45-.41,3-.82,4.48-1.27a1.55,1.55,0,0,1,1.84.67,1.09,1.09,0,0,1-.64,1.42h0a.65.65,0,0,1-.2,0c-1.51.45-3,.86-4.53,1.32a2.07,2.07,0,0,1-.5,0Zm-90.66.32a1.43,1.43,0,0,1-.5-.09c-1.52-.43-3-.92-4.48-1.41a1.12,1.12,0,0,1-.84-1.36,1.42,1.42,0,0,1,0-.16h0a1.68,1.68,0,0,1,1.9-.63c1.45.49,2.91,1,4.37,1.38.73.22,1.12.89.78,1.47a1.32,1.32,0,0,1-1.28.81Zm105.76-5.06a1.45,1.45,0,0,1-1.29-.67,1.06,1.06,0,0,1,.72-1.52c1.45-.5,2.85-1,4.31-1.62a1.59,1.59,0,0,1,1.9.52,1,1,0,0,1-.39,1.42.88.88,0,0,1-.27.1c-1.45.59-2.91,1.13-4.36,1.63a1.48,1.48,0,0,1-.62.14Zm-120.55-.46a1.9,1.9,0,0,1-.67-.13l-4.2-1.87a1,1,0,0,1-.63-1.31,1.15,1.15,0,0,1,.12-.25,1.68,1.68,0,0,1,2-.4c1.34.62,2.74,1.24,4.09,1.86a1,1,0,0,1,.68,1.25h0a1.07,1.07,0,0,1-.12.27,1.39,1.39,0,0,1-1.23.58Zm135-5.38a1.46,1.46,0,0,1-1.23-.59,1,1,0,0,1,.28-1.39.84.84,0,0,1,.27-.13c1.4-.63,2.79-1.25,4.08-1.88a1.67,1.67,0,0,1,2,.39,1,1,0,0,1-.26,1.44,1.34,1.34,0,0,1-.24.12c-1.4.63-2.8,1.31-4.14,1.94-.27,0-.49.1-.72.1ZM54.06,319.53a2.1,2.1,0,0,1-.85-.22c-1.29-.75-2.58-1.51-3.86-2.31a1,1,0,0,1-.44-1.34.9.9,0,0,1,.2-.27,1.69,1.69,0,0,1,2-.19c1.23.8,2.52,1.51,3.75,2.22a1,1,0,0,1,.5,1.33,1.14,1.14,0,0,1-.15.23,1.49,1.49,0,0,1-1.17.55Zm162.56-5.38a1.6,1.6,0,0,1-1.18-.49,1,1,0,0,1,.09-1.38.92.92,0,0,1,.3-.18c1.33-.72,2.63-1.44,3.85-2.16a1.61,1.61,0,0,1,2,.27,1,1,0,0,1,0,1.36.92.92,0,0,1-.31.2c-1.28.72-2.63,1.48-4,2.2a1.63,1.63,0,0,1-.72.18Zm-175.15-2.8a1.64,1.64,0,0,1-1-.31c-1.18-.84-2.36-1.77-3.48-2.66a1,1,0,0,1-.25-1.38,1.36,1.36,0,0,1,.24-.24,1.71,1.71,0,0,1,2,0c1.13.89,2.24,1.73,3.43,2.58a1,1,0,0,1,.29,1.4h0a1.42,1.42,0,0,1-1.25.6ZM230,306.52a1.54,1.54,0,0,1-1.12-.44,1,1,0,0,1,0-1.42h0a.83.83,0,0,1,.27-.19c1.23-.81,2.52-1.57,3.69-2.38a1.69,1.69,0,0,1,2,.17,1,1,0,0,1,.05,1.41h0a1.05,1.05,0,0,1-.27.2c-1.23.81-2.52,1.62-3.74,2.43a2.57,2.57,0,0,1-.9.21ZM30.48,302a1.54,1.54,0,0,1-1.06-.4c-1-1-2.08-2-3.09-2.94a1,1,0,0,1,0-1.41,1.05,1.05,0,0,1,.27-.2,1.69,1.69,0,0,1,2,.17c1,1,2,2,3,2.89a1,1,0,0,1,.08,1.44.82.82,0,0,1-.2.17,1.72,1.72,0,0,1-1,.28Zm211.66-3.84a1.53,1.53,0,0,1-1.06-.39,1,1,0,0,1-.2-1.35.86.86,0,0,1,.31-.26c1.23-.85,2.34-1.71,3.51-2.56a1.64,1.64,0,0,1,2,.08,1,1,0,0,1,.19,1.35.83.83,0,0,1-.3.26c-1.17.85-2.34,1.71-3.51,2.6a2.36,2.36,0,0,1-1,.28Zm-221.5-6.41a1.61,1.61,0,0,1-1.17-.48c-.9-1-1.8-2.14-2.65-3.21a1,1,0,0,1,.19-1.42.89.89,0,0,1,.25-.14,1.66,1.66,0,0,1,2,.35c.85,1.06,1.68,2.09,2.58,3.12a1,1,0,0,1-.08,1.4,1.32,1.32,0,0,1-.25.16,1.52,1.52,0,0,1-.83.22Zm233-2.55a1.65,1.65,0,0,1-1-.31,1,1,0,0,1-.24-1.37.76.76,0,0,1,.23-.24c1.18-.94,2.23-1.84,3.3-2.74a1.74,1.74,0,0,1,2-.05,1,1,0,0,1,.24,1.42.81.81,0,0,1-.18.19q-1.59,1.36-3.35,2.78a1.8,1.8,0,0,1-1,.31ZM12,280.76a1.43,1.43,0,0,1-1.24-.62C10,279,9.21,277.87,8.54,276.7a1,1,0,0,1,.4-1.42,1.17,1.17,0,0,1,.26-.1,1.59,1.59,0,0,1,1.91.53c.67,1.11,1.4,2.23,2.14,3.34a1,1,0,0,1-.32,1.42,1.15,1.15,0,0,1-.23.1A2.62,2.62,0,0,1,12,280.76Zm253-1.1a1.75,1.75,0,0,1-.95-.27,1,1,0,0,1-.34-1.36.88.88,0,0,1,.22-.25c1.12-1,2.13-2,3.07-2.91a1.76,1.76,0,0,1,2-.14,1,1,0,0,1,.33,1.4.83.83,0,0,1-.16.21c-1,.94-2,1.88-3.12,3a1.6,1.6,0,0,1-1.07.35ZM5.13,268.7A1.45,1.45,0,0,1,3.85,268v0a35.11,35.11,0,0,1-1.53-3.7c-.23-.62.22-1.21,1-1.39a1.45,1.45,0,0,1,1.74.8,31.05,31.05,0,0,0,1.41,3.44,1.15,1.15,0,0,1-.68,1.48h0l-.1,0a2.59,2.59,0,0,1-.56,0ZM1.69,256.29a1.4,1.4,0,0,1-1.45-1C.12,254,0,252.68,0,251.43a1.3,1.3,0,0,1,1.4-1.17h.05a1.35,1.35,0,0,1,1.45,1.11c.06,1.25.12,2.55.24,3.76a1.26,1.26,0,0,1-1.28,1.21.18.18,0,0,0-.16,0Zm.3-13H1.88c-.79-.09-1.34-.62-1.24-1.24a37.41,37.41,0,0,1,.61-3.81,1.47,1.47,0,0,1,1.62-1,1.28,1.28,0,0,1,1.24,1.3c-.23,1.25-.44,2.5-.61,3.71a1.5,1.5,0,0,1-1.5,1Zm2.86-12.7a.8.8,0,0,1-.34,0,1.1,1.1,0,0,1-1-1.14h0a1.57,1.57,0,0,1,0-.23c.39-1.25.83-2.5,1.27-3.71a1.49,1.49,0,0,1,1.79-.76,1.1,1.1,0,0,1,1,1.19h0a.86.86,0,0,1,0,.23c-.43,1.21-.89,2.42-1.22,3.62a1.6,1.6,0,0,1-1.44.85Zm5-12.28a2.62,2.62,0,0,1-.56-.09c-.73-.27-1.06-.89-.78-1.47.55-1.16,1.22-2.36,1.88-3.53a1.68,1.68,0,0,1,1.9-.59,1.09,1.09,0,0,1,.81,1.31.9.9,0,0,1-.08.21c-.61,1.16-1.22,2.33-1.83,3.45a1.41,1.41,0,0,1-1.35.71Zm6.84-11.72a1.7,1.7,0,0,1-.67-.13,1,1,0,0,1-.7-1.23,1.11,1.11,0,0,1,.14-.29l2.33-3.36a1.67,1.67,0,0,1,2-.4,1,1,0,0,1,.63,1.31,1.19,1.19,0,0,1-.13.25c-.78,1.07-1.56,2.19-2.34,3.26a1.23,1.23,0,0,1-1.21.59Zm8.59-11.24a1.57,1.57,0,0,1-.79-.22,1,1,0,0,1-.49-1.32,1.58,1.58,0,0,1,.15-.24c.9-1,1.89-2.06,2.84-3.09a1.7,1.7,0,0,1,2-.22,1,1,0,0,1,.48,1.33,1.1,1.1,0,0,1-.2.28c-.94,1-1.89,2.06-2.79,3.05a2.22,2.22,0,0,1-1.22.43Zm10-9.83a1.66,1.66,0,0,1-.94-.27,1,1,0,0,1-.42-.53,1,1,0,0,1,.3-1.08c1.05-1,2.12-1.88,3.23-2.82a1.76,1.76,0,0,1,2-.05,1,1,0,0,1,.24,1.41.86.86,0,0,1-.18.2c-1.06.94-2.13,1.88-3.23,2.78a1.63,1.63,0,0,1-1,.37Zm11.45-9.26a1.5,1.5,0,0,1-1.06-.4,1,1,0,0,1-.2-1.34,1.14,1.14,0,0,1,.31-.27c1.17-.85,2.4-1.71,3.62-2.56a1.71,1.71,0,0,1,2,.13,1,1,0,0,1,.1,1.4,1.33,1.33,0,0,1-.26.21c-1.23.81-2.4,1.66-3.57,2.47a1.44,1.44,0,0,1-.95.36Zm12.62-8.11a1.83,1.83,0,0,1-1.18-.44,1,1,0,0,1,0-1.37.89.89,0,0,1,.31-.19c1.28-.76,2.63-1.48,4-2.2a1.61,1.61,0,0,1,2,.3,1,1,0,0,1-.09,1.39,1.75,1.75,0,0,1-.29.18L60.23,168a3.93,3.93,0,0,1-.84.18Zm13.58-7a1.46,1.46,0,0,1-1.24-.59,1,1,0,0,1,.28-1.39h0a.84.84,0,0,1,.27-.13l4.19-1.88a1.63,1.63,0,0,1,1.91.43,1,1,0,0,1-.32,1.42h0a1.23,1.23,0,0,1-.23.11c-1.39.58-2.79,1.16-4.13,1.84a1.31,1.31,0,0,1-.72.18Zm14.47-5.82a1.45,1.45,0,0,1-1.28-.67,1.06,1.06,0,0,1,.72-1.52c1.45-.5,3-1,4.42-1.53a1.48,1.48,0,0,1,1.84.62c.34.58,0,1.25-.78,1.47-1.45.45-3,1-4.3,1.48a1.31,1.31,0,0,1-.61.15Zm14.77-5.23a1.48,1.48,0,0,1-1.29-.67c-.34-.59,0-1.25.73-1.53,1.33-.44,2.79-1,4.41-1.53a1.61,1.61,0,0,1,1.9.62c.34.58,0,1.25-.78,1.52-1.62.54-3,1-4.36,1.54-.17,0-.39.05-.61.05ZM117.29,145a1.44,1.44,0,0,1-1.34-.75,1.09,1.09,0,0,1,.62-1.41.9.9,0,0,1,.22-.06c1.45-.45,3-.82,4.53-1.27a1.47,1.47,0,0,1,1.79.71c.28.63-.16,1.25-.9,1.43-1.56.45-3,.82-4.47,1.23a.56.56,0,0,1-.45.12Zm15.49-3.51a1.44,1.44,0,0,1-1.4-.8c-.23-.63.22-1.25,1-1.39,1.52-.36,3-.69,4.64-1a1.55,1.55,0,0,1,1.75.8c.23.62-.28,1.21-1,1.39-1.56.32-3.07.63-4.53,1Zm15.72-3.51a1.4,1.4,0,0,1-1.4-.89,1.15,1.15,0,0,1,1-1.33h0l.1,0c1.56-.27,3.13-.54,4.7-.77a1.48,1.48,0,0,1,1.68.9,1.2,1.2,0,0,1-1,1.33h-.08c-1.56.28-3.13.5-4.64.77Zm15.94-2.35a1.34,1.34,0,0,1-1.4-1c-.12-.62.39-1.2,1.23-1.3l4.76-.55a1.47,1.47,0,0,1,1.63,1c.11.63-.44,1.16-1.24,1.31-1.56.18-3.19.32-4.69.54Zm16.17-1.45a1.42,1.42,0,0,1-1.45-1,1.26,1.26,0,0,1,1.28-1.21c1.56-.09,3.19-.23,4.76-.28a1.35,1.35,0,0,1,1.51,1.06c.07.62-.55,1.16-1.33,1.21l-4.76.29Z"/></g></g><g id="Elipse_104-2" data-name="Elipse 104-2" class="cls-2"><circle id="Elipse_127" data-name="Elipse 127" class="cls-3" cx="290.07" cy="90.92" r="5.43"/></g><g id="Grupo_1623-2" data-name="Grupo 1623-2"><g id="Trazado_2737-2" data-name="Trazado 2737-2"><path id="Trazado_6330" data-name="Trazado 6330" class="cls-4" d="M75.8,238.44l-2.46-1.05,2.17-4.93,2.46,1ZM79,231l-2.46-1,2.17-4.93,2.46,1.05Zm3.28-7.34-2.47-1.06L82,217.72l2.47,1.05Zm3.22-7.39-2.47-1.06,2.17-4.92,2.47,1Zm3.28-7.4-2.47-1.06,2.17-4.92L91,204Zm3.27-7.41-2.46-1.05,2.17-4.93,2.46,1.06Zm3.22-7.45L92.83,193,95,188.07l2.46,1.05Zm3.22-7.34-2.46-1.05,2.17-4.93,2.46,1.05Zm3.34-7.4-2.47-1.05,2.17-4.93,2.46,1Zm66.21-.41-1.18-.34.39-1.45-.12-.05.34-.79.11-.34h.06l1.22-2.74,2.47,1.05-1.67,3.82Zm-3.75-1.12-5.22-1.44.78-2.57,5.21,1.43Zm-7.8-2.16-5.21-1.44.77-2.57,5.22,1.43Zm-7.79-2.21-5.2-1.43.77-2.58,5.21,1.43Zm23.72-1.59-2.46-1,2.18-4.93,2.46,1.06Zm-67.37.1-2.46-1.06,2.16-4.92,2.47,1.05Zm35.92-.68-5.21-1.43.77-2.58,5.22,1.44ZM133.2,169,128,167.6l.77-2.58,5.21,1.43Zm-7.78-2.16-5.21-1.43.77-2.58,5.22,1.44Zm-7.79-2.21-5.21-1.43.77-2.58,5.21,1.44Zm58-.24-2.46-1,2.16-4.93,2.47,1.05Zm-67.33.09-2.46-1,1.44-3.3,1.63-.79,1.68.49-.78,2.58-.55-.16Zm70.6-7.48L176.48,156l2.16-4.93,2.47,1Zm3.23-7.4-2.46-1.06,2.16-4.92,2.48,1Zm3.27-7.4L183,141.17l2.16-4.93,2.47,1.06Zm3.28-7.34-2.46-1.06,2.16-4.92,2.47,1.05Zm3.22-7.4-2.47-1.06,2.17-4.93,2.47,1.06ZM254,124.33l-2.3-1.45,2.9-4.54,2.3,1.45Zm-3.92-.38-4.32-3.18,1.62-2.19,4.32,3.18Zm-54.91-3.86-2.47-1,2.17-4.93,2.46,1.06Zm48.35-.93L239.19,116l1.63-2.19,4.32,3.18Zm14.83-1.61L256,116.11l2.9-4.54,2.31,1.44ZM237,114.48l-4.33-3.18,1.62-2.19,4.33,3.18Zm-38.5-1.84-2.46-1,2.16-4.93,2.47,1.06Zm64.19-1.94-2.3-1.44,2.89-4.54,2.31,1.44Zm-32.18-1-4.32-3.18,1.62-2.18,4.32,3.17Zm-28.79-4.39-2.46-1,2.17-4.93,2.46,1.06ZM224,105l-4.33-3.18,1.62-2.19,4.33,3.18Zm43.14-1-2.31-1.45,2.9-4.53L270,99.37Zm-49.72-3.76L213.06,97l1.62-2.19L219,98ZM205,97.89l-2.46-1,2.17-4.93L207.13,93Zm66.48-.82-2.3-1.45L272,91.09l2.31,1.44Zm-60.56-1.66-4.32-3.18,1.62-2.18,4.32,3.17Zm64.9-5.13-2.3-1.45,2.9-4.53,2.3,1.44Zm4.41-6.78-2.3-1.44,2.89-4.54L283.09,79Z"/></g></g><g id="Elipse_118-2" data-name="Elipse 118-2"><circle id="Elipse_128" data-name="Elipse 128" class="cls-4" cx="74.51" cy="237.94" r="7.44"/></g><g id="Elipse_119-2" data-name="Elipse 119-2"><circle id="Elipse_129" data-name="Elipse 129" class="cls-4" cx="107.57" cy="161.33" r="7.44"/></g><g id="Elipse_120-2" data-name="Elipse 120-2"><circle id="Elipse_130" data-name="Elipse 130" class="cls-4" cx="168.06" cy="176.98" r="7.44"/></g><g id="Elipse_121-2" data-name="Elipse 121-2"><circle id="Elipse_131" data-name="Elipse 131" class="cls-4" cx="206.68" cy="90.68" r="7.44"/></g><g id="Elipse_122-2" data-name="Elipse 122-2"><circle id="Elipse_132" data-name="Elipse 132" class="cls-4" cx="252.34" cy="123.33" r="7.44"/></g><g id="Elipse_123-2" data-name="Elipse 123-2"><circle id="Elipse_133" data-name="Elipse 133" class="cls-4" cx="281.98" cy="78.25" r="7.44"/></g><g id="Grupo_1607-2" data-name="Grupo 1607-2" class="cls-2"><g id="Trazado_2703-2" data-name="Trazado 2703-2"><path id="Trazado_6331" data-name="Trazado 6331" class="cls-5" d="M90.73,307.05h0a32.5,32.5,0,0,1-22.86-9.22L25.38,256.6a32.78,32.78,0,0,1-8.94-31.42l14.48-57.4a32.76,32.76,0,0,1,22.75-23.46l56.92-16.19a33.89,33.89,0,0,1,8.84-1.26,32.49,32.49,0,0,1,22.86,9.21l42.44,41.23a32.86,32.86,0,0,1,8.94,31.49l-14.48,57.35a32.76,32.76,0,0,1-22.76,23.46L99.52,305.8A32.3,32.3,0,0,1,90.73,307.05Zm28.71-179.28a31.44,31.44,0,0,0-8.57,1.2L54,145.15a31.64,31.64,0,0,0-22.1,22.79l-14.54,57.4A31.85,31.85,0,0,0,26,255.87l42.44,41.28a31.63,31.63,0,0,0,22.19,8.94h0a31.71,31.71,0,0,0,8.56-1.2l56.92-16.19a31.61,31.61,0,0,0,22.09-22.79l14.48-57.4A31.83,31.83,0,0,0,184,178l-42.43-41.23a31.39,31.39,0,0,0-22.13-9ZM105.15,248.21a31.35,31.35,0,1,1,8.45-1.2,33.47,33.47,0,0,1-8.45,1.2Zm-.19-61.7a30.93,30.93,0,0,0-8.17,1.15,30.31,30.31,0,1,0,8.17-1.15Z"/></g><g id="Trazado_2704-2" data-name="Trazado 2704-2"><path id="Trazado_6332" data-name="Trazado 6332" class="cls-5" d="M213.91,180.24h0A32.53,32.53,0,0,1,191,171L148.61,129.8a32.88,32.88,0,0,1-9-31.49l14.48-57.4a32.79,32.79,0,0,1,22.76-23.46L233.77,1.26A33.89,33.89,0,0,1,242.61,0a32.51,32.51,0,0,1,22.86,9.21l42.44,41.23a32.89,32.89,0,0,1,8.94,31.49l-14.43,57.46a32.79,32.79,0,0,1-22.76,23.46L222.74,179A34.24,34.24,0,0,1,213.91,180.24ZM242.61,1a31.43,31.43,0,0,0-8.56,1.2l-57,16.18A31.63,31.63,0,0,0,155,41.13L140.5,98.54a31.81,31.81,0,0,0,8.66,30.52l42.44,41.23a31.63,31.63,0,0,0,22.19,8.94h0a31.71,31.71,0,0,0,8.56-1.2l56.92-16.12a31.63,31.63,0,0,0,22.09-22.79l14.48-57.41a31.84,31.84,0,0,0-8.66-30.52L264.74,10a31.31,31.31,0,0,0-22.13-9ZM228.33,121.37a31.31,31.31,0,1,1,8.45-1.2A33.6,33.6,0,0,1,228.33,121.37Zm-.19-61.56A30.88,30.88,0,0,0,220,61a30.27,30.27,0,0,0,8.29,59.4,30.81,30.81,0,0,0,8.17-1.14,30.28,30.28,0,0,0-8.29-59.41Z"/></g><g id="Trazado_2705-2" data-name="Trazado 2705-2"><path id="Trazado_6333" data-name="Trazado 6333" class="cls-5" d="M262.12,350.17h0A32.49,32.49,0,0,1,239.26,341l-42.44-41.23a32.85,32.85,0,0,1-8.94-31.48l14.48-57.36a32.79,32.79,0,0,1,22.76-23.46L282,171.25a33.84,33.84,0,0,1,8.84-1.27,32.58,32.58,0,0,1,22.86,9.22l42.43,41.22a32.86,32.86,0,0,1,8.94,31.49l-14.42,57.46a32.78,32.78,0,0,1-22.76,23.46L271,349A37.05,37.05,0,0,1,262.12,350.17Zm28.71-179.24a31.44,31.44,0,0,0-8.57,1.2l-57,16.18a31.63,31.63,0,0,0-22.09,22.79l-14.48,57.41A31.85,31.85,0,0,0,197.37,299l42.44,41.22A31.75,31.75,0,0,0,270.56,348l56.92-16.18A31.63,31.63,0,0,0,349.57,309l14.48-57.41a31.84,31.84,0,0,0-8.66-30.52L313,179.87A31.22,31.22,0,0,0,290.83,170.93ZM276.54,291.3a31.26,31.26,0,1,1,27.21-16,31.25,31.25,0,0,1-27.21,16Zm-.14-61.51a30.93,30.93,0,0,0-8.17,1.15,30.28,30.28,0,0,0,8.35,59.41,31.35,31.35,0,0,0,8.17-1.15,30.27,30.27,0,0,0-8.35-59.41Z"/></g></g><g id="Línea_60" data-name="Línea 60"><rect id="Rectángulo_273" data-name="Rectángulo 273" class="cls-4" x="214.65" y="182.68" width="13.84" height="6.34" transform="translate(-0.58 0.69) rotate(-0.18)"/></g><g id="Grupo_1622-2" data-name="Grupo 1622-2"><g id="Trazado_2732-2" data-name="Trazado 2732-2"><path id="Trazado_6341" data-name="Trazado 6341" class="cls-6" d="M33.94,118.12h0V115a6.37,6.37,0,1,1,0-12.74h0V99a9.57,9.57,0,0,1,9.49,8.08,9.5,9.5,0,1,0,.08,2.44A9.63,9.63,0,0,1,33.94,118.12Z"/></g><g id="Trazado_2733-2" data-name="Trazado 2733-2"><path id="Trazado_6342" data-name="Trazado 6342" class="cls-6" d="M43.16,107.09a5.26,5.26,0,0,1,.13,1A6.45,6.45,0,0,0,43.16,107.09Z"/></g><g id="Trazado_2734-2" data-name="Trazado 2734-2"><path id="Trazado_6343" data-name="Trazado 6343" class="cls-6" d="M43,107.06a9.82,9.82,0,0,0-9.69-8.26v3.29a6.52,6.52,0,0,1,0,13v3.21h0a9.76,9.76,0,0,0,9.71-8.78,5.49,5.49,0,0,0,.06-1V108A6.43,6.43,0,0,0,43,107.06Z"/></g><g id="Trazado_2735-2" data-name="Trazado 2735-2"><path id="Trazado_6344" data-name="Trazado 6344" class="cls-6" d="M59.05,110.06a2.65,2.65,0,0,0-2.65-2.63v-1.29h0a3.93,3.93,0,1,0-.08,7.86h.1v-1.29A2.69,2.69,0,0,0,59.05,110.06Zm-4.75,0A1.93,1.93,0,1,1,56.24,112,1.93,1.93,0,0,1,54.3,110.08Z"/></g><g id="Trazado_2736-2" data-name="Trazado 2736-2"><path id="Trazado_6345" data-name="Trazado 6345" class="cls-6" d="M56.4,106.27h0v1.29a2.72,2.72,0,0,1,2.77,2.63,2.67,2.67,0,0,1-2.69,2.65h-.06v1.29h0a4,4,0,0,0,4-3.49v-.78A4.06,4.06,0,0,0,56.4,106.27Z"/></g><g id="Elipse_113-2" data-name="Elipse 113-2"><circle id="Elipse_134" data-name="Elipse 134" class="cls-6" cx="39.75" cy="90.22" r="3.28"/></g><g id="Elipse_114-2" data-name="Elipse 114-2"><circle id="Elipse_135" data-name="Elipse 135" class="cls-6" cx="26.34" cy="127.42" r="4.25"/></g><g id="Elipse_115-2" data-name="Elipse 115-2"><circle id="Elipse_136" data-name="Elipse 136" class="cls-6" cx="20.96" cy="94.53" r="1.74"/></g><g id="Elipse_116-2" data-name="Elipse 116-2"><circle id="Elipse_137" data-name="Elipse 137" class="cls-6" cx="44.67" cy="98.9" r="1.74"/></g><g id="Elipse_117-2" data-name="Elipse 117-2"><circle id="Elipse_138" data-name="Elipse 138" class="cls-6" cx="11.09" cy="110.53" r="2.45"/></g></g><g id="Grupo_1608-2" data-name="Grupo 1608-2"><g id="Trazado_2706-2" data-name="Trazado 2706-2"><path id="Trazado_6346" data-name="Trazado 6346" class="cls-4" d="M324.81,195.62A7.83,7.83,0,0,0,319.09,209a7.54,7.54,0,0,0,5.49,2.33,8,8,0,0,0,5.59-2.2h0a7.84,7.84,0,0,0-5.36-13.47Zm2.78,10.95a4.15,4.15,0,1,1-5.83-5.92l.05-.05a3.87,3.87,0,0,1,3-1.18,4,4,0,0,1,2.92,1.22,4.24,4.24,0,0,1-.09,5.93Z"/></g><g id="Trazado_2707-2" data-name="Trazado 2707-2"><path id="Trazado_6347" data-name="Trazado 6347" class="cls-1" d="M350.14,178.26A4.17,4.17,0,0,0,346.9,177l-1.68.12A55.72,55.72,0,0,0,305.38,197L301.31,202l-10.57-.47h-.17a31.5,31.5,0,0,0-22.36,8.91l-11,10.72a1.72,1.72,0,0,0-.44,2,2,2,0,0,0,1.63,1.23l22.95,1.49-.94,1.12a1.87,1.87,0,0,0-.22,2.07,21,21,0,0,0,1.13,1.95l-5.52,6.41a1.79,1.79,0,0,0-.27,1.95,23.5,23.5,0,0,0,4.61,6.76,24,24,0,0,0,6.79,5,2.09,2.09,0,0,0,.78.16,1.82,1.82,0,0,0,1.17-.39c1.24-1,2.57-2.08,3.85-3.14l2.8-2.31c.55.34,1.06.61,1.63.94a2.13,2.13,0,0,0,.9.22,2,2,0,0,0,1.12-.34l1.28-.95.86,23.06A2,2,0,0,0,302.5,270a1.44,1.44,0,0,0,.67.11,1.6,1.6,0,0,0,1.29-.56l11-10.72a31.1,31.1,0,0,0,9.5-22.13l.14-10.13,4.3-3.25a55.48,55.48,0,0,0,22-40.87l.05-.9A4.5,4.5,0,0,0,350.14,178.26Zm-87.31,42.46,8-7.81a27.82,27.82,0,0,1,19.68-7.9l7.72.32-13.94,16.72Zm27.56,24c-1,.78-1.95,1.63-2.91,2.35a21.86,21.86,0,0,1-4.77-3.68,20.76,20.76,0,0,1-3.37-4.69l4.08-4.66a37.24,37.24,0,0,0,3.87,4.63h0a51.54,51.54,0,0,0,5,4.46c-.57.52-1.24,1-1.9,1.59Zm31.05-8.21a27.47,27.47,0,0,1-8.39,19.51l-8,7.81-.85-21.5,17.31-13Zm26.23-54.42a52,52,0,0,1-20.49,38.17l-29.25,22.09a40.49,40.49,0,0,1-6.63-5l9.87-9.66a1.82,1.82,0,1,0-2.53-2.61h0l-9.87,9.65a41.66,41.66,0,0,1-4.66-6.53l24.14-28.9a51.88,51.88,0,0,1,37.16-18.58l1.67-.12a.82.82,0,0,1,.45.16c.1.05.16.23.16.44Z"/></g></g></g><path class="cls-7" d="M250,185.83H182.3A11.29,11.29,0,0,0,171,197.11v45.1a11.29,11.29,0,0,0,11.28,11.28h18.79V261h-7.52v7.52h18.8v18.79a3.76,3.76,0,0,1-3.76,3.76H185.88a41.49,41.49,0,0,0-29.9-36v-5.34a11.28,11.28,0,0,0-22.55,0v5.34a41.5,41.5,0,0,0-29.9,36H77a3.76,3.76,0,0,1-3.76-3.76v-3.95a41.35,41.35,0,1,0-7.52,0v3.95A11.29,11.29,0,0,0,77,298.6h26.51a41.32,41.32,0,0,0,82.31,0h22.75a11.29,11.29,0,0,0,11.28-11.28V268.53h18.79V261h-7.52v-7.52H250a11.29,11.29,0,0,0,11.28-11.28v-45.1A11.29,11.29,0,0,0,250,185.83ZM35.69,242.21a33.83,33.83,0,1,1,33.83,33.84A33.87,33.87,0,0,1,35.69,242.21Zm109,56.39A11.29,11.29,0,0,0,156,287.32v-7.48a18.8,18.8,0,1,1-22.55,0v7.48A11.29,11.29,0,0,0,144.7,298.6ZM141,249.73a3.76,3.76,0,1,1,7.51,0v37.59a3.76,3.76,0,1,1-7.51,0Zm3.75,78.94A33.81,33.81,0,0,1,133.43,263v8.2a26.32,26.32,0,1,0,22.55,0V263a33.81,33.81,0,0,1-11.28,65.7Zm37.6-135.32H250a3.76,3.76,0,0,1,3.76,3.76v33.83H178.54V197.11A3.76,3.76,0,0,1,182.3,193.35ZM223.65,261h-15v-7.52h15ZM250,246H182.3a3.76,3.76,0,0,1-3.76-3.76v-3.75h75.18v3.75A3.76,3.76,0,0,1,250,246Z"/><path class="cls-7" d="M39.45,193.35H77a11.29,11.29,0,0,0,11.28-11.28V152h37.59a3.76,3.76,0,0,1,3.76,3.76v48.86h7.52V155.76a11.29,11.29,0,0,0-11.28-11.28H88.32V114.41A11.29,11.29,0,0,0,77,103.13H39.45a11.29,11.29,0,0,0-11.28,11.28v67.66A11.29,11.29,0,0,0,39.45,193.35ZM77,185.83H39.45a3.77,3.77,0,0,1-3.76-3.76v-3.76H80.8v3.76A3.77,3.77,0,0,1,77,185.83Zm-41.35-15V125.68H80.8v45.11Zm3.76-60.14H77a3.76,3.76,0,0,1,3.76,3.76v3.75H35.69v-3.75A3.76,3.76,0,0,1,39.45,110.65Z"/><path class="cls-7" d="M80.8,257.25a11.28,11.28,0,1,0-11.28,11.28A11.29,11.29,0,0,0,80.8,257.25Zm-15,0A3.76,3.76,0,1,1,69.52,261,3.77,3.77,0,0,1,65.76,257.25Z"/><path class="cls-7" d="M82.82,244l5.31-5.32a26.36,26.36,0,0,0-37.21,0L56.23,244A18.82,18.82,0,0,1,82.82,244Z"/><path class="cls-7" d="M93.45,233.33,98.76,228a41.4,41.4,0,0,0-58.48,0l5.32,5.32A33.88,33.88,0,0,1,93.45,233.33Z"/><path class="cls-7" d="M129.67,227.18h7.52v7.52h-7.52Z"/><path class="cls-7" d="M129.67,212.14h7.52v7.52h-7.52Z"/><path class="cls-7" d="M152.22,227.18h7.52v7.52h-7.52Z"/><path class="cls-7" d="M152.22,212.14h7.52v7.52h-7.52Z"/><path class="cls-7" d="M159.74,148.24a3.77,3.77,0,0,1,3.76-3.76h22.75a37.59,37.59,0,1,0,0-7.52H163.5a11.29,11.29,0,0,0-11.28,11.28v56.38h7.52Zm63.91-37.59c1.17,0,3.69,3.84,5.49,11.27h-11c1.8-7.43,4.32-11.27,5.5-11.27Zm6.83,18.79c.29,2.31.51,4.8.61,7.52H216.2c.1-2.72.32-5.21.6-7.52Zm-6.83,41.35c-1.18,0-3.7-3.84-5.5-11.28h11c-1.8,7.44-4.32,11.28-5.49,11.28ZM216.81,152c-.29-2.31-.51-4.8-.61-7.52h14.9c-.1,2.72-.32,5.21-.61,7.52Zm21.8-7.52h14.85a29.74,29.74,0,0,1-2,7.52H238.05C238.33,149.53,238.52,147,238.61,144.48ZM253.46,137H238.61c-.09-2.53-.28-5.05-.56-7.52H251.5A29.63,29.63,0,0,1,253.46,137Zm-44.78,0H193.83a29.63,29.63,0,0,1,2-7.52h13.45C209,131.91,208.77,134.43,208.68,137Zm0,7.52c.09,2.53.28,5.05.56,7.52H195.79a30.16,30.16,0,0,1-2-7.52Zm-8.47,15h10.22a49.27,49.27,0,0,0,2.83,9.39A30,30,0,0,1,200.21,159.51ZM234,168.9a50,50,0,0,0,2.82-9.39h10.22A30,30,0,0,1,234,168.9Zm13-47H236.86a50.47,50.47,0,0,0-2.82-9.39A30.16,30.16,0,0,1,247.08,121.92Zm-33.82-9.39a49.72,49.72,0,0,0-2.83,9.39H200.21A30.19,30.19,0,0,1,213.26,112.53Z"/><path class="cls-1" d="M242.9,190.23H175.24A11.29,11.29,0,0,0,164,201.5v45.11a11.29,11.29,0,0,0,11.28,11.28H194v7.52h-7.52v7.52h18.8v18.79a3.77,3.77,0,0,1-3.76,3.76H178.82a41.48,41.48,0,0,0-29.9-36v-5.34a11.28,11.28,0,1,0-22.55,0v5.34a41.5,41.5,0,0,0-29.9,36H70a3.77,3.77,0,0,1-3.76-3.76v-4a41.35,41.35,0,1,0-7.52,0v4A11.29,11.29,0,0,0,70,303H96.49a41.32,41.32,0,0,0,82.31,0h22.75a11.29,11.29,0,0,0,11.28-11.28V272.93h18.79v-7.52h-7.51v-7.52H242.9a11.29,11.29,0,0,0,11.28-11.28V201.5A11.29,11.29,0,0,0,242.9,190.23ZM28.63,246.61a33.84,33.84,0,1,1,33.83,33.83A33.87,33.87,0,0,1,28.63,246.61Zm109,56.39a11.29,11.29,0,0,0,11.27-11.28v-7.48a18.8,18.8,0,1,1-22.55,0v7.48A11.29,11.29,0,0,0,137.65,303Zm-3.76-48.87a3.76,3.76,0,0,1,7.52,0v37.59a3.76,3.76,0,1,1-7.52,0Zm3.76,78.94a33.81,33.81,0,0,1-11.28-65.7v8.2a26.32,26.32,0,1,0,22.55,0v-8.2a33.81,33.81,0,0,1-11.27,65.7Zm37.59-135.33H242.9a3.77,3.77,0,0,1,3.76,3.76v33.83H171.48V201.5A3.77,3.77,0,0,1,175.24,197.74Zm41.35,67.67h-15v-7.52h15Zm26.31-15H175.24a3.77,3.77,0,0,1-3.76-3.76v-3.76h75.18v3.76A3.77,3.77,0,0,1,242.9,250.37Z"/><path class="cls-1" d="M32.39,197.74H70a11.29,11.29,0,0,0,11.28-11.27V156.39h37.59a3.77,3.77,0,0,1,3.76,3.76V209h7.52V160.15a11.29,11.29,0,0,0-11.28-11.27H81.26V118.8A11.29,11.29,0,0,0,70,107.53H32.39A11.29,11.29,0,0,0,21.11,118.8v67.67A11.29,11.29,0,0,0,32.39,197.74ZM70,190.23H32.39a3.77,3.77,0,0,1-3.76-3.76v-3.76H73.74v3.76A3.77,3.77,0,0,1,70,190.23Zm-41.35-15V130.08H73.74v45.11ZM32.39,115H70a3.77,3.77,0,0,1,3.76,3.76v3.76H28.63V118.8A3.77,3.77,0,0,1,32.39,115Z"/><path class="cls-1" d="M73.74,261.65a11.28,11.28,0,1,0-11.28,11.28A11.29,11.29,0,0,0,73.74,261.65Zm-15,0a3.76,3.76,0,1,1,3.76,3.76A3.77,3.77,0,0,1,58.7,261.65Z"/><path class="cls-1" d="M75.76,248.36,81.07,243a26.34,26.34,0,0,0-37.21,0l5.32,5.32A18.81,18.81,0,0,1,75.76,248.36Z"/><path class="cls-1" d="M86.39,237.73l5.31-5.32a41.4,41.4,0,0,0-58.48,0l5.32,5.32A33.86,33.86,0,0,1,86.39,237.73Z"/><path class="cls-1" d="M122.61,231.58h7.52v7.51h-7.52Z"/><path class="cls-1" d="M122.61,216.54h7.52v7.52h-7.52Z"/><path class="cls-1" d="M145.16,231.58h7.52v7.51h-7.52Z"/><path class="cls-1" d="M145.16,216.54h7.52v7.52h-7.52Z"/><path class="cls-1" d="M152.68,152.63a3.76,3.76,0,0,1,3.76-3.75h22.75a37.59,37.59,0,1,0,0-7.52H156.44a11.29,11.29,0,0,0-11.28,11.27V209h7.52ZM216.59,115c1.17,0,3.69,3.85,5.49,11.28h-11c1.8-7.43,4.32-11.28,5.5-11.28Zm6.83,18.8c.29,2.31.51,4.8.61,7.52H209.14c.1-2.72.32-5.21.6-7.52Zm-6.83,41.35c-1.18,0-3.7-3.85-5.5-11.28h11c-1.8,7.43-4.32,11.28-5.49,11.28Zm-6.84-18.8c-.29-2.3-.5-4.8-.61-7.51H224c-.1,2.71-.32,5.21-.61,7.51Zm21.8-7.51H246.4a30,30,0,0,1-2,7.51H231C231.27,153.92,231.46,151.41,231.55,148.88Zm14.85-7.52H231.55c-.09-2.53-.28-5.05-.56-7.52h13.46A29.92,29.92,0,0,1,246.4,141.36Zm-44.78,0H186.77a29.52,29.52,0,0,1,2-7.52h13.45C201.9,136.31,201.71,138.83,201.62,141.36Zm0,7.52c.09,2.53.28,5,.56,7.51H188.73a30,30,0,0,1-2-7.51Zm-8.47,15h10.22a49.27,49.27,0,0,0,2.83,9.39A30.16,30.16,0,0,1,193.15,163.91ZM227,173.3a50,50,0,0,0,2.82-9.39H240A30.16,30.16,0,0,1,227,173.3Zm13.05-47H229.8a50.24,50.24,0,0,0-2.82-9.39A30.25,30.25,0,0,1,240,126.32Zm-33.83-9.39a50.23,50.23,0,0,0-2.83,9.39H193.15A30.25,30.25,0,0,1,206.2,116.93Z"/></svg>