<svg xmlns="http://www.w3.org/2000/svg" width="59.484" height="60.847" viewBox="0 0 59.484 60.847">
  <g id="Group_1760" data-name="Group 1760" transform="translate(-123.379 -356.939)">
    <path id="Path_11" data-name="Path 11" d="M154.987,388.991l-5.239-9.074a5.706,5.706,0,0,0-4.943-2.854H134.326a5.706,5.706,0,0,0-4.943,2.854l-5.239,9.074a5.708,5.708,0,0,0,0,5.708l5.239,9.075a5.708,5.708,0,0,0,4.943,2.854H144.8a5.708,5.708,0,0,0,4.943-2.854l5.239-9.075A5.708,5.708,0,0,0,154.987,388.991Zm-15.422,8.3a5.443,5.443,0,1,1,5.443-5.443A5.443,5.443,0,0,1,139.566,397.288Z" transform="translate(0 -4.483)" fill="#264a60"/>
    <path id="Path_12" data-name="Path 12" d="M189.869,368.868l-5.239-9.075a5.709,5.709,0,0,0-4.943-2.854H169.208a5.708,5.708,0,0,0-4.943,2.854l-5.239,9.075a5.706,5.706,0,0,0,0,5.707l5.239,9.075a5.708,5.708,0,0,0,4.943,2.854h10.479a5.709,5.709,0,0,0,4.943-2.854l5.239-9.075A5.706,5.706,0,0,0,189.869,368.868Zm-15.422,8.3a5.443,5.443,0,1,1,5.443-5.444A5.443,5.443,0,0,1,174.448,377.165Z" transform="translate(-7.771)" fill="#e76c29"/>
    <path id="Path_13" data-name="Path 13" d="M189.869,409.115l-5.239-9.075a5.709,5.709,0,0,0-4.943-2.854H169.208a5.708,5.708,0,0,0-4.943,2.854l-5.239,9.075a5.708,5.708,0,0,0,0,5.708l5.239,9.075a5.708,5.708,0,0,0,4.943,2.854h10.479a5.709,5.709,0,0,0,4.943-2.854l5.239-9.075A5.708,5.708,0,0,0,189.869,409.115Zm-15.422,8.3a5.443,5.443,0,1,1,5.443-5.443A5.443,5.443,0,0,1,174.448,417.412Z" transform="translate(-7.771 -8.966)" fill="#e76c29"/>
  </g>
</svg>
