<?xml version="1.0" encoding="utf-8"?>
<!-- Generator: Adobe Illustrator 24.0.2, SVG Export Plug-In . SVG Version: 6.00 Build 0)  -->
<svg version="1.1" id="Layer_1" xmlns="http://www.w3.org/2000/svg" xmlns:xlink="http://www.w3.org/1999/xlink" x="0px" y="0px"
	 viewBox="0 0 50 50" style="enable-background:new 0 0 50 50;" xml:space="preserve">
<style type="text/css">
	.st0{fill:url(#SVGID_1_);}
	.st1{fill:url(#SVGID_2_);}
</style>
<title>mapa</title>
<g id="OBJECTS">
	
		<linearGradient id="SVGID_1_" gradientUnits="userSpaceOnUse" x1="15.9985" y1="41.7328" x2="21.6385" y2="24.5828" gradientTransform="matrix(1 0 0 -1 0 52)">
		<stop  offset="0" style="stop-color:#CB6C32"/>
		<stop  offset="6.000000e-02" style="stop-color:#CB7132"/>
		<stop  offset="0.39" style="stop-color:#CC8732"/>
		<stop  offset="0.71" style="stop-color:#CC9432"/>
		<stop  offset="1" style="stop-color:#CC9932"/>
	</linearGradient>
	<path class="st0" d="M29.5,16.8l-3.6-6.3c-0.7-1.2-2-2-3.4-2h-7.3c-1.4,0-2.7,0.8-3.4,2l-3.6,6.3c-0.7,1.2-0.7,2.8,0,4l3.6,6.2
		c0.7,1.2,2,2,3.4,2h7.3c1.4,0,2.7-0.8,3.4-2l3.6-6.3C30.2,19.5,30.2,17.9,29.5,16.8 M18.8,22.5c-2.1,0-3.8-1.7-3.8-3.8
		s1.7-3.8,3.8-3.8s3.8,1.7,3.8,3.8c0,0,0,0,0,0C22.6,20.8,20.9,22.5,18.8,22.5"/>
	
		<image style="overflow:visible;enable-background:new    ;" width="102" height="85" xlink:href="F5F9DAE8.png"  transform="matrix(1 0 0 1 -22.78 -7)">
	</image>
	
		<linearGradient id="SVGID_2_" gradientUnits="userSpaceOnUse" x1="15.6841" y1="34.0346" x2="19.3041" y2="23.0346" gradientTransform="matrix(1 0 0 -1 0 52)">
		<stop  offset="0" style="stop-color:#CB6C32"/>
		<stop  offset="6.000000e-02" style="stop-color:#CB7132"/>
		<stop  offset="0.39" style="stop-color:#CC8732"/>
		<stop  offset="0.71" style="stop-color:#CC9432"/>
		<stop  offset="1" style="stop-color:#CC9932"/>
	</linearGradient>
	<path class="st1" d="M22.5,19.8c-0.6,2-2.7,3.2-4.7,2.6c-1.6-0.5-2.7-1.9-2.7-3.6c0-0.5,0.1-0.9,0.3-1.3H15c-2.6,0-5.1,0.8-7.3,2.2
		c0.1,0.4,0.2,0.8,0.4,1.1l3.7,6.2c0.7,1.2,2,2,3.4,2h7.3c1.4,0,2.8-0.8,3.5-2l0.8-1.3C26.1,23.3,24.6,21.2,22.5,19.8z"/>
</g>
</svg>
