<svg xmlns="http://www.w3.org/2000/svg" xmlns:xlink="http://www.w3.org/1999/xlink" width="779.757" height="642.973" viewBox="0 0 779.757 642.973"><defs><style>.a,.c,.e,.g{fill:#264a60;}.b,.h,.l{fill:#fff;}.c,.d{opacity:0.38;}.d,.f,.i{fill:#e76c29;}.e,.f,.g{opacity:0.58;}.g{font-size:27px;font-family:Lato-Black, Lato;font-weight:800;}.h,.j{opacity:0.57;}.k{fill:#bec8d2;}.l{opacity:0.6;}.m{filter:url(#g);}.n{filter:url(#e);}.o{filter:url(#c);}.p{filter:url(#a);}</style><filter id="a" x="0" y="0" width="483.609" height="602.979" filterUnits="userSpaceOnUse"><feOffset dy="3" input="SourceAlpha"/><feGaussianBlur stdDeviation="10" result="b"/><feFlood flood-opacity="0.161"/><feComposite operator="in" in2="b"/><feComposite in="SourceGraphic"/></filter><filter id="c" x="64.012" y="63.396" width="450.135" height="579.576" filterUnits="userSpaceOnUse"><feOffset dy="3" input="SourceAlpha"/><feGaussianBlur stdDeviation="10" result="d"/><feFlood flood-opacity="0.161"/><feComposite operator="in" in2="d"/><feComposite in="SourceGraphic"/></filter><filter id="e" x="189.16" y="204.659" width="528.035" height="392.024" filterUnits="userSpaceOnUse"><feOffset dy="3" input="SourceAlpha"/><feGaussianBlur stdDeviation="10" result="f"/><feFlood flood-opacity="0.161"/><feComposite operator="in" in2="f"/><feComposite in="SourceGraphic"/></filter><filter id="g" x="210.159" y="225.61" width="453.46" height="255.051" filterUnits="userSpaceOnUse"><feOffset dy="3" input="SourceAlpha"/><feGaussianBlur stdDeviation="3" result="h"/><feFlood flood-opacity="0.161"/><feComposite operator="in" in2="h"/><feComposite in="SourceGraphic"/></filter></defs><g transform="translate(-79.415 -3496.576)"><g transform="translate(224.306 3645.327)"><path class="a" d="M268.294,268.463a2.7,2.7,0,0,1-1.464-.482,2.6,2.6,0,0,1-.589-3.5c1.553-2.142,2.321-3.3,2.428-3.3a2.434,2.434,0,0,1,3.981,2.8s-.875,1.16-2.517,3.392A2.159,2.159,0,0,1,268.294,268.463Z" transform="translate(208.696 32.958)"/><path class="a" d="M219.429,544.277H217a2.473,2.473,0,0,1,.089-4.945h0c2.713,0,5.427,0,8.247-.089h.089a2.544,2.544,0,0,1,2.517,2.428,2.417,2.417,0,0,1-2.428,2.517C223.41,544.277,221.375,544.277,219.429,544.277Zm-22.136-1.053h-.2c-2.821-.2-5.623-.589-8.247-.964a2.5,2.5,0,0,1,.678-4.963c2.624.393,5.427.678,8.158.964a2.567,2.567,0,0,1,2.231,2.713A2.68,2.68,0,0,1,197.294,543.223Zm47.949-.3a2.584,2.584,0,0,1-2.517-2.231,2.483,2.483,0,0,1,2.142-2.713,13.141,13.141,0,0,1,1.839-.2c2.142-.2,4.177-.482,6.3-.768a2.5,2.5,0,1,1,.678,4.963c-2.142.286-4.266.589-6.409.768a14.376,14.376,0,0,1-1.946.2C245.332,542.92,245.242,542.92,245.242,542.92Zm-75.708-4.159a1.358,1.358,0,0,1-.589-.089c-2.713-.589-5.427-1.357-8.158-2.035a2.466,2.466,0,0,1,1.267-4.766c2.624.678,5.248,1.357,7.855,2.035a2.41,2.41,0,0,1,1.839,2.91A2.107,2.107,0,0,1,169.535,538.761Zm103.467-.2a2.461,2.461,0,0,1-.589-4.856c2.624-.589,5.338-1.267,7.962-1.839a2.466,2.466,0,0,1,1.267,4.766c-2.713.678-5.427,1.357-8.158,1.946C273.287,538.457,273.091,538.564,273,538.564Zm26.973-7.676a2.357,2.357,0,0,1-2.321-1.749,2.326,2.326,0,0,1,1.553-3.106c2.517-.875,5.248-1.749,7.765-2.713a2.473,2.473,0,0,1,3.2,1.464,2.507,2.507,0,0,1-1.464,3.2c-2.624.964-5.248,1.839-7.855,2.821A2.919,2.919,0,0,1,299.975,530.888ZM142.758,530.6a2.582,2.582,0,0,1-.875-.2c-2.624-.964-5.248-2.035-7.765-3.106a2.525,2.525,0,1,1,1.946-4.659c2.517,1.071,5.052,2.142,7.569,3.017a2.376,2.376,0,0,1,1.357,3.2A2.331,2.331,0,0,1,142.758,530.6Zm183.423-9.908a2.488,2.488,0,0,1-.964-4.766c2.517-1.071,4.945-2.231,7.48-3.5a2.475,2.475,0,1,1,2.142,4.463c-2.517,1.268-5.052,2.428-7.569,3.5A2.145,2.145,0,0,1,326.181,520.695Zm-209.04-1.839a2.528,2.528,0,0,1-1.16-.286L108.7,514.5a2.477,2.477,0,1,1,2.517-4.266c2.321,1.357,4.748,2.713,7.087,4.07a2.41,2.41,0,0,1,.964,3.3A2.227,2.227,0,0,1,117.141,518.856Zm234.175-10.764a2.436,2.436,0,0,1-1.178-4.57c2.428-1.357,4.856-2.713,7.087-4.07a2.477,2.477,0,1,1,2.517,4.266c-2.428,1.357-4.856,2.82-7.176,4.177C352.083,507.9,351.708,508.092,351.315,508.092ZM93.363,503.915a3.022,3.022,0,0,1-1.464-.482c-2.231-1.642-4.463-3.3-6.694-5.052a2.49,2.49,0,1,1,3.106-3.892c2.142,1.749,4.374,3.3,6.5,4.856a2.469,2.469,0,0,1,.589,3.392A2.39,2.39,0,0,1,93.363,503.915ZM375.29,493.329a2.54,2.54,0,0,1-2.035-1.071,2.4,2.4,0,0,1,.678-3.392c2.321-1.553,4.57-3.106,6.694-4.659a2.434,2.434,0,1,1,2.8,3.981c-2.231,1.553-4.57,3.2-6.891,4.749A2.358,2.358,0,0,1,375.29,493.329ZM71.62,486.063a2.494,2.494,0,0,1-1.749-.678c-2.035-1.839-4.07-3.874-6.016-5.82a2.474,2.474,0,0,1,3.5-3.5c1.946,1.946,3.874,3.784,5.927,5.623a2.572,2.572,0,0,1,.2,3.5A2.477,2.477,0,0,1,71.62,486.063Zm326.466-9.229a2.388,2.388,0,0,1-1.946-.964,2.494,2.494,0,0,1,.482-3.5c2.142-1.75,4.374-3.392,6.409-5.141a2.49,2.49,0,1,1,3.106,3.892c-2.142,1.749-4.374,3.5-6.5,5.248A3.736,3.736,0,0,1,398.086,476.834ZM52.215,465.677a2.356,2.356,0,0,1-1.839-.875c-1.749-2.142-3.588-4.267-5.338-6.409a2.49,2.49,0,1,1,3.892-3.106c1.749,2.142,3.5,4.267,5.248,6.3a2.44,2.44,0,0,1-1.964,4.088Zm367.417-6.891a2.356,2.356,0,0,1-1.839-.875,2.4,2.4,0,0,1,.2-3.5c2.142-1.839,4.07-3.7,6.105-5.534a2.478,2.478,0,0,1,3.3,3.7c-2.035,1.839-4.07,3.7-6.105,5.623A3.334,3.334,0,0,1,419.633,458.786Zm-384.5-15.424a2.541,2.541,0,0,1-2.035-1.071c-1.553-2.231-3.106-4.659-4.57-6.98a2.459,2.459,0,1,1,4.159-2.624c1.464,2.321,2.91,4.57,4.463,6.8a2.454,2.454,0,0,1-.589,3.392A2.161,2.161,0,0,1,35.132,443.363Zm404.887-3.981a2.429,2.429,0,0,1-1.749-4.177c2.035-2.035,3.874-3.981,5.73-5.927a2.475,2.475,0,0,1,3.588,3.41c-1.839,1.946-3.784,3.981-5.82,6.016A2.67,2.67,0,0,1,440.019,439.382ZM20.583,419.388a2.336,2.336,0,0,1-2.142-1.357c-1.357-2.517-2.624-4.945-3.784-7.48a2.475,2.475,0,0,1,4.463-2.142c1.16,2.428,2.428,4.856,3.7,7.283a2.459,2.459,0,0,1-.964,3.3A3.885,3.885,0,0,1,20.583,419.388Zm438.644-.678a2.576,2.576,0,0,1-1.642-.589,2.486,2.486,0,0,1-.2-3.5c1.946-2.142,3.7-4.266,5.338-6.3a2.482,2.482,0,1,1,3.784,3.213c-1.749,2.035-3.5,4.07-5.427,6.409A2.368,2.368,0,0,1,459.227,418.71ZM8.729,393.664A2.468,2.468,0,0,1,6.5,392.2v-.089c-.964-2.517-1.839-5.248-2.624-8.051a2.4,2.4,0,0,1,1.749-3.017,2.4,2.4,0,0,1,3.017,1.749,74.994,74.994,0,0,0,2.428,7.48,2.678,2.678,0,0,1-1.357,3.3A3.661,3.661,0,0,1,8.729,393.664ZM2.91,366.3a2.584,2.584,0,0,1-2.517-2.231C.2,361.353,0,358.444,0,355.712A2.485,2.485,0,0,1,2.428,353.2h.089a2.544,2.544,0,0,1,2.517,2.428c.089,2.713.2,5.534.393,8.158A2.491,2.491,0,0,1,3.2,366.405.31.31,0,0,0,2.91,366.3ZM3.5,338.254H3.3A2.431,2.431,0,0,1,1.16,335.54c.286-2.821.589-5.623,1.071-8.247a2.6,2.6,0,0,1,2.821-2.142,2.6,2.6,0,0,1,2.142,2.82c-.393,2.713-.768,5.427-1.071,8.051A2.709,2.709,0,0,1,3.5,338.254ZM8.533,310.6a1.357,1.357,0,0,1-.589-.089A2.4,2.4,0,0,1,6.194,307.5c.678-2.713,1.464-5.427,2.231-8.051a2.484,2.484,0,1,1,4.748,1.464c-.768,2.624-1.553,5.248-2.142,7.855A2.725,2.725,0,0,1,8.533,310.6Zm8.747-26.795a3.693,3.693,0,0,1-.964-.2,2.5,2.5,0,0,1-1.357-3.2c.964-2.517,2.142-5.141,3.3-7.658a2.575,2.575,0,0,1,3.3-1.267,2.537,2.537,0,0,1,1.267,3.3c-1.071,2.517-2.142,5.052-3.2,7.48A2.384,2.384,0,0,1,17.28,283.807ZM29.2,258.387a2.53,2.53,0,0,1-1.16-.286,2.41,2.41,0,0,1-.964-3.3l4.07-7.283a2.477,2.477,0,1,1,4.266,2.517c-1.357,2.321-2.713,4.748-4.07,7.087A2.069,2.069,0,0,1,29.2,258.387Zm14.959-23.778a2.367,2.367,0,0,1-1.357-.482,2.469,2.469,0,0,1-.589-3.392c1.553-2.231,3.3-4.463,4.945-6.694a2.5,2.5,0,1,1,3.981,3.017c-1.642,2.142-3.3,4.463-4.856,6.605A3.422,3.422,0,0,1,44.164,234.609ZM61.623,212.58a2.434,2.434,0,0,1-1.839-4.088c1.839-2.142,3.7-4.07,5.623-6.123A2.475,2.475,0,0,1,69,205.779c-1.839,2.035-3.7,4.07-5.623,6.016A2.454,2.454,0,0,1,61.623,212.58Zm19.9-19.9a2.356,2.356,0,0,1-1.839-.875,2.4,2.4,0,0,1,.2-3.5c2.035-1.839,4.177-3.7,6.3-5.534a2.482,2.482,0,0,1,3.213,3.785c-2.142,1.749-4.177,3.588-6.212,5.338A2.217,2.217,0,0,1,81.527,192.676Zm21.922-17.566a2.767,2.767,0,0,1-2.035-.964,2.375,2.375,0,0,1,.589-3.392c2.231-1.642,4.57-3.2,6.891-4.748a2.446,2.446,0,0,1,2.713,4.07l-6.694,4.659A6.069,6.069,0,0,1,103.449,175.11Zm23.582-15.138a2.436,2.436,0,0,1-1.178-4.57l7.283-4.07a2.433,2.433,0,1,1,2.339,4.266c-2.428,1.267-4.856,2.517-7.176,3.981A2.074,2.074,0,0,1,127.031,159.972Zm25.135-12.514a2.488,2.488,0,0,1-.964-4.766c2.517-1.071,5.141-2.142,7.658-3.3a2.455,2.455,0,1,1,1.839,4.552c-2.517.964-5.141,2.142-7.48,3.2A1.962,1.962,0,0,1,152.165,147.458Zm25.635-11.55a2.488,2.488,0,0,1-.964-4.766c2.321-.964,4.856-2.142,7.658-3.3a2.525,2.525,0,1,1,1.946,4.659c-2.821,1.16-5.248,2.231-7.569,3.3C178.567,135.8,178.175,135.908,177.8,135.908Zm26.188-10.479a2.5,2.5,0,0,1-.857-4.838c2.517-.964,5.141-1.749,7.855-2.713a2.456,2.456,0,1,1,1.553,4.659c-2.713.964-5.248,1.749-7.765,2.624A.851.851,0,0,1,203.988,125.429Zm26.884-8.444a2.5,2.5,0,0,1-2.428-1.749,2.368,2.368,0,0,1,1.749-3.017c2.624-.768,5.248-1.464,8.051-2.142a2.561,2.561,0,0,1,3.017,1.749,2.472,2.472,0,0,1-1.749,3.017c-2.713.678-5.338,1.357-7.855,2.142Zm27.277-6.8a2.461,2.461,0,0,1-.589-4.856c2.713-.589,5.427-1.16,8.158-1.642a2.475,2.475,0,1,1,.964,4.856c-2.713.589-5.427,1.071-8.051,1.642ZM285.8,105.15a2.417,2.417,0,0,1-2.428-2.142,2.445,2.445,0,0,1,2.142-2.821c2.713-.393,5.427-.768,8.247-1.16a2.5,2.5,0,1,1,.678,4.963c-2.713.393-5.534.678-8.158,1.16Zm28.045-3.213a2.584,2.584,0,0,1-2.517-2.231,2.491,2.491,0,0,1,2.231-2.624c2.713-.2,5.534-.482,8.247-.589a2.477,2.477,0,0,1,.3,4.945c-2.821.2-5.534.393-8.247.589Z" transform="translate(0 -95.546)"/><path class="a" d="M192.577,100.994a2.473,2.473,0,0,1-.089-4.945c1.357,0,2.713,0,4.07-.089h0a2.5,2.5,0,0,1,2.517,2.517,2.449,2.449,0,0,1-2.517,2.517Z" transform="translate(149.224 -95.96)"/></g><g transform="matrix(0.995, -0.105, 0.105, 0.995, 109.415, 3562.531)"><g transform="translate(0 0)"><g class="p" transform="matrix(0.99, 0.1, -0.1, 0.99, -22.94, -68.73)"><rect class="b" width="372.676" height="506.801" transform="matrix(0.99, -0.1, 0.1, 0.99, 30, 65.96)"/></g><rect class="c" width="301.781" height="47.902" transform="translate(38.321 32.573)"/><rect class="d" width="301.781" height="9.58" transform="translate(38.321 157.118)"/><rect class="c" width="301.781" height="9.58" transform="translate(38.321 311.361)"/><rect class="c" width="301.781" height="10.538" transform="translate(38.321 234.719)"/><rect class="c" width="301.781" height="10.538" transform="translate(38.321 195.439)"/><rect class="e" width="301.781" height="10.538" transform="translate(38.321 349.683)"/><rect class="c" width="301.781" height="9.58" transform="translate(38.321 273.04)"/><rect class="e" width="127.419" height="8.622" transform="translate(212.684 441.654)"/><rect class="f" width="301.781" height="8.622" transform="translate(38.321 471.353)"/><rect class="f" width="127.419" height="34.489" transform="translate(212.684 395.669)"/><text class="g" transform="translate(117.838 128.552)"><tspan x="0" y="0">ESTIMATE</tspan></text></g></g><g transform="matrix(0.999, 0.035, -0.035, 0.999, 191.117, 3586.972)"><g transform="translate(0 0)"><g class="o" transform="matrix(1, -0.03, 0.03, 1, -114.79, -86.44)"><rect class="b" width="372.672" height="506.879" transform="matrix(1, 0.03, -0.03, 1, 111.7, 90.4)"/></g><rect class="e" width="301.687" height="48.802" transform="translate(37.711 32.165)"/><rect class="f" width="301.687" height="8.873" transform="translate(37.711 157.498)"/><rect class="e" width="301.687" height="8.873" transform="translate(37.711 311.669)"/><rect class="e" width="301.687" height="9.982" transform="translate(37.711 235.139)"/><rect class="e" width="301.687" height="11.091" transform="translate(37.711 195.209)"/><rect class="e" width="301.687" height="11.091" transform="translate(37.711 349.38)"/><rect class="e" width="301.687" height="9.982" transform="translate(37.711 272.849)"/><rect class="e" width="127.552" height="8.873" transform="translate(211.847 441.439)"/><rect class="f" width="301.687" height="8.873" transform="translate(37.711 471.386)"/><rect class="f" width="127.552" height="34.383" transform="translate(211.847 395.964)"/><text class="g" transform="translate(117.569 129.041)"><tspan x="0" y="0">ESTIMATE</tspan></text></g></g><g transform="translate(144.046 3598.754)"><ellipse class="h" cx="9.408" cy="9.408" rx="9.408" ry="9.408" transform="translate(573.72 25.528)"/><g transform="translate(0 33.683)"><path class="a" d="M116.506,99.748h0V94.285a11.049,11.049,0,0,1,0-22.1V66.6a16.6,16.6,0,0,1,16.41,14.068,16.489,16.489,0,1,0,.123,4.231A16.7,16.7,0,0,1,116.506,99.748Z" transform="translate(-72.945 -45.713)"/><path class="a" d="M115.91,73.45a9.228,9.228,0,0,1,.226,1.684A11.456,11.456,0,0,0,115.91,73.45Z" transform="translate(-56.042 -38.494)"/><path class="a" d="M124.33,80.668A16.691,16.691,0,0,0,107.92,66.6v5.586a11.049,11.049,0,0,1,0,22.1v5.463h0A16.6,16.6,0,0,0,124.453,84.9a9.164,9.164,0,0,0,.1-1.684v-.883A11.56,11.56,0,0,0,124.33,80.668Z" transform="translate(-64.462 -45.713)"/><path class="a" d="M135.019,79.5a4.6,4.6,0,0,0-4.58-4.58V72.68h0a6.819,6.819,0,1,0,0,13.637h0V84.079A4.665,4.665,0,0,0,135.019,79.5Zm-7.928,0a3.361,3.361,0,0,1,3.348-3.348,3.348,3.348,0,1,1-3.348,3.348Z" transform="translate(-47.917 -39.306)"/><path class="a" d="M127,72.69h0v2.239a4.6,4.6,0,0,1,4.58,4.58,4.532,4.532,0,0,1-4.58,4.58v2.239h0a6.746,6.746,0,0,0,6.7-6.038V78.934A6.868,6.868,0,0,0,127,72.69Z" transform="translate(-44.355 -39.295)"/><ellipse class="a" cx="5.689" cy="5.689" rx="5.689" ry="5.689" transform="translate(48.367)"/><ellipse class="a" cx="7.373" cy="7.373" rx="7.373" ry="7.373" transform="translate(23.228 62.743)"/><ellipse class="a" cx="3.019" cy="3.019" rx="3.019" ry="3.019" transform="translate(18.423 10.043)"/><ellipse class="a" cx="3.019" cy="3.019" rx="3.019" ry="3.019" transform="translate(59.519 17.745)"/><ellipse class="a" cx="4.251" cy="4.251" rx="4.251" ry="4.251" transform="translate(0 36.496)"/></g><g transform="translate(206.499 11.657)"><path class="i" d="M81.2,372.968,76.93,371.13l3.785-8.533,4.266,1.839Zm5.623-12.817-4.266-1.839,3.784-8.533,4.266,1.839Zm5.73-12.71L88.283,345.6l3.785-8.533,4.266,1.839Zm5.623-12.8L93.907,332.8l3.785-8.533,4.266,1.839Zm5.73-12.817-4.266-1.839,3.785-8.533,4.266,1.839Zm5.73-12.817-4.266-1.839,3.785-8.533,4.266,1.839Zm5.623-12.907-4.266-1.839,3.785-8.533,4.266,1.839Zm5.623-12.71-4.266-1.839,3.784-8.533,4.266,1.839Zm5.82-12.817-4.266-1.839,3.784-8.533,4.266,1.839Zm114.82-.482-2.035-.589.678-2.517-.2-.089.589-1.357.2-.589h.089l2.142-4.749,4.266,1.839-2.91,6.605Zm-6.5-1.839-9.033-2.517,1.357-4.463,9.033,2.517Zm-13.5-3.785-9.033-2.517,1.357-4.463L222.883,260Zm-13.5-3.874L199,258.077l1.357-4.463,9.033,2.517Zm41.147-2.624-4.266-1.839L248.7,247.6l4.266,1.839Zm-116.837-.2-4.266-1.839,3.785-8.533,4.266,1.839Zm62.3-.982-9.033-2.517,1.357-4.463L196,252.329Zm-13.5-3.874-9.033-2.517,1.357-4.463,9.033,2.517Zm-13.478-3.785-9.033-2.517,1.357-4.463,9.033,2.517Zm-13.5-3.874-9.033-2.517,1.357-4.463,9.033,2.517Zm100.646-.107-4.266-1.839,3.784-8.533,4.266,1.839Zm-116.748-.2-4.266-1.839,2.517-5.73,2.821-1.357,2.91.875-1.357,4.463-.964-.286Zm122.461-12.6-4.267-1.839,3.784-8.533,4.266,1.839Zm5.641-12.817-4.267-1.839,3.784-8.533L269.957,211Zm5.712-12.817-4.267-1.839,3.785-8.533,4.266,1.839Zm5.73-12.71-4.266-1.839,3.785-8.533,4.266,1.839Zm5.623-12.817-4.267-1.839,3.784-8.533,4.267,1.839Zm107.644-5.141-3.981-2.517,5.052-7.855,3.981,2.517Zm-6.8-.678-7.48-5.534,2.821-3.785,7.48,5.534Zm-95.2-6.98-4.267-1.839,3.785-8.533,4.266,1.839Zm83.848-1.357-7.48-5.534,2.821-3.785,7.48,5.534Zm25.724-2.713-3.981-2.517,5.052-7.855,3.981,2.517Zm-36.988-5.445-7.48-5.534,2.821-3.785,7.48,5.534ZM294.7,155.485l-4.266-1.839,3.784-8.533,4.266,1.839Zm111.321-3.017-3.981-2.517,5.052-7.855,3.981,2.517Zm-55.8-1.928-7.48-5.534,2.821-3.785,7.48,5.534Zm-49.895-7.765-4.266-1.839,3.784-8.533,4.267,1.839Zm38.541-.5-7.48-5.534,2.821-3.785,7.48,5.534Zm74.815-1.553L409.7,138.2l5.052-7.855,3.981,2.517Zm-86.187-6.784-7.48-5.534,2.821-3.785,7.48,5.534Zm-21.529-3.981-4.266-1.839,3.784-8.533,4.266,1.839Zm115.284-1.071-3.981-2.517,5.052-7.855,3.981,2.517Zm-105-3.2-7.48-5.534,2.821-3.784,7.48,5.534Zm112.571-8.551-3.981-2.517,5.052-7.855,3.981,2.517Zm7.676-11.728-3.981-2.517,5.052-7.855,3.981,2.517Z" transform="translate(-76.93 -95.04)"/></g><ellipse class="i" cx="12.907" cy="12.907" rx="12.907" ry="12.907" transform="translate(195.628 275.804)"/><ellipse class="i" cx="12.907" cy="12.907" rx="12.907" ry="12.907" transform="translate(253.359 143.133)"/><ellipse class="i" cx="12.907" cy="12.907" rx="12.907" ry="12.907" transform="translate(358.182 170.606)"/><ellipse class="i" cx="12.907" cy="12.907" rx="12.907" ry="12.907" transform="translate(425.625 21.154)"/><ellipse class="i" cx="12.907" cy="12.907" rx="12.907" ry="12.907" transform="translate(504.617 78.029)"/><ellipse class="i" cx="12.907" cy="12.907" rx="12.907" ry="12.907" transform="translate(556.262)"/></g><g transform="translate(191.124 3955.321) rotate(-31)"><path class="a" d="M47.206,3.917,14.306.043A5.8,5.8,0,0,0,7.9,5.184L.043,72.056a5.8,5.8,0,0,0,5.141,6.409l32.9,3.874A5.8,5.8,0,0,0,44.493,77.2l7.855-66.871a5.821,5.821,0,0,0-5.141-6.409ZM9.933,10.04l39.2,4.57-5.82,49.68-39.2-4.57Zm3.981-7.373,32.9,3.874a3.249,3.249,0,0,1,2.821,3.5l-.2,2.142-39.2-4.57.2-2.142a3.057,3.057,0,0,1,3.481-2.8ZM38.281,79.714,5.381,75.84a3.249,3.249,0,0,1-2.821-3.5l1.16-9.908L42.922,67l-1.16,9.908a3.154,3.154,0,0,1-3.481,2.8Z"/><path class="a" d="M5.846.027A5.277,5.277,0,0,0,4.6,10.505a5.256,5.256,0,0,0,5.82-4.659A5.121,5.121,0,0,0,5.846.027ZM5.061,7.9a2.632,2.632,0,1,1,2.91-2.321A2.689,2.689,0,0,1,5.061,7.9Z" transform="translate(17.296 65.906)"/><path class="a" d="M1.161,2.633l5.248.589a1.4,1.4,0,0,0,1.464-1.16A1.4,1.4,0,0,0,6.713.6L1.464.009A1.4,1.4,0,0,0,0,1.17a1.383,1.383,0,0,0,1.16,1.464Z" transform="translate(23.535 5.175)"/><g transform="translate(32.732 6.246)"><path class="a" d="M1.175,2.633l1.357.2A1.4,1.4,0,0,0,4,1.669,1.38,1.38,0,0,0,2.835.206L1.478.009A1.4,1.4,0,0,0,.014,1.17a1.211,1.211,0,0,0,1.16,1.464Z"/></g><path class="a" d="M0,0" transform="translate(2.364 7.326)"/></g><g class="j" transform="translate(251.209 3508.765)"><path class="k" d="M145.188,454.622h0a56.406,56.406,0,0,1-39.594-16.1L32.135,366.793A56.871,56.871,0,0,1,16.8,312.257l25.42-99.468a56.837,56.837,0,0,1,39.594-40.558l98.79-27.759a58.55,58.55,0,0,1,15.334-2.142,56.406,56.406,0,0,1,39.594,16.1L308.9,230.159A56.993,56.993,0,0,1,324.238,284.8l-25.42,99.379a56.837,56.837,0,0,1-39.594,40.558L160.433,452.5A54.943,54.943,0,0,1,145.188,454.622ZM195.94,143.883a54.906,54.906,0,0,0-14.852,2.035L82.3,173.677a54.846,54.846,0,0,0-38.434,39.4L18.336,312.543a55.217,55.217,0,0,0,14.852,52.983l73.369,71.816a54.946,54.946,0,0,0,38.434,15.62h0a54.907,54.907,0,0,0,14.852-2.035l98.79-27.759a54.846,54.846,0,0,0,38.434-39.4l25.42-99.468a55.217,55.217,0,0,0-14.852-52.983l-73.351-71.727A54.477,54.477,0,0,0,195.94,143.883Zm-25.42,208.736a54.114,54.114,0,0,1-47.163-80.653,54.366,54.366,0,0,1,47.27-27.652,54.114,54.114,0,0,1,47.163,80.653,53.819,53.819,0,0,1-32.615,25.617A58.363,58.363,0,0,1,170.519,352.619Zm0-106.751a53.449,53.449,0,0,0-14.174,1.946A51.9,51.9,0,0,0,124.8,272.663a52.416,52.416,0,0,0,45.7,78.207,53.444,53.444,0,0,0,14.174-1.946,51.9,51.9,0,0,0,31.543-24.849,52.416,52.416,0,0,0-45.7-78.207Z" transform="translate(-15.071 77.01)"/><path class="k" d="M265.226,331.859h0a56.374,56.374,0,0,1-39.594-16.1l-73.369-71.727a57,57,0,0,1-15.424-54.643l25.42-99.468a56.837,56.837,0,0,1,39.594-40.558L300.643,21.6a58.551,58.551,0,0,1,15.334-2.142,56.374,56.374,0,0,1,39.594,16.1l73.369,71.727a56.993,56.993,0,0,1,15.334,54.643l-25.331,99.575a56.837,56.837,0,0,1-39.594,40.558l-98.79,27.759A59.555,59.555,0,0,1,265.226,331.859ZM315.977,21.12a54.9,54.9,0,0,0-14.852,2.035l-98.9,27.759a54.846,54.846,0,0,0-38.434,39.4l-25.42,99.468a55.217,55.217,0,0,0,14.852,52.983L226.6,314.49a54.946,54.946,0,0,0,38.434,15.62h0a54.906,54.906,0,0,0,14.852-2.035l98.79-27.652a54.846,54.846,0,0,0,38.434-39.4l25.42-99.468a55.217,55.217,0,0,0-14.852-52.983L354.3,36.847A54.345,54.345,0,0,0,315.977,21.12Zm-25.42,208.736A54.114,54.114,0,0,1,243.394,149.2a54.367,54.367,0,0,1,47.271-27.652,54.132,54.132,0,0,1,14.549,106.269A58.366,58.366,0,0,1,290.557,229.857Zm0-106.751a53.447,53.447,0,0,0-14.174,1.946A51.9,51.9,0,0,0,244.84,149.9a52.416,52.416,0,0,0,45.61,78.207,53.446,53.446,0,0,0,14.174-1.946,52.5,52.5,0,0,0-14.067-103.056Z" transform="translate(79.18 -19.46)"/><path class="k" d="M311.509,497.04h0a56.374,56.374,0,0,1-39.594-16.1l-73.369-71.727a56.993,56.993,0,0,1-15.334-54.643l25.42-99.379a56.837,56.837,0,0,1,39.594-40.558l98.79-27.759a58.551,58.551,0,0,1,15.334-2.142,56.374,56.374,0,0,1,39.594,16.1l73.369,71.727A56.993,56.993,0,0,1,490.648,327.2l-25.331,99.575a56.837,56.837,0,0,1-39.594,40.558l-98.79,27.759A64.3,64.3,0,0,1,311.509,497.04ZM362.26,186.372a54.905,54.905,0,0,0-14.852,2.035l-98.9,27.759a54.846,54.846,0,0,0-38.434,39.4l-25.42,99.468a55.217,55.217,0,0,0,14.852,52.983l73.369,71.727a55.125,55.125,0,0,0,53.286,13.585l98.79-27.759a54.846,54.846,0,0,0,38.434-39.4l25.42-99.468a55.217,55.217,0,0,0-14.852-52.983l-73.369-71.727A54.164,54.164,0,0,0,362.26,186.372ZM336.84,395.037a54.2,54.2,0,1,1,47.271-27.652,54.366,54.366,0,0,1-47.271,27.652Zm.089-106.555a53.446,53.446,0,0,0-14.174,1.946,52.5,52.5,0,0,0,14.156,103.056,53.445,53.445,0,0,0,14.174-1.946,51.9,51.9,0,0,0,31.543-24.849,52.416,52.416,0,0,0-45.7-78.207Z" transform="translate(115.584 110.3)"/></g><g transform="translate(298.574 3866.409) rotate(-19)"><g class="n" transform="matrix(0.95, 0.33, -0.33, 0.95, -86.81, -421.04)"><rect class="b" width="424.41" height="205.02" transform="translate(219.16 369.83) rotate(-19)"/></g><g class="m" transform="matrix(0.95, 0.33, -0.33, 0.95, -86.81, -421.04)"><path class="l" d="M0,0H424.562L215.228,104.522Z" transform="translate(219.16 369.83) rotate(-19)"/></g></g><g transform="translate(669.549 3816.089)"><path class="i" d="M321.785,209.852a13.587,13.587,0,0,0-10,23.1,13.1,13.1,0,0,0,9.515,4.07,13.88,13.88,0,0,0,9.711-3.785h0a13.588,13.588,0,0,0-9.229-23.385Zm4.766,18.815a7.209,7.209,0,0,1-10-10.39,6.755,6.755,0,0,1,5.141-2.035,6.992,6.992,0,0,1,5.052,2.142A7.323,7.323,0,0,1,326.552,228.667Z" transform="translate(-203.478 -177.303)"/><path class="a" d="M411.8,193.782a7.27,7.27,0,0,0-5.623-2.142l-2.91.2a96.553,96.553,0,0,0-69.192,34.257l-7.087,8.533-18.333-.875h-.286a54.631,54.631,0,0,0-38.827,15.334l-19.119,18.53a2.983,2.983,0,0,0-.768,3.392,3.429,3.429,0,0,0,2.821,2.142l39.791,2.713-1.642,1.946a3.25,3.25,0,0,0-.393,3.588,37.1,37.1,0,0,0,1.946,3.392l-9.6,11.068a3.111,3.111,0,0,0-.482,3.392,40.984,40.984,0,0,0,7.962,11.746,41.8,41.8,0,0,0,11.746,8.64,3.7,3.7,0,0,0,1.357.286,3.214,3.214,0,0,0,2.035-.678c2.142-1.642,4.463-3.588,6.694-5.427,1.642-1.357,3.3-2.713,4.856-3.981.964.589,1.839,1.071,2.82,1.642a3.987,3.987,0,0,0,1.553.393,3.5,3.5,0,0,0,1.946-.589l2.232-1.642,1.357,39.987a3.414,3.414,0,0,0,2.035,2.91,2.42,2.42,0,0,0,1.16.2,2.814,2.814,0,0,0,2.231-.964l19.119-18.53a53.981,53.981,0,0,0,16.6-38.327l.286-17.566,7.48-5.623a96.268,96.268,0,0,0,38.327-70.745l.089-1.553A7.868,7.868,0,0,0,411.8,193.782ZM260.1,267.152l13.978-13.5a48.159,48.159,0,0,1,34.168-13.585l13.388.589-24.26,28.919Zm47.663,41.629c-1.749,1.357-3.392,2.821-5.052,4.07a37.224,37.224,0,0,1-8.247-6.409,34.792,34.792,0,0,1-5.82-8.158l7.087-8.051a66.183,66.183,0,0,0,6.694,8.051h0a90.975,90.975,0,0,0,8.64,7.765C310.082,306.942,308.921,307.817,307.761,308.781Zm53.572-13.871a47.626,47.626,0,0,1-14.656,33.775l-13.978,13.5-1.357-37.274,30.08-22.511Zm46.092-94.238A90.175,90.175,0,0,1,371.7,266.759l-50.859,38.148a71.427,71.427,0,0,1-11.461-8.729l17.173-16.691a3.156,3.156,0,0,0-4.374-4.552l-17.173,16.691a72.045,72.045,0,0,1-8.051-11.353l42.022-49.984a90.028,90.028,0,0,1,64.533-32.025l2.91-.2a1.409,1.409,0,0,1,.768.286c.179.089.286.393.286.768Z" transform="translate(-249.417 -191.617)"/></g></g></svg>