<svg xmlns="http://www.w3.org/2000/svg" width="18.234" height="22.046" viewBox="0 0 18.234 22.046">
  <path id="youtube" d="M10.328,8.328a1.517,1.517,0,0,0,1.3-.628,2.424,2.424,0,0,0,.344-1.452V4.1a2.379,2.379,0,0,0-.344-1.439,1.526,1.526,0,0,0-1.3-.626,1.5,1.5,0,0,0-1.29.626A2.386,2.386,0,0,0,8.693,4.1V6.249A2.45,2.45,0,0,0,9.038,7.7a1.5,1.5,0,0,0,1.29.626ZM9.8,3.875c0-.565.172-.848.529-.848s.529.283.529.848V6.458c0,.567-.16.861-.529.861s-.529-.3-.529-.861V3.875Zm3.186,4a3.113,3.113,0,0,1-.1-.922V2.1h1.119V6.618a2.611,2.611,0,0,0,.013.432c.025.172.11.27.258.27.22,0,.454-.172.7-.529V2.1H16.1V8.242H14.979V7.566a1.763,1.763,0,0,1-1.268.763.7.7,0,0,1-.725-.455Zm4.257,7.444v.565H16.136v-.565c0-.554.185-.838.554-.838S17.243,14.763,17.243,15.317ZM5.21,2.3C4.94,1.538,4.671.763,4.41,0H5.716l.873,3.236L7.425,0H8.68L7.191,4.908V8.242H5.962V4.908A19.639,19.639,0,0,0,5.21,2.3Zm14.173,9.092a2.314,2.314,0,0,0-1.969-1.8,63.152,63.152,0,0,0-6.829-.246A62.793,62.793,0,0,0,3.769,9.6a2.327,2.327,0,0,0-1.979,1.8A20.09,20.09,0,0,0,1.47,15.7,19.348,19.348,0,0,0,1.79,20a2.287,2.287,0,0,0,1.969,1.784,60.277,60.277,0,0,0,6.828.258,60.312,60.312,0,0,0,6.829-.258A2.3,2.3,0,0,0,19.384,20,20.146,20.146,0,0,0,19.7,15.7a19.368,19.368,0,0,0-.322-4.305ZM6.674,12.635H5.359v7H4.128v-7H2.836V11.478H6.674Zm3.322,7H8.9v-.664a1.788,1.788,0,0,1-1.255.751.674.674,0,0,1-.713-.455,2.964,2.964,0,0,1-.1-.9v-4.81h1.1v4.478a3.007,3.007,0,0,0,.012.432c.026.171.112.258.258.258.223,0,.456-.171.7-.516v-4.65H10v6.074Zm4.183-1.821a4.364,4.364,0,0,1-.112,1.229.866.866,0,0,1-.874.677,1.518,1.518,0,0,1-1.145-.677v.591H10.956V11.478h1.093v2.67a1.493,1.493,0,0,1,1.145-.664.864.864,0,0,1,.874.689,4.219,4.219,0,0,1,.112,1.218v2.424Zm4.158-1.009h-2.2v1.07c0,.567.185.848.567.848a.473.473,0,0,0,.493-.442,6.646,6.646,0,0,0,.025-.751h1.119v.161a4.791,4.791,0,0,1-.025.713,1.459,1.459,0,0,1-.258.664,1.525,1.525,0,0,1-1.328.652,1.562,1.562,0,0,1-1.329-.628,2.318,2.318,0,0,1-.357-1.428V15.537a2.351,2.351,0,0,1,.345-1.428,1.682,1.682,0,0,1,2.621,0,2.427,2.427,0,0,1,.333,1.428v1.268Zm-5.253-1.5v2.6c0,.554-.161.823-.48.823a.791.791,0,0,1-.555-.27v-3.7a.788.788,0,0,1,.555-.271c.319,0,.48.283.48.823Z" transform="translate(-1.47)" fill="#294c5b"/>
</svg>
