<svg xmlns="http://www.w3.org/2000/svg" viewBox="0 0 367.24 78.29"><g id="a275bf4a-2492-48ad-a26b-77683a0740e7" data-name="Layer 2"><g id="ecec5129-c0f8-41e8-808f-a31858df789c" data-name="Layer 1"><path d="M107.36,49.23a2.1,2.1,0,0,1,.69.13,2,2,0,0,1,.66.45l3.84,4a15.92,15.92,0,0,1-6.33,5,22.09,22.09,0,0,1-9,1.68,21.45,21.45,0,0,1-8.53-1.62,18.71,18.71,0,0,1-6.4-4.48,19.88,19.88,0,0,1-4-6.77,25.14,25.14,0,0,1-1.4-8.5,23.6,23.6,0,0,1,1.52-8.59,20.07,20.07,0,0,1,4.27-6.76,19.32,19.32,0,0,1,6.6-4.41,23.48,23.48,0,0,1,12.89-1.16A21.76,21.76,0,0,1,106,19.36a17.79,17.79,0,0,1,3.32,1.77,16.7,16.7,0,0,1,2.7,2.23l-3.27,4.39a4.26,4.26,0,0,1-.74.73,2,2,0,0,1-1.21.33,2,2,0,0,1-1-.23,10.36,10.36,0,0,1-1-.56l-1.13-.71a8.64,8.64,0,0,0-1.46-.72,12.11,12.11,0,0,0-2-.56,13.79,13.79,0,0,0-2.66-.23,10.74,10.74,0,0,0-4.4.89,9.49,9.49,0,0,0-3.44,2.6,11.94,11.94,0,0,0-2.24,4.18,19,19,0,0,0-.79,5.67,17.08,17.08,0,0,0,.88,5.71,12.42,12.42,0,0,0,2.38,4.2,10,10,0,0,0,3.51,2.59,10.38,10.38,0,0,0,4.3.89,19.69,19.69,0,0,0,2.41-.13,10.51,10.51,0,0,0,2-.43,8.65,8.65,0,0,0,1.78-.8,10.75,10.75,0,0,0,1.69-1.28,3.85,3.85,0,0,1,.74-.47A2.06,2.06,0,0,1,107.36,49.23Z" style="fill:#fff"/><path d="M128.84,29.85A17.15,17.15,0,0,1,135,30.91a13.44,13.44,0,0,1,4.77,3,13.76,13.76,0,0,1,3.1,4.8A17.27,17.27,0,0,1,144,45.1a17.52,17.52,0,0,1-1.1,6.41,13.79,13.79,0,0,1-3.1,4.85A13.65,13.65,0,0,1,135,59.43a18.28,18.28,0,0,1-12.38,0,14,14,0,0,1-4.82-3.07,13.42,13.42,0,0,1-3.12-4.85,17.52,17.52,0,0,1-1.11-6.41,17.27,17.27,0,0,1,1.11-6.35,13.39,13.39,0,0,1,3.12-4.8,13.74,13.74,0,0,1,4.82-3A17.29,17.29,0,0,1,128.84,29.85Zm0,24.06a5.06,5.06,0,0,0,4.52-2.17q1.44-2.16,1.44-6.58t-1.44-6.57a5.09,5.09,0,0,0-4.52-2.15,5.21,5.21,0,0,0-4.62,2.15q-1.45,2.16-1.46,6.57t1.46,6.58A5.18,5.18,0,0,0,128.84,53.91Z" style="fill:#fff"/><path d="M157.35,33.46a14.52,14.52,0,0,1,3.77-2.62,10.24,10.24,0,0,1,4.57-1,9.91,9.91,0,0,1,8.12,4,13.63,13.63,0,0,1,2.25,4.6,21.3,21.3,0,0,1,.79,6,21.83,21.83,0,0,1-.92,6.57,15.21,15.21,0,0,1-2.59,5.06,11.83,11.83,0,0,1-4,3.27,11.26,11.26,0,0,1-5.14,1.17,10.35,10.35,0,0,1-2.41-.26,8.55,8.55,0,0,1-1.95-.73,8.43,8.43,0,0,1-1.62-1.14A19.19,19.19,0,0,1,156.8,57l-.31,1.49a2,2,0,0,1-.75,1.26,2.43,2.43,0,0,1-1.38.35h-5.9V17.11h8.89Zm0,18.5a5.86,5.86,0,0,0,2.18,1.55,6.58,6.58,0,0,0,2.38.46,5.57,5.57,0,0,0,2.32-.48A4.44,4.44,0,0,0,166.05,52a8.21,8.21,0,0,0,1.19-2.84,18.56,18.56,0,0,0,.43-4.35,18.7,18.7,0,0,0-.33-3.8,7.51,7.51,0,0,0-1-2.55A3.88,3.88,0,0,0,164.76,37a5.25,5.25,0,0,0-2.19-.44,5.42,5.42,0,0,0-2.84.72,9.54,9.54,0,0,0-2.38,2.09Z" style="fill:#fff"/><path d="M208.08,30.3V60.05h-5.5a2.09,2.09,0,0,1-2.18-1.49l-.52-1.73a15.65,15.65,0,0,1-1.78,1.51,11,11,0,0,1-2,1.15,11.84,11.84,0,0,1-2.27.74,11.65,11.65,0,0,1-2.65.28,10.5,10.5,0,0,1-4.32-.85,8.79,8.79,0,0,1-3.17-2.37,10.25,10.25,0,0,1-1.95-3.58,14.85,14.85,0,0,1-.66-4.53V30.3H190V49.18a5.18,5.18,0,0,0,1,3.41,3.63,3.63,0,0,0,2.95,1.2,6.21,6.21,0,0,0,2.74-.61,10.86,10.86,0,0,0,2.48-1.68V30.3Z" style="fill:#fff"/><path d="M224.12,22.16a4.77,4.77,0,0,1-.43,2,5.32,5.32,0,0,1-1.18,1.64,5.79,5.79,0,0,1-1.73,1.12,5.55,5.55,0,0,1-2.11.41,5.13,5.13,0,0,1-2-.41A5.81,5.81,0,0,1,215,25.79a5.2,5.2,0,0,1-1.14-1.64,4.77,4.77,0,0,1-.42-2,5,5,0,0,1,.42-2A5.29,5.29,0,0,1,215,18.46a5.43,5.43,0,0,1,1.68-1.12,5.12,5.12,0,0,1,2-.4,5.54,5.54,0,0,1,2.11.4,5.45,5.45,0,0,1,2.91,2.78A5,5,0,0,1,224.12,22.16Zm-.92,8.14V60.05h-8.89V30.3Z" style="fill:#fff"/><path d="M238.31,17.11V60.05h-8.89V17.11Z" style="fill:#fff"/><path d="M271.27,17.11V60.05h-5.51a2.09,2.09,0,0,1-2.18-1.49l-.69-2.27A16.63,16.63,0,0,1,261,58a11.58,11.58,0,0,1-4.55,2.2,13.18,13.18,0,0,1-2.82.3,9.14,9.14,0,0,1-4.3-1,10,10,0,0,1-3.42-3,15.25,15.25,0,0,1-2.25-4.78,23.34,23.34,0,0,1-.82-6.43,20.11,20.11,0,0,1,.92-6.18,15.1,15.1,0,0,1,2.6-4.94,12.06,12.06,0,0,1,4-3.25,11.32,11.32,0,0,1,5.19-1.18,10.12,10.12,0,0,1,3.9.66,10.52,10.52,0,0,1,2.87,1.78V17.11Zm-8.89,21.17a5.54,5.54,0,0,0-2.18-1.56,6.89,6.89,0,0,0-2.47-.45,5.2,5.2,0,0,0-2.27.49,4.62,4.62,0,0,0-1.79,1.56,8.55,8.55,0,0,0-1.19,2.8,17.15,17.15,0,0,0-.43,4.16,20,20,0,0,0,.34,3.95,8.38,8.38,0,0,0,1,2.6,3.75,3.75,0,0,0,1.47,1.42,4.23,4.23,0,0,0,1.92.43,7.39,7.39,0,0,0,1.77-.19,5.87,5.87,0,0,0,2.69-1.4,12.46,12.46,0,0,0,1.17-1.22Z" style="fill:#fff"/><path d="M304.58,55.09v5H279.85V16.46h5.87V55.09Z" style="fill:#fff"/><path d="M309,33.58a17.56,17.56,0,0,1,5.51-3.68,17,17,0,0,1,6.53-1.22,11.65,11.65,0,0,1,4.6.86A9.19,9.19,0,0,1,329,31.91a9.82,9.82,0,0,1,2.07,3.68,15.21,15.21,0,0,1,.7,4.74V60.05h-2.4a2.41,2.41,0,0,1-1.22-.26,1.8,1.8,0,0,1-.67-1l-.6-2.92a30.61,30.61,0,0,1-2.38,2,13.16,13.16,0,0,1-2.43,1.46,12.79,12.79,0,0,1-2.72.91,14.55,14.55,0,0,1-3.21.32,11,11,0,0,1-3.38-.5,7.72,7.72,0,0,1-2.75-1.5A7.19,7.19,0,0,1,308.18,56a9,9,0,0,1-.68-3.64,6.73,6.73,0,0,1,1-3.51,8.78,8.78,0,0,1,3.26-3,21.08,21.08,0,0,1,5.87-2.14,44.43,44.43,0,0,1,8.88-1V40.33A8.22,8.22,0,0,0,325,34.91a5.59,5.59,0,0,0-4.53-1.85,9.68,9.68,0,0,0-3.37.51,12.76,12.76,0,0,0-2.34,1.12c-.66.42-1.22.79-1.7,1.13a2.5,2.5,0,0,1-1.41.5,1.6,1.6,0,0,1-.95-.29,2.67,2.67,0,0,1-.67-.71Zm17.49,12.59a45.47,45.47,0,0,0-6.37.6A17.65,17.65,0,0,0,315.85,48a5.86,5.86,0,0,0-2.4,1.8,3.8,3.8,0,0,0-.75,2.31,5,5,0,0,0,.4,2.1,3.75,3.75,0,0,0,1.08,1.44,4.16,4.16,0,0,0,1.61.82,7.09,7.09,0,0,0,2,.26,10.73,10.73,0,0,0,2.62-.29,9.93,9.93,0,0,0,2.23-.83,13.57,13.57,0,0,0,2-1.31,17.71,17.71,0,0,0,1.87-1.74Z" style="fill:#fff"/><path d="M345.49,33.67a16.08,16.08,0,0,1,4.4-3.59,11.58,11.58,0,0,1,5.64-1.34,11.2,11.2,0,0,1,4.88,1,10.11,10.11,0,0,1,3.7,3,14,14,0,0,1,2.33,4.76,23,23,0,0,1,.8,6.29,23.85,23.85,0,0,1-.91,6.82,15.64,15.64,0,0,1-2.63,5.24,12,12,0,0,1-4.18,3.38,12.51,12.51,0,0,1-5.54,1.2,10.57,10.57,0,0,1-5.13-1.14,11.13,11.13,0,0,1-3.63-3.24l-.28,2.8a1.31,1.31,0,0,1-1.4,1.16h-3.49V15.24h5.44Zm0,18.95a8.72,8.72,0,0,0,3.27,2.83,9.2,9.2,0,0,0,3.91.83,7.83,7.83,0,0,0,6.66-3.08q2.31-3.08,2.31-9.15,0-5.67-2.05-8.32a7,7,0,0,0-5.85-2.67,8.55,8.55,0,0,0-4.61,1.22,13.63,13.63,0,0,0-3.64,3.44Z" style="fill:#fff"/><path d="M40.67,35.47,33.93,23.8a7.35,7.35,0,0,0-6.36-3.68H14.08A7.35,7.35,0,0,0,7.72,23.8L1,35.47a7.36,7.36,0,0,0,0,7.35L7.72,54.49a7.36,7.36,0,0,0,6.36,3.67H27.57a7.36,7.36,0,0,0,6.36-3.67l6.74-11.67A7.36,7.36,0,0,0,40.67,35.47ZM20.83,46.15a7,7,0,1,1,7-7A7,7,0,0,1,20.83,46.15Z" style="fill:#fff"/><path d="M75.55,15.35,68.81,3.67A7.35,7.35,0,0,0,62.45,0H49a7.34,7.34,0,0,0-6.36,3.67L35.87,15.35a7.3,7.3,0,0,0,0,7.34l6.74,11.68A7.34,7.34,0,0,0,49,38H62.45a7.35,7.35,0,0,0,6.36-3.67l6.74-11.68A7.35,7.35,0,0,0,75.55,15.35ZM55.71,26a7,7,0,1,1,7-7A7,7,0,0,1,55.71,26Z" style="fill:#fff"/><path d="M75.55,55.6,68.81,43.92a7.35,7.35,0,0,0-6.36-3.67H49a7.34,7.34,0,0,0-6.36,3.67L35.87,55.6a7.3,7.3,0,0,0,0,7.34l6.74,11.67A7.33,7.33,0,0,0,49,78.29H62.45a7.34,7.34,0,0,0,6.36-3.68l6.74-11.67A7.35,7.35,0,0,0,75.55,55.6ZM55.71,66.27a7,7,0,1,1,7-7A7,7,0,0,1,55.71,66.27Z" style="fill:#fff"/></g></g></svg>