<svg xmlns="http://www.w3.org/2000/svg" width="1723.539" height="1662.822" viewBox="0 0 1723.539 1662.822">
  <g id="Group_1544" data-name="Group 1544" transform="translate(-183.663 439.76) rotate(-20)" opacity="0.26">
    <path id="Path_2640" data-name="Path 2640" d="M318.558,887.432h0a138.094,138.094,0,0,1-96.936-39.421L41.779,672.407A139.233,139.233,0,0,1,4.237,538.89L66.472,295.37a139.15,139.15,0,0,1,96.936-99.3l241.859-67.96a143.344,143.344,0,0,1,37.542-5.245,138.094,138.094,0,0,1,96.936,39.421l179.624,175.6c35.4,34.439,49.648,85.791,37.542,133.779l-62.235,243.3a139.151,139.151,0,0,1-96.936,99.3l-241.859,67.96A134.294,134.294,0,0,1,318.558,887.432Zm124.295-760.8a134.42,134.42,0,0,0-36.362,4.982l-241.859,67.96a134.276,134.276,0,0,0-94.1,96.455l-62.5,243.52A135.185,135.185,0,0,0,44.4,669.26L224.025,845.082a134.521,134.521,0,0,0,94.1,38.241h0a134.416,134.416,0,0,0,36.362-4.982l241.859-67.96a134.276,134.276,0,0,0,94.1-96.455l62.235-243.52A135.184,135.184,0,0,0,716.31,340.692l-179.624-175.6A133.533,133.533,0,0,0,442.852,126.629ZM380.574,637.706c-58.913,0-111.664-39.9-127.573-96.717A132.85,132.85,0,0,1,380.836,372.552c58.913,0,111.664,39.9,127.573,96.717a132.614,132.614,0,0,1-91.954,163.454A142.886,142.886,0,0,1,380.574,637.706Zm0-261.351a130.848,130.848,0,0,0-34.7,4.764,127.067,127.067,0,0,0-77.225,60.836A129.534,129.534,0,0,0,256.76,539.59c15.69,55.111,66.518,93.833,123.77,93.833a130.852,130.852,0,0,0,34.7-4.764,127.067,127.067,0,0,0,77.225-60.836,128.658,128.658,0,0,0,11.888-97.635C488.7,415.076,437.87,376.354,380.574,376.354Z" transform="translate(0 414.124)" fill="#bec8d2"/>
    <path id="Path_2641" data-name="Path 2641" d="M438.588,764.824h0A138.017,138.017,0,0,1,341.652,725.4L162.028,549.8a139.54,139.54,0,0,1-37.76-133.779L186.5,172.5a139.15,139.15,0,0,1,96.936-99.3L525.3,5.245A143.346,143.346,0,0,1,562.839,0a138.017,138.017,0,0,1,96.936,39.421L839.4,215.025c35.4,34.439,49.648,85.791,37.542,133.779L814.925,592.585a139.151,139.151,0,0,1-96.936,99.3L476.13,759.842A145.8,145.8,0,0,1,438.588,764.824ZM562.839,4.021A134.419,134.419,0,0,0,526.477,9L284.356,76.963a134.276,134.276,0,0,0-94.1,96.455l-62.235,243.52a135.185,135.185,0,0,0,36.362,129.714l179.624,175.6a134.52,134.52,0,0,0,94.1,38.241h0a134.421,134.421,0,0,0,36.362-4.982l241.859-67.7a134.276,134.276,0,0,0,94.1-96.455l62.235-243.52A135.185,135.185,0,0,0,836.3,218.128L656.672,42.524A133.235,133.235,0,0,0,562.839,4.021ZM500.6,515.1c-58.913,0-111.664-39.9-127.573-96.717A132.85,132.85,0,0,1,500.867,249.944c58.913,0,111.664,39.9,127.573,96.717,19.711,70.32-21.371,143.743-91.954,163.454A142.89,142.89,0,0,1,500.6,515.1Zm0-261.351a130.849,130.849,0,0,0-34.7,4.764,127.067,127.067,0,0,0-77.225,60.836,128.658,128.658,0,0,0-11.888,97.635c15.69,55.111,66.518,93.833,123.552,93.833a130.849,130.849,0,0,0,34.7-4.764A128.823,128.823,0,0,0,624.156,347.58C608.729,292.469,557.857,253.747,500.6,253.747Z" transform="translate(404.595)" fill="#bec8d2"/>
    <path id="Path_2642" data-name="Path 2642" d="M484.749,929.865h0a138.017,138.017,0,0,1-96.936-39.421L208.189,714.84c-35.4-34.439-49.648-85.791-37.542-133.778l62.235-243.3a139.15,139.15,0,0,1,96.936-99.3L571.677,170.5a143.345,143.345,0,0,1,37.542-5.245,138.016,138.016,0,0,1,96.936,39.421l179.624,175.6c35.4,34.439,49.648,85.791,37.542,133.779L861.3,757.845a139.15,139.15,0,0,1-96.936,99.3L522.509,925.1A157.423,157.423,0,0,1,484.749,929.865ZM609,169.324a134.421,134.421,0,0,0-36.362,4.982l-242.121,67.96a134.276,134.276,0,0,0-94.1,96.455l-62.235,243.52a135.185,135.185,0,0,0,36.362,129.714l179.624,175.6A134.959,134.959,0,0,0,520.63,920.818l241.859-67.96a134.276,134.276,0,0,0,94.1-96.455l62.235-243.52a135.185,135.185,0,0,0-36.362-129.714l-179.624-175.6A132.606,132.606,0,0,0,609,169.324ZM546.765,680.183c-58.913,0-111.664-39.9-127.573-96.718-19.711-70.32,21.371-143.743,91.954-163.454a132.376,132.376,0,0,1,35.881-4.982c58.913,0,111.664,39.9,127.573,96.717A132.85,132.85,0,0,1,546.765,680.183Zm.219-260.914a130.847,130.847,0,0,0-34.7,4.764A128.823,128.823,0,0,0,423.17,582.5c15.69,55.111,66.518,93.833,123.77,93.833a130.849,130.849,0,0,0,34.7-4.764,127.067,127.067,0,0,0,77.225-60.836A128.658,128.658,0,0,0,670.754,513.1C655.108,457.772,604.28,419.269,546.984,419.269Z" transform="translate(560.872 556.996)" fill="#bec8d2"/>
  </g>
</svg>
