<svg xmlns="http://www.w3.org/2000/svg" width="572.392" height="636.03" viewBox="0 0 572.392 636.03">
  <g id="Group_1781" data-name="Group 1781" transform="translate(-194 -5334.765)">
    <g id="Group_1616" data-name="Group 1616" transform="translate(359.029 5433.334)" opacity="0.57">
      <rect id="Rectangle_174" data-name="Rectangle 174" width="13.568" height="0.869" transform="translate(0 11.484) rotate(-57.82)" fill="#264a60"/>
    </g>
    <g id="Group_1620" data-name="Group 1620" transform="translate(339.416 5426.199)" opacity="0.57">
      <rect id="Rectangle_177" data-name="Rectangle 177" width="18.203" height="0.869" fill="#264a60"/>
    </g>
    <g id="Group_1621" data-name="Group 1621" transform="translate(380.585 5423.823)" opacity="0.57">
      <rect id="Rectangle_178" data-name="Rectangle 178" width="0.869" height="13.825" transform="matrix(0.08, -0.997, 0.997, 0.08, 0, 0.866)" fill="#264a60"/>
    </g>
    <g id="Group_1661" data-name="Group 1661" transform="translate(0 785)">
      <g id="Group_1607" data-name="Group 1607" transform="translate(218.256 4549.765)" opacity="0.57">
        <path id="Path_2703" data-name="Path 2703" d="M132.384,423.892h0a50.855,50.855,0,0,1-35.7-14.517l-66.23-64.669a51.275,51.275,0,0,1-13.825-49.169l22.919-89.68a51.244,51.244,0,0,1,35.7-36.567l89.068-25.027a52.789,52.789,0,0,1,13.825-1.931,50.855,50.855,0,0,1,35.7,14.517l66.149,64.669a51.385,51.385,0,0,1,13.825,49.266l-22.919,89.6a51.244,51.244,0,0,1-35.7,36.567l-89.068,25.027A49.536,49.536,0,0,1,132.384,423.892ZM178.142,143.73a49.5,49.5,0,0,0-13.391,1.835L75.682,170.592A49.449,49.449,0,0,0,41.03,206.113l-23.015,89.68a49.784,49.784,0,0,0,13.391,47.769l66.149,64.749a49.539,49.539,0,0,0,34.652,14.083h0A49.5,49.5,0,0,0,145.6,420.56l89.068-25.027a49.449,49.449,0,0,0,34.652-35.521l22.919-89.68a49.784,49.784,0,0,0-13.391-47.769l-66.133-64.669A49.116,49.116,0,0,0,178.142,143.73Zm-22.919,188.2A48.789,48.789,0,0,1,112.7,259.21a49.016,49.016,0,0,1,42.619-24.931A48.789,48.789,0,0,1,197.841,307a48.523,48.523,0,0,1-29.405,23.1A52.62,52.62,0,0,1,155.223,331.926Zm0-96.247a48.189,48.189,0,0,0-12.779,1.754A46.794,46.794,0,0,0,114,259.838a47.258,47.258,0,0,0,41.2,70.511,48.185,48.185,0,0,0,12.779-1.754,46.794,46.794,0,0,0,28.439-22.4,47.258,47.258,0,0,0-41.2-70.511Z" transform="translate(-15.071 55.426)" fill="#bec8d2"/>
        <path id="Path_2704" data-name="Path 2704" d="M252.422,301.118h0a50.827,50.827,0,0,1-35.7-14.517l-66.149-64.669a51.388,51.388,0,0,1-13.906-49.266l22.919-89.68a51.244,51.244,0,0,1,35.7-36.567l89.068-25.027A52.789,52.789,0,0,1,298.18,19.46a50.827,50.827,0,0,1,35.7,14.517l66.149,64.669a51.385,51.385,0,0,1,13.825,49.266l-22.838,89.777a51.244,51.244,0,0,1-35.7,36.567l-89.068,25.027A53.693,53.693,0,0,1,252.422,301.118ZM298.18,20.957a49.5,49.5,0,0,0-13.391,1.835L195.624,47.819A49.449,49.449,0,0,0,160.972,83.34l-22.919,89.68a49.784,49.784,0,0,0,13.391,47.769l66.149,64.669a49.539,49.539,0,0,0,34.652,14.083h0a49.5,49.5,0,0,0,13.391-1.835L354.7,272.775a49.449,49.449,0,0,0,34.652-35.521l22.919-89.68A49.784,49.784,0,0,0,398.885,99.8L332.735,35.136A49,49,0,0,0,298.18,20.957Zm-22.919,188.2a48.789,48.789,0,0,1-42.522-72.716,49.017,49.017,0,0,1,42.619-24.931,48.805,48.805,0,0,1,13.117,95.812A52.622,52.622,0,0,1,275.261,209.153Zm0-96.247a48.187,48.187,0,0,0-12.779,1.754,46.794,46.794,0,0,0-28.439,22.4,47.258,47.258,0,0,0,41.122,70.511,48.187,48.187,0,0,0,12.779-1.754,47.334,47.334,0,0,0-12.683-92.915Z" transform="translate(58.092 -19.46)" fill="#bec8d2"/>
        <path id="Path_2705" data-name="Path 2705" d="M298.714,466.308h0a50.827,50.827,0,0,1-35.7-14.517l-66.149-64.669a51.385,51.385,0,0,1-13.825-49.266l22.919-89.6a51.244,51.244,0,0,1,35.7-36.567l89.068-25.027a52.79,52.79,0,0,1,13.825-1.931,50.827,50.827,0,0,1,35.7,14.517L446.4,263.916a51.385,51.385,0,0,1,13.825,49.266l-22.838,89.777a51.244,51.244,0,0,1-35.7,36.567L312.62,464.553A57.967,57.967,0,0,1,298.714,466.308Zm45.757-280.1a49.5,49.5,0,0,0-13.391,1.835l-89.165,25.027a49.449,49.449,0,0,0-34.652,35.521l-22.919,89.68a49.784,49.784,0,0,0,13.391,47.769l66.149,64.669a49.7,49.7,0,0,0,48.043,12.248L401,437.933a49.449,49.449,0,0,0,34.652-35.521l22.919-89.68a49.784,49.784,0,0,0-13.391-47.769l-66.149-64.669A48.834,48.834,0,0,0,344.471,186.211ZM321.552,374.342a48.868,48.868,0,1,1,42.619-24.931,49.017,49.017,0,0,1-42.619,24.931Zm.08-96.07a48.187,48.187,0,0,0-12.779,1.754,47.334,47.334,0,0,0,12.763,92.915,48.186,48.186,0,0,0,12.779-1.754,46.794,46.794,0,0,0,28.439-22.4,47.258,47.258,0,0,0-41.2-70.511Z" transform="translate(86.352 81.268)" fill="#bec8d2"/>
      </g>
      <ellipse id="Ellipse_104" data-name="Ellipse 104" cx="8.482" cy="8.482" rx="8.482" ry="8.482" transform="translate(648.902 4683.915)" fill="#fff" opacity="0.57"/>
      <g id="Group_1608" data-name="Group 1608" transform="translate(595.43 4826.847)">
        <path id="Path_2706" data-name="Path 2706" d="M320.422,209.851a12.25,12.25,0,0,0-9.013,20.827,11.814,11.814,0,0,0,8.578,3.67,12.514,12.514,0,0,0,8.756-3.412h0a12.251,12.251,0,0,0-8.321-21.084Zm4.3,16.964a6.5,6.5,0,0,1-9.013-9.367,6.09,6.09,0,0,1,4.635-1.835,6.3,6.3,0,0,1,4.555,1.931A6.6,6.6,0,0,1,324.719,226.815Z" transform="translate(-213.757 -180.506)" fill="#e76c29"/>
        <path id="Path_2707" data-name="Path 2707" d="M395.82,193.569a6.555,6.555,0,0,0-5.07-1.931l-2.623.177A87.052,87.052,0,0,0,325.743,222.7l-6.39,7.693-16.529-.789h-.257a49.255,49.255,0,0,0-35.006,13.825l-17.237,16.706a2.69,2.69,0,0,0-.692,3.058,3.091,3.091,0,0,0,2.543,1.931l35.875,2.446-1.481,1.754a2.931,2.931,0,0,0-.354,3.235,33.459,33.459,0,0,0,1.754,3.058L279.31,285.6a2.8,2.8,0,0,0-.435,3.058,36.952,36.952,0,0,0,7.178,10.59,37.686,37.686,0,0,0,10.59,7.79,3.338,3.338,0,0,0,1.223.258,2.9,2.9,0,0,0,1.835-.612c1.931-1.481,4.024-3.235,6.035-4.893,1.481-1.223,2.978-2.446,4.378-3.589.869.531,1.658.966,2.543,1.481a3.594,3.594,0,0,0,1.4.354,3.159,3.159,0,0,0,1.754-.531l2.012-1.481,1.223,36.052a3.078,3.078,0,0,0,1.835,2.623,2.182,2.182,0,0,0,1.046.177,2.537,2.537,0,0,0,2.012-.869L341.178,319.3a48.669,48.669,0,0,0,14.968-34.555l.257-15.837,6.744-5.07A86.8,86.8,0,0,0,397.7,200.055l.08-1.4A7.093,7.093,0,0,0,395.82,193.569ZM259.047,259.719l12.6-12.168A43.42,43.42,0,0,1,302.454,235.3l12.071.531-21.873,26.073Zm42.973,37.533c-1.577,1.223-3.058,2.543-4.555,3.67a33.561,33.561,0,0,1-7.436-5.778,31.369,31.369,0,0,1-5.247-7.355l6.39-7.259a59.666,59.666,0,0,0,6.036,7.259h0a82.023,82.023,0,0,0,7.79,7C304.112,295.594,303.066,296.383,302.02,297.252Zm48.3-12.506A42.939,42.939,0,0,1,337.106,315.2l-12.6,12.168-1.223-33.606,27.12-20.3Zm41.557-84.964a81.3,81.3,0,0,1-32.206,59.583l-45.854,34.394a64.4,64.4,0,0,1-10.333-7.87l15.483-15.049a2.846,2.846,0,0,0-3.943-4.1l-15.483,15.049a64.956,64.956,0,0,1-7.259-10.236l37.887-45.065a81.168,81.168,0,0,1,58.182-28.874l2.623-.177a1.27,1.27,0,0,1,.692.258c.161.08.258.354.258.692Z" transform="translate(-249.417 -191.617)" fill="#264a60"/>
      </g>
      <g id="Group_1609" data-name="Group 1609" transform="translate(194 4672.889)">
        <path id="Path_2708" data-name="Path 2708" d="M268.049,267.646a2.436,2.436,0,0,1-1.32-.435,2.345,2.345,0,0,1-.531-3.155c1.4-1.931,2.092-2.978,2.189-2.978a2.195,2.195,0,0,1,3.589,2.527s-.789,1.046-2.269,3.058A1.947,1.947,0,0,1,268.049,267.646Z" transform="translate(162.003 4.114)" fill="#264a60"/>
        <path id="Path_2709" data-name="Path 2709" d="M197.837,500.212h-2.189a2.23,2.23,0,0,1,.08-4.458h0c2.446,0,4.893,0,7.436-.08h.08a2.294,2.294,0,0,1,2.269,2.189,2.179,2.179,0,0,1-2.189,2.269C201.426,500.212,199.591,500.212,197.837,500.212Zm-19.957-.95H177.7c-2.543-.177-5.07-.531-7.436-.869a2.258,2.258,0,0,1,.612-4.474c2.366.354,4.893.612,7.355.869a2.314,2.314,0,0,1,2.012,2.446A2.416,2.416,0,0,1,177.879,499.263Zm43.231-.274a2.33,2.33,0,0,1-2.269-2.012,2.239,2.239,0,0,1,1.931-2.446,11.849,11.849,0,0,1,1.658-.177c1.931-.177,3.766-.434,5.681-.692a2.258,2.258,0,0,1,.612,4.474c-1.931.258-3.847.531-5.778.692a12.958,12.958,0,0,1-1.754.177C221.19,498.989,221.11,498.989,221.11,498.989Zm-68.258-3.75a1.224,1.224,0,0,1-.531-.08c-2.446-.531-4.893-1.223-7.355-1.835a2.223,2.223,0,1,1,1.143-4.3c2.366.612,4.732,1.223,7.082,1.835a2.173,2.173,0,0,1,1.658,2.623A1.9,1.9,0,0,1,152.852,495.239Zm93.285-.177a2.219,2.219,0,0,1-.531-4.378c2.366-.531,4.812-1.143,7.178-1.658a2.223,2.223,0,0,1,1.143,4.3c-2.446.612-4.893,1.223-7.355,1.754C246.394,494.966,246.217,495.062,246.137,495.062Zm24.319-6.921a2.125,2.125,0,0,1-2.092-1.577,2.1,2.1,0,0,1,1.4-2.8c2.269-.789,4.732-1.577,7-2.446a2.229,2.229,0,0,1,2.881,1.32,2.26,2.26,0,0,1-1.32,2.881c-2.366.869-4.732,1.658-7.082,2.543A2.631,2.631,0,0,1,270.456,488.141Zm-141.746-.258a2.327,2.327,0,0,1-.789-.177c-2.366-.869-4.732-1.835-7-2.8a2.276,2.276,0,1,1,1.754-4.2c2.269.966,4.555,1.931,6.824,2.72a2.143,2.143,0,0,1,1.223,2.881A2.1,2.1,0,0,1,128.71,487.884Zm165.373-8.933a2.243,2.243,0,0,1-.869-4.3c2.269-.966,4.458-2.012,6.744-3.155a2.232,2.232,0,1,1,1.931,4.024c-2.269,1.143-4.555,2.189-6.824,3.155A1.934,1.934,0,0,1,294.083,478.951Zm-188.469-1.658a2.28,2.28,0,0,1-1.046-.258L98,473.366a2.233,2.233,0,1,1,2.269-3.847c2.092,1.223,4.281,2.446,6.39,3.67a2.173,2.173,0,0,1,.869,2.978A2.008,2.008,0,0,1,105.614,477.294Zm211.131-9.705a2.2,2.2,0,0,1-1.062-4.12c2.189-1.223,4.378-2.446,6.39-3.67a2.233,2.233,0,1,1,2.269,3.847c-2.189,1.223-4.378,2.543-6.47,3.766C317.437,467.411,317.1,467.588,316.745,467.588ZM84.176,463.822a2.724,2.724,0,0,1-1.32-.435c-2.012-1.481-4.024-2.978-6.036-4.555a2.245,2.245,0,1,1,2.8-3.509c1.931,1.577,3.943,2.978,5.858,4.378a2.226,2.226,0,0,1,.531,3.058A2.155,2.155,0,0,1,84.176,463.822Zm254.184-9.544a2.29,2.29,0,0,1-1.835-.966,2.16,2.16,0,0,1,.612-3.058c2.092-1.4,4.12-2.8,6.036-4.2a2.195,2.195,0,1,1,2.527,3.589c-2.012,1.4-4.12,2.881-6.213,4.281A2.126,2.126,0,0,1,338.36,454.278ZM64.572,447.727a2.248,2.248,0,0,1-1.577-.612c-1.835-1.658-3.67-3.493-5.424-5.247a2.231,2.231,0,0,1,3.155-3.155c1.754,1.754,3.493,3.412,5.343,5.07a2.319,2.319,0,0,1,.177,3.155A2.234,2.234,0,0,1,64.572,447.727Zm294.341-8.321a2.153,2.153,0,0,1-1.754-.869,2.248,2.248,0,0,1,.435-3.155c1.931-1.577,3.943-3.058,5.778-4.635a2.245,2.245,0,1,1,2.8,3.509c-1.931,1.577-3.943,3.155-5.859,4.732A3.369,3.369,0,0,1,358.913,439.406ZM47.077,429.347a2.125,2.125,0,0,1-1.658-.789c-1.577-1.931-3.235-3.847-4.812-5.778a2.245,2.245,0,1,1,3.509-2.8c1.577,1.931,3.155,3.847,4.732,5.681a2.2,2.2,0,0,1-1.77,3.686Zm331.262-6.213a2.124,2.124,0,0,1-1.658-.789,2.16,2.16,0,0,1,.177-3.155c1.931-1.658,3.67-3.332,5.5-4.989a2.234,2.234,0,0,1,2.978,3.332c-1.835,1.658-3.67,3.332-5.5,5.07A3.006,3.006,0,0,1,378.339,423.135ZM31.674,409.229a2.291,2.291,0,0,1-1.835-.966c-1.4-2.012-2.8-4.2-4.12-6.293a2.217,2.217,0,1,1,3.75-2.366c1.32,2.092,2.623,4.12,4.024,6.132a2.213,2.213,0,0,1-.531,3.058A1.948,1.948,0,0,1,31.674,409.229Zm365.045-3.589a2.19,2.19,0,0,1-1.577-3.766c1.835-1.835,3.493-3.589,5.166-5.343a2.231,2.231,0,0,1,3.235,3.074c-1.658,1.754-3.412,3.589-5.247,5.424A2.408,2.408,0,0,1,396.719,405.64ZM18.557,387.614a2.106,2.106,0,0,1-1.931-1.223c-1.223-2.269-2.366-4.458-3.412-6.744a2.232,2.232,0,0,1,4.024-1.931c1.046,2.189,2.189,4.378,3.332,6.567a2.217,2.217,0,0,1-.869,2.978A3.5,3.5,0,0,1,18.557,387.614ZM414.037,387a2.323,2.323,0,0,1-1.481-.531,2.241,2.241,0,0,1-.177-3.155c1.754-1.931,3.332-3.847,4.812-5.681a2.238,2.238,0,1,1,3.412,2.9c-1.577,1.835-3.155,3.67-4.893,5.778A2.135,2.135,0,0,1,414.037,387ZM7.87,364.421a2.225,2.225,0,0,1-2.012-1.32v-.08c-.869-2.269-1.658-4.732-2.366-7.259a2.168,2.168,0,0,1,1.577-2.72,2.168,2.168,0,0,1,2.72,1.577,67.612,67.612,0,0,0,2.189,6.744,2.414,2.414,0,0,1-1.223,2.977A3.3,3.3,0,0,1,7.87,364.421ZM2.623,339.748a2.33,2.33,0,0,1-2.269-2.012C.177,335.29,0,332.666,0,330.2a2.24,2.24,0,0,1,2.189-2.269h.08a2.294,2.294,0,0,1,2.269,2.189c.08,2.446.177,4.989.354,7.355a2.246,2.246,0,0,1-2.012,2.366A.28.28,0,0,0,2.623,339.748Zm.531-25.285H2.978a2.192,2.192,0,0,1-1.931-2.446c.258-2.543.531-5.07.966-7.436a2.347,2.347,0,0,1,2.543-1.931,2.347,2.347,0,0,1,1.931,2.543c-.354,2.446-.692,4.893-.966,7.259A2.442,2.442,0,0,1,3.155,314.463Zm4.539-24.931a1.223,1.223,0,0,1-.531-.081,2.161,2.161,0,0,1-1.577-2.72c.612-2.446,1.32-4.893,2.012-7.259a2.24,2.24,0,1,1,4.281,1.32c-.692,2.366-1.4,4.732-1.931,7.082A2.457,2.457,0,0,1,7.693,289.532Zm7.886-24.158a3.33,3.33,0,0,1-.869-.177,2.254,2.254,0,0,1-1.223-2.881c.869-2.269,1.931-4.635,2.978-6.9a2.321,2.321,0,0,1,2.978-1.143,2.287,2.287,0,0,1,1.143,2.978c-.966,2.269-1.931,4.555-2.881,6.744A2.149,2.149,0,0,1,15.58,265.374Zm10.751-22.919a2.281,2.281,0,0,1-1.046-.258,2.173,2.173,0,0,1-.869-2.978l3.67-6.567a2.233,2.233,0,1,1,3.847,2.269c-1.223,2.092-2.446,4.281-3.67,6.39A1.866,1.866,0,0,1,26.331,242.455Zm13.487-21.438a2.134,2.134,0,0,1-1.223-.435,2.226,2.226,0,0,1-.531-3.058c1.4-2.012,2.978-4.024,4.458-6.036a2.252,2.252,0,1,1,3.589,2.72c-1.481,1.931-2.978,4.024-4.378,5.955A3.085,3.085,0,0,1,39.818,221.017Zm15.741-19.861A2.194,2.194,0,0,1,53.9,197.47c1.658-1.931,3.332-3.67,5.07-5.52a2.231,2.231,0,1,1,3.235,3.074c-1.658,1.835-3.332,3.67-5.07,5.424A2.213,2.213,0,0,1,55.559,201.156ZM73.5,183.21a2.124,2.124,0,0,1-1.658-.789,2.16,2.16,0,0,1,.177-3.155c1.835-1.658,3.766-3.332,5.681-4.989a2.238,2.238,0,0,1,2.9,3.412c-1.931,1.577-3.766,3.235-5.6,4.812A2,2,0,0,1,73.5,183.21Zm19.764-15.837a2.5,2.5,0,0,1-1.835-.869,2.142,2.142,0,0,1,.531-3.058c2.012-1.481,4.12-2.881,6.213-4.281a2.205,2.205,0,0,1,2.446,3.67l-6.036,4.2A5.472,5.472,0,0,1,93.269,167.373Zm21.261-13.648a2.2,2.2,0,0,1-1.062-4.12l6.567-3.67a2.193,2.193,0,1,1,2.108,3.847c-2.189,1.143-4.378,2.269-6.47,3.589A1.87,1.87,0,0,1,114.53,153.725Zm22.661-11.282a2.243,2.243,0,0,1-.869-4.3c2.269-.966,4.635-1.931,6.9-2.978a2.213,2.213,0,1,1,1.658,4.1c-2.269.869-4.635,1.931-6.744,2.881A1.769,1.769,0,0,1,137.192,142.442ZM160.3,132.029a2.243,2.243,0,0,1-.869-4.3c2.092-.869,4.378-1.931,6.9-2.978a2.276,2.276,0,1,1,1.754,4.2c-2.543,1.046-4.732,2.012-6.824,2.978C161,131.932,160.642,132.029,160.3,132.029Zm23.611-9.448a2.254,2.254,0,0,1-.773-4.362c2.269-.869,4.635-1.577,7.082-2.446a2.214,2.214,0,1,1,1.4,4.2c-2.446.869-4.732,1.577-7,2.366A.767.767,0,0,1,183.915,122.581Zm24.239-7.613a2.251,2.251,0,0,1-2.189-1.577,2.135,2.135,0,0,1,1.577-2.72c2.366-.692,4.732-1.32,7.259-1.931a2.309,2.309,0,0,1,2.72,1.577,2.228,2.228,0,0,1-1.577,2.72c-2.446.612-4.812,1.223-7.082,1.931Zm24.593-6.132a2.219,2.219,0,0,1-.531-4.378c2.446-.531,4.893-1.046,7.355-1.481a2.232,2.232,0,1,1,.869,4.378c-2.446.531-4.893.966-7.259,1.481Zm24.931-4.539a2.179,2.179,0,0,1-2.189-1.931,2.2,2.2,0,0,1,1.931-2.543c2.446-.354,4.893-.692,7.436-1.046a2.258,2.258,0,1,1,.612,4.474c-2.446.354-4.989.612-7.355,1.046Zm25.285-2.9a2.33,2.33,0,0,1-2.269-2.012,2.246,2.246,0,0,1,2.012-2.366c2.446-.177,4.989-.435,7.436-.531a2.233,2.233,0,0,1,.274,4.458c-2.543.177-4.989.354-7.436.531Z" transform="translate(0 -95.639)" fill="#264a60"/>
        <path id="Path_2710" data-name="Path 2710" d="M192.329,100.5a2.229,2.229,0,0,1-.08-4.458c1.223,0,2.446,0,3.67-.08h0a2.256,2.256,0,0,1,2.269,2.269,2.208,2.208,0,0,1-2.269,2.269Z" transform="translate(115.837 -95.96)" fill="#264a60"/>
      </g>
      <g id="Group_1613" data-name="Group 1613" transform="translate(243.839 4824.914)">
        <path id="Path_2720" data-name="Path 2720" d="M73.527,193.947l-29.663-3.493a5.226,5.226,0,0,0-5.778,4.635L31,255.381a5.226,5.226,0,0,0,4.635,5.778L65.3,264.651a5.226,5.226,0,0,0,5.778-4.635l7.082-60.291a5.248,5.248,0,0,0-4.635-5.778Zm-33.606,5.52,35.344,4.12L70.018,248.38l-35.344-4.12Zm3.589-6.647,29.663,3.493a2.929,2.929,0,0,1,2.543,3.155l-.177,1.931-35.344-4.12.177-1.931a2.756,2.756,0,0,1,3.138-2.527ZM65.48,262.286l-29.663-3.493a2.929,2.929,0,0,1-2.543-3.155l1.046-8.933,35.344,4.12-1.046,8.933a2.844,2.844,0,0,1-3.138,2.527Z" transform="translate(-30.966 -190.416)" fill="#264a60"/>
        <path id="Path_2721" data-name="Path 2721" d="M45.926,227.359a4.757,4.757,0,1,0,4.12,5.247,4.617,4.617,0,0,0-4.12-5.247Zm-.708,7.1a2.373,2.373,0,1,1,2.623-2.092,2.425,2.425,0,0,1-2.623,2.092Z" transform="translate(-25.061 -167.915)" fill="#264a60"/>
        <path id="Path_2722" data-name="Path 2722" d="M45.2,195.689l4.732.531a1.191,1.191,0,1,0,.274-2.366l-4.732-.531a1.191,1.191,0,0,0-.274,2.366Z" transform="translate(-22.931 -188.649)" fill="#264a60"/>
        <g id="Group_1612" data-name="Group 1612" transform="translate(29.511 5.631)">
          <path id="Path_2723" data-name="Path 2723" d="M50.361,196.289l1.223.177a1.258,1.258,0,0,0,1.32-1.046,1.244,1.244,0,0,0-1.046-1.32l-1.223-.177a1.258,1.258,0,0,0-1.32,1.046,1.092,1.092,0,0,0,1.046,1.32Z" transform="translate(-49.302 -193.915)" fill="#264a60"/>
        </g>
        <path id="Path_2724" data-name="Path 2724" d="M32.29,194.52" transform="translate(-30.159 -187.915)" fill="#264a60"/>
      </g>
      <g id="Group_1615" data-name="Group 1615" transform="translate(387.964 4913.055)">
        <g id="Group_1614" data-name="Group 1614">
          <path id="Path_2725" data-name="Path 2725" d="M154.564,272.219V251.747h1.32a1.3,1.3,0,0,0,1.32-1.32V246.5a1.3,1.3,0,0,0-1.32-1.32H140.127a1.3,1.3,0,0,0-1.32,1.32v3.943a1.3,1.3,0,0,0,1.32,1.32h1.32v20.472a27.476,27.476,0,1,0,13.117-.016ZM141.447,247.8h13.117v1.32H141.447Zm6.567,76.048a24.92,24.92,0,0,1-4.989-49.347,1.3,1.3,0,0,0,1.046-1.223V251.763h7.87v21.519a1.162,1.162,0,0,0,1.046,1.223,24.92,24.92,0,0,1-4.973,49.347Z" transform="translate(-120.514 -245.18)" fill="#e76c29"/>
        </g>
        <path id="Path_2726" data-name="Path 2726" d="M133.74,268.02a9.19,9.19,0,1,0,9.19,9.19,9.2,9.2,0,0,0-9.19-9.19Zm0,15.741a6.567,6.567,0,1,1,6.567-6.567,6.563,6.563,0,0,1-6.567,6.567Z" transform="translate(-118.054 -231.26)" fill="#e76c29"/>
        <path id="Path_2727" data-name="Path 2727" d="M144.793,274.266a3.943,3.943,0,1,0-3.943-3.943,3.929,3.929,0,0,0,3.943,3.943Zm0-5.247a1.3,1.3,0,0,1,1.32,1.32,1.25,1.25,0,0,1-1.32,1.32,1.3,1.3,0,0,1-1.32-1.32,1.259,1.259,0,0,1,1.32-1.32Z" transform="translate(-108.12 -232.259)" fill="#e76c29"/>
        <path id="Path_2728" data-name="Path 2728" d="M144.157,281.06a6.567,6.567,0,1,0,6.567,6.567,6.563,6.563,0,0,0-6.567-6.567Zm0,10.51a3.943,3.943,0,1,1,3.943-3.943,3.981,3.981,0,0,1-3.943,3.943Z" transform="translate(-110.107 -223.312)" fill="#e76c29"/>
        <path id="Path_2729" data-name="Path 2729" d="M152.037,276.17H138.92a1.32,1.32,0,1,0,0,2.64h13.117a1.3,1.3,0,0,0,1.32-1.32,1.37,1.37,0,0,0-1.32-1.32Z" transform="translate(-110.1 -226.292)" fill="#e76c29"/>
        <path id="Path_2730" data-name="Path 2730" d="M150.83,276.17h-1.32a1.32,1.32,0,0,0,0,2.64h1.32a1.3,1.3,0,0,0,1.32-1.32,1.37,1.37,0,0,0-1.32-1.32Z" transform="translate(-103.646 -226.292)" fill="#e76c29"/>
      </g>
      <g id="Group_1622" data-name="Group 1622" transform="translate(333.638 4609.267)">
        <path id="Path_2732" data-name="Path 2732" d="M112.907,92.577h0V88.3a8.659,8.659,0,0,1,0-17.318V66.6a13.007,13.007,0,0,1,12.86,11.025,12.921,12.921,0,1,0,.1,3.316A13.084,13.084,0,0,1,112.907,92.577Z" transform="translate(-78.77 -50.232)" fill="#264a60"/>
        <path id="Path_2733" data-name="Path 2733" d="M115.91,73.45a7.232,7.232,0,0,1,.177,1.32A8.976,8.976,0,0,0,115.91,73.45Z" transform="translate(-68.994 -46.057)" fill="#264a60"/>
        <path id="Path_2734" data-name="Path 2734" d="M120.78,77.625A13.08,13.08,0,0,0,107.92,66.6v4.378a8.659,8.659,0,0,1,0,17.318v4.281h0A13.007,13.007,0,0,0,120.876,80.94a7.182,7.182,0,0,0,.08-1.32v-.692A9.059,9.059,0,0,0,120.78,77.625Z" transform="translate(-73.864 -50.232)" fill="#264a60"/>
        <path id="Path_2735" data-name="Path 2735" d="M132.553,78.023a3.6,3.6,0,0,0-3.589-3.589V72.68h0a5.343,5.343,0,1,0,0,10.687h0V81.613A3.656,3.656,0,0,0,132.553,78.023Zm-6.213,0a2.634,2.634,0,0,1,2.623-2.623,2.623,2.623,0,1,1-2.623,2.623Z" transform="translate(-64.295 -46.526)" fill="#264a60"/>
        <path id="Path_2736" data-name="Path 2736" d="M127,72.69h0v1.754a3.6,3.6,0,0,1,3.589,3.589A3.552,3.552,0,0,1,127,81.623v1.754h0a5.287,5.287,0,0,0,5.247-4.732V77.583A5.383,5.383,0,0,0,127,72.69Z" transform="translate(-62.235 -46.52)" fill="#264a60"/>
        <ellipse id="Ellipse_113" data-name="Ellipse 113" cx="4.458" cy="4.458" rx="4.458" ry="4.458" transform="translate(37.903)" fill="#264a60"/>
        <ellipse id="Ellipse_114" data-name="Ellipse 114" cx="5.778" cy="5.778" rx="5.778" ry="5.778" transform="translate(18.203 49.169)" fill="#264a60"/>
        <ellipse id="Ellipse_115" data-name="Ellipse 115" cx="2.366" cy="2.366" rx="2.366" ry="2.366" transform="translate(14.437 7.87)" fill="#264a60"/>
        <ellipse id="Ellipse_116" data-name="Ellipse 116" cx="2.366" cy="2.366" rx="2.366" ry="2.366" transform="translate(46.643 13.906)" fill="#264a60"/>
        <ellipse id="Ellipse_117" data-name="Ellipse 117" cx="3.332" cy="3.332" rx="3.332" ry="3.332" transform="translate(0 28.6)" fill="#264a60"/>
      </g>
      <g id="Group_1623" data-name="Group 1623" transform="translate(317.817 4671.409)">
        <path id="Path_2737" data-name="Path 2737" d="M80.777,345.619l-3.847-1.658,3.412-7.693,3.847,1.658Zm5.07-11.556L82,332.405l3.412-7.693,3.847,1.658ZM91.013,322.6l-3.847-1.658,3.412-7.693,3.847,1.658Zm5.07-11.54-3.847-1.658,3.412-7.693,3.847,1.658Zm5.166-11.556L97.4,297.85l3.412-7.693,3.847,1.658Zm5.166-11.556-3.847-1.658,3.412-7.693,3.847,1.658Zm5.07-11.637-3.847-1.658,3.412-7.693,3.847,1.658Zm5.07-11.459-3.847-1.658,3.412-7.693,3.847,1.658ZM121.8,253.3l-3.847-1.658,3.412-7.693,3.847,1.658Zm103.521-.435-1.835-.531.612-2.269-.177-.08.531-1.223.177-.531h.08l1.931-4.281,3.847,1.658-2.623,5.955Zm-5.858-1.658-8.144-2.269,1.223-4.024,8.144,2.269ZM207.3,247.8l-8.144-2.269,1.223-4.024,8.144,2.269ZM195.13,244.3l-8.144-2.269,1.223-4.024,8.144,2.269Zm37.1-2.366-3.847-1.658,3.412-7.693,3.847,1.658Zm-105.34-.177-3.847-1.658,3.412-7.693,3.847,1.658Zm56.171-.885-8.144-2.269,1.223-4.024,8.144,2.269Zm-12.168-3.493-8.144-2.269,1.223-4.024,8.144,2.269ZM158.74,233.97,150.6,231.7l1.223-4.024,8.144,2.269Zm-12.168-3.493-8.144-2.269,1.223-4.024,8.144,2.269Zm90.742-.1-3.847-1.658,3.412-7.693,3.847,1.658Zm-105.26-.177-3.847-1.658,2.269-5.166,2.543-1.223,2.623.789-1.223,4.024-.869-.258Zm110.41-11.363-3.847-1.658,3.412-7.693,3.847,1.658Zm5.086-11.556-3.847-1.658,3.412-7.693,3.847,1.658Zm5.15-11.556-3.847-1.658,3.412-7.693,3.847,1.658Zm5.166-11.459-3.847-1.658,3.412-7.693,3.847,1.658Zm5.07-11.556-3.847-1.658,3.412-7.693,3.847,1.658Zm97.051-4.635-3.589-2.269,4.555-7.082L364.543,161Zm-6.132-.612-6.744-4.989,2.543-3.412,6.744,4.989Zm-85.833-6.293-3.847-1.658,3.412-7.693,3.847,1.658Zm75.6-1.223-6.744-4.989,2.543-3.412,6.744,4.989Zm23.193-2.446-3.589-2.269,4.555-7.082,3.589,2.269Zm-33.348-4.909-6.744-4.989,2.543-3.412,6.744,4.989Zm-60.194-3.058-3.847-1.658,3.412-7.693,3.847,1.658Zm100.367-2.72-3.589-2.269,4.555-7.082,3.589,2.269Zm-50.312-1.738-6.744-4.989,2.543-3.412,6.744,4.989Zm-44.985-7-3.847-1.658,3.412-7.693,3.847,1.658Zm34.749-.451-6.744-4.989,2.543-3.412,6.744,4.989Zm67.453-1.4-3.589-2.269,4.555-7.082,3.589,2.269Zm-77.706-6.116-6.744-4.989,2.543-3.412,6.744,4.989Zm-19.41-3.589-3.847-1.658,3.412-7.693,3.847,1.658Zm103.94-.966-3.589-2.269,4.555-7.082,3.589,2.269ZM292.7,122.675l-6.744-4.989,2.543-3.412,6.744,4.989Zm101.493-7.709L390.6,112.7l4.555-7.082,3.589,2.269Zm6.921-10.574-3.589-2.269,4.555-7.082,3.589,2.269Z" transform="translate(-76.93 -95.04)" fill="#e76c29"/>
      </g>
      <ellipse id="Ellipse_118" data-name="Ellipse 118" cx="11.637" cy="11.637" rx="11.637" ry="11.637" transform="translate(308.015 4909.563)" fill="#e76c29"/>
      <ellipse id="Ellipse_119" data-name="Ellipse 119" cx="11.637" cy="11.637" rx="11.637" ry="11.637" transform="translate(360.066 4789.947)" fill="#e76c29"/>
      <ellipse id="Ellipse_120" data-name="Ellipse 120" cx="11.637" cy="11.637" rx="11.637" ry="11.637" transform="translate(454.574 4814.716)" fill="#e76c29"/>
      <ellipse id="Ellipse_121" data-name="Ellipse 121" cx="11.637" cy="11.637" rx="11.637" ry="11.637" transform="translate(515.38 4679.972)" fill="#e76c29"/>
      <ellipse id="Ellipse_122" data-name="Ellipse 122" cx="11.637" cy="11.637" rx="11.637" ry="11.637" transform="translate(586.599 4731.25)" fill="#e76c29"/>
      <ellipse id="Ellipse_123" data-name="Ellipse 123" cx="11.637" cy="11.637" rx="11.637" ry="11.637" transform="translate(633.161 4660.899)" fill="#e76c29"/>
      <g id="Group_1640" data-name="Group 1640" transform="translate(352.283 4624.458)">
        <path id="Path_2738" data-name="Path 2738" d="M207.584,248.232l-4.024,7.082S166.9,235.63,155.791,224.251s-16.883-21.261-15.145-34.121,12.168-33.332,48.3-48.992,53.29-25.9,53.29-25.9,21.615-1.143,25.542.435c4.024,1.577,31.851,15.483,31.851,15.483l-1.754,146.124H219.912L211.43,146.819s-33.155,13.825-42.7,21.7-36.229,27.474-4.555,52.066S207.584,248.232,207.584,248.232Z" transform="translate(-140.341 -10.674)" fill="#264a60"/>
        <path id="Path_2739" data-name="Path 2739" d="M196.8,67.309,194.864,88.57v3.493s-5.344-.177-5.07,4.732c.177,4.893,1.835,6.39,3.493,6.9,1.577.612,3.67,1.4,3.493,4.281s3.943,16.529,7.967,20.392c4.024,3.943,9.8,12.683,26.6,9.19s21.873-16.98,22.4-20.392a51.513,51.513,0,0,1,2.623-8.4s5.07-2.446,5.07-5.5-2.092-6.824-2.881-6.647c-.869.177.789-10.767.789-10.767l-1.931-18.557-42.7-7.613Z" transform="translate(-110.206 -44.293)" fill="#e3c1a8"/>
        <path id="Path_2740" data-name="Path 2740" d="M192.34,101.655l1.046-37.71S192.163,51.7,207.823,51.52c15.757-.177,36.31-1.4,36.31-1.4S247.014,51.7,247.8,53a5.266,5.266,0,0,0,4.281,2.446c2.012,0,9.367-2.269,9.19,2.881C261.1,63.4,256.9,102.6,256.9,102.6l-1.223.692-1.223-19.78c.966-7.79-9.882-7.79-9.882-7.79s-22.227,2.012-31.852-2.446-15.306,7.79-15.306,7.79l-3.67,22.4Z" transform="translate(-108.648 -50.12)" fill="#847363"/>
        <path id="Path_2741" data-name="Path 2741" d="M203.76,92.64h27.731s-.692,16.368-14.083,16.368C203.937,108.992,203.76,92.64,203.76,92.64Z" transform="translate(-101.688 -24.205)" fill="#fff"/>
        <path id="Path_2742" data-name="Path 2742" d="M199.52,74.132a12.664,12.664,0,0,1,1.931-1.143,10.331,10.331,0,0,1,2.189-.692,10.134,10.134,0,0,1,5.247.177,4.378,4.378,0,0,1,1.143.531,3.717,3.717,0,0,1,.869.531c.531.354.869.789,1.223,1.046l.435.435s-.177-.08-.531-.258a1.7,1.7,0,0,1-.531-.354,4.488,4.488,0,0,1-.789-.354c-.258-.177-.612-.177-.869-.354a4.143,4.143,0,0,0-1.046-.258,5.592,5.592,0,0,0-1.223-.177,6.671,6.671,0,0,0-1.223-.08,7.186,7.186,0,0,0-2.366.177,12.017,12.017,0,0,0-2.092.354A11.074,11.074,0,0,0,199.52,74.132Z" transform="translate(-104.272 -36.76)" fill="#847363"/>
        <path id="Path_2743" data-name="Path 2743" d="M218.38,75.548a5.09,5.09,0,0,1,1.143-2.012,6.966,6.966,0,0,1,1.931-1.577c.354-.177.869-.354,1.223-.531a6.02,6.02,0,0,1,1.4-.258,9.545,9.545,0,0,1,4.989,1.143A19.689,19.689,0,0,1,231,73.536a3.5,3.5,0,0,0-.612-.177c-.354-.177-.869-.258-1.577-.531a12.8,12.8,0,0,0-4.732-.612,11.1,11.1,0,0,0-2.446.531,6.122,6.122,0,0,0-1.931,1.046,14.965,14.965,0,0,0-1.223,1.143A.692.692,0,0,1,218.38,75.548Z" transform="translate(-92.777 -37.307)" fill="#847363"/>
        <g id="Group_1626" data-name="Group 1626" transform="translate(100.157 47.528)">
          <g id="Group_1625" data-name="Group 1625">
            <ellipse id="Ellipse_124" data-name="Ellipse 124" cx="2.269" cy="2.269" rx="2.269" ry="2.269" fill="#83909a"/>
            <ellipse id="Ellipse_125" data-name="Ellipse 125" cx="2.269" cy="2.269" rx="2.269" ry="2.269" transform="translate(26.073 2.269)" fill="#83909a"/>
          </g>
        </g>
        <g id="Group_1629" data-name="Group 1629" transform="translate(82.805 37.098)">
          <g id="Group_1628" data-name="Group 1628">
            <g id="Group_1627" data-name="Group 1627" transform="translate(0.683 0.541)">
              <path id="Path_2744" data-name="Path 2744" d="M193.029,80.851s-1.835,8.4,0,11.637c1.835,3.332,6.567,9.367,12.683,6.9,6.132-2.446,14.437-11.459,14.437-11.459s5.07-6.9-1.577-10.59c-6.744-3.67-15.66-4.378-18.557-3.493C197.052,74.816,193.64,77.52,193.029,80.851Z" transform="translate(-192.213 -73.506)" fill="#a3a6ae" opacity="0.53"/>
              <path id="Path_2745" data-name="Path 2745" d="M243.473,83.92s.869,8.482-1.4,11.556c-2.269,2.978-7.613,8.482-13.391,5.424-5.778-3.155-13.037-13.037-13.037-13.037s-4.281-7.436,2.978-10.333c7.082-2.881,16.095-2.446,18.9-1.223C240.238,77.433,243.3,80.588,243.473,83.92Z" transform="translate(-178.697 -72.374)" fill="#a3a6ae" opacity="0.53"/>
            </g>
            <path id="Path_2746" data-name="Path 2746" d="M203.186,101h0c-5.6,0-9.448-6.036-10.494-7.87-1.931-3.493-.177-11.814-.08-12.168.531-3.589,4.281-6.47,7.436-7.436a12.522,12.522,0,0,1,3.412-.354,35.747,35.747,0,0,1,15.757,3.943,6.661,6.661,0,0,1,3.67,4.555c.789,3.589-1.754,7.082-1.835,7.178-.435.435-8.578,9.19-14.791,11.637A12.287,12.287,0,0,1,203.186,101Zm.338-26.508a11.872,11.872,0,0,0-2.978.354c-2.8.869-5.955,3.493-6.39,6.39-.531,2.269-1.481,8.659-.081,11.2.869,1.658,4.378,7.082,9.19,7.082h0a6.613,6.613,0,0,0,2.543-.531c5.858-2.366,14.083-11.2,14.26-11.282h0s2.189-3.058,1.577-5.955a5.667,5.667,0,0,0-2.978-3.589A35.6,35.6,0,0,0,203.524,74.49Z" transform="translate(-191.789 -73.17)" fill="#a3a6ae"/>
            <path id="Path_2747" data-name="Path 2747" d="M232.5,102.859a8.41,8.41,0,0,1-3.943-1.046C222.7,98.578,215.6,88.856,215.267,88.518c-.177-.177-2.269-4.024-.966-7.436a6.762,6.762,0,0,1,4.281-4.024,34.541,34.541,0,0,1,12.345-2.189,20.448,20.448,0,0,1,7.082.966c2.978,1.32,6.39,4.732,6.47,8.4,0,.354.869,8.836-1.577,11.991C241.871,97.773,237.751,102.859,232.5,102.859Zm-1.577-26.524a32.876,32.876,0,0,0-11.814,2.092,5.214,5.214,0,0,0-3.332,3.155c-.966,2.8.869,6.036.869,6.132,0,0,7.082,9.8,12.683,12.779a7.052,7.052,0,0,0,3.235.869c4.458,0,8.144-4.635,9.19-6.036,1.658-2.269,1.481-8.756,1.223-11.025-.177-2.978-2.978-5.955-5.6-7.082A17.534,17.534,0,0,0,230.927,76.335Z" transform="translate(-178.328 -72.134)" fill="#a3a6ae"/>
          </g>
          <path id="Path_2748" data-name="Path 2748" d="M223.609,78a84.155,84.155,0,0,1-19.249-2.72l.435-1.4c.177.08,15.4,4.2,25.816,2.092l.258,1.481A47.146,47.146,0,0,1,223.609,78Z" transform="translate(-184.128 -72.737)" fill="#a1a7ab"/>
          <path id="Path_2749" data-name="Path 2749" d="M216.908,82.06a5.84,5.84,0,0,0-6.036-.354l-.692-1.32a7.189,7.189,0,0,1,7.436.435Z" transform="translate(-180.581 -69.281)" fill="#a1a7ab"/>
        </g>
        <g id="Group_1630" data-name="Group 1630" transform="translate(118.263 54.336)">
          <path id="Path_2750" data-name="Path 2750" d="M213.82,83.88" transform="translate(-213.82 -83.88)" fill="none"/>
        </g>
        <path id="Path_2751" data-name="Path 2751" d="M212.423,93.661a3.369,3.369,0,0,0,1.481-.869l.177-.177.08-.08h0c0,.08.08-.08-.08.08h0l.08-.177V92.26c0-.177.08-.531.08-.869a16.9,16.9,0,0,0,.177-2.092c.08-2.978.08-5.858.08-5.858a.08.08,0,1,1,.161,0,56.422,56.422,0,0,1,.692,5.858,9.747,9.747,0,0,1,.08,2.269,1.224,1.224,0,0,1-.08.531,1.156,1.156,0,0,1-.177.531,3.874,3.874,0,0,0-.177.531c-.177.258-.258.258-.531.435a2.727,2.727,0,0,1-1.481.354,1.4,1.4,0,0,1-.531-.08c-.113-.048-.113-.048-.032-.209C212.342,93.741,212.342,93.661,212.423,93.661Z" transform="translate(-96.445 -29.861)" fill="#847363"/>
        <path id="Path_2752" data-name="Path 2752" d="M211.426,106.4l-5.166,27.747,9.882,6.116,3.235-10.413-1.738-24.062Z" transform="translate(-100.164 -16.191)" fill="#e3c1a8"/>
        <path id="Path_2753" data-name="Path 2753" d="M204.764,115.04l11.636,14.6-4.2,7.79L201.69,116.7Z" transform="translate(-102.95 -10.553)" fill="#dd620e"/>
        <path id="Path_2754" data-name="Path 2754" d="M222.357,115.04l-11.637,14.6,4.2,7.79,10.928-21.615Z" transform="translate(-97.446 -10.553)" fill="#dd620e"/>
        <path id="Path_2755" data-name="Path 2755" d="M212.907,132.379l-6.647,69.3,6.647,12.425,7.87-12.6-6.036-70Z" transform="translate(-100.164 -0.515)" fill="#fff"/>
        <path id="Path_2756" data-name="Path 2756" d="M212.244,124.11l-4.024,7.79,4.2,5.7,4.024-5.7Z" transform="translate(-98.97 -5.025)" fill="#fff"/>
        <path id="Path_2757" data-name="Path 2757" d="M192.355,215.61h78.317v21.342s.869,9.271-3.235,16.98c-2.623,4.893,1.143,231.169,1.143,231.169s11.991,12.506,16.706,14.083c4.732,1.577,9.882,9.882,0,8.836s-29.228-5.247-29.228-5.247L242.49,263.637l-17.237.885-6.744,224.6s4.2,12.506,1.046,14.083-22.4,7.79-27.12,7.259c-4.732-.531-10.944-4.732-3.155-9.367s19.249-13.568,19.249-13.568l-11.379-233s-2.623-3.943-3.332-17.157C193.224,226.812,192.355,215.61,192.355,215.61Z" transform="translate(-112.767 50.742)" fill="#2e546a"/>
        <g id="Group_1631" data-name="Group 1631" transform="translate(72.912 535.585)">
          <path id="Path_2758" data-name="Path 2758" d="M218.569,386.213s4.2,12.506,1.046,14.083-22.4,7.79-27.12,7.259c-4.732-.531-10.944-4.732-3.155-9.367,7.79-4.732,19.249-13.568,19.249-13.568" transform="translate(-185.642 -381.836)" fill="#174159"/>
          <path id="Path_2759" data-name="Path 2759" d="M242.3,383.067S254.288,395.573,259,397.15c4.732,1.577,9.882,9.882,0,8.836s-29.228-5.247-29.228-5.247l-.966-17.849" transform="translate(-159.332 -382.89)" fill="#174159"/>
        </g>
        <g id="Group_1632" data-name="Group 1632" transform="translate(76.964 114.112)">
          <path id="Path_2760" data-name="Path 2760" d="M198.734,270.991l7.1-1.062L195.322,121.02l-7.162,3.316Z" transform="translate(-188.16 -121.02)" fill="#e76c29"/>
          <rect id="Rectangle_179" data-name="Rectangle 179" width="7.178" height="3.332" transform="translate(10.494 148.909)" fill="#fff"/>
        </g>
        <g id="Group_1633" data-name="Group 1633" transform="translate(135.404 114.112)">
          <path id="Path_2761" data-name="Path 2761" d="M231.648,270.991l-7.178-1.062L234.964,121.02l7.1,3.316Z" transform="translate(-224.47 -121.02)" fill="#e76c29"/>
          <rect id="Rectangle_180" data-name="Rectangle 180" width="7.178" height="3.332" transform="translate(0 148.909)" fill="#fff"/>
        </g>
        <path id="Path_2762" data-name="Path 2762" d="M179.682,204.945a3.573,3.573,0,0,0,0,3.847c1.32,1.835,8.659,7.967,12.683,8.482,4.024.531,9.979.612,13.745-.692,3.766-1.32,4.732-1.481,5.166-1.32.531.177,2.269-.354,2.189-1.223-.177-.869.869-3.332-5.955-8.3-6.824-4.989-13.568-9.19-14.968-9.094-1.4.08-5.778-.177-7.79,1.658A63.782,63.782,0,0,0,179.682,204.945Z" transform="translate(-116.72 39.18)" fill="#e3c1a8"/>
        <g id="Group_1635" data-name="Group 1635" transform="translate(102.318 116.719)">
          <g id="Group_1634" data-name="Group 1634">
            <path id="Path_2763" data-name="Path 2763" d="M214.949,204.643l-.531-.354c-11.282-8.836-10.494-23.37-10.494-23.981l8.144-57.668,1.481.177-8.144,57.571c0,.08-.789,13.906,9.448,22.307,16.272-14,43.923-58.36,44.18-58.891l1.223.789c-.257.531-28.616,45.934-44.969,59.583Z" transform="translate(-203.913 -122.64)" fill="#264a60"/>
          </g>
        </g>
        <g id="Group_1637" data-name="Group 1637" transform="translate(98.021 115.496)">
          <g id="Group_1636" data-name="Group 1636" transform="translate(0 0)">
            <path id="Path_2764" data-name="Path 2764" d="M215.965,210.079l-.257-.08c-15.757-3.155-14.437-21.438-14.437-21.615l10.494-66.5,1.481.177-10.494,66.5c-.08.612-1.143,16.883,13.037,19.957,23.981-11.991,43.923-49.878,44.18-50.312l1.32.692c-.177.435-20.569,38.933-44.969,51.1Z" transform="translate(-201.243 -121.88)" fill="#264a60"/>
          </g>
        </g>
        <path id="Path_2765" data-name="Path 2765" d="M237.68,120.04" transform="translate(-81.015 -7.506)" fill="#e3c1a8"/>
        <g id="Group_1639" data-name="Group 1639" transform="translate(103.295 89.821)">
          <g id="Group_1638" data-name="Group 1638">
            <path id="Path_2766" data-name="Path 2766" d="M204.52,111.838c.177-.354,1.577-4.458,5.343-4.732,3.766-.258,12.506-1.835,14.26-.869,1.835.966,3.058,3.155,3.847,3.332" transform="translate(-204.52 -105.928)" fill="#e3c1a8"/>
          </g>
        </g>
        <path id="Path_2767" data-name="Path 2767" d="M261.368,126.494S271.6,131.66,273,135.764c.869,2.543,3.766,4.812-8.578,21s-30.886,49.169-45.323,53.29-19.957-19.249-17.849-36.744c2.012-17.592,9.979-52.244,9.979-52.244h6.824l-10.59,55.3s-2.366,21.342,8.482,26.782c6.132,3.058,46.466-62.818,46.466-62.818Z" transform="translate(-103.479 -6.878)" fill="#264a60"/>
        <path id="Path_2768" data-name="Path 2768" d="M208.481,133.149s-2.543-5.5-2.623-6.744c-.177-1.223-.869-2.8-1.32-4.635a44.865,44.865,0,0,1,.177-9.882c.177-.354,1.577-4.458,5.343-4.732,3.766-.258,12.506-1.835,14.26-.869s3.058,3.155,3.847,3.332,3.332-1.143,5.07-1.577c1.754-.531,5.778,2.269,2.092,5.247-3.67,2.978-6.132,4.378-7.082,6.036a134.847,134.847,0,0,1-7.79,11.2c-1.32,1.577-5.424,4.12-5.424,4.12Z" transform="translate(-101.339 -16.076)" fill="#e3c1a8"/>
      </g>
    </g>
    <ellipse id="Ellipse_106" data-name="Ellipse 106" cx="4.378" cy="4.378" rx="4.378" ry="4.378" transform="translate(424.3 5824.399)" fill="#e76c29" opacity="0.57"/>
    <ellipse id="Ellipse_108" data-name="Ellipse 108" cx="4.893" cy="4.893" rx="4.893" ry="4.893" transform="translate(390.437 5816.271)" fill="#264a60" opacity="0.57"/>
  </g>
</svg>
