<?xml version="1.0" encoding="utf-8"?>
<!-- Generator: Adobe Illustrator 24.1.0, SVG Export Plug-In . SVG Version: 6.00 Build 0)  -->
<svg version="1.1" id="Layer_1" xmlns="http://www.w3.org/2000/svg" xmlns:xlink="http://www.w3.org/1999/xlink" x="0px" y="0px"
	 viewBox="0 0 413 588" style="enable-background:new 0 0 413 588;" xml:space="preserve">
<style type="text/css">
	.st0{fill:none;}
	.st1{fill:#264A60;}
	.st2{fill:#E76C29;}
	.st3{fill:#D1D1D1;}
	.st4{fill:#174159;}
	.st5{fill:#686868;}
	.st6{fill:#E3C1A8;}
	.st7{opacity:0.1;fill:#382519;enable-background:new    ;}
	.st8{opacity:0.37;fill:#382519;enable-background:new    ;}
	.st9{fill:#83909A;}
	.st10{fill:#191919;}
	.st11{fill:#847363;}
	.st12{fill:#FFFFFF;}
</style>
<g id="Group_1779" transform="translate(-220.188 -1857)">
	<g id="Group_1460" transform="translate(-947.092 -132.5)">
		<g id="Rectangle_134" transform="translate(1443.871 2187.622)">
			<path class="st0" d="M3,0h84.9c1.7,0,3,1.3,3,3v263.6c0,1.7-1.3,3-3,3H3c-1.7,0-3-1.3-3-3V3C0,1.3,1.3,0,3,0z"/>
			<path class="st1" d="M87.9,269.6H3c-1.7,0-3-1.3-3-3V3c0-1.7,1.3-3,3-3h84.9c1.7,0,3,1.3,3,3v263.6
				C90.9,268.2,89.6,269.6,87.9,269.6z M5,264.6h80.9V5H5V264.6z M87.9,5L87.9,5L87.9,5z"/>
		</g>
		<g id="Rectangle_135" transform="translate(1317.203 2275.315)">
			<path class="st0" d="M3,0h78.4c1.7,0,3,1.3,3,3v175.9c0,1.7-1.3,3-3,3H3c-1.7,0-3-1.3-3-3V3C0,1.3,1.3,0,3,0z"/>
			<path class="st1" d="M81.4,181.9H3c-1.7,0-3-1.3-3-3V3c0-1.7,1.3-3,3-3h78.4c1.7,0,3,1.3,3,3v175.9
				C84.4,180.5,83.1,181.9,81.4,181.9z M5,176.9h74.4V5H5V176.9z M81.4,5L81.4,5L81.4,5z"/>
		</g>
		<g id="Rectangle_136" transform="translate(1187.287 2262.323)">
			<path class="st0" d="M3,0h84.9c1.7,0,3,1.3,3,3v188.9c0,1.7-1.3,3-3,3H3c-1.7,0-3-1.3-3-3V3C0,1.3,1.3,0,3,0z"/>
			<path class="st1" d="M87.9,194.9H3c-1.7,0-3-1.3-3-3V3c0-1.7,1.3-3,3-3h84.9c1.7,0,3,1.3,3,3v188.9
				C90.9,193.5,89.6,194.9,87.9,194.9z M5,189.9h80.9V5H5V189.9z M87.9,5L87.9,5L87.9,5z"/>
		</g>
		<path class="st1" d="M1170.7,2239.3c-0.8,0-1.6-0.4-2.1-1.2c-0.7-1.2-0.4-2.7,0.8-3.5l105.4-67c0.9-0.5,2-0.5,2.8,0.1l71.2,50.7
			l85-95.6c0.9-1,2.5-1.1,3.5-0.2c1,0.9,1.1,2.5,0.2,3.5l-86.4,97.3c-0.8,1-2.3,1.1-3.3,0.4l-71.6-51l-103.9,66.1
			C1171.7,2239.1,1171.2,2239.3,1170.7,2239.3z"/>
		<g id="Ellipse_84" transform="translate(1421.136 1989.5)">
			<ellipse class="st0" cx="79.6" cy="77.9" rx="79.6" ry="77.9"/>
			<path class="st1" d="M79.6,155.9C35.7,155.9,0,120.9,0,78C0,35,35.7,0,79.6,0s79.6,35,79.6,78
				C159.1,120.9,123.5,155.9,79.6,155.9z M79.6,4C37.9,4,4,37.2,4,78c0,40.8,33.9,73.9,75.6,73.9c41.7,0,75.6-33.2,75.6-73.9
				C155.1,37.2,121.2,4,79.6,4z"/>
		</g>
		<g id="Group_1458" transform="translate(1452.088 2027.796)">
			<path class="st2" d="M48,78.6C48,78.6,48,78.6,48,78.6c-0.4,0-0.8-0.2-1.1-0.5l-48-51.8c-0.5-0.5-0.5-1.2-0.2-1.8L14.5-0.8
				c0.3-0.4,0.8-0.7,1.3-0.7h64.8c0.5,0,1,0.2,1.2,0.7l17,25.3c0.4,0.6,0.3,1.4-0.2,1.9L49.1,78.2C48.8,78.5,48.4,78.6,48,78.6z
				 M1.9,25.1L48,75l47.7-49.8L79.8,1.5H16.6L1.9,25.1z"/>
			<path class="st2" d="M97.4,26.8H0c-0.8,0-1.5-0.7-1.5-1.5s0.7-1.5,1.5-1.5h97.4c0.8,0,1.5,0.7,1.5,1.5S98.2,26.8,97.4,26.8z"/>
			<path class="st2" d="M47.8,78.7C47.7,78.7,47.7,78.7,47.8,78.7c-0.7,0-1.2-0.4-1.4-1.1L30.4,26c-0.1-0.4-0.1-0.9,0.2-1.3
				L47.5-0.6c0.3-0.4,0.8-0.7,1.3-0.7c0.5,0,1,0.3,1.2,0.7l16.3,25.3c0.2,0.4,0.3,0.9,0.2,1.3L49.2,77.7
				C49,78.3,48.4,78.7,47.8,78.7z M33.5,25.8l14.3,46.5l15.6-46.5L48.7,3L33.5,25.8z"/>
			<path class="st2" d="M31.9,26.5c-0.5,0-1-0.2-1.3-0.7L14.5,1C14,0.3,14.2-0.6,14.9-1c0.7-0.4,1.6-0.3,2.1,0.4l16.1,24.7
				c0.5,0.7,0.3,1.6-0.4,2.1C32.4,26.4,32.1,26.5,31.9,26.5z"/>
			<path class="st2" d="M64.8,26.9c-0.3,0-0.6-0.1-0.8-0.2c-0.7-0.4-0.9-1.4-0.5-2.1L79.5-0.6c0.4-0.7,1.4-0.9,2.1-0.5
				C82.2-0.6,82.5,0.3,82,1L66.1,26.2C65.8,26.6,65.3,26.9,64.8,26.9z"/>
		</g>
	</g>
	<g id="Group_1553" transform="translate(252.765 1896.678)">
		<path id="Path_2646" class="st3" d="M21.8,290.1l8.2-3c0,0-18-43.7-19-74s15.1-71,15.1-71l9.9,113.4l77.7,1.7l-1.5-134.5
			c0,0,51.5,34.6,54.1,58.8s-46.7,58.4-46.7,58.4l4.8,6.5c0,0,51.4-33.5,51.3-63.7c-2.6-35.6-43.1-67.1-56.9-74.7
			c-4.8-5-16-2.6-16-2.6L81.1,94.7l-13.5-1.1l-9.4,1.7c0,0-27.2,12.8-32.4,15.6s-8.7,10.8-8.7,10.8s-19,52.8-16.9,86.5
			S21.8,290.1,21.8,290.1z"/>
		<path id="Path_2647" class="st4" d="M36,254.3h78.1v21.2c0,0,0.9,9.3-3.2,16.9c-2.6,4.9,1.1,230.4,1.1,230.4s11.9,12.5,16.6,14
			c4.7,1.6,9.9,9.9,0,8.8s-29.1-5.2-29.1-5.2L86,302.2l-17.1,0.9L62.2,527c0,0,4.2,12.5,1,14s-22.3,7.8-27,7.3s-10.9-4.7-3.1-9.3
			s19.2-13.5,19.2-13.5L40.8,293.2c0,0-2.6-3.9-3.4-17.1C36.8,265.5,36,254.3,36,254.3z"/>
		<g id="Group_1546" transform="translate(29.367 522.718)">
			<path id="Path_2648" class="st5" d="M32.8,4.3c0,0,4.2,12.5,1,14s-22.3,7.8-27,7.3s-10.9-4.7-3.1-9.3S22.9,2.7,22.9,2.7"/>
			<path id="Path_2649" class="st5" d="M82.6,0.1c0,0,11.9,12.5,16.6,14s9.9,9.9,0,8.8s-29.1-5.2-29.1-5.2L69.2,0"/>
		</g>
		<path id="Path_2650" class="st6" d="M21,290.9c-0.7,1.2-0.7,2.7,0,3.9c1.3,1.8,8.7,7.9,12.6,8.4s10,0.6,13.7-0.7s4.7-1.4,5.2-1.3
			s2.3-0.4,2.2-1.2s0.8-3.4-5.9-8.3s-13.5-9.1-14.9-9s-5.8-0.1-7.7,1.7C24.3,286.4,22.5,288.6,21,290.9z"/>
		<path id="Path_2651" class="st6" d="M112.8,101.2"/>
		<g id="Group_1550" transform="translate(32.898)">
			<path id="Path_2652" class="st6" d="M33.9,74.5l-5.8,31.4l11.2,6.9l3.7-11.8l-2-27.2L33.9,74.5z"/>
			<g id="Group_1549">
				<path id="Path_2653" class="st6" d="M6.6,55.1C5.6,54,0,51.2,0,41.7c0-5.4,4.5-3.9,4.7-4.4v-3.5c0,0,2.3-15.6,5.1-19.4
					S17.9,0,37.2,0h0.1C56.7,0,61,10.6,63.7,14.4s5.1,19.4,5.1,19.4v3.5c0.3,0.5,4.7-1,4.7,4.4c0,9.5-5.6,12.3-6.6,13.4
					s-4.2,28-29.6,28S7.7,56.2,6.6,55.1z"/>
				<path id="Path_2654" class="st7" d="M5.3,45.9C3.8,30.6,7.8,1.7,36.7,1c29.2-0.7,32.4,29.3,31.8,44.9l0.3-0.1
					c0.3-2.8,0.3-5.6,0-8.4v-3.5c0,0-2.3-15.6-5.1-19.4S56.6,0.1,37.2,0.1h-0.1c-19.3,0-24.6,10.6-27.4,14.4S4.6,33.9,4.6,33.9v3.5
					c-0.1,2.8,0,5.6,0.3,8.4"/>
				<path id="Path_2655" class="st8" d="M68.6,45.8c-0.4,3.6-1,8.6-1.7,9.3c-1,1.1-4.2,28-29.6,28S7.7,56.2,6.6,55.1
					c-0.6-0.7-1.3-5.6-1.7-9.3l15.6,6.7c5.6-0.8,11.3-1.2,17-1.2c9.9,0,17.7,0.8,17.7,0.8L68.6,45.8z"/>
				<g id="Group_1548" transform="translate(20.507 33.581)">
					<g id="Group_1547">
						<circle id="Ellipse_97" class="st9" cx="2.4" cy="2.4" r="2.4"/>
						<circle id="Ellipse_98" class="st9" cx="29.4" cy="2.4" r="2.4"/>
					</g>
				</g>
				<path id="Path_2656" class="st6" d="M73.9,45.8"/>
				<path id="Path_2657" class="st10" d="M66.1,29.2c0-0.3-0.2-0.5-0.5-0.6c-4-0.9-8.1-1.4-12.1-1.4c-3.6,0-7.3,0.3-10.9,0.9
					c-1.5,0.3-3,0.5-4.5,0.6c0,0-0.1,0-0.1,0c-0.3,0-0.5,0-0.7,0H36c0,0-0.1,0-0.1,0c-1.5,0-3-0.2-4.5-0.6c-3.6-0.6-7.2-1-10.9-0.9
					c-4.1-0.1-8.2,0.4-12.1,1.4c-0.3,0.1-0.5,0.3-0.5,0.6c-0.1,1-0.1,2.8,0.3,3.4c0.1,0.2,0.3,0.4,0.6,0.6c0.1,0.1,0.2,0.2,0.2,0.3
					c0,0.1,0,0.3,0.1,0.7c0.2,2-0.3,9.3,5.7,10.9c2.1,0.5,4.2,0.8,6.4,0.7c2.3,0.1,4.6-0.1,6.8-0.7c3.5-1.5,6.1-4.7,6.9-8.4
					c0.1-1,0.2-1.9,0.5-2.9c0-0.1,0.1-0.2,0.1-0.3c0-0.1,0.1-0.2,0.1-0.3c0.5-0.2,1-0.4,1.5-0.4h0.2c0.5,0,1,0.1,1.5,0.4
					c0,0.1,0.1,0.2,0.1,0.3c0,0.1,0.1,0.2,0.1,0.3c0.2,0.9,0.4,1.9,0.5,2.9c0.8,3.8,3.4,6.9,6.9,8.4c2.2,0.6,4.5,0.8,6.8,0.7
					c2.1,0,4.3-0.2,6.4-0.7c6-1.6,5.4-8.9,5.7-10.9c0-0.3,0.1-0.5,0.1-0.7c0-0.1,0.1-0.2,0.2-0.3c0.2-0.2,0.4-0.4,0.6-0.6
					C66.2,32,66.1,30.2,66.1,29.2z M34,33.3C33.9,33.4,33.9,33.4,34,33.3c-0.3,1.1-0.4,2.1-0.5,3.1c-0.7,3.3-2.9,6-6,7.4
					c-2.1,0.6-4.3,0.8-6.4,0.7c-2,0.1-4-0.2-6-0.7c-4.6-1.1-4.6-8-4.8-9.8c0-0.3-0.1-0.5-0.1-0.7c-0.1-0.9-0.2-3.3,1-3.9
					c3.1-0.5,6.2-0.8,9.3-0.8c3.5,0,7.1,0.3,10.6,0.9c0.6,0.1,1.2,0.2,1.7,0.3c0,0,0,0,0,0C34.3,30.4,34.1,32.6,34,33.3L34,33.3z
					 M63.7,33.3c0,0.2-0.1,0.4-0.1,0.7c-0.2,1.8-0.2,8.7-4.8,9.8c-2,0.5-4,0.7-6,0.7c-3.9,0-5.4-0.3-6.4-0.7c-3-1.4-5.3-4.1-6-7.4
					c-0.1-1-0.3-2-0.5-3c0,0,0-0.1,0-0.1c-0.1-0.7-0.3-2.9,1.1-3.5c0,0,0,0,0,0c0.5-0.1,1.1-0.2,1.7-0.3c3.5-0.6,7-0.9,10.6-0.9
					c3.1,0,6.2,0.2,9.3,0.8C63.9,30,63.8,32.4,63.7,33.3L63.7,33.3z"/>
				<path id="Path_2658" class="st11" d="M36.6,48.9c0,0,0.2-0.1,0.7-0.2c0.5-0.2,1.1-0.5,1.5-0.8c0.3-0.2,0.5-0.5,0.7-0.8
					c0.2-0.4,0.3-0.8,0.3-1.2c0.1-0.9,0.1-1.9,0-2.8c-0.3-1.8-0.7-3.5-1.4-5.3c-0.5-1.4-0.9-2.3-0.9-2.3c0,0,0,0,0-0.1c0,0,0,0,0,0
					c0,0,0.5,0.9,1,2.3c0.7,1.7,1.3,3.4,1.7,5.2c0.2,1,0.3,2,0.2,3c-0.1,0.5-0.2,1-0.5,1.4c-0.2,0.4-0.6,0.7-0.9,0.9
					c-0.3,0.2-0.6,0.3-1,0.4c-0.3,0.1-0.5,0.1-0.8,0.1C37.1,49,36.8,49,36.6,48.9C36.6,49,36.6,49,36.6,48.9
					C36.6,48.9,36.6,48.9,36.6,48.9z"/>
				<path id="Path_2659" class="st12" d="M23.5,58.7H50c0,0-0.7,5.8-13.5,5.8S23.5,58.7,23.5,58.7z"/>
				<circle id="Ellipse_99" class="st10" cx="4.2" cy="50.4" r="0.7"/>
				<circle id="Ellipse_100" class="st10" cx="69.7" cy="50.4" r="0.7"/>
			</g>
		</g>
		<path id="Path_2660" class="st1" d="M58.4,95.2l11.5,14.4l-4.3,7.8L55.1,96.7L58.4,95.2z"/>
		<path id="Path_2661" class="st1" d="M81.3,94.5l-11.8,14.8l4.3,7.8l10.7-21.1L81.3,94.5z"/>
		<path id="Path_2662" class="st12" d="M69.5,109.1l-3.9,8.3l4,3.9l4.1-4.2L69.5,109.1z"/>
		<g id="Group_1551" transform="translate(34.532 102.949)">
			<path id="Path_2663" class="st2" d="M10.2,149.3l6.9-1.1L6.9,0L0,3.2L10.2,149.3z"/>
			<rect id="Rectangle_169" x="10.1" y="148.2" class="st12" width="6.9" height="3.4"/>
		</g>
		<g id="Group_1552" transform="translate(90.973 102.139)">
			<path id="Path_2664" class="st2" d="M6.9,150.1L0,149L4.9,0l6.9,3.2L6.9,150.1z"/>
			<rect id="Rectangle_170" x="0" y="149" class="st12" width="6.9" height="3.4"/>
		</g>
		<path id="Path_2665" class="st6" d="M125.4,245.6c0.7,1.2,0.7,2.7,0,3.9c-1.3,1.8-8.7,7.9-12.6,8.4s-10,0.6-13.7-0.7
			s-4.7-1.4-5.2-1.3s-2.3-0.4-2.2-1.2s-0.8-3.4,5.9-8.3s13.5-9.1,14.9-9s5.8-0.1,7.7,1.7C122.1,241.1,123.8,243.3,125.4,245.6z"/>
	</g>
</g>
</svg>
