<svg xmlns="http://www.w3.org/2000/svg" width="54.352" height="67.427" viewBox="0 0 54.352 67.427">
  <g id="Group_1522" data-name="Group 1522" transform="translate(0.004)">
    <path id="Path_2622" data-name="Path 2622" d="M47.123,6.861h0a.821.821,0,0,0,0-1.641H4.661a.821.821,0,1,0,0,1.641H47.123Z" transform="translate(2.465 3.348)" fill="#264a60"/>
    <path id="Path_2623" data-name="Path 2623" d="M11.767,39.079l.9-.082c.066,0,6.877-.624,11.145,2.757l.509.41.509-.41c3.906-3.184,11.178-2.61,11.243-2.61l.886.082v-8.4l7.189-3.43L24.34,17.79,4.43,27.54l7.337,3.283Zm20.3-15.757,8.322,4.038-4.136,1.97A19.621,19.621,0,0,0,32.054,27V23.321Zm0,9.224V28.722a16.924,16.924,0,0,1,3.266,1.953v6.779c-2.1-.066-7.4.066-11.014,2.626-3.447-2.413-7.911-2.774-10.259-2.774-.246,0-.476,0-.657.016V30.74c7.4-4.973,13.82-3.972,17.842-2.347v4.169a1.6,1.6,0,0,0-1.215,1.543,1.625,1.625,0,1,0,2.035-1.559ZM8.3,27.474l16.069-7.862,6.861,3.332v3.742c-4.432-1.625-11.178-2.38-18.728,2.675Z" transform="translate(2.844 11.41)" fill="#e76c29"/>
    <path id="Path_2624" data-name="Path 2624" d="M53.527,0H10.343a10.368,10.368,0,0,0-7.8,3.037A9.731,9.731,0,0,0,0,9.766V55.889c0,.23-.279,5.63,2.889,8.978a8.54,8.54,0,0,0,6.467,2.561H52.822V18.58H10.343a8.463,8.463,0,0,1-8.7-8.4v-.8a7.952,7.952,0,0,1,2.1-5.2,8.716,8.716,0,0,1,6.6-2.528H53.527a.813.813,0,0,0,.821-.821A.813.813,0,0,0,53.527,0ZM10.343,20.222H51.164V65.786H9.358a6.96,6.96,0,0,1-5.269-2.035c-2.675-2.823-2.446-7.714-2.446-7.8V15.544A9.921,9.921,0,0,0,10.343,20.222Z" transform="translate(0)" fill="#264a60"/>
  </g>
</svg>
