<svg xmlns="http://www.w3.org/2000/svg" width="69.78" height="72.424" viewBox="0 0 69.78 72.424">
  <g id="Group_1685" data-name="Group 1685" transform="translate(0 -0.002)">
    <path id="Path_2625_3_" d="M66.052,13.344H43.889V10.759H53.913V8.5a4.286,4.286,0,1,0-1.566,0v.7H42.322V13.36H36.355V8.5a4.286,4.286,0,1,0-1.566,0v4.84H29.416V9.193H19.391V8.5a4.276,4.276,0,1,0-1.551,0v2.271H27.865V13.36H3.728A3.717,3.717,0,0,0,0,17.04V55.353a3.737,3.737,0,0,0,3.728,3.728H27.113c.031,1.942-.376,7.283-5.576,8.584H14.363a2.381,2.381,0,0,0,0,4.762H55.433a2.381,2.381,0,0,0,0-4.762H48.243c-5.169-1.284-5.592-6.641-5.576-8.584H66.052a3.737,3.737,0,0,0,3.728-3.728V17.072a3.737,3.737,0,0,0-3.728-3.728ZM50.4,4.29A2.725,2.725,0,1,1,53.13,7.016,2.727,2.727,0,0,1,50.4,4.29Zm-17.543,0a2.725,2.725,0,1,1,2.725,2.725h0A2.717,2.717,0,0,1,32.862,4.29ZM15.9,4.29a2.725,2.725,0,1,1,2.725,2.725h0A2.717,2.717,0,0,1,15.9,4.29ZM42.322,14.91v1.175H36.355V14.91Zm1.566,2.741H62.857a2.166,2.166,0,0,1,2.162,2.162V52.6a2.166,2.166,0,0,1-2.162,2.162H6.923A2.166,2.166,0,0,1,4.762,52.6V19.813a2.166,2.166,0,0,1,2.162-2.162H34.8l1.551.016h5.968ZM34.8,14.91v1.175H29.431V14.91ZM56.247,70.045a.816.816,0,0,1-.8.814H14.363a.814.814,0,1,1,0-1.629H55.433A.829.829,0,0,1,56.247,70.045Zm-11.56-2.381H25.093c3.18-2.475,3.571-6.767,3.571-8.584H41.116C41.116,60.9,41.508,65.174,44.688,67.664ZM68.214,55.353a2.166,2.166,0,0,1-2.162,2.162H3.728a2.156,2.156,0,0,1-2.162-2.162V17.072A2.166,2.166,0,0,1,3.728,14.91H27.865v1.175H6.923A3.737,3.737,0,0,0,3.2,19.813V52.6a3.737,3.737,0,0,0,3.728,3.728h55.95A3.737,3.737,0,0,0,66.6,52.6V19.813a3.737,3.737,0,0,0-3.728-3.728H43.889V14.91H66.052a2.166,2.166,0,0,1,2.162,2.162Z" transform="translate(0 0)" fill="#274b60"/>
    <path id="Path_2625_2_" d="M16.416,24.271l9.805,5.044V44.053l-9.805-6.3Zm11.372,5.044,9.805-5.185V37.976l-9.805,6.109Zm-.8-1.363-9.837-5.059,9.868-5.216,9.664,5.138Zm-.6-16.681v4.981l-5.373,2.835V11.27H19.455v8.646L14.85,22.344V38.618l12.139,7.8,12.155-7.581V22.344l-3.7-1.958h.031V11.27l-1.566.016v8.286l-5.968-3.164V11.286Z" transform="translate(8.41 6.381)" fill="#e76c29"/>
  </g>
</svg>
