<svg xmlns="http://www.w3.org/2000/svg" width="44.55" height="46.24" viewBox="0 0 44.55 46.24">
  <path id="Path_2625" data-name="Path 2625" d="M42.17,8.52H28.02V6.87h6.4V5.43a2.74,2.74,0,1,0-1,0v.45h-6.4V8.53H23.21V5.43a2.74,2.74,0,1,0-1,0V8.52H18.78V5.87h-6.4V5.43a2.735,2.735,0,1,0-.99,0V6.88h6.4V8.53H2.38A2.364,2.364,0,0,0,0,10.9V35.34a2.386,2.386,0,0,0,2.38,2.38H17.31c.02,1.24-.24,4.65-3.56,5.48H9.17a1.52,1.52,0,0,0,0,3.04H35.39a1.52,1.52,0,0,0,0-3.04H30.8c-3.3-.82-3.57-4.24-3.56-5.48H42.17a2.386,2.386,0,0,0,2.38-2.38V10.9A2.379,2.379,0,0,0,42.17,8.52ZM32.18,2.74a1.74,1.74,0,1,1,1.74,1.74A1.741,1.741,0,0,1,32.18,2.74Zm-11.2,0a1.74,1.74,0,1,1,1.74,1.74A1.741,1.741,0,0,1,20.98,2.74Zm-10.83,0a1.74,1.74,0,1,1,1.74,1.74A1.741,1.741,0,0,1,10.15,2.74ZM27.02,9.52v.75H23.21V9.52ZM15.85,19.57l6.26,3.22V32.2l-6.26-4.02Zm7.26,3.22,6.26-3.31v8.84l-6.26,3.9Zm-.51-.87-6.28-3.23,6.3-3.33,6.17,3.28Zm-.38-7.47-3.43,1.81V11.27h3.43Zm-4.43,2.34-2.94,1.55V28.73l7.75,4.98,7.76-4.84V18.34L28,17.09h.02V11.27H40.13a1.383,1.383,0,0,1,1.38,1.38V33.58a1.383,1.383,0,0,1-1.38,1.38H4.42a1.383,1.383,0,0,1-1.38-1.38V12.65a1.383,1.383,0,0,1,1.38-1.38H17.79Zm9.23-.22-3.81-2.02V11.28h3.81Zm-4.8-7.05v.75H18.79V9.52Zm13.69,35.2a.516.516,0,0,1-.52.52H9.17a.52.52,0,0,1,0-1.04H35.39A.523.523,0,0,1,35.91,44.72ZM28.53,43.2H16.02c2.03-1.58,2.28-4.32,2.28-5.48h7.95C26.25,38.88,26.5,41.61,28.53,43.2Zm15.02-7.86a1.383,1.383,0,0,1-1.38,1.38H2.38A1.383,1.383,0,0,1,1,35.34V10.9A1.383,1.383,0,0,1,2.38,9.52H17.79v.75H4.42a2.386,2.386,0,0,0-2.38,2.38V33.58a2.386,2.386,0,0,0,2.38,2.38H40.14a2.386,2.386,0,0,0,2.38-2.38V12.65a2.386,2.386,0,0,0-2.38-2.38H28.02V9.52H42.17a1.383,1.383,0,0,1,1.38,1.38Z" fill="#274b60"/>
</svg>
